G04 EAGLE Gerber RS-274X export*
G75*
%MOMM*%
%FSLAX34Y34*%
%LPD*%
%INSolder stop bottom*%
%IPPOS*%
%AMOC8*
5,1,8,0,0,1.08239X$1,22.5*%
G01*
%ADD10C,0.000000*%
%ADD11C,0.203200*%
%ADD12C,6.203200*%
%ADD13C,1.459725*%
%ADD14C,0.177800*%
%ADD15C,0.152400*%
%ADD16C,0.127000*%


D10*
X0Y0D02*
X540000Y0D01*
X530000Y200000D02*
X10000Y200000D01*
X9758Y199997D01*
X9517Y199988D01*
X9276Y199974D01*
X9035Y199953D01*
X8795Y199927D01*
X8555Y199895D01*
X8316Y199857D01*
X8079Y199814D01*
X7842Y199764D01*
X7607Y199709D01*
X7373Y199649D01*
X7141Y199582D01*
X6910Y199511D01*
X6681Y199433D01*
X6454Y199350D01*
X6229Y199262D01*
X6006Y199168D01*
X5786Y199069D01*
X5568Y198964D01*
X5353Y198855D01*
X5140Y198740D01*
X4930Y198620D01*
X4724Y198495D01*
X4520Y198365D01*
X4319Y198230D01*
X4122Y198090D01*
X3928Y197946D01*
X3738Y197797D01*
X3552Y197643D01*
X3369Y197485D01*
X3190Y197323D01*
X3015Y197156D01*
X2844Y196985D01*
X2677Y196810D01*
X2515Y196631D01*
X2357Y196448D01*
X2203Y196262D01*
X2054Y196072D01*
X1910Y195878D01*
X1770Y195681D01*
X1635Y195480D01*
X1505Y195276D01*
X1380Y195070D01*
X1260Y194860D01*
X1145Y194647D01*
X1036Y194432D01*
X931Y194214D01*
X832Y193994D01*
X738Y193771D01*
X650Y193546D01*
X567Y193319D01*
X489Y193090D01*
X418Y192859D01*
X351Y192627D01*
X291Y192393D01*
X236Y192158D01*
X186Y191921D01*
X143Y191684D01*
X105Y191445D01*
X73Y191205D01*
X47Y190965D01*
X26Y190724D01*
X12Y190483D01*
X3Y190242D01*
X0Y190000D01*
X0Y0D01*
X540000Y0D02*
X540000Y110000D01*
X540000Y130000D02*
X540000Y190000D01*
X539997Y190242D01*
X539988Y190483D01*
X539974Y190724D01*
X539953Y190965D01*
X539927Y191205D01*
X539895Y191445D01*
X539857Y191684D01*
X539814Y191921D01*
X539764Y192158D01*
X539709Y192393D01*
X539649Y192627D01*
X539582Y192859D01*
X539511Y193090D01*
X539433Y193319D01*
X539350Y193546D01*
X539262Y193771D01*
X539168Y193994D01*
X539069Y194214D01*
X538964Y194432D01*
X538855Y194647D01*
X538740Y194860D01*
X538620Y195070D01*
X538495Y195276D01*
X538365Y195480D01*
X538230Y195681D01*
X538090Y195878D01*
X537946Y196072D01*
X537797Y196262D01*
X537643Y196448D01*
X537485Y196631D01*
X537323Y196810D01*
X537156Y196985D01*
X536985Y197156D01*
X536810Y197323D01*
X536631Y197485D01*
X536448Y197643D01*
X536262Y197797D01*
X536072Y197946D01*
X535878Y198090D01*
X535681Y198230D01*
X535480Y198365D01*
X535276Y198495D01*
X535070Y198620D01*
X534860Y198740D01*
X534647Y198855D01*
X534432Y198964D01*
X534214Y199069D01*
X533994Y199168D01*
X533771Y199262D01*
X533546Y199350D01*
X533319Y199433D01*
X533090Y199511D01*
X532859Y199582D01*
X532627Y199649D01*
X532393Y199709D01*
X532158Y199764D01*
X531921Y199814D01*
X531684Y199857D01*
X531445Y199895D01*
X531205Y199927D01*
X530965Y199953D01*
X530724Y199974D01*
X530483Y199988D01*
X530242Y199997D01*
X530000Y200000D01*
D11*
X45173Y412186D02*
X45171Y412069D01*
X45165Y411952D01*
X45155Y411836D01*
X45142Y411719D01*
X45124Y411604D01*
X45103Y411489D01*
X45078Y411375D01*
X45049Y411261D01*
X45016Y411149D01*
X44979Y411038D01*
X44939Y410928D01*
X44895Y410820D01*
X44848Y410713D01*
X44797Y410607D01*
X44742Y410504D01*
X44684Y410402D01*
X44623Y410303D01*
X44559Y410205D01*
X44491Y410110D01*
X44420Y410017D01*
X44346Y409926D01*
X44269Y409838D01*
X44189Y409753D01*
X44106Y409670D01*
X44021Y409590D01*
X43933Y409513D01*
X43842Y409439D01*
X43749Y409368D01*
X43654Y409300D01*
X43556Y409236D01*
X43457Y409175D01*
X43355Y409117D01*
X43252Y409062D01*
X43146Y409011D01*
X43039Y408964D01*
X42931Y408920D01*
X42821Y408880D01*
X42710Y408843D01*
X42598Y408810D01*
X42484Y408781D01*
X42370Y408756D01*
X42255Y408735D01*
X42139Y408717D01*
X42023Y408704D01*
X41907Y408694D01*
X41790Y408688D01*
X41673Y408686D01*
X41496Y408688D01*
X41319Y408694D01*
X41143Y408705D01*
X40966Y408720D01*
X40791Y408739D01*
X40615Y408762D01*
X40441Y408789D01*
X40266Y408821D01*
X40093Y408857D01*
X39921Y408897D01*
X39750Y408941D01*
X39579Y408989D01*
X39410Y409041D01*
X39243Y409097D01*
X39076Y409157D01*
X38911Y409221D01*
X38748Y409289D01*
X38586Y409361D01*
X38427Y409437D01*
X38269Y409516D01*
X38113Y409600D01*
X37959Y409687D01*
X37807Y409777D01*
X37657Y409872D01*
X37510Y409970D01*
X37365Y410071D01*
X37222Y410176D01*
X37082Y410284D01*
X36945Y410395D01*
X36810Y410510D01*
X36679Y410628D01*
X36550Y410749D01*
X36424Y410873D01*
X36861Y420934D02*
X36863Y421051D01*
X36869Y421168D01*
X36879Y421284D01*
X36892Y421401D01*
X36910Y421516D01*
X36931Y421631D01*
X36956Y421745D01*
X36985Y421859D01*
X37018Y421971D01*
X37055Y422082D01*
X37095Y422192D01*
X37139Y422300D01*
X37186Y422407D01*
X37237Y422513D01*
X37292Y422616D01*
X37350Y422718D01*
X37411Y422817D01*
X37475Y422915D01*
X37543Y423010D01*
X37614Y423103D01*
X37688Y423194D01*
X37765Y423282D01*
X37845Y423367D01*
X37928Y423450D01*
X38013Y423530D01*
X38101Y423607D01*
X38192Y423681D01*
X38285Y423752D01*
X38380Y423820D01*
X38478Y423884D01*
X38577Y423945D01*
X38679Y424003D01*
X38782Y424058D01*
X38888Y424109D01*
X38995Y424156D01*
X39103Y424200D01*
X39213Y424240D01*
X39324Y424277D01*
X39436Y424310D01*
X39550Y424339D01*
X39664Y424364D01*
X39779Y424385D01*
X39894Y424403D01*
X40011Y424416D01*
X40127Y424426D01*
X40244Y424432D01*
X40361Y424434D01*
X40517Y424432D01*
X40674Y424427D01*
X40830Y424417D01*
X40986Y424404D01*
X41141Y424387D01*
X41296Y424367D01*
X41451Y424343D01*
X41605Y424315D01*
X41758Y424284D01*
X41910Y424249D01*
X42062Y424210D01*
X42212Y424167D01*
X42362Y424122D01*
X42510Y424072D01*
X42657Y424019D01*
X42803Y423963D01*
X42948Y423903D01*
X43091Y423839D01*
X43232Y423773D01*
X43372Y423703D01*
X43510Y423629D01*
X43646Y423552D01*
X43781Y423473D01*
X43913Y423389D01*
X44044Y423303D01*
X44172Y423214D01*
X44298Y423122D01*
X38612Y417872D02*
X38513Y417932D01*
X38417Y417996D01*
X38323Y418062D01*
X38231Y418131D01*
X38141Y418204D01*
X38053Y418279D01*
X37969Y418357D01*
X37886Y418438D01*
X37807Y418521D01*
X37730Y418607D01*
X37656Y418695D01*
X37584Y418786D01*
X37516Y418879D01*
X37451Y418974D01*
X37389Y419072D01*
X37330Y419171D01*
X37275Y419272D01*
X37222Y419375D01*
X37174Y419479D01*
X37128Y419585D01*
X37086Y419692D01*
X37047Y419801D01*
X37012Y419911D01*
X36981Y420022D01*
X36953Y420134D01*
X36929Y420246D01*
X36909Y420360D01*
X36892Y420474D01*
X36879Y420589D01*
X36869Y420704D01*
X36864Y420819D01*
X36862Y420934D01*
X43423Y415248D02*
X43522Y415188D01*
X43618Y415124D01*
X43712Y415058D01*
X43804Y414989D01*
X43894Y414916D01*
X43982Y414841D01*
X44066Y414763D01*
X44149Y414682D01*
X44228Y414599D01*
X44305Y414513D01*
X44379Y414425D01*
X44451Y414334D01*
X44519Y414241D01*
X44584Y414146D01*
X44646Y414048D01*
X44705Y413949D01*
X44760Y413848D01*
X44813Y413745D01*
X44862Y413641D01*
X44907Y413535D01*
X44949Y413428D01*
X44988Y413319D01*
X45023Y413209D01*
X45054Y413098D01*
X45082Y412986D01*
X45106Y412874D01*
X45126Y412760D01*
X45143Y412646D01*
X45156Y412531D01*
X45166Y412416D01*
X45171Y412301D01*
X45173Y412186D01*
X43423Y415248D02*
X38611Y417872D01*
X50846Y419185D02*
X54345Y408686D01*
X57845Y419185D01*
X66497Y408686D02*
X70871Y408686D01*
X66497Y408686D02*
X66396Y408688D01*
X66296Y408694D01*
X66196Y408703D01*
X66096Y408717D01*
X65997Y408734D01*
X65899Y408755D01*
X65801Y408780D01*
X65705Y408808D01*
X65610Y408841D01*
X65516Y408876D01*
X65423Y408916D01*
X65332Y408959D01*
X65243Y409005D01*
X65156Y409055D01*
X65070Y409108D01*
X64987Y409164D01*
X64906Y409223D01*
X64827Y409286D01*
X64751Y409351D01*
X64677Y409420D01*
X64606Y409491D01*
X64537Y409565D01*
X64472Y409641D01*
X64409Y409720D01*
X64350Y409801D01*
X64294Y409884D01*
X64241Y409970D01*
X64191Y410057D01*
X64145Y410146D01*
X64102Y410237D01*
X64062Y410330D01*
X64027Y410424D01*
X63994Y410519D01*
X63966Y410615D01*
X63941Y410713D01*
X63920Y410811D01*
X63903Y410910D01*
X63889Y411010D01*
X63880Y411110D01*
X63874Y411210D01*
X63872Y411311D01*
X63872Y415685D01*
X63871Y415685D02*
X63873Y415803D01*
X63879Y415921D01*
X63889Y416039D01*
X63903Y416156D01*
X63921Y416273D01*
X63943Y416390D01*
X63968Y416505D01*
X63998Y416619D01*
X64032Y416733D01*
X64069Y416845D01*
X64110Y416956D01*
X64155Y417065D01*
X64203Y417173D01*
X64255Y417279D01*
X64311Y417384D01*
X64370Y417486D01*
X64432Y417586D01*
X64498Y417684D01*
X64567Y417780D01*
X64640Y417874D01*
X64715Y417965D01*
X64794Y418053D01*
X64875Y418139D01*
X64960Y418222D01*
X65047Y418302D01*
X65136Y418379D01*
X65229Y418453D01*
X65323Y418523D01*
X65420Y418591D01*
X65520Y418655D01*
X65621Y418716D01*
X65724Y418773D01*
X65830Y418827D01*
X65937Y418878D01*
X66045Y418924D01*
X66155Y418967D01*
X66267Y419006D01*
X66380Y419042D01*
X66494Y419073D01*
X66609Y419101D01*
X66724Y419125D01*
X66841Y419145D01*
X66958Y419161D01*
X67076Y419173D01*
X67194Y419181D01*
X67312Y419185D01*
X67430Y419185D01*
X67548Y419181D01*
X67666Y419173D01*
X67784Y419161D01*
X67901Y419145D01*
X68018Y419125D01*
X68133Y419101D01*
X68248Y419073D01*
X68362Y419042D01*
X68475Y419006D01*
X68587Y418967D01*
X68697Y418924D01*
X68805Y418878D01*
X68912Y418827D01*
X69018Y418773D01*
X69121Y418716D01*
X69222Y418655D01*
X69322Y418591D01*
X69419Y418523D01*
X69513Y418453D01*
X69606Y418379D01*
X69695Y418302D01*
X69782Y418222D01*
X69867Y418139D01*
X69948Y418053D01*
X70027Y417965D01*
X70102Y417874D01*
X70175Y417780D01*
X70244Y417684D01*
X70310Y417586D01*
X70372Y417486D01*
X70431Y417384D01*
X70487Y417279D01*
X70539Y417173D01*
X70587Y417065D01*
X70632Y416956D01*
X70673Y416845D01*
X70710Y416733D01*
X70744Y416619D01*
X70774Y416505D01*
X70799Y416390D01*
X70821Y416273D01*
X70839Y416156D01*
X70853Y416039D01*
X70863Y415921D01*
X70869Y415803D01*
X70871Y415685D01*
X70871Y413935D01*
X63872Y413935D01*
X77940Y408686D02*
X77940Y419185D01*
X82314Y419185D01*
X82415Y419183D01*
X82515Y419177D01*
X82615Y419168D01*
X82715Y419154D01*
X82814Y419137D01*
X82912Y419116D01*
X83010Y419091D01*
X83106Y419063D01*
X83201Y419030D01*
X83295Y418995D01*
X83388Y418955D01*
X83479Y418912D01*
X83568Y418866D01*
X83655Y418816D01*
X83741Y418763D01*
X83824Y418707D01*
X83905Y418648D01*
X83984Y418585D01*
X84060Y418520D01*
X84134Y418451D01*
X84205Y418380D01*
X84274Y418306D01*
X84339Y418230D01*
X84402Y418151D01*
X84461Y418070D01*
X84517Y417987D01*
X84570Y417901D01*
X84620Y417814D01*
X84666Y417725D01*
X84709Y417634D01*
X84749Y417541D01*
X84784Y417447D01*
X84817Y417352D01*
X84845Y417256D01*
X84870Y417158D01*
X84891Y417060D01*
X84908Y416961D01*
X84922Y416861D01*
X84931Y416761D01*
X84937Y416661D01*
X84939Y416560D01*
X84939Y408686D01*
X101287Y408686D02*
X101287Y424434D01*
X105661Y424434D01*
X105792Y424432D01*
X105923Y424426D01*
X106053Y424416D01*
X106183Y424403D01*
X106313Y424385D01*
X106442Y424364D01*
X106570Y424338D01*
X106698Y424309D01*
X106825Y424276D01*
X106950Y424240D01*
X107075Y424199D01*
X107198Y424155D01*
X107320Y424107D01*
X107440Y424056D01*
X107559Y424001D01*
X107676Y423942D01*
X107791Y423880D01*
X107904Y423815D01*
X108016Y423746D01*
X108125Y423674D01*
X108232Y423599D01*
X108337Y423520D01*
X108439Y423439D01*
X108539Y423354D01*
X108636Y423266D01*
X108731Y423176D01*
X108823Y423083D01*
X108912Y422987D01*
X108998Y422888D01*
X109081Y422787D01*
X109161Y422684D01*
X109238Y422578D01*
X109311Y422470D01*
X109382Y422359D01*
X109449Y422247D01*
X109513Y422133D01*
X109573Y422017D01*
X109630Y421899D01*
X109683Y421779D01*
X109733Y421658D01*
X109779Y421535D01*
X109821Y421412D01*
X109859Y421287D01*
X109894Y421160D01*
X109925Y421033D01*
X109953Y420905D01*
X109976Y420777D01*
X109995Y420647D01*
X110011Y420517D01*
X110023Y420387D01*
X110031Y420256D01*
X110035Y420125D01*
X110035Y419995D01*
X110031Y419864D01*
X110023Y419733D01*
X110011Y419603D01*
X109995Y419473D01*
X109976Y419343D01*
X109953Y419215D01*
X109925Y419087D01*
X109894Y418960D01*
X109859Y418833D01*
X109821Y418708D01*
X109779Y418585D01*
X109733Y418462D01*
X109683Y418341D01*
X109630Y418221D01*
X109573Y418103D01*
X109513Y417987D01*
X109449Y417873D01*
X109382Y417761D01*
X109311Y417650D01*
X109238Y417542D01*
X109161Y417436D01*
X109081Y417333D01*
X108998Y417232D01*
X108912Y417133D01*
X108823Y417037D01*
X108731Y416944D01*
X108636Y416854D01*
X108539Y416766D01*
X108439Y416681D01*
X108337Y416600D01*
X108232Y416521D01*
X108125Y416446D01*
X108016Y416374D01*
X107904Y416305D01*
X107791Y416240D01*
X107676Y416178D01*
X107559Y416119D01*
X107440Y416064D01*
X107320Y416013D01*
X107198Y415965D01*
X107075Y415921D01*
X106950Y415880D01*
X106825Y415844D01*
X106698Y415811D01*
X106570Y415782D01*
X106442Y415756D01*
X106313Y415735D01*
X106183Y415717D01*
X106053Y415704D01*
X105923Y415694D01*
X105792Y415688D01*
X105661Y415686D01*
X105661Y415685D02*
X101287Y415685D01*
X118601Y408686D02*
X122975Y408686D01*
X118601Y408686D02*
X118500Y408688D01*
X118400Y408694D01*
X118300Y408703D01*
X118200Y408717D01*
X118101Y408734D01*
X118003Y408755D01*
X117905Y408780D01*
X117809Y408808D01*
X117714Y408841D01*
X117620Y408876D01*
X117527Y408916D01*
X117436Y408959D01*
X117347Y409005D01*
X117260Y409055D01*
X117174Y409108D01*
X117091Y409164D01*
X117010Y409223D01*
X116931Y409286D01*
X116855Y409351D01*
X116781Y409420D01*
X116710Y409491D01*
X116641Y409565D01*
X116576Y409641D01*
X116513Y409720D01*
X116454Y409801D01*
X116398Y409884D01*
X116345Y409970D01*
X116295Y410057D01*
X116249Y410146D01*
X116206Y410237D01*
X116166Y410330D01*
X116131Y410424D01*
X116098Y410519D01*
X116070Y410615D01*
X116045Y410713D01*
X116024Y410811D01*
X116007Y410910D01*
X115993Y411010D01*
X115984Y411110D01*
X115978Y411210D01*
X115976Y411311D01*
X115976Y415685D01*
X115978Y415803D01*
X115984Y415921D01*
X115994Y416039D01*
X116008Y416156D01*
X116026Y416273D01*
X116048Y416390D01*
X116073Y416505D01*
X116103Y416619D01*
X116137Y416733D01*
X116174Y416845D01*
X116215Y416956D01*
X116260Y417065D01*
X116308Y417173D01*
X116360Y417279D01*
X116416Y417384D01*
X116475Y417486D01*
X116537Y417586D01*
X116603Y417684D01*
X116672Y417780D01*
X116745Y417874D01*
X116820Y417965D01*
X116899Y418053D01*
X116980Y418139D01*
X117065Y418222D01*
X117152Y418302D01*
X117241Y418379D01*
X117334Y418453D01*
X117428Y418523D01*
X117525Y418591D01*
X117625Y418655D01*
X117726Y418716D01*
X117829Y418773D01*
X117935Y418827D01*
X118042Y418878D01*
X118150Y418924D01*
X118260Y418967D01*
X118372Y419006D01*
X118485Y419042D01*
X118599Y419073D01*
X118714Y419101D01*
X118829Y419125D01*
X118946Y419145D01*
X119063Y419161D01*
X119181Y419173D01*
X119299Y419181D01*
X119417Y419185D01*
X119535Y419185D01*
X119653Y419181D01*
X119771Y419173D01*
X119889Y419161D01*
X120006Y419145D01*
X120123Y419125D01*
X120238Y419101D01*
X120353Y419073D01*
X120467Y419042D01*
X120580Y419006D01*
X120692Y418967D01*
X120802Y418924D01*
X120910Y418878D01*
X121017Y418827D01*
X121123Y418773D01*
X121226Y418716D01*
X121327Y418655D01*
X121427Y418591D01*
X121524Y418523D01*
X121618Y418453D01*
X121711Y418379D01*
X121800Y418302D01*
X121887Y418222D01*
X121972Y418139D01*
X122053Y418053D01*
X122132Y417965D01*
X122207Y417874D01*
X122280Y417780D01*
X122349Y417684D01*
X122415Y417586D01*
X122477Y417486D01*
X122536Y417384D01*
X122592Y417279D01*
X122644Y417173D01*
X122692Y417065D01*
X122737Y416956D01*
X122778Y416845D01*
X122815Y416733D01*
X122849Y416619D01*
X122879Y416505D01*
X122904Y416390D01*
X122926Y416273D01*
X122944Y416156D01*
X122958Y416039D01*
X122968Y415921D01*
X122974Y415803D01*
X122976Y415685D01*
X122975Y415685D02*
X122975Y413935D01*
X115976Y413935D01*
X128174Y419185D02*
X133423Y419185D01*
X129924Y424434D02*
X129924Y411311D01*
X129923Y411311D02*
X129925Y411210D01*
X129931Y411110D01*
X129940Y411010D01*
X129954Y410910D01*
X129971Y410811D01*
X129992Y410713D01*
X130017Y410615D01*
X130045Y410519D01*
X130078Y410424D01*
X130113Y410330D01*
X130153Y410237D01*
X130196Y410146D01*
X130242Y410057D01*
X130292Y409970D01*
X130345Y409884D01*
X130401Y409801D01*
X130460Y409720D01*
X130523Y409641D01*
X130588Y409565D01*
X130657Y409491D01*
X130728Y409420D01*
X130802Y409351D01*
X130878Y409286D01*
X130957Y409223D01*
X131038Y409164D01*
X131121Y409108D01*
X131207Y409055D01*
X131294Y409005D01*
X131383Y408959D01*
X131474Y408916D01*
X131567Y408876D01*
X131661Y408841D01*
X131756Y408808D01*
X131852Y408780D01*
X131950Y408755D01*
X132048Y408734D01*
X132147Y408717D01*
X132247Y408703D01*
X132347Y408694D01*
X132447Y408688D01*
X132548Y408686D01*
X133423Y408686D01*
X142048Y408686D02*
X146422Y408686D01*
X142048Y408686D02*
X141947Y408688D01*
X141847Y408694D01*
X141747Y408703D01*
X141647Y408717D01*
X141548Y408734D01*
X141450Y408755D01*
X141352Y408780D01*
X141256Y408808D01*
X141161Y408841D01*
X141067Y408876D01*
X140974Y408916D01*
X140883Y408959D01*
X140794Y409005D01*
X140707Y409055D01*
X140621Y409108D01*
X140538Y409164D01*
X140457Y409223D01*
X140378Y409286D01*
X140302Y409351D01*
X140228Y409420D01*
X140157Y409491D01*
X140088Y409565D01*
X140023Y409641D01*
X139960Y409720D01*
X139901Y409801D01*
X139845Y409884D01*
X139792Y409970D01*
X139742Y410057D01*
X139696Y410146D01*
X139653Y410237D01*
X139613Y410330D01*
X139578Y410424D01*
X139545Y410519D01*
X139517Y410615D01*
X139492Y410713D01*
X139471Y410811D01*
X139454Y410910D01*
X139440Y411010D01*
X139431Y411110D01*
X139425Y411210D01*
X139423Y411311D01*
X139423Y415685D01*
X139422Y415685D02*
X139424Y415803D01*
X139430Y415921D01*
X139440Y416039D01*
X139454Y416156D01*
X139472Y416273D01*
X139494Y416390D01*
X139519Y416505D01*
X139549Y416619D01*
X139583Y416733D01*
X139620Y416845D01*
X139661Y416956D01*
X139706Y417065D01*
X139754Y417173D01*
X139806Y417279D01*
X139862Y417384D01*
X139921Y417486D01*
X139983Y417586D01*
X140049Y417684D01*
X140118Y417780D01*
X140191Y417874D01*
X140266Y417965D01*
X140345Y418053D01*
X140426Y418139D01*
X140511Y418222D01*
X140598Y418302D01*
X140687Y418379D01*
X140780Y418453D01*
X140874Y418523D01*
X140971Y418591D01*
X141071Y418655D01*
X141172Y418716D01*
X141275Y418773D01*
X141381Y418827D01*
X141488Y418878D01*
X141596Y418924D01*
X141706Y418967D01*
X141818Y419006D01*
X141931Y419042D01*
X142045Y419073D01*
X142160Y419101D01*
X142275Y419125D01*
X142392Y419145D01*
X142509Y419161D01*
X142627Y419173D01*
X142745Y419181D01*
X142863Y419185D01*
X142981Y419185D01*
X143099Y419181D01*
X143217Y419173D01*
X143335Y419161D01*
X143452Y419145D01*
X143569Y419125D01*
X143684Y419101D01*
X143799Y419073D01*
X143913Y419042D01*
X144026Y419006D01*
X144138Y418967D01*
X144248Y418924D01*
X144356Y418878D01*
X144463Y418827D01*
X144569Y418773D01*
X144672Y418716D01*
X144773Y418655D01*
X144873Y418591D01*
X144970Y418523D01*
X145064Y418453D01*
X145157Y418379D01*
X145246Y418302D01*
X145333Y418222D01*
X145418Y418139D01*
X145499Y418053D01*
X145578Y417965D01*
X145653Y417874D01*
X145726Y417780D01*
X145795Y417684D01*
X145861Y417586D01*
X145923Y417486D01*
X145982Y417384D01*
X146038Y417279D01*
X146090Y417173D01*
X146138Y417065D01*
X146183Y416956D01*
X146224Y416845D01*
X146261Y416733D01*
X146295Y416619D01*
X146325Y416505D01*
X146350Y416390D01*
X146372Y416273D01*
X146390Y416156D01*
X146404Y416039D01*
X146414Y415921D01*
X146420Y415803D01*
X146422Y415685D01*
X146422Y413935D01*
X139423Y413935D01*
X153593Y408686D02*
X153593Y419185D01*
X158842Y419185D01*
X158842Y417435D01*
X165224Y414810D02*
X169599Y413060D01*
X165225Y414810D02*
X165138Y414847D01*
X165053Y414887D01*
X164970Y414931D01*
X164889Y414978D01*
X164810Y415028D01*
X164733Y415082D01*
X164658Y415139D01*
X164585Y415199D01*
X164516Y415262D01*
X164448Y415327D01*
X164384Y415396D01*
X164322Y415467D01*
X164264Y415540D01*
X164209Y415616D01*
X164156Y415694D01*
X164107Y415774D01*
X164062Y415856D01*
X164020Y415940D01*
X163981Y416026D01*
X163946Y416113D01*
X163914Y416202D01*
X163887Y416291D01*
X163863Y416382D01*
X163842Y416474D01*
X163826Y416567D01*
X163814Y416660D01*
X163805Y416753D01*
X163800Y416847D01*
X163799Y416941D01*
X163802Y417035D01*
X163809Y417129D01*
X163820Y417222D01*
X163834Y417315D01*
X163853Y417407D01*
X163875Y417498D01*
X163901Y417588D01*
X163931Y417677D01*
X163964Y417765D01*
X164001Y417852D01*
X164041Y417936D01*
X164085Y418019D01*
X164133Y418100D01*
X164184Y418180D01*
X164238Y418256D01*
X164295Y418331D01*
X164355Y418403D01*
X164418Y418473D01*
X164484Y418540D01*
X164552Y418604D01*
X164624Y418665D01*
X164697Y418724D01*
X164773Y418779D01*
X164851Y418831D01*
X164932Y418879D01*
X165014Y418925D01*
X165098Y418967D01*
X165184Y419005D01*
X165271Y419040D01*
X165360Y419071D01*
X165450Y419098D01*
X165541Y419122D01*
X165632Y419142D01*
X165725Y419158D01*
X165818Y419170D01*
X165912Y419179D01*
X166005Y419183D01*
X166099Y419184D01*
X166099Y419185D02*
X166338Y419179D01*
X166576Y419167D01*
X166815Y419149D01*
X167052Y419125D01*
X167290Y419096D01*
X167526Y419061D01*
X167761Y419021D01*
X167996Y418975D01*
X168229Y418923D01*
X168461Y418865D01*
X168691Y418802D01*
X168920Y418734D01*
X169147Y418660D01*
X169373Y418580D01*
X169596Y418496D01*
X169817Y418406D01*
X170036Y418310D01*
X169598Y413060D02*
X169685Y413023D01*
X169770Y412983D01*
X169853Y412939D01*
X169934Y412892D01*
X170013Y412842D01*
X170090Y412788D01*
X170165Y412731D01*
X170238Y412671D01*
X170307Y412608D01*
X170375Y412543D01*
X170439Y412474D01*
X170501Y412403D01*
X170559Y412330D01*
X170614Y412254D01*
X170667Y412176D01*
X170716Y412096D01*
X170761Y412014D01*
X170803Y411930D01*
X170842Y411844D01*
X170877Y411757D01*
X170909Y411668D01*
X170936Y411579D01*
X170960Y411488D01*
X170981Y411396D01*
X170997Y411303D01*
X171009Y411210D01*
X171018Y411117D01*
X171023Y411023D01*
X171024Y410929D01*
X171021Y410835D01*
X171014Y410741D01*
X171003Y410648D01*
X170989Y410555D01*
X170970Y410463D01*
X170948Y410372D01*
X170922Y410282D01*
X170892Y410193D01*
X170859Y410105D01*
X170822Y410018D01*
X170782Y409934D01*
X170738Y409851D01*
X170690Y409770D01*
X170639Y409690D01*
X170585Y409614D01*
X170528Y409539D01*
X170468Y409467D01*
X170405Y409397D01*
X170339Y409330D01*
X170271Y409266D01*
X170199Y409205D01*
X170126Y409146D01*
X170050Y409091D01*
X169972Y409039D01*
X169891Y408991D01*
X169809Y408945D01*
X169725Y408903D01*
X169639Y408865D01*
X169552Y408830D01*
X169463Y408799D01*
X169373Y408772D01*
X169282Y408748D01*
X169191Y408728D01*
X169098Y408712D01*
X169005Y408700D01*
X168911Y408691D01*
X168818Y408687D01*
X168724Y408686D01*
X168373Y408695D01*
X168022Y408712D01*
X167672Y408738D01*
X167323Y408772D01*
X166975Y408814D01*
X166628Y408865D01*
X166282Y408923D01*
X165937Y408990D01*
X165594Y409065D01*
X165253Y409148D01*
X164914Y409239D01*
X164578Y409338D01*
X164243Y409445D01*
X163912Y409560D01*
X180083Y408686D02*
X184458Y408686D01*
X180083Y408686D02*
X179982Y408688D01*
X179882Y408694D01*
X179782Y408703D01*
X179682Y408717D01*
X179583Y408734D01*
X179485Y408755D01*
X179387Y408780D01*
X179291Y408808D01*
X179196Y408841D01*
X179102Y408876D01*
X179009Y408916D01*
X178918Y408959D01*
X178829Y409005D01*
X178742Y409055D01*
X178656Y409108D01*
X178573Y409164D01*
X178492Y409223D01*
X178413Y409286D01*
X178337Y409351D01*
X178263Y409420D01*
X178192Y409491D01*
X178123Y409565D01*
X178058Y409641D01*
X177995Y409720D01*
X177936Y409801D01*
X177880Y409884D01*
X177827Y409970D01*
X177777Y410057D01*
X177731Y410146D01*
X177688Y410237D01*
X177648Y410330D01*
X177613Y410424D01*
X177580Y410519D01*
X177552Y410615D01*
X177527Y410713D01*
X177506Y410811D01*
X177489Y410910D01*
X177475Y411010D01*
X177466Y411110D01*
X177460Y411210D01*
X177458Y411311D01*
X177459Y411311D02*
X177459Y415685D01*
X177458Y415685D02*
X177460Y415803D01*
X177466Y415921D01*
X177476Y416039D01*
X177490Y416156D01*
X177508Y416273D01*
X177530Y416390D01*
X177555Y416505D01*
X177585Y416619D01*
X177619Y416733D01*
X177656Y416845D01*
X177697Y416956D01*
X177742Y417065D01*
X177790Y417173D01*
X177842Y417279D01*
X177898Y417384D01*
X177957Y417486D01*
X178019Y417586D01*
X178085Y417684D01*
X178154Y417780D01*
X178227Y417874D01*
X178302Y417965D01*
X178381Y418053D01*
X178462Y418139D01*
X178547Y418222D01*
X178634Y418302D01*
X178723Y418379D01*
X178816Y418453D01*
X178910Y418523D01*
X179007Y418591D01*
X179107Y418655D01*
X179208Y418716D01*
X179311Y418773D01*
X179417Y418827D01*
X179524Y418878D01*
X179632Y418924D01*
X179742Y418967D01*
X179854Y419006D01*
X179967Y419042D01*
X180081Y419073D01*
X180196Y419101D01*
X180311Y419125D01*
X180428Y419145D01*
X180545Y419161D01*
X180663Y419173D01*
X180781Y419181D01*
X180899Y419185D01*
X181017Y419185D01*
X181135Y419181D01*
X181253Y419173D01*
X181371Y419161D01*
X181488Y419145D01*
X181605Y419125D01*
X181720Y419101D01*
X181835Y419073D01*
X181949Y419042D01*
X182062Y419006D01*
X182174Y418967D01*
X182284Y418924D01*
X182392Y418878D01*
X182499Y418827D01*
X182605Y418773D01*
X182708Y418716D01*
X182809Y418655D01*
X182909Y418591D01*
X183006Y418523D01*
X183100Y418453D01*
X183193Y418379D01*
X183282Y418302D01*
X183369Y418222D01*
X183454Y418139D01*
X183535Y418053D01*
X183614Y417965D01*
X183689Y417874D01*
X183762Y417780D01*
X183831Y417684D01*
X183897Y417586D01*
X183959Y417486D01*
X184018Y417384D01*
X184074Y417279D01*
X184126Y417173D01*
X184174Y417065D01*
X184219Y416956D01*
X184260Y416845D01*
X184297Y416733D01*
X184331Y416619D01*
X184361Y416505D01*
X184386Y416390D01*
X184408Y416273D01*
X184426Y416156D01*
X184440Y416039D01*
X184450Y415921D01*
X184456Y415803D01*
X184458Y415685D01*
X184458Y413935D01*
X177459Y413935D01*
X191527Y408686D02*
X191527Y419185D01*
X195901Y419185D01*
X196002Y419183D01*
X196102Y419177D01*
X196202Y419168D01*
X196302Y419154D01*
X196401Y419137D01*
X196499Y419116D01*
X196597Y419091D01*
X196693Y419063D01*
X196788Y419030D01*
X196882Y418995D01*
X196975Y418955D01*
X197066Y418912D01*
X197155Y418866D01*
X197242Y418816D01*
X197328Y418763D01*
X197411Y418707D01*
X197492Y418648D01*
X197571Y418585D01*
X197647Y418520D01*
X197721Y418451D01*
X197792Y418380D01*
X197861Y418306D01*
X197926Y418230D01*
X197989Y418151D01*
X198048Y418070D01*
X198104Y417987D01*
X198157Y417901D01*
X198207Y417814D01*
X198253Y417725D01*
X198296Y417634D01*
X198336Y417541D01*
X198371Y417447D01*
X198404Y417352D01*
X198432Y417256D01*
X198457Y417158D01*
X198478Y417060D01*
X198495Y416961D01*
X198509Y416861D01*
X198518Y416761D01*
X198524Y416661D01*
X198526Y416560D01*
X198526Y408686D01*
X98403Y393827D02*
X98401Y393951D01*
X98395Y394074D01*
X98386Y394198D01*
X98372Y394320D01*
X98355Y394443D01*
X98333Y394565D01*
X98308Y394686D01*
X98279Y394806D01*
X98247Y394925D01*
X98210Y395044D01*
X98170Y395161D01*
X98127Y395276D01*
X98079Y395391D01*
X98028Y395503D01*
X97974Y395614D01*
X97916Y395724D01*
X97855Y395831D01*
X97790Y395937D01*
X97722Y396040D01*
X97651Y396141D01*
X97577Y396240D01*
X97500Y396337D01*
X97419Y396431D01*
X97336Y396522D01*
X97250Y396611D01*
X97161Y396697D01*
X97070Y396780D01*
X96976Y396861D01*
X96879Y396938D01*
X96780Y397012D01*
X96679Y397083D01*
X96576Y397151D01*
X96470Y397216D01*
X96363Y397277D01*
X96253Y397335D01*
X96142Y397389D01*
X96030Y397440D01*
X95915Y397488D01*
X95800Y397531D01*
X95683Y397571D01*
X95564Y397608D01*
X95445Y397640D01*
X95325Y397669D01*
X95204Y397694D01*
X95082Y397716D01*
X94959Y397733D01*
X94837Y397747D01*
X94713Y397756D01*
X94590Y397762D01*
X94466Y397764D01*
X94325Y397762D01*
X94183Y397756D01*
X94042Y397746D01*
X93902Y397732D01*
X93762Y397715D01*
X93622Y397693D01*
X93483Y397668D01*
X93345Y397638D01*
X93207Y397605D01*
X93071Y397568D01*
X92935Y397527D01*
X92801Y397482D01*
X92669Y397434D01*
X92537Y397382D01*
X92407Y397326D01*
X92279Y397267D01*
X92152Y397204D01*
X92028Y397137D01*
X91905Y397068D01*
X91784Y396994D01*
X91665Y396918D01*
X91548Y396838D01*
X91434Y396755D01*
X91322Y396668D01*
X91213Y396579D01*
X91106Y396487D01*
X91001Y396391D01*
X90900Y396293D01*
X90801Y396192D01*
X90705Y396088D01*
X90612Y395982D01*
X90522Y395873D01*
X90435Y395761D01*
X90351Y395647D01*
X90271Y395531D01*
X90193Y395413D01*
X90119Y395292D01*
X90049Y395170D01*
X89982Y395046D01*
X89918Y394919D01*
X89858Y394791D01*
X89801Y394662D01*
X89749Y394531D01*
X89699Y394398D01*
X89654Y394264D01*
X97091Y390765D02*
X97181Y390853D01*
X97269Y390945D01*
X97354Y391039D01*
X97436Y391136D01*
X97515Y391235D01*
X97592Y391336D01*
X97665Y391440D01*
X97735Y391545D01*
X97802Y391653D01*
X97865Y391763D01*
X97925Y391875D01*
X97982Y391988D01*
X98036Y392103D01*
X98086Y392220D01*
X98132Y392338D01*
X98175Y392457D01*
X98214Y392578D01*
X98250Y392699D01*
X98282Y392822D01*
X98310Y392946D01*
X98335Y393070D01*
X98356Y393195D01*
X98373Y393321D01*
X98386Y393447D01*
X98395Y393573D01*
X98401Y393700D01*
X98403Y393827D01*
X97090Y390765D02*
X89654Y382016D01*
X98403Y382016D01*
X105285Y389890D02*
X105289Y390200D01*
X105300Y390509D01*
X105318Y390819D01*
X105344Y391127D01*
X105377Y391435D01*
X105418Y391743D01*
X105466Y392049D01*
X105521Y392354D01*
X105583Y392657D01*
X105653Y392959D01*
X105730Y393259D01*
X105814Y393557D01*
X105905Y393853D01*
X106003Y394147D01*
X106108Y394439D01*
X106220Y394728D01*
X106339Y395014D01*
X106465Y395297D01*
X106597Y395577D01*
X106635Y395682D01*
X106677Y395785D01*
X106722Y395887D01*
X106770Y395988D01*
X106822Y396086D01*
X106878Y396183D01*
X106936Y396278D01*
X106998Y396371D01*
X107063Y396461D01*
X107132Y396549D01*
X107203Y396635D01*
X107277Y396719D01*
X107354Y396799D01*
X107433Y396878D01*
X107516Y396953D01*
X107601Y397025D01*
X107688Y397095D01*
X107778Y397161D01*
X107869Y397224D01*
X107963Y397284D01*
X108059Y397341D01*
X108157Y397395D01*
X108257Y397445D01*
X108358Y397491D01*
X108461Y397534D01*
X108566Y397574D01*
X108671Y397610D01*
X108778Y397642D01*
X108886Y397670D01*
X108995Y397695D01*
X109104Y397716D01*
X109214Y397733D01*
X109325Y397747D01*
X109436Y397756D01*
X109547Y397762D01*
X109659Y397764D01*
X109771Y397762D01*
X109882Y397756D01*
X109993Y397747D01*
X110104Y397733D01*
X110214Y397716D01*
X110324Y397695D01*
X110432Y397670D01*
X110540Y397642D01*
X110647Y397610D01*
X110752Y397574D01*
X110857Y397534D01*
X110960Y397491D01*
X111061Y397445D01*
X111161Y397395D01*
X111259Y397341D01*
X111355Y397284D01*
X111449Y397224D01*
X111540Y397161D01*
X111630Y397095D01*
X111717Y397025D01*
X111802Y396953D01*
X111885Y396878D01*
X111964Y396799D01*
X112041Y396719D01*
X112115Y396635D01*
X112186Y396549D01*
X112255Y396461D01*
X112320Y396371D01*
X112382Y396278D01*
X112440Y396183D01*
X112496Y396086D01*
X112548Y395988D01*
X112596Y395887D01*
X112641Y395785D01*
X112683Y395682D01*
X112721Y395577D01*
X112722Y395577D02*
X112854Y395297D01*
X112980Y395013D01*
X113099Y394727D01*
X113211Y394438D01*
X113316Y394147D01*
X113414Y393853D01*
X113505Y393557D01*
X113589Y393259D01*
X113666Y392959D01*
X113736Y392657D01*
X113798Y392353D01*
X113853Y392049D01*
X113901Y391743D01*
X113942Y391435D01*
X113975Y391127D01*
X114001Y390819D01*
X114019Y390509D01*
X114030Y390200D01*
X114034Y389890D01*
X105285Y389890D02*
X105289Y389580D01*
X105300Y389271D01*
X105318Y388961D01*
X105344Y388653D01*
X105377Y388345D01*
X105418Y388037D01*
X105466Y387731D01*
X105521Y387426D01*
X105583Y387123D01*
X105653Y386821D01*
X105730Y386521D01*
X105814Y386223D01*
X105905Y385927D01*
X106003Y385633D01*
X106108Y385341D01*
X106220Y385052D01*
X106339Y384766D01*
X106465Y384483D01*
X106597Y384203D01*
X106635Y384098D01*
X106677Y383995D01*
X106722Y383893D01*
X106770Y383792D01*
X106822Y383694D01*
X106878Y383597D01*
X106936Y383502D01*
X106998Y383409D01*
X107063Y383319D01*
X107132Y383231D01*
X107203Y383145D01*
X107277Y383061D01*
X107354Y382981D01*
X107433Y382902D01*
X107516Y382827D01*
X107601Y382755D01*
X107688Y382685D01*
X107778Y382619D01*
X107869Y382556D01*
X107963Y382496D01*
X108059Y382439D01*
X108157Y382385D01*
X108257Y382335D01*
X108358Y382289D01*
X108461Y382246D01*
X108566Y382206D01*
X108671Y382170D01*
X108778Y382138D01*
X108886Y382110D01*
X108995Y382085D01*
X109104Y382064D01*
X109214Y382047D01*
X109325Y382033D01*
X109436Y382024D01*
X109547Y382018D01*
X109659Y382016D01*
X112722Y384203D02*
X112854Y384483D01*
X112980Y384766D01*
X113099Y385052D01*
X113211Y385341D01*
X113316Y385633D01*
X113414Y385927D01*
X113505Y386223D01*
X113589Y386521D01*
X113666Y386821D01*
X113736Y387123D01*
X113798Y387426D01*
X113853Y387731D01*
X113901Y388037D01*
X113942Y388345D01*
X113975Y388653D01*
X114001Y388961D01*
X114019Y389271D01*
X114030Y389580D01*
X114034Y389890D01*
X112721Y384203D02*
X112683Y384098D01*
X112641Y383995D01*
X112596Y383893D01*
X112548Y383792D01*
X112496Y383694D01*
X112440Y383597D01*
X112382Y383502D01*
X112320Y383409D01*
X112255Y383319D01*
X112186Y383231D01*
X112115Y383145D01*
X112041Y383061D01*
X111964Y382981D01*
X111885Y382902D01*
X111802Y382827D01*
X111717Y382755D01*
X111630Y382685D01*
X111540Y382619D01*
X111449Y382556D01*
X111355Y382496D01*
X111259Y382439D01*
X111161Y382385D01*
X111061Y382335D01*
X110960Y382289D01*
X110857Y382246D01*
X110752Y382206D01*
X110647Y382170D01*
X110540Y382138D01*
X110432Y382110D01*
X110323Y382085D01*
X110214Y382064D01*
X110104Y382047D01*
X109993Y382033D01*
X109882Y382024D01*
X109771Y382018D01*
X109659Y382016D01*
X106160Y385516D02*
X113159Y394264D01*
X125728Y397764D02*
X125852Y397762D01*
X125975Y397756D01*
X126099Y397747D01*
X126221Y397733D01*
X126344Y397716D01*
X126466Y397694D01*
X126587Y397669D01*
X126707Y397640D01*
X126826Y397608D01*
X126945Y397571D01*
X127062Y397531D01*
X127177Y397488D01*
X127292Y397440D01*
X127404Y397389D01*
X127515Y397335D01*
X127625Y397277D01*
X127732Y397216D01*
X127838Y397151D01*
X127941Y397083D01*
X128042Y397012D01*
X128141Y396938D01*
X128238Y396861D01*
X128332Y396780D01*
X128423Y396697D01*
X128512Y396611D01*
X128598Y396522D01*
X128681Y396431D01*
X128762Y396337D01*
X128839Y396240D01*
X128913Y396141D01*
X128984Y396040D01*
X129052Y395937D01*
X129117Y395831D01*
X129178Y395724D01*
X129236Y395614D01*
X129290Y395503D01*
X129341Y395391D01*
X129389Y395276D01*
X129432Y395161D01*
X129472Y395044D01*
X129509Y394925D01*
X129541Y394806D01*
X129570Y394686D01*
X129595Y394565D01*
X129617Y394443D01*
X129634Y394320D01*
X129648Y394198D01*
X129657Y394074D01*
X129663Y393951D01*
X129665Y393827D01*
X125728Y397764D02*
X125587Y397762D01*
X125445Y397756D01*
X125304Y397746D01*
X125164Y397732D01*
X125024Y397715D01*
X124884Y397693D01*
X124745Y397668D01*
X124607Y397638D01*
X124469Y397605D01*
X124333Y397568D01*
X124197Y397527D01*
X124063Y397482D01*
X123931Y397434D01*
X123799Y397382D01*
X123669Y397326D01*
X123541Y397267D01*
X123414Y397204D01*
X123290Y397137D01*
X123167Y397068D01*
X123046Y396994D01*
X122927Y396918D01*
X122810Y396838D01*
X122696Y396755D01*
X122584Y396668D01*
X122475Y396579D01*
X122368Y396487D01*
X122263Y396391D01*
X122162Y396293D01*
X122063Y396192D01*
X121967Y396088D01*
X121874Y395982D01*
X121784Y395873D01*
X121697Y395761D01*
X121613Y395647D01*
X121533Y395531D01*
X121455Y395413D01*
X121381Y395292D01*
X121311Y395170D01*
X121244Y395046D01*
X121180Y394919D01*
X121120Y394791D01*
X121063Y394662D01*
X121011Y394531D01*
X120961Y394398D01*
X120916Y394264D01*
X128353Y390765D02*
X128443Y390853D01*
X128531Y390945D01*
X128616Y391039D01*
X128698Y391136D01*
X128777Y391235D01*
X128854Y391336D01*
X128927Y391440D01*
X128997Y391545D01*
X129064Y391653D01*
X129127Y391763D01*
X129187Y391875D01*
X129244Y391988D01*
X129298Y392103D01*
X129348Y392220D01*
X129394Y392338D01*
X129437Y392457D01*
X129476Y392578D01*
X129512Y392699D01*
X129544Y392822D01*
X129572Y392946D01*
X129597Y393070D01*
X129618Y393195D01*
X129635Y393321D01*
X129648Y393447D01*
X129657Y393573D01*
X129663Y393700D01*
X129665Y393827D01*
X128353Y390765D02*
X120916Y382016D01*
X129665Y382016D01*
X136547Y389890D02*
X136551Y390200D01*
X136562Y390509D01*
X136580Y390819D01*
X136606Y391127D01*
X136639Y391435D01*
X136680Y391743D01*
X136728Y392049D01*
X136783Y392354D01*
X136845Y392657D01*
X136915Y392959D01*
X136992Y393259D01*
X137076Y393557D01*
X137167Y393853D01*
X137265Y394147D01*
X137370Y394439D01*
X137482Y394728D01*
X137601Y395014D01*
X137727Y395297D01*
X137859Y395577D01*
X137860Y395577D02*
X137898Y395682D01*
X137940Y395785D01*
X137985Y395887D01*
X138033Y395988D01*
X138085Y396086D01*
X138141Y396183D01*
X138199Y396278D01*
X138261Y396371D01*
X138326Y396461D01*
X138395Y396549D01*
X138466Y396635D01*
X138540Y396719D01*
X138617Y396799D01*
X138696Y396878D01*
X138779Y396953D01*
X138864Y397025D01*
X138951Y397095D01*
X139041Y397161D01*
X139132Y397224D01*
X139226Y397284D01*
X139322Y397341D01*
X139420Y397395D01*
X139520Y397445D01*
X139621Y397491D01*
X139724Y397534D01*
X139829Y397574D01*
X139934Y397610D01*
X140041Y397642D01*
X140149Y397670D01*
X140258Y397695D01*
X140367Y397716D01*
X140477Y397733D01*
X140588Y397747D01*
X140699Y397756D01*
X140810Y397762D01*
X140922Y397764D01*
X141034Y397762D01*
X141145Y397756D01*
X141256Y397747D01*
X141367Y397733D01*
X141477Y397716D01*
X141587Y397695D01*
X141695Y397670D01*
X141803Y397642D01*
X141910Y397610D01*
X142015Y397574D01*
X142120Y397534D01*
X142223Y397491D01*
X142324Y397445D01*
X142424Y397395D01*
X142522Y397341D01*
X142618Y397284D01*
X142712Y397224D01*
X142803Y397161D01*
X142893Y397095D01*
X142980Y397025D01*
X143065Y396953D01*
X143148Y396878D01*
X143227Y396799D01*
X143304Y396719D01*
X143378Y396635D01*
X143449Y396549D01*
X143518Y396461D01*
X143583Y396371D01*
X143645Y396278D01*
X143703Y396183D01*
X143759Y396086D01*
X143811Y395988D01*
X143859Y395887D01*
X143904Y395785D01*
X143946Y395682D01*
X143984Y395577D01*
X144116Y395297D01*
X144242Y395013D01*
X144361Y394727D01*
X144473Y394438D01*
X144578Y394147D01*
X144676Y393853D01*
X144767Y393557D01*
X144851Y393259D01*
X144928Y392959D01*
X144998Y392657D01*
X145060Y392353D01*
X145115Y392049D01*
X145163Y391743D01*
X145204Y391435D01*
X145237Y391127D01*
X145263Y390819D01*
X145281Y390509D01*
X145292Y390200D01*
X145296Y389890D01*
X136547Y389890D02*
X136551Y389580D01*
X136562Y389271D01*
X136580Y388961D01*
X136606Y388653D01*
X136639Y388345D01*
X136680Y388037D01*
X136728Y387731D01*
X136783Y387426D01*
X136845Y387123D01*
X136915Y386821D01*
X136992Y386521D01*
X137076Y386223D01*
X137167Y385927D01*
X137265Y385633D01*
X137370Y385341D01*
X137482Y385052D01*
X137601Y384766D01*
X137727Y384483D01*
X137859Y384203D01*
X137860Y384203D02*
X137898Y384098D01*
X137940Y383995D01*
X137985Y383893D01*
X138033Y383792D01*
X138085Y383694D01*
X138141Y383597D01*
X138199Y383502D01*
X138261Y383409D01*
X138326Y383319D01*
X138395Y383231D01*
X138466Y383145D01*
X138540Y383061D01*
X138617Y382981D01*
X138696Y382902D01*
X138779Y382827D01*
X138864Y382755D01*
X138951Y382685D01*
X139041Y382619D01*
X139132Y382556D01*
X139226Y382496D01*
X139322Y382439D01*
X139420Y382385D01*
X139520Y382335D01*
X139621Y382289D01*
X139724Y382246D01*
X139829Y382206D01*
X139934Y382170D01*
X140041Y382138D01*
X140149Y382110D01*
X140258Y382085D01*
X140367Y382064D01*
X140477Y382047D01*
X140588Y382033D01*
X140699Y382024D01*
X140810Y382018D01*
X140922Y382016D01*
X143985Y384203D02*
X144117Y384483D01*
X144243Y384766D01*
X144362Y385052D01*
X144474Y385341D01*
X144579Y385633D01*
X144677Y385927D01*
X144768Y386223D01*
X144852Y386521D01*
X144929Y386821D01*
X144999Y387123D01*
X145061Y387426D01*
X145116Y387731D01*
X145164Y388037D01*
X145205Y388345D01*
X145238Y388653D01*
X145264Y388961D01*
X145282Y389271D01*
X145293Y389580D01*
X145297Y389890D01*
X143984Y384203D02*
X143946Y384098D01*
X143904Y383995D01*
X143859Y383893D01*
X143811Y383792D01*
X143759Y383694D01*
X143703Y383597D01*
X143645Y383502D01*
X143583Y383409D01*
X143518Y383319D01*
X143449Y383231D01*
X143378Y383145D01*
X143304Y383061D01*
X143227Y382981D01*
X143148Y382902D01*
X143065Y382827D01*
X142980Y382755D01*
X142893Y382685D01*
X142803Y382619D01*
X142712Y382556D01*
X142618Y382496D01*
X142522Y382439D01*
X142424Y382385D01*
X142324Y382335D01*
X142223Y382289D01*
X142120Y382246D01*
X142015Y382206D01*
X141910Y382170D01*
X141803Y382138D01*
X141695Y382110D01*
X141586Y382085D01*
X141477Y382064D01*
X141367Y382047D01*
X141256Y382033D01*
X141145Y382024D01*
X141034Y382018D01*
X140922Y382016D01*
X137422Y385516D02*
X144421Y394264D01*
X356616Y426014D02*
X360990Y429514D01*
X360990Y413766D01*
X356616Y413766D02*
X365365Y413766D01*
X372247Y422515D02*
X377497Y422515D01*
X377614Y422513D01*
X377731Y422507D01*
X377847Y422497D01*
X377964Y422484D01*
X378079Y422466D01*
X378194Y422445D01*
X378308Y422420D01*
X378422Y422391D01*
X378534Y422358D01*
X378645Y422321D01*
X378755Y422281D01*
X378863Y422237D01*
X378970Y422190D01*
X379076Y422139D01*
X379179Y422084D01*
X379281Y422026D01*
X379380Y421965D01*
X379478Y421901D01*
X379573Y421833D01*
X379666Y421762D01*
X379757Y421688D01*
X379845Y421611D01*
X379930Y421531D01*
X380013Y421448D01*
X380093Y421363D01*
X380170Y421275D01*
X380244Y421184D01*
X380315Y421091D01*
X380383Y420996D01*
X380447Y420898D01*
X380508Y420799D01*
X380566Y420697D01*
X380621Y420594D01*
X380672Y420488D01*
X380719Y420381D01*
X380763Y420273D01*
X380803Y420163D01*
X380840Y420052D01*
X380873Y419940D01*
X380902Y419826D01*
X380927Y419712D01*
X380948Y419597D01*
X380966Y419482D01*
X380979Y419365D01*
X380989Y419249D01*
X380995Y419132D01*
X380997Y419015D01*
X380996Y419015D02*
X380996Y418140D01*
X380994Y418009D01*
X380988Y417878D01*
X380978Y417748D01*
X380965Y417618D01*
X380947Y417488D01*
X380926Y417359D01*
X380900Y417231D01*
X380871Y417103D01*
X380838Y416976D01*
X380802Y416851D01*
X380761Y416726D01*
X380717Y416603D01*
X380669Y416481D01*
X380618Y416361D01*
X380563Y416242D01*
X380504Y416125D01*
X380442Y416010D01*
X380377Y415897D01*
X380308Y415785D01*
X380236Y415676D01*
X380161Y415569D01*
X380082Y415464D01*
X380001Y415362D01*
X379916Y415262D01*
X379828Y415165D01*
X379738Y415070D01*
X379645Y414978D01*
X379549Y414889D01*
X379450Y414803D01*
X379349Y414720D01*
X379246Y414640D01*
X379140Y414563D01*
X379032Y414490D01*
X378921Y414419D01*
X378809Y414352D01*
X378695Y414288D01*
X378579Y414228D01*
X378461Y414171D01*
X378341Y414118D01*
X378220Y414068D01*
X378097Y414022D01*
X377974Y413980D01*
X377849Y413942D01*
X377722Y413907D01*
X377595Y413876D01*
X377467Y413848D01*
X377339Y413825D01*
X377209Y413806D01*
X377079Y413790D01*
X376949Y413778D01*
X376818Y413770D01*
X376687Y413766D01*
X376557Y413766D01*
X376426Y413770D01*
X376295Y413778D01*
X376165Y413790D01*
X376035Y413806D01*
X375905Y413825D01*
X375777Y413848D01*
X375649Y413876D01*
X375522Y413907D01*
X375395Y413942D01*
X375270Y413980D01*
X375147Y414022D01*
X375024Y414068D01*
X374903Y414118D01*
X374783Y414171D01*
X374665Y414228D01*
X374549Y414288D01*
X374435Y414352D01*
X374323Y414419D01*
X374212Y414490D01*
X374104Y414563D01*
X373998Y414640D01*
X373895Y414720D01*
X373794Y414803D01*
X373695Y414889D01*
X373599Y414978D01*
X373506Y415070D01*
X373416Y415165D01*
X373328Y415262D01*
X373243Y415362D01*
X373162Y415464D01*
X373083Y415569D01*
X373008Y415676D01*
X372936Y415785D01*
X372867Y415897D01*
X372802Y416010D01*
X372740Y416125D01*
X372681Y416242D01*
X372626Y416361D01*
X372575Y416481D01*
X372527Y416603D01*
X372483Y416726D01*
X372442Y416851D01*
X372406Y416976D01*
X372373Y417103D01*
X372344Y417231D01*
X372318Y417359D01*
X372297Y417488D01*
X372279Y417618D01*
X372266Y417748D01*
X372256Y417878D01*
X372250Y418009D01*
X372248Y418140D01*
X372247Y418140D02*
X372247Y422515D01*
X372249Y422687D01*
X372255Y422858D01*
X372266Y423030D01*
X372281Y423201D01*
X372300Y423372D01*
X372323Y423542D01*
X372350Y423712D01*
X372381Y423880D01*
X372417Y424048D01*
X372457Y424216D01*
X372501Y424382D01*
X372548Y424547D01*
X372600Y424710D01*
X372656Y424873D01*
X372716Y425034D01*
X372780Y425193D01*
X372847Y425351D01*
X372919Y425507D01*
X372994Y425662D01*
X373073Y425814D01*
X373156Y425965D01*
X373243Y426113D01*
X373333Y426259D01*
X373427Y426403D01*
X373524Y426545D01*
X373624Y426684D01*
X373728Y426821D01*
X373836Y426955D01*
X373946Y427087D01*
X374060Y427215D01*
X374177Y427341D01*
X374297Y427464D01*
X374420Y427584D01*
X374546Y427701D01*
X374674Y427815D01*
X374806Y427925D01*
X374940Y428033D01*
X375077Y428137D01*
X375216Y428237D01*
X375358Y428334D01*
X375502Y428428D01*
X375648Y428518D01*
X375796Y428605D01*
X375947Y428688D01*
X376099Y428767D01*
X376254Y428842D01*
X376410Y428914D01*
X376568Y428981D01*
X376727Y429045D01*
X376888Y429105D01*
X377051Y429161D01*
X377214Y429213D01*
X377379Y429260D01*
X377545Y429304D01*
X377712Y429344D01*
X377881Y429380D01*
X378049Y429411D01*
X378219Y429438D01*
X378389Y429461D01*
X378560Y429480D01*
X378731Y429495D01*
X378903Y429506D01*
X379074Y429512D01*
X379246Y429514D01*
X387879Y413766D02*
X393128Y413766D01*
X393245Y413768D01*
X393362Y413774D01*
X393478Y413784D01*
X393595Y413797D01*
X393710Y413815D01*
X393825Y413836D01*
X393939Y413861D01*
X394053Y413890D01*
X394165Y413923D01*
X394276Y413960D01*
X394386Y414000D01*
X394494Y414044D01*
X394601Y414091D01*
X394707Y414142D01*
X394810Y414197D01*
X394912Y414255D01*
X395011Y414316D01*
X395109Y414380D01*
X395204Y414448D01*
X395297Y414519D01*
X395388Y414593D01*
X395476Y414670D01*
X395561Y414750D01*
X395644Y414833D01*
X395724Y414918D01*
X395801Y415006D01*
X395875Y415097D01*
X395946Y415190D01*
X396014Y415285D01*
X396078Y415383D01*
X396139Y415482D01*
X396197Y415584D01*
X396252Y415687D01*
X396303Y415793D01*
X396350Y415900D01*
X396394Y416008D01*
X396434Y416118D01*
X396471Y416229D01*
X396504Y416341D01*
X396533Y416455D01*
X396558Y416569D01*
X396579Y416684D01*
X396597Y416799D01*
X396610Y416916D01*
X396620Y417032D01*
X396626Y417149D01*
X396628Y417266D01*
X396627Y417266D02*
X396627Y419015D01*
X396628Y419015D02*
X396626Y419132D01*
X396620Y419249D01*
X396610Y419365D01*
X396597Y419482D01*
X396579Y419597D01*
X396558Y419712D01*
X396533Y419826D01*
X396504Y419940D01*
X396471Y420052D01*
X396434Y420163D01*
X396394Y420273D01*
X396350Y420381D01*
X396303Y420488D01*
X396252Y420594D01*
X396197Y420697D01*
X396139Y420799D01*
X396078Y420898D01*
X396014Y420996D01*
X395946Y421091D01*
X395875Y421184D01*
X395801Y421275D01*
X395724Y421363D01*
X395644Y421448D01*
X395561Y421531D01*
X395476Y421611D01*
X395388Y421688D01*
X395297Y421762D01*
X395204Y421833D01*
X395109Y421901D01*
X395011Y421965D01*
X394912Y422026D01*
X394810Y422084D01*
X394707Y422139D01*
X394601Y422190D01*
X394494Y422237D01*
X394386Y422281D01*
X394276Y422321D01*
X394165Y422358D01*
X394053Y422391D01*
X393939Y422420D01*
X393825Y422445D01*
X393710Y422466D01*
X393595Y422484D01*
X393478Y422497D01*
X393362Y422507D01*
X393245Y422513D01*
X393128Y422515D01*
X387879Y422515D01*
X387879Y429514D01*
X396627Y429514D01*
X403677Y419890D02*
X414176Y419890D01*
X426037Y429514D02*
X426161Y429512D01*
X426284Y429506D01*
X426408Y429497D01*
X426530Y429483D01*
X426653Y429466D01*
X426775Y429444D01*
X426896Y429419D01*
X427016Y429390D01*
X427135Y429358D01*
X427254Y429321D01*
X427371Y429281D01*
X427486Y429238D01*
X427601Y429190D01*
X427713Y429139D01*
X427824Y429085D01*
X427934Y429027D01*
X428041Y428966D01*
X428147Y428901D01*
X428250Y428833D01*
X428351Y428762D01*
X428450Y428688D01*
X428547Y428611D01*
X428641Y428530D01*
X428732Y428447D01*
X428821Y428361D01*
X428907Y428272D01*
X428990Y428181D01*
X429071Y428087D01*
X429148Y427990D01*
X429222Y427891D01*
X429293Y427790D01*
X429361Y427687D01*
X429426Y427581D01*
X429487Y427474D01*
X429545Y427364D01*
X429599Y427253D01*
X429650Y427141D01*
X429698Y427026D01*
X429741Y426911D01*
X429781Y426794D01*
X429818Y426675D01*
X429850Y426556D01*
X429879Y426436D01*
X429904Y426315D01*
X429926Y426193D01*
X429943Y426070D01*
X429957Y425948D01*
X429966Y425824D01*
X429972Y425701D01*
X429974Y425577D01*
X426037Y429514D02*
X425896Y429512D01*
X425754Y429506D01*
X425613Y429496D01*
X425473Y429482D01*
X425333Y429465D01*
X425193Y429443D01*
X425054Y429418D01*
X424916Y429388D01*
X424778Y429355D01*
X424642Y429318D01*
X424506Y429277D01*
X424372Y429232D01*
X424240Y429184D01*
X424108Y429132D01*
X423978Y429076D01*
X423850Y429017D01*
X423723Y428954D01*
X423599Y428887D01*
X423476Y428818D01*
X423355Y428744D01*
X423236Y428668D01*
X423119Y428588D01*
X423005Y428505D01*
X422893Y428418D01*
X422784Y428329D01*
X422677Y428237D01*
X422572Y428141D01*
X422471Y428043D01*
X422372Y427942D01*
X422276Y427838D01*
X422183Y427732D01*
X422093Y427623D01*
X422006Y427511D01*
X421922Y427397D01*
X421842Y427281D01*
X421764Y427163D01*
X421690Y427042D01*
X421620Y426920D01*
X421553Y426796D01*
X421489Y426669D01*
X421429Y426541D01*
X421372Y426412D01*
X421320Y426281D01*
X421270Y426148D01*
X421225Y426014D01*
X428662Y422515D02*
X428752Y422603D01*
X428840Y422695D01*
X428925Y422789D01*
X429007Y422886D01*
X429086Y422985D01*
X429163Y423086D01*
X429236Y423190D01*
X429306Y423295D01*
X429373Y423403D01*
X429436Y423513D01*
X429496Y423625D01*
X429553Y423738D01*
X429607Y423853D01*
X429657Y423970D01*
X429703Y424088D01*
X429746Y424207D01*
X429785Y424328D01*
X429821Y424449D01*
X429853Y424572D01*
X429881Y424696D01*
X429906Y424820D01*
X429927Y424945D01*
X429944Y425071D01*
X429957Y425197D01*
X429966Y425323D01*
X429972Y425450D01*
X429974Y425577D01*
X428662Y422515D02*
X421225Y413766D01*
X429974Y413766D01*
X437024Y419890D02*
X447522Y419890D01*
X454571Y421640D02*
X454575Y421950D01*
X454586Y422259D01*
X454604Y422569D01*
X454630Y422877D01*
X454663Y423185D01*
X454704Y423493D01*
X454752Y423799D01*
X454807Y424104D01*
X454869Y424407D01*
X454939Y424709D01*
X455016Y425009D01*
X455100Y425307D01*
X455191Y425603D01*
X455289Y425897D01*
X455394Y426189D01*
X455506Y426478D01*
X455625Y426764D01*
X455751Y427047D01*
X455883Y427327D01*
X455884Y427327D02*
X455922Y427432D01*
X455964Y427535D01*
X456009Y427637D01*
X456057Y427738D01*
X456109Y427836D01*
X456165Y427933D01*
X456223Y428028D01*
X456285Y428121D01*
X456350Y428211D01*
X456419Y428299D01*
X456490Y428385D01*
X456564Y428469D01*
X456641Y428549D01*
X456720Y428628D01*
X456803Y428703D01*
X456888Y428775D01*
X456975Y428845D01*
X457065Y428911D01*
X457156Y428974D01*
X457250Y429034D01*
X457346Y429091D01*
X457444Y429145D01*
X457544Y429195D01*
X457645Y429241D01*
X457748Y429284D01*
X457853Y429324D01*
X457958Y429360D01*
X458065Y429392D01*
X458173Y429420D01*
X458282Y429445D01*
X458391Y429466D01*
X458501Y429483D01*
X458612Y429497D01*
X458723Y429506D01*
X458834Y429512D01*
X458946Y429514D01*
X459058Y429512D01*
X459169Y429506D01*
X459280Y429497D01*
X459391Y429483D01*
X459501Y429466D01*
X459611Y429445D01*
X459719Y429420D01*
X459827Y429392D01*
X459934Y429360D01*
X460039Y429324D01*
X460144Y429284D01*
X460247Y429241D01*
X460348Y429195D01*
X460448Y429145D01*
X460546Y429091D01*
X460642Y429034D01*
X460736Y428974D01*
X460827Y428911D01*
X460917Y428845D01*
X461004Y428775D01*
X461089Y428703D01*
X461172Y428628D01*
X461251Y428549D01*
X461328Y428469D01*
X461402Y428385D01*
X461473Y428299D01*
X461542Y428211D01*
X461607Y428121D01*
X461669Y428028D01*
X461727Y427933D01*
X461783Y427836D01*
X461835Y427738D01*
X461883Y427637D01*
X461928Y427535D01*
X461970Y427432D01*
X462008Y427327D01*
X462140Y427047D01*
X462266Y426763D01*
X462385Y426477D01*
X462497Y426188D01*
X462602Y425897D01*
X462700Y425603D01*
X462791Y425307D01*
X462875Y425009D01*
X462952Y424709D01*
X463022Y424407D01*
X463084Y424103D01*
X463139Y423799D01*
X463187Y423493D01*
X463228Y423185D01*
X463261Y422877D01*
X463287Y422569D01*
X463305Y422259D01*
X463316Y421950D01*
X463320Y421640D01*
X454572Y421640D02*
X454576Y421330D01*
X454587Y421021D01*
X454605Y420711D01*
X454631Y420403D01*
X454664Y420095D01*
X454705Y419787D01*
X454753Y419481D01*
X454808Y419176D01*
X454870Y418873D01*
X454940Y418571D01*
X455017Y418271D01*
X455101Y417973D01*
X455192Y417677D01*
X455290Y417383D01*
X455395Y417091D01*
X455507Y416802D01*
X455626Y416516D01*
X455752Y416233D01*
X455884Y415953D01*
X455922Y415848D01*
X455964Y415745D01*
X456009Y415643D01*
X456057Y415542D01*
X456109Y415444D01*
X456165Y415347D01*
X456223Y415252D01*
X456285Y415159D01*
X456350Y415069D01*
X456419Y414981D01*
X456490Y414895D01*
X456564Y414811D01*
X456641Y414731D01*
X456720Y414652D01*
X456803Y414577D01*
X456888Y414505D01*
X456975Y414435D01*
X457065Y414369D01*
X457156Y414306D01*
X457250Y414246D01*
X457346Y414189D01*
X457444Y414135D01*
X457544Y414085D01*
X457645Y414039D01*
X457748Y413996D01*
X457853Y413956D01*
X457958Y413920D01*
X458065Y413888D01*
X458173Y413860D01*
X458282Y413835D01*
X458391Y413814D01*
X458501Y413797D01*
X458612Y413783D01*
X458723Y413774D01*
X458834Y413768D01*
X458946Y413766D01*
X462009Y415953D02*
X462141Y416233D01*
X462267Y416516D01*
X462386Y416802D01*
X462498Y417091D01*
X462603Y417383D01*
X462701Y417677D01*
X462792Y417973D01*
X462876Y418271D01*
X462953Y418571D01*
X463023Y418873D01*
X463085Y419176D01*
X463140Y419481D01*
X463188Y419787D01*
X463229Y420095D01*
X463262Y420403D01*
X463288Y420711D01*
X463306Y421021D01*
X463317Y421330D01*
X463321Y421640D01*
X462008Y415953D02*
X461970Y415848D01*
X461928Y415745D01*
X461883Y415643D01*
X461835Y415542D01*
X461783Y415444D01*
X461727Y415347D01*
X461669Y415252D01*
X461607Y415159D01*
X461542Y415069D01*
X461473Y414981D01*
X461402Y414895D01*
X461328Y414811D01*
X461251Y414731D01*
X461172Y414652D01*
X461089Y414577D01*
X461004Y414505D01*
X460917Y414435D01*
X460827Y414369D01*
X460736Y414306D01*
X460642Y414246D01*
X460546Y414189D01*
X460448Y414135D01*
X460348Y414085D01*
X460247Y414039D01*
X460144Y413996D01*
X460039Y413956D01*
X459934Y413920D01*
X459827Y413888D01*
X459719Y413860D01*
X459610Y413835D01*
X459501Y413814D01*
X459391Y413797D01*
X459280Y413783D01*
X459169Y413774D01*
X459058Y413768D01*
X458946Y413766D01*
X455447Y417266D02*
X462446Y426014D01*
X470203Y426014D02*
X474578Y429514D01*
X474578Y413766D01*
X478952Y413766D02*
X470203Y413766D01*
X486002Y419890D02*
X496500Y419890D01*
X503549Y421640D02*
X503553Y421950D01*
X503564Y422259D01*
X503582Y422569D01*
X503608Y422877D01*
X503641Y423185D01*
X503682Y423493D01*
X503730Y423799D01*
X503785Y424104D01*
X503847Y424407D01*
X503917Y424709D01*
X503994Y425009D01*
X504078Y425307D01*
X504169Y425603D01*
X504267Y425897D01*
X504372Y426189D01*
X504484Y426478D01*
X504603Y426764D01*
X504729Y427047D01*
X504861Y427327D01*
X504862Y427327D02*
X504900Y427432D01*
X504942Y427535D01*
X504987Y427637D01*
X505035Y427738D01*
X505087Y427836D01*
X505143Y427933D01*
X505201Y428028D01*
X505263Y428121D01*
X505328Y428211D01*
X505397Y428299D01*
X505468Y428385D01*
X505542Y428469D01*
X505619Y428549D01*
X505698Y428628D01*
X505781Y428703D01*
X505866Y428775D01*
X505953Y428845D01*
X506043Y428911D01*
X506134Y428974D01*
X506228Y429034D01*
X506324Y429091D01*
X506422Y429145D01*
X506522Y429195D01*
X506623Y429241D01*
X506726Y429284D01*
X506831Y429324D01*
X506936Y429360D01*
X507043Y429392D01*
X507151Y429420D01*
X507260Y429445D01*
X507369Y429466D01*
X507479Y429483D01*
X507590Y429497D01*
X507701Y429506D01*
X507812Y429512D01*
X507924Y429514D01*
X508036Y429512D01*
X508147Y429506D01*
X508258Y429497D01*
X508369Y429483D01*
X508479Y429466D01*
X508589Y429445D01*
X508697Y429420D01*
X508805Y429392D01*
X508912Y429360D01*
X509017Y429324D01*
X509122Y429284D01*
X509225Y429241D01*
X509326Y429195D01*
X509426Y429145D01*
X509524Y429091D01*
X509620Y429034D01*
X509714Y428974D01*
X509805Y428911D01*
X509895Y428845D01*
X509982Y428775D01*
X510067Y428703D01*
X510150Y428628D01*
X510229Y428549D01*
X510306Y428469D01*
X510380Y428385D01*
X510451Y428299D01*
X510520Y428211D01*
X510585Y428121D01*
X510647Y428028D01*
X510705Y427933D01*
X510761Y427836D01*
X510813Y427738D01*
X510861Y427637D01*
X510906Y427535D01*
X510948Y427432D01*
X510986Y427327D01*
X511118Y427047D01*
X511244Y426763D01*
X511363Y426477D01*
X511475Y426188D01*
X511580Y425897D01*
X511678Y425603D01*
X511769Y425307D01*
X511853Y425009D01*
X511930Y424709D01*
X512000Y424407D01*
X512062Y424103D01*
X512117Y423799D01*
X512165Y423493D01*
X512206Y423185D01*
X512239Y422877D01*
X512265Y422569D01*
X512283Y422259D01*
X512294Y421950D01*
X512298Y421640D01*
X503550Y421640D02*
X503554Y421330D01*
X503565Y421021D01*
X503583Y420711D01*
X503609Y420403D01*
X503642Y420095D01*
X503683Y419787D01*
X503731Y419481D01*
X503786Y419176D01*
X503848Y418873D01*
X503918Y418571D01*
X503995Y418271D01*
X504079Y417973D01*
X504170Y417677D01*
X504268Y417383D01*
X504373Y417091D01*
X504485Y416802D01*
X504604Y416516D01*
X504730Y416233D01*
X504862Y415953D01*
X504900Y415848D01*
X504942Y415745D01*
X504987Y415643D01*
X505035Y415542D01*
X505087Y415444D01*
X505143Y415347D01*
X505201Y415252D01*
X505263Y415159D01*
X505328Y415069D01*
X505397Y414981D01*
X505468Y414895D01*
X505542Y414811D01*
X505619Y414731D01*
X505698Y414652D01*
X505781Y414577D01*
X505866Y414505D01*
X505953Y414435D01*
X506043Y414369D01*
X506134Y414306D01*
X506228Y414246D01*
X506324Y414189D01*
X506422Y414135D01*
X506522Y414085D01*
X506623Y414039D01*
X506726Y413996D01*
X506831Y413956D01*
X506936Y413920D01*
X507043Y413888D01*
X507151Y413860D01*
X507260Y413835D01*
X507369Y413814D01*
X507479Y413797D01*
X507590Y413783D01*
X507701Y413774D01*
X507812Y413768D01*
X507924Y413766D01*
X510987Y415953D02*
X511119Y416233D01*
X511245Y416516D01*
X511364Y416802D01*
X511476Y417091D01*
X511581Y417383D01*
X511679Y417677D01*
X511770Y417973D01*
X511854Y418271D01*
X511931Y418571D01*
X512001Y418873D01*
X512063Y419176D01*
X512118Y419481D01*
X512166Y419787D01*
X512207Y420095D01*
X512240Y420403D01*
X512266Y420711D01*
X512284Y421021D01*
X512295Y421330D01*
X512299Y421640D01*
X510986Y415953D02*
X510948Y415848D01*
X510906Y415745D01*
X510861Y415643D01*
X510813Y415542D01*
X510761Y415444D01*
X510705Y415347D01*
X510647Y415252D01*
X510585Y415159D01*
X510520Y415069D01*
X510451Y414981D01*
X510380Y414895D01*
X510306Y414811D01*
X510229Y414731D01*
X510150Y414652D01*
X510067Y414577D01*
X509982Y414505D01*
X509895Y414435D01*
X509805Y414369D01*
X509714Y414306D01*
X509620Y414246D01*
X509524Y414189D01*
X509426Y414135D01*
X509326Y414085D01*
X509225Y414039D01*
X509122Y413996D01*
X509017Y413956D01*
X508912Y413920D01*
X508805Y413888D01*
X508697Y413860D01*
X508588Y413835D01*
X508479Y413814D01*
X508369Y413797D01*
X508258Y413783D01*
X508147Y413774D01*
X508036Y413768D01*
X507924Y413766D01*
X504425Y417266D02*
X511424Y426014D01*
X519181Y421640D02*
X519185Y421950D01*
X519196Y422259D01*
X519214Y422569D01*
X519240Y422877D01*
X519273Y423185D01*
X519314Y423493D01*
X519362Y423799D01*
X519417Y424104D01*
X519479Y424407D01*
X519549Y424709D01*
X519626Y425009D01*
X519710Y425307D01*
X519801Y425603D01*
X519899Y425897D01*
X520004Y426189D01*
X520116Y426478D01*
X520235Y426764D01*
X520361Y427047D01*
X520493Y427327D01*
X520531Y427432D01*
X520573Y427535D01*
X520618Y427637D01*
X520666Y427738D01*
X520718Y427836D01*
X520774Y427933D01*
X520832Y428028D01*
X520894Y428121D01*
X520959Y428211D01*
X521028Y428299D01*
X521099Y428385D01*
X521173Y428469D01*
X521250Y428549D01*
X521329Y428628D01*
X521412Y428703D01*
X521497Y428775D01*
X521584Y428845D01*
X521674Y428911D01*
X521765Y428974D01*
X521859Y429034D01*
X521955Y429091D01*
X522053Y429145D01*
X522153Y429195D01*
X522254Y429241D01*
X522357Y429284D01*
X522462Y429324D01*
X522567Y429360D01*
X522674Y429392D01*
X522782Y429420D01*
X522891Y429445D01*
X523000Y429466D01*
X523110Y429483D01*
X523221Y429497D01*
X523332Y429506D01*
X523443Y429512D01*
X523555Y429514D01*
X523667Y429512D01*
X523778Y429506D01*
X523889Y429497D01*
X524000Y429483D01*
X524110Y429466D01*
X524220Y429445D01*
X524328Y429420D01*
X524436Y429392D01*
X524543Y429360D01*
X524648Y429324D01*
X524753Y429284D01*
X524856Y429241D01*
X524957Y429195D01*
X525057Y429145D01*
X525155Y429091D01*
X525251Y429034D01*
X525345Y428974D01*
X525436Y428911D01*
X525526Y428845D01*
X525613Y428775D01*
X525698Y428703D01*
X525781Y428628D01*
X525860Y428549D01*
X525937Y428469D01*
X526011Y428385D01*
X526082Y428299D01*
X526151Y428211D01*
X526216Y428121D01*
X526278Y428028D01*
X526336Y427933D01*
X526392Y427836D01*
X526444Y427738D01*
X526492Y427637D01*
X526537Y427535D01*
X526579Y427432D01*
X526617Y427327D01*
X526618Y427327D02*
X526750Y427047D01*
X526876Y426763D01*
X526995Y426477D01*
X527107Y426188D01*
X527212Y425897D01*
X527310Y425603D01*
X527401Y425307D01*
X527485Y425009D01*
X527562Y424709D01*
X527632Y424407D01*
X527694Y424103D01*
X527749Y423799D01*
X527797Y423493D01*
X527838Y423185D01*
X527871Y422877D01*
X527897Y422569D01*
X527915Y422259D01*
X527926Y421950D01*
X527930Y421640D01*
X519181Y421640D02*
X519185Y421330D01*
X519196Y421021D01*
X519214Y420711D01*
X519240Y420403D01*
X519273Y420095D01*
X519314Y419787D01*
X519362Y419481D01*
X519417Y419176D01*
X519479Y418873D01*
X519549Y418571D01*
X519626Y418271D01*
X519710Y417973D01*
X519801Y417677D01*
X519899Y417383D01*
X520004Y417091D01*
X520116Y416802D01*
X520235Y416516D01*
X520361Y416233D01*
X520493Y415953D01*
X520531Y415848D01*
X520573Y415745D01*
X520618Y415643D01*
X520666Y415542D01*
X520718Y415444D01*
X520774Y415347D01*
X520832Y415252D01*
X520894Y415159D01*
X520959Y415069D01*
X521028Y414981D01*
X521099Y414895D01*
X521173Y414811D01*
X521250Y414731D01*
X521329Y414652D01*
X521412Y414577D01*
X521497Y414505D01*
X521584Y414435D01*
X521674Y414369D01*
X521765Y414306D01*
X521859Y414246D01*
X521955Y414189D01*
X522053Y414135D01*
X522153Y414085D01*
X522254Y414039D01*
X522357Y413996D01*
X522462Y413956D01*
X522567Y413920D01*
X522674Y413888D01*
X522782Y413860D01*
X522891Y413835D01*
X523000Y413814D01*
X523110Y413797D01*
X523221Y413783D01*
X523332Y413774D01*
X523443Y413768D01*
X523555Y413766D01*
X526618Y415953D02*
X526750Y416233D01*
X526876Y416516D01*
X526995Y416802D01*
X527107Y417091D01*
X527212Y417383D01*
X527310Y417677D01*
X527401Y417973D01*
X527485Y418271D01*
X527562Y418571D01*
X527632Y418873D01*
X527694Y419176D01*
X527749Y419481D01*
X527797Y419787D01*
X527838Y420095D01*
X527871Y420403D01*
X527897Y420711D01*
X527915Y421021D01*
X527926Y421330D01*
X527930Y421640D01*
X526617Y415953D02*
X526579Y415848D01*
X526537Y415745D01*
X526492Y415643D01*
X526444Y415542D01*
X526392Y415444D01*
X526336Y415347D01*
X526278Y415252D01*
X526216Y415159D01*
X526151Y415069D01*
X526082Y414981D01*
X526011Y414895D01*
X525937Y414811D01*
X525860Y414731D01*
X525781Y414652D01*
X525698Y414577D01*
X525613Y414505D01*
X525526Y414435D01*
X525436Y414369D01*
X525345Y414306D01*
X525251Y414246D01*
X525155Y414189D01*
X525057Y414135D01*
X524957Y414085D01*
X524856Y414039D01*
X524753Y413996D01*
X524648Y413956D01*
X524543Y413920D01*
X524436Y413888D01*
X524328Y413860D01*
X524219Y413835D01*
X524110Y413814D01*
X524000Y413797D01*
X523889Y413783D01*
X523778Y413774D01*
X523667Y413768D01*
X523555Y413766D01*
X520056Y417266D02*
X527055Y426014D01*
X297490Y382016D02*
X293116Y382016D01*
X297490Y382016D02*
X297621Y382018D01*
X297752Y382024D01*
X297882Y382034D01*
X298012Y382047D01*
X298142Y382065D01*
X298271Y382086D01*
X298399Y382112D01*
X298527Y382141D01*
X298654Y382174D01*
X298779Y382210D01*
X298904Y382251D01*
X299027Y382295D01*
X299149Y382343D01*
X299269Y382394D01*
X299388Y382449D01*
X299505Y382508D01*
X299620Y382570D01*
X299733Y382635D01*
X299845Y382704D01*
X299954Y382776D01*
X300061Y382851D01*
X300166Y382930D01*
X300268Y383011D01*
X300368Y383096D01*
X300465Y383184D01*
X300560Y383274D01*
X300652Y383367D01*
X300741Y383463D01*
X300827Y383562D01*
X300910Y383663D01*
X300990Y383766D01*
X301067Y383872D01*
X301140Y383980D01*
X301211Y384091D01*
X301278Y384203D01*
X301342Y384317D01*
X301402Y384433D01*
X301459Y384551D01*
X301512Y384671D01*
X301562Y384792D01*
X301608Y384915D01*
X301650Y385038D01*
X301688Y385163D01*
X301723Y385290D01*
X301754Y385417D01*
X301782Y385545D01*
X301805Y385673D01*
X301824Y385803D01*
X301840Y385933D01*
X301852Y386063D01*
X301860Y386194D01*
X301864Y386325D01*
X301864Y386455D01*
X301860Y386586D01*
X301852Y386717D01*
X301840Y386847D01*
X301824Y386977D01*
X301805Y387107D01*
X301782Y387235D01*
X301754Y387363D01*
X301723Y387490D01*
X301688Y387617D01*
X301650Y387742D01*
X301608Y387865D01*
X301562Y387988D01*
X301512Y388109D01*
X301459Y388229D01*
X301402Y388347D01*
X301342Y388463D01*
X301278Y388577D01*
X301211Y388689D01*
X301140Y388800D01*
X301067Y388908D01*
X300990Y389014D01*
X300910Y389117D01*
X300827Y389218D01*
X300741Y389317D01*
X300652Y389413D01*
X300560Y389506D01*
X300465Y389596D01*
X300368Y389684D01*
X300268Y389769D01*
X300166Y389850D01*
X300061Y389929D01*
X299954Y390004D01*
X299845Y390076D01*
X299733Y390145D01*
X299620Y390210D01*
X299505Y390272D01*
X299388Y390331D01*
X299269Y390386D01*
X299149Y390437D01*
X299027Y390485D01*
X298904Y390529D01*
X298779Y390570D01*
X298654Y390606D01*
X298527Y390639D01*
X298399Y390668D01*
X298271Y390694D01*
X298142Y390715D01*
X298012Y390733D01*
X297882Y390746D01*
X297752Y390756D01*
X297621Y390762D01*
X297490Y390764D01*
X298365Y397764D02*
X293116Y397764D01*
X298365Y397764D02*
X298483Y397762D01*
X298601Y397756D01*
X298719Y397746D01*
X298836Y397732D01*
X298953Y397714D01*
X299070Y397692D01*
X299185Y397667D01*
X299299Y397637D01*
X299413Y397603D01*
X299525Y397566D01*
X299636Y397525D01*
X299745Y397480D01*
X299853Y397432D01*
X299959Y397380D01*
X300064Y397324D01*
X300166Y397265D01*
X300266Y397203D01*
X300364Y397137D01*
X300460Y397068D01*
X300554Y396995D01*
X300645Y396920D01*
X300733Y396841D01*
X300819Y396760D01*
X300902Y396675D01*
X300982Y396588D01*
X301059Y396499D01*
X301133Y396406D01*
X301203Y396312D01*
X301271Y396215D01*
X301335Y396115D01*
X301396Y396014D01*
X301453Y395911D01*
X301507Y395805D01*
X301558Y395698D01*
X301604Y395590D01*
X301647Y395480D01*
X301686Y395368D01*
X301722Y395255D01*
X301753Y395141D01*
X301781Y395026D01*
X301805Y394911D01*
X301825Y394794D01*
X301841Y394677D01*
X301853Y394559D01*
X301861Y394441D01*
X301865Y394323D01*
X301865Y394205D01*
X301861Y394087D01*
X301853Y393969D01*
X301841Y393851D01*
X301825Y393734D01*
X301805Y393617D01*
X301781Y393502D01*
X301753Y393387D01*
X301722Y393273D01*
X301686Y393160D01*
X301647Y393048D01*
X301604Y392938D01*
X301558Y392830D01*
X301507Y392723D01*
X301453Y392617D01*
X301396Y392514D01*
X301335Y392413D01*
X301271Y392313D01*
X301203Y392216D01*
X301133Y392122D01*
X301059Y392029D01*
X300982Y391940D01*
X300902Y391853D01*
X300819Y391768D01*
X300733Y391687D01*
X300645Y391608D01*
X300554Y391533D01*
X300460Y391460D01*
X300364Y391391D01*
X300266Y391325D01*
X300166Y391263D01*
X300064Y391204D01*
X299959Y391148D01*
X299853Y391096D01*
X299745Y391048D01*
X299636Y391003D01*
X299525Y390962D01*
X299413Y390925D01*
X299299Y390891D01*
X299185Y390861D01*
X299070Y390836D01*
X298953Y390814D01*
X298836Y390796D01*
X298719Y390782D01*
X298601Y390772D01*
X298483Y390766D01*
X298365Y390764D01*
X298365Y390765D02*
X294866Y390765D01*
X308747Y382016D02*
X313997Y382016D01*
X314114Y382018D01*
X314231Y382024D01*
X314347Y382034D01*
X314464Y382047D01*
X314579Y382065D01*
X314694Y382086D01*
X314808Y382111D01*
X314922Y382140D01*
X315034Y382173D01*
X315145Y382210D01*
X315255Y382250D01*
X315363Y382294D01*
X315470Y382341D01*
X315576Y382392D01*
X315679Y382447D01*
X315781Y382505D01*
X315880Y382566D01*
X315978Y382630D01*
X316073Y382698D01*
X316166Y382769D01*
X316257Y382843D01*
X316345Y382920D01*
X316430Y383000D01*
X316513Y383083D01*
X316593Y383168D01*
X316670Y383256D01*
X316744Y383347D01*
X316815Y383440D01*
X316883Y383535D01*
X316947Y383633D01*
X317008Y383732D01*
X317066Y383834D01*
X317121Y383937D01*
X317172Y384043D01*
X317219Y384150D01*
X317263Y384258D01*
X317303Y384368D01*
X317340Y384479D01*
X317373Y384591D01*
X317402Y384705D01*
X317427Y384819D01*
X317448Y384934D01*
X317466Y385049D01*
X317479Y385166D01*
X317489Y385282D01*
X317495Y385399D01*
X317497Y385516D01*
X317496Y385516D02*
X317496Y387265D01*
X317497Y387265D02*
X317495Y387382D01*
X317489Y387499D01*
X317479Y387615D01*
X317466Y387732D01*
X317448Y387847D01*
X317427Y387962D01*
X317402Y388076D01*
X317373Y388190D01*
X317340Y388302D01*
X317303Y388413D01*
X317263Y388523D01*
X317219Y388631D01*
X317172Y388738D01*
X317121Y388844D01*
X317066Y388947D01*
X317008Y389049D01*
X316947Y389148D01*
X316883Y389246D01*
X316815Y389341D01*
X316744Y389434D01*
X316670Y389525D01*
X316593Y389613D01*
X316513Y389698D01*
X316430Y389781D01*
X316345Y389861D01*
X316257Y389938D01*
X316166Y390012D01*
X316073Y390083D01*
X315978Y390151D01*
X315880Y390215D01*
X315781Y390276D01*
X315679Y390334D01*
X315576Y390389D01*
X315470Y390440D01*
X315363Y390487D01*
X315255Y390531D01*
X315145Y390571D01*
X315034Y390608D01*
X314922Y390641D01*
X314808Y390670D01*
X314694Y390695D01*
X314579Y390716D01*
X314464Y390734D01*
X314347Y390747D01*
X314231Y390757D01*
X314114Y390763D01*
X313997Y390765D01*
X308747Y390765D01*
X308747Y397764D01*
X317496Y397764D01*
X325348Y392515D02*
X325348Y376767D01*
X332347Y385516D02*
X332347Y392515D01*
X332348Y385516D02*
X332346Y385398D01*
X332340Y385280D01*
X332330Y385162D01*
X332316Y385045D01*
X332298Y384928D01*
X332276Y384811D01*
X332251Y384696D01*
X332221Y384582D01*
X332187Y384468D01*
X332150Y384356D01*
X332109Y384245D01*
X332064Y384136D01*
X332016Y384028D01*
X331964Y383922D01*
X331908Y383817D01*
X331849Y383715D01*
X331787Y383615D01*
X331721Y383517D01*
X331652Y383421D01*
X331579Y383327D01*
X331504Y383236D01*
X331425Y383148D01*
X331344Y383062D01*
X331259Y382979D01*
X331172Y382899D01*
X331083Y382822D01*
X330990Y382748D01*
X330896Y382678D01*
X330799Y382610D01*
X330699Y382546D01*
X330598Y382485D01*
X330495Y382428D01*
X330389Y382374D01*
X330282Y382323D01*
X330174Y382277D01*
X330064Y382234D01*
X329952Y382195D01*
X329839Y382159D01*
X329725Y382128D01*
X329610Y382100D01*
X329495Y382076D01*
X329378Y382056D01*
X329261Y382040D01*
X329143Y382028D01*
X329025Y382020D01*
X328907Y382016D01*
X328789Y382016D01*
X328671Y382020D01*
X328553Y382028D01*
X328435Y382040D01*
X328318Y382056D01*
X328201Y382076D01*
X328086Y382100D01*
X327971Y382128D01*
X327857Y382159D01*
X327744Y382195D01*
X327632Y382234D01*
X327522Y382277D01*
X327414Y382323D01*
X327307Y382374D01*
X327201Y382428D01*
X327098Y382485D01*
X326997Y382546D01*
X326897Y382610D01*
X326800Y382678D01*
X326706Y382748D01*
X326613Y382822D01*
X326524Y382899D01*
X326437Y382979D01*
X326352Y383062D01*
X326271Y383148D01*
X326192Y383236D01*
X326117Y383327D01*
X326044Y383421D01*
X325975Y383517D01*
X325909Y383615D01*
X325847Y383715D01*
X325788Y383817D01*
X325732Y383922D01*
X325680Y384028D01*
X325632Y384136D01*
X325587Y384245D01*
X325546Y384356D01*
X325509Y384468D01*
X325475Y384582D01*
X325445Y384696D01*
X325420Y384811D01*
X325398Y384928D01*
X325380Y385045D01*
X325366Y385162D01*
X325356Y385280D01*
X325350Y385398D01*
X325348Y385516D01*
X332347Y385516D02*
X332347Y383766D01*
X332349Y383685D01*
X332354Y383605D01*
X332364Y383524D01*
X332377Y383444D01*
X332393Y383365D01*
X332414Y383287D01*
X332438Y383210D01*
X332465Y383134D01*
X332496Y383059D01*
X332530Y382986D01*
X332568Y382914D01*
X332609Y382845D01*
X332653Y382777D01*
X332700Y382711D01*
X332751Y382648D01*
X332804Y382587D01*
X332860Y382529D01*
X332918Y382473D01*
X332979Y382420D01*
X333042Y382369D01*
X333108Y382322D01*
X333176Y382278D01*
X333245Y382237D01*
X333317Y382199D01*
X333390Y382165D01*
X333465Y382134D01*
X333541Y382107D01*
X333618Y382083D01*
X333696Y382062D01*
X333775Y382046D01*
X333855Y382033D01*
X333936Y382023D01*
X334016Y382018D01*
X334097Y382016D01*
X340177Y382016D02*
X340177Y392515D01*
X348051Y392515D01*
X348152Y392513D01*
X348252Y392507D01*
X348352Y392498D01*
X348452Y392484D01*
X348551Y392467D01*
X348649Y392446D01*
X348747Y392421D01*
X348843Y392393D01*
X348938Y392360D01*
X349032Y392325D01*
X349125Y392285D01*
X349216Y392242D01*
X349305Y392196D01*
X349392Y392146D01*
X349478Y392093D01*
X349561Y392037D01*
X349642Y391978D01*
X349721Y391915D01*
X349797Y391850D01*
X349871Y391781D01*
X349942Y391710D01*
X350011Y391636D01*
X350076Y391560D01*
X350139Y391481D01*
X350198Y391400D01*
X350254Y391317D01*
X350307Y391231D01*
X350357Y391144D01*
X350403Y391055D01*
X350446Y390964D01*
X350486Y390871D01*
X350521Y390777D01*
X350554Y390682D01*
X350582Y390586D01*
X350607Y390488D01*
X350628Y390390D01*
X350645Y390291D01*
X350659Y390191D01*
X350668Y390091D01*
X350674Y389991D01*
X350676Y389890D01*
X350676Y382016D01*
X345426Y382016D02*
X345426Y392515D01*
X524940Y397764D02*
X525064Y397762D01*
X525187Y397756D01*
X525311Y397747D01*
X525433Y397733D01*
X525556Y397716D01*
X525678Y397694D01*
X525799Y397669D01*
X525919Y397640D01*
X526038Y397608D01*
X526157Y397571D01*
X526274Y397531D01*
X526389Y397488D01*
X526504Y397440D01*
X526616Y397389D01*
X526727Y397335D01*
X526837Y397277D01*
X526944Y397216D01*
X527050Y397151D01*
X527153Y397083D01*
X527254Y397012D01*
X527353Y396938D01*
X527450Y396861D01*
X527544Y396780D01*
X527635Y396697D01*
X527724Y396611D01*
X527810Y396522D01*
X527893Y396431D01*
X527974Y396337D01*
X528051Y396240D01*
X528125Y396141D01*
X528196Y396040D01*
X528264Y395937D01*
X528329Y395831D01*
X528390Y395724D01*
X528448Y395614D01*
X528502Y395503D01*
X528553Y395391D01*
X528601Y395276D01*
X528644Y395161D01*
X528684Y395044D01*
X528721Y394925D01*
X528753Y394806D01*
X528782Y394686D01*
X528807Y394565D01*
X528829Y394443D01*
X528846Y394320D01*
X528860Y394198D01*
X528869Y394074D01*
X528875Y393951D01*
X528877Y393827D01*
X524940Y397764D02*
X524799Y397762D01*
X524657Y397756D01*
X524516Y397746D01*
X524376Y397732D01*
X524236Y397715D01*
X524096Y397693D01*
X523957Y397668D01*
X523819Y397638D01*
X523681Y397605D01*
X523545Y397568D01*
X523409Y397527D01*
X523275Y397482D01*
X523143Y397434D01*
X523011Y397382D01*
X522881Y397326D01*
X522753Y397267D01*
X522626Y397204D01*
X522502Y397137D01*
X522379Y397068D01*
X522258Y396994D01*
X522139Y396918D01*
X522022Y396838D01*
X521908Y396755D01*
X521796Y396668D01*
X521687Y396579D01*
X521580Y396487D01*
X521475Y396391D01*
X521374Y396293D01*
X521275Y396192D01*
X521179Y396088D01*
X521086Y395982D01*
X520996Y395873D01*
X520909Y395761D01*
X520825Y395647D01*
X520745Y395531D01*
X520667Y395413D01*
X520593Y395292D01*
X520523Y395170D01*
X520456Y395046D01*
X520392Y394919D01*
X520332Y394791D01*
X520275Y394662D01*
X520223Y394531D01*
X520173Y394398D01*
X520128Y394264D01*
X527566Y390765D02*
X527656Y390853D01*
X527744Y390945D01*
X527829Y391039D01*
X527911Y391136D01*
X527990Y391235D01*
X528067Y391336D01*
X528140Y391440D01*
X528210Y391545D01*
X528277Y391653D01*
X528340Y391763D01*
X528400Y391875D01*
X528457Y391988D01*
X528511Y392103D01*
X528561Y392220D01*
X528607Y392338D01*
X528650Y392457D01*
X528689Y392578D01*
X528725Y392699D01*
X528757Y392822D01*
X528785Y392946D01*
X528810Y393070D01*
X528831Y393195D01*
X528848Y393321D01*
X528861Y393447D01*
X528870Y393573D01*
X528876Y393700D01*
X528878Y393827D01*
X527565Y390765D02*
X520129Y382016D01*
X528877Y382016D01*
X459528Y332077D02*
X459396Y331797D01*
X459270Y331514D01*
X459151Y331228D01*
X459039Y330939D01*
X458934Y330647D01*
X458836Y330353D01*
X458745Y330057D01*
X458661Y329759D01*
X458584Y329459D01*
X458514Y329157D01*
X458452Y328854D01*
X458397Y328549D01*
X458349Y328243D01*
X458308Y327935D01*
X458275Y327627D01*
X458249Y327319D01*
X458231Y327009D01*
X458220Y326700D01*
X458216Y326390D01*
X459528Y332077D02*
X459566Y332182D01*
X459608Y332285D01*
X459653Y332387D01*
X459701Y332488D01*
X459753Y332586D01*
X459809Y332683D01*
X459867Y332778D01*
X459929Y332871D01*
X459994Y332961D01*
X460063Y333049D01*
X460134Y333135D01*
X460208Y333219D01*
X460285Y333299D01*
X460364Y333378D01*
X460447Y333453D01*
X460532Y333525D01*
X460619Y333595D01*
X460709Y333661D01*
X460800Y333724D01*
X460894Y333784D01*
X460990Y333841D01*
X461088Y333895D01*
X461188Y333945D01*
X461289Y333991D01*
X461392Y334034D01*
X461497Y334074D01*
X461602Y334110D01*
X461709Y334142D01*
X461817Y334170D01*
X461926Y334195D01*
X462035Y334216D01*
X462145Y334233D01*
X462256Y334247D01*
X462367Y334256D01*
X462478Y334262D01*
X462590Y334264D01*
X462702Y334262D01*
X462813Y334256D01*
X462924Y334247D01*
X463035Y334233D01*
X463145Y334216D01*
X463255Y334195D01*
X463363Y334170D01*
X463471Y334142D01*
X463578Y334110D01*
X463683Y334074D01*
X463788Y334034D01*
X463891Y333991D01*
X463992Y333945D01*
X464092Y333895D01*
X464190Y333841D01*
X464286Y333784D01*
X464380Y333724D01*
X464471Y333661D01*
X464561Y333595D01*
X464648Y333525D01*
X464733Y333453D01*
X464816Y333378D01*
X464895Y333299D01*
X464972Y333219D01*
X465046Y333135D01*
X465117Y333049D01*
X465186Y332961D01*
X465251Y332871D01*
X465313Y332778D01*
X465371Y332683D01*
X465427Y332586D01*
X465479Y332488D01*
X465527Y332387D01*
X465572Y332285D01*
X465614Y332182D01*
X465652Y332077D01*
X465653Y332077D02*
X465785Y331797D01*
X465911Y331513D01*
X466030Y331227D01*
X466142Y330938D01*
X466247Y330647D01*
X466345Y330353D01*
X466436Y330057D01*
X466520Y329759D01*
X466597Y329459D01*
X466667Y329157D01*
X466729Y328853D01*
X466784Y328549D01*
X466832Y328243D01*
X466873Y327935D01*
X466906Y327627D01*
X466932Y327319D01*
X466950Y327009D01*
X466961Y326700D01*
X466965Y326390D01*
X458216Y326390D02*
X458220Y326080D01*
X458231Y325771D01*
X458249Y325461D01*
X458275Y325153D01*
X458308Y324845D01*
X458349Y324537D01*
X458397Y324231D01*
X458452Y323926D01*
X458514Y323623D01*
X458584Y323321D01*
X458661Y323021D01*
X458745Y322723D01*
X458836Y322427D01*
X458934Y322133D01*
X459039Y321841D01*
X459151Y321552D01*
X459270Y321266D01*
X459396Y320983D01*
X459528Y320703D01*
X459566Y320598D01*
X459608Y320495D01*
X459653Y320393D01*
X459701Y320292D01*
X459753Y320194D01*
X459809Y320097D01*
X459867Y320002D01*
X459929Y319909D01*
X459994Y319819D01*
X460063Y319731D01*
X460134Y319645D01*
X460208Y319561D01*
X460285Y319481D01*
X460364Y319402D01*
X460447Y319327D01*
X460532Y319255D01*
X460619Y319185D01*
X460709Y319119D01*
X460800Y319056D01*
X460894Y318996D01*
X460990Y318939D01*
X461088Y318885D01*
X461188Y318835D01*
X461289Y318789D01*
X461392Y318746D01*
X461497Y318706D01*
X461602Y318670D01*
X461709Y318638D01*
X461817Y318610D01*
X461926Y318585D01*
X462035Y318564D01*
X462145Y318547D01*
X462256Y318533D01*
X462367Y318524D01*
X462478Y318518D01*
X462590Y318516D01*
X465653Y320703D02*
X465785Y320983D01*
X465911Y321266D01*
X466030Y321552D01*
X466142Y321841D01*
X466247Y322133D01*
X466345Y322427D01*
X466436Y322723D01*
X466520Y323021D01*
X466597Y323321D01*
X466667Y323623D01*
X466729Y323926D01*
X466784Y324231D01*
X466832Y324537D01*
X466873Y324845D01*
X466906Y325153D01*
X466932Y325461D01*
X466950Y325771D01*
X466961Y326080D01*
X466965Y326390D01*
X465652Y320703D02*
X465614Y320598D01*
X465572Y320495D01*
X465527Y320393D01*
X465479Y320292D01*
X465427Y320194D01*
X465371Y320097D01*
X465313Y320002D01*
X465251Y319909D01*
X465186Y319819D01*
X465117Y319731D01*
X465046Y319645D01*
X464972Y319561D01*
X464895Y319481D01*
X464816Y319402D01*
X464733Y319327D01*
X464648Y319255D01*
X464561Y319185D01*
X464471Y319119D01*
X464380Y319056D01*
X464286Y318996D01*
X464190Y318939D01*
X464092Y318885D01*
X463992Y318835D01*
X463891Y318789D01*
X463788Y318746D01*
X463683Y318706D01*
X463578Y318670D01*
X463471Y318638D01*
X463363Y318610D01*
X463254Y318585D01*
X463145Y318564D01*
X463035Y318547D01*
X462924Y318533D01*
X462813Y318524D01*
X462702Y318518D01*
X462590Y318516D01*
X459091Y322016D02*
X466090Y330764D01*
D10*
X540000Y130000D02*
X539756Y129997D01*
X539513Y129988D01*
X539270Y129973D01*
X539027Y129953D01*
X538785Y129926D01*
X538544Y129893D01*
X538304Y129855D01*
X538064Y129811D01*
X537826Y129761D01*
X537589Y129705D01*
X537353Y129643D01*
X537119Y129576D01*
X536887Y129503D01*
X536656Y129424D01*
X536428Y129340D01*
X536201Y129250D01*
X535977Y129155D01*
X535755Y129054D01*
X535536Y128948D01*
X535320Y128837D01*
X535106Y128720D01*
X534895Y128599D01*
X534687Y128472D01*
X534482Y128340D01*
X534281Y128203D01*
X534083Y128061D01*
X533888Y127915D01*
X533697Y127764D01*
X533510Y127608D01*
X533327Y127448D01*
X533147Y127283D01*
X532972Y127114D01*
X532801Y126941D01*
X532634Y126763D01*
X532472Y126582D01*
X532314Y126397D01*
X532160Y126208D01*
X532011Y126015D01*
X531867Y125819D01*
X531728Y125619D01*
X531593Y125416D01*
X531464Y125209D01*
X531340Y125000D01*
X531221Y124788D01*
X531107Y124572D01*
X530998Y124355D01*
X530895Y124134D01*
X530797Y123911D01*
X530704Y123686D01*
X530617Y123458D01*
X530536Y123229D01*
X530460Y122997D01*
X530390Y122764D01*
X530325Y122529D01*
X530266Y122293D01*
X530213Y122055D01*
X530166Y121816D01*
X530125Y121576D01*
X530090Y121335D01*
X530060Y121094D01*
X530036Y120851D01*
X530019Y120608D01*
X530007Y120365D01*
X530001Y120122D01*
X530001Y119878D01*
X530007Y119635D01*
X530019Y119392D01*
X530036Y119149D01*
X530060Y118906D01*
X530090Y118665D01*
X530125Y118424D01*
X530166Y118184D01*
X530213Y117945D01*
X530266Y117707D01*
X530325Y117471D01*
X530390Y117236D01*
X530460Y117003D01*
X530536Y116771D01*
X530617Y116542D01*
X530704Y116314D01*
X530797Y116089D01*
X530895Y115866D01*
X530998Y115645D01*
X531107Y115428D01*
X531221Y115212D01*
X531340Y115000D01*
X531464Y114791D01*
X531593Y114584D01*
X531728Y114381D01*
X531867Y114181D01*
X532011Y113985D01*
X532160Y113792D01*
X532314Y113603D01*
X532472Y113418D01*
X532634Y113237D01*
X532801Y113059D01*
X532972Y112886D01*
X533147Y112717D01*
X533327Y112552D01*
X533510Y112392D01*
X533697Y112236D01*
X533888Y112085D01*
X534083Y111939D01*
X534281Y111797D01*
X534482Y111660D01*
X534687Y111528D01*
X534895Y111401D01*
X535106Y111280D01*
X535320Y111163D01*
X535536Y111052D01*
X535755Y110946D01*
X535977Y110845D01*
X536201Y110750D01*
X536428Y110660D01*
X536656Y110576D01*
X536887Y110497D01*
X537119Y110424D01*
X537353Y110357D01*
X537589Y110295D01*
X537826Y110239D01*
X538064Y110189D01*
X538304Y110145D01*
X538544Y110107D01*
X538785Y110074D01*
X539027Y110047D01*
X539270Y110027D01*
X539513Y110012D01*
X539756Y110003D01*
X540000Y110000D01*
D12*
X50000Y150000D03*
X490000Y150000D03*
D13*
X58418Y6282D02*
X45982Y6282D01*
X45982Y53718D01*
X58418Y53718D01*
X58418Y6282D01*
X58418Y20149D02*
X45982Y20149D01*
X45982Y34016D02*
X58418Y34016D01*
X58418Y47883D02*
X45982Y47883D01*
X85582Y6282D02*
X98018Y6282D01*
X85582Y6282D02*
X85582Y53718D01*
X98018Y53718D01*
X98018Y6282D01*
X98018Y20149D02*
X85582Y20149D01*
X85582Y34016D02*
X98018Y34016D01*
X98018Y47883D02*
X85582Y47883D01*
X125182Y6282D02*
X137618Y6282D01*
X125182Y6282D02*
X125182Y53718D01*
X137618Y53718D01*
X137618Y6282D01*
X137618Y20149D02*
X125182Y20149D01*
X125182Y34016D02*
X137618Y34016D01*
X137618Y47883D02*
X125182Y47883D01*
X164782Y6282D02*
X177218Y6282D01*
X164782Y6282D02*
X164782Y53718D01*
X177218Y53718D01*
X177218Y6282D01*
X177218Y20149D02*
X164782Y20149D01*
X164782Y34016D02*
X177218Y34016D01*
X177218Y47883D02*
X164782Y47883D01*
X204382Y6282D02*
X216818Y6282D01*
X204382Y6282D02*
X204382Y53718D01*
X216818Y53718D01*
X216818Y6282D01*
X216818Y20149D02*
X204382Y20149D01*
X204382Y34016D02*
X216818Y34016D01*
X216818Y47883D02*
X204382Y47883D01*
X243982Y6282D02*
X256418Y6282D01*
X243982Y6282D02*
X243982Y53718D01*
X256418Y53718D01*
X256418Y6282D01*
X256418Y20149D02*
X243982Y20149D01*
X243982Y34016D02*
X256418Y34016D01*
X256418Y47883D02*
X243982Y47883D01*
X283582Y6282D02*
X296018Y6282D01*
X283582Y6282D02*
X283582Y53718D01*
X296018Y53718D01*
X296018Y6282D01*
X296018Y20149D02*
X283582Y20149D01*
X283582Y34016D02*
X296018Y34016D01*
X296018Y47883D02*
X283582Y47883D01*
X323182Y6282D02*
X335618Y6282D01*
X323182Y6282D02*
X323182Y53718D01*
X335618Y53718D01*
X335618Y6282D01*
X335618Y20149D02*
X323182Y20149D01*
X323182Y34016D02*
X335618Y34016D01*
X335618Y47883D02*
X323182Y47883D01*
X362782Y6282D02*
X375218Y6282D01*
X362782Y6282D02*
X362782Y53718D01*
X375218Y53718D01*
X375218Y6282D01*
X375218Y20149D02*
X362782Y20149D01*
X362782Y34016D02*
X375218Y34016D01*
X375218Y47883D02*
X362782Y47883D01*
X402382Y6282D02*
X414818Y6282D01*
X402382Y6282D02*
X402382Y53718D01*
X414818Y53718D01*
X414818Y6282D01*
X414818Y20149D02*
X402382Y20149D01*
X402382Y34016D02*
X414818Y34016D01*
X414818Y47883D02*
X402382Y47883D01*
X441982Y6282D02*
X454418Y6282D01*
X441982Y6282D02*
X441982Y53718D01*
X454418Y53718D01*
X454418Y6282D01*
X454418Y20149D02*
X441982Y20149D01*
X441982Y34016D02*
X454418Y34016D01*
X454418Y47883D02*
X441982Y47883D01*
X481582Y6282D02*
X494018Y6282D01*
X481582Y6282D02*
X481582Y53718D01*
X494018Y53718D01*
X494018Y6282D01*
X494018Y20149D02*
X481582Y20149D01*
X481582Y34016D02*
X494018Y34016D01*
X494018Y47883D02*
X481582Y47883D01*
D14*
X20412Y296728D02*
X16672Y298224D01*
X16672Y298225D02*
X16592Y298259D01*
X16514Y298296D01*
X16437Y298337D01*
X16363Y298382D01*
X16290Y298429D01*
X16220Y298480D01*
X16152Y298534D01*
X16087Y298591D01*
X16024Y298651D01*
X15964Y298714D01*
X15906Y298779D01*
X15852Y298847D01*
X15801Y298917D01*
X15753Y298989D01*
X15708Y299064D01*
X15667Y299140D01*
X15629Y299218D01*
X15595Y299298D01*
X15564Y299379D01*
X15537Y299461D01*
X15513Y299545D01*
X15494Y299629D01*
X15478Y299715D01*
X15466Y299801D01*
X15458Y299887D01*
X15454Y299974D01*
X15453Y300061D01*
X15457Y300147D01*
X15464Y300234D01*
X15476Y300320D01*
X15491Y300405D01*
X15510Y300490D01*
X15532Y300574D01*
X15559Y300656D01*
X15589Y300738D01*
X15622Y300818D01*
X15660Y300896D01*
X15700Y300973D01*
X15745Y301048D01*
X15792Y301120D01*
X15843Y301191D01*
X15896Y301259D01*
X15953Y301325D01*
X16013Y301388D01*
X16075Y301448D01*
X16140Y301506D01*
X16208Y301560D01*
X16277Y301612D01*
X16350Y301660D01*
X16424Y301705D01*
X16500Y301747D01*
X16578Y301785D01*
X16657Y301819D01*
X16738Y301851D01*
X16821Y301878D01*
X16904Y301902D01*
X16989Y301922D01*
X17074Y301938D01*
X17160Y301950D01*
X17246Y301959D01*
X17333Y301963D01*
X17420Y301964D01*
X17420Y301963D02*
X17625Y301958D01*
X17828Y301947D01*
X18032Y301932D01*
X18235Y301912D01*
X18438Y301887D01*
X18640Y301857D01*
X18841Y301823D01*
X19042Y301783D01*
X19241Y301739D01*
X19439Y301690D01*
X19636Y301636D01*
X19832Y301578D01*
X20026Y301514D01*
X20219Y301446D01*
X20409Y301374D01*
X20599Y301297D01*
X20786Y301215D01*
X20412Y296728D02*
X20492Y296694D01*
X20570Y296657D01*
X20647Y296616D01*
X20721Y296571D01*
X20794Y296524D01*
X20864Y296473D01*
X20932Y296419D01*
X20997Y296362D01*
X21060Y296302D01*
X21120Y296239D01*
X21178Y296174D01*
X21232Y296106D01*
X21283Y296036D01*
X21331Y295964D01*
X21376Y295889D01*
X21417Y295813D01*
X21455Y295735D01*
X21489Y295655D01*
X21520Y295574D01*
X21547Y295492D01*
X21571Y295408D01*
X21590Y295324D01*
X21606Y295238D01*
X21618Y295152D01*
X21626Y295066D01*
X21630Y294979D01*
X21631Y294892D01*
X21627Y294806D01*
X21620Y294719D01*
X21608Y294633D01*
X21593Y294548D01*
X21574Y294463D01*
X21552Y294379D01*
X21525Y294297D01*
X21495Y294215D01*
X21462Y294135D01*
X21424Y294057D01*
X21384Y293980D01*
X21339Y293905D01*
X21292Y293833D01*
X21241Y293762D01*
X21188Y293694D01*
X21131Y293628D01*
X21071Y293565D01*
X21009Y293505D01*
X20944Y293447D01*
X20876Y293393D01*
X20807Y293341D01*
X20734Y293293D01*
X20660Y293248D01*
X20584Y293206D01*
X20506Y293168D01*
X20427Y293134D01*
X20346Y293102D01*
X20263Y293075D01*
X20180Y293051D01*
X20095Y293031D01*
X20010Y293015D01*
X19924Y293003D01*
X19838Y292994D01*
X19751Y292990D01*
X19664Y292989D01*
X19364Y292997D01*
X19064Y293012D01*
X18765Y293034D01*
X18466Y293063D01*
X18169Y293099D01*
X17872Y293142D01*
X17576Y293193D01*
X17282Y293250D01*
X16989Y293314D01*
X16697Y293385D01*
X16407Y293463D01*
X16120Y293547D01*
X15834Y293639D01*
X15550Y293737D01*
X26202Y301964D02*
X30689Y301964D01*
X27697Y306451D02*
X27697Y295233D01*
X27699Y295140D01*
X27705Y295048D01*
X27714Y294955D01*
X27728Y294864D01*
X27745Y294772D01*
X27766Y294682D01*
X27790Y294593D01*
X27819Y294504D01*
X27851Y294417D01*
X27886Y294332D01*
X27925Y294247D01*
X27967Y294165D01*
X28013Y294084D01*
X28062Y294006D01*
X28115Y293929D01*
X28170Y293855D01*
X28229Y293783D01*
X28290Y293713D01*
X28354Y293646D01*
X28421Y293582D01*
X28491Y293521D01*
X28563Y293462D01*
X28637Y293407D01*
X28714Y293354D01*
X28792Y293305D01*
X28873Y293259D01*
X28955Y293217D01*
X29040Y293178D01*
X29125Y293143D01*
X29212Y293111D01*
X29301Y293082D01*
X29390Y293058D01*
X29480Y293037D01*
X29572Y293020D01*
X29663Y293006D01*
X29756Y292997D01*
X29848Y292991D01*
X29941Y292989D01*
X30689Y292989D01*
X36083Y295981D02*
X36083Y298972D01*
X36085Y299080D01*
X36091Y299188D01*
X36101Y299295D01*
X36114Y299403D01*
X36132Y299509D01*
X36153Y299615D01*
X36178Y299720D01*
X36207Y299824D01*
X36240Y299927D01*
X36276Y300029D01*
X36316Y300129D01*
X36360Y300228D01*
X36407Y300326D01*
X36457Y300421D01*
X36511Y300515D01*
X36569Y300606D01*
X36629Y300696D01*
X36693Y300783D01*
X36760Y300867D01*
X36830Y300950D01*
X36903Y301030D01*
X36979Y301107D01*
X37057Y301181D01*
X37138Y301252D01*
X37222Y301321D01*
X37308Y301386D01*
X37396Y301448D01*
X37486Y301507D01*
X37579Y301563D01*
X37674Y301615D01*
X37770Y301664D01*
X37868Y301710D01*
X37968Y301751D01*
X38069Y301790D01*
X38171Y301824D01*
X38275Y301855D01*
X38379Y301882D01*
X38485Y301905D01*
X38591Y301925D01*
X38698Y301940D01*
X38805Y301952D01*
X38913Y301960D01*
X39021Y301964D01*
X39129Y301964D01*
X39237Y301960D01*
X39345Y301952D01*
X39452Y301940D01*
X39559Y301925D01*
X39665Y301905D01*
X39771Y301882D01*
X39875Y301855D01*
X39979Y301824D01*
X40081Y301790D01*
X40182Y301751D01*
X40282Y301710D01*
X40380Y301664D01*
X40476Y301615D01*
X40571Y301563D01*
X40664Y301507D01*
X40754Y301448D01*
X40842Y301386D01*
X40928Y301321D01*
X41012Y301252D01*
X41093Y301181D01*
X41171Y301107D01*
X41247Y301030D01*
X41320Y300950D01*
X41390Y300867D01*
X41457Y300783D01*
X41521Y300696D01*
X41581Y300606D01*
X41639Y300515D01*
X41693Y300421D01*
X41743Y300326D01*
X41790Y300228D01*
X41834Y300129D01*
X41874Y300029D01*
X41910Y299927D01*
X41943Y299824D01*
X41972Y299720D01*
X41997Y299615D01*
X42018Y299509D01*
X42036Y299403D01*
X42049Y299295D01*
X42059Y299188D01*
X42065Y299080D01*
X42067Y298972D01*
X42066Y298972D02*
X42066Y295981D01*
X42067Y295981D02*
X42065Y295873D01*
X42059Y295765D01*
X42049Y295658D01*
X42036Y295550D01*
X42018Y295444D01*
X41997Y295338D01*
X41972Y295233D01*
X41943Y295129D01*
X41910Y295026D01*
X41874Y294924D01*
X41834Y294824D01*
X41790Y294725D01*
X41743Y294627D01*
X41693Y294532D01*
X41639Y294438D01*
X41581Y294347D01*
X41521Y294257D01*
X41457Y294170D01*
X41390Y294086D01*
X41320Y294003D01*
X41247Y293923D01*
X41171Y293846D01*
X41093Y293772D01*
X41012Y293701D01*
X40928Y293632D01*
X40842Y293567D01*
X40754Y293505D01*
X40664Y293446D01*
X40571Y293390D01*
X40476Y293338D01*
X40380Y293289D01*
X40282Y293243D01*
X40182Y293202D01*
X40081Y293163D01*
X39979Y293129D01*
X39875Y293098D01*
X39771Y293071D01*
X39665Y293048D01*
X39559Y293028D01*
X39452Y293013D01*
X39345Y293001D01*
X39237Y292993D01*
X39129Y292989D01*
X39021Y292989D01*
X38913Y292993D01*
X38805Y293001D01*
X38698Y293013D01*
X38591Y293028D01*
X38485Y293048D01*
X38379Y293071D01*
X38275Y293098D01*
X38171Y293129D01*
X38069Y293163D01*
X37968Y293202D01*
X37868Y293243D01*
X37770Y293289D01*
X37674Y293338D01*
X37579Y293390D01*
X37486Y293446D01*
X37396Y293505D01*
X37308Y293567D01*
X37222Y293632D01*
X37138Y293701D01*
X37057Y293772D01*
X36979Y293846D01*
X36903Y293923D01*
X36830Y294003D01*
X36760Y294086D01*
X36693Y294170D01*
X36629Y294257D01*
X36569Y294347D01*
X36511Y294438D01*
X36457Y294532D01*
X36407Y294627D01*
X36360Y294725D01*
X36316Y294824D01*
X36276Y294924D01*
X36240Y295026D01*
X36207Y295129D01*
X36178Y295233D01*
X36153Y295338D01*
X36132Y295444D01*
X36114Y295550D01*
X36101Y295658D01*
X36091Y295765D01*
X36085Y295873D01*
X36083Y295981D01*
X48489Y301964D02*
X48489Y288502D01*
X48489Y301964D02*
X52228Y301964D01*
X52321Y301962D01*
X52413Y301956D01*
X52506Y301947D01*
X52597Y301933D01*
X52689Y301916D01*
X52779Y301895D01*
X52868Y301871D01*
X52957Y301842D01*
X53044Y301810D01*
X53129Y301775D01*
X53214Y301736D01*
X53296Y301694D01*
X53377Y301648D01*
X53455Y301599D01*
X53532Y301546D01*
X53606Y301491D01*
X53678Y301432D01*
X53748Y301371D01*
X53815Y301307D01*
X53879Y301240D01*
X53940Y301170D01*
X53999Y301098D01*
X54054Y301024D01*
X54107Y300947D01*
X54156Y300869D01*
X54202Y300788D01*
X54244Y300706D01*
X54283Y300621D01*
X54318Y300536D01*
X54350Y300449D01*
X54379Y300360D01*
X54403Y300271D01*
X54424Y300181D01*
X54441Y300089D01*
X54455Y299998D01*
X54464Y299905D01*
X54470Y299813D01*
X54472Y299720D01*
X54472Y295233D01*
X54470Y295140D01*
X54464Y295048D01*
X54455Y294955D01*
X54441Y294864D01*
X54424Y294773D01*
X54403Y294682D01*
X54379Y294593D01*
X54350Y294504D01*
X54318Y294417D01*
X54283Y294332D01*
X54244Y294247D01*
X54202Y294165D01*
X54156Y294084D01*
X54107Y294006D01*
X54054Y293929D01*
X53999Y293855D01*
X53940Y293783D01*
X53879Y293713D01*
X53815Y293646D01*
X53748Y293582D01*
X53678Y293521D01*
X53606Y293462D01*
X53532Y293407D01*
X53455Y293354D01*
X53377Y293305D01*
X53296Y293259D01*
X53214Y293217D01*
X53129Y293178D01*
X53044Y293143D01*
X52957Y293111D01*
X52868Y293082D01*
X52779Y293058D01*
X52689Y293037D01*
X52597Y293020D01*
X52506Y293006D01*
X52413Y292997D01*
X52321Y292991D01*
X52228Y292989D01*
X48489Y292989D01*
X61052Y292989D02*
X61052Y301964D01*
X67783Y301964D01*
X67876Y301962D01*
X67968Y301956D01*
X68061Y301947D01*
X68152Y301933D01*
X68244Y301916D01*
X68334Y301895D01*
X68423Y301871D01*
X68512Y301842D01*
X68599Y301810D01*
X68684Y301775D01*
X68769Y301736D01*
X68851Y301694D01*
X68932Y301648D01*
X69010Y301599D01*
X69087Y301546D01*
X69161Y301491D01*
X69233Y301432D01*
X69303Y301371D01*
X69370Y301307D01*
X69434Y301240D01*
X69495Y301170D01*
X69554Y301098D01*
X69609Y301024D01*
X69662Y300947D01*
X69711Y300869D01*
X69757Y300788D01*
X69799Y300706D01*
X69838Y300621D01*
X69873Y300536D01*
X69905Y300449D01*
X69934Y300360D01*
X69958Y300271D01*
X69979Y300181D01*
X69996Y300089D01*
X70010Y299998D01*
X70019Y299905D01*
X70025Y299813D01*
X70027Y299720D01*
X70027Y292989D01*
X65539Y292989D02*
X65539Y301964D01*
X79224Y298224D02*
X82590Y298224D01*
X79224Y298225D02*
X79122Y298223D01*
X79021Y298217D01*
X78920Y298207D01*
X78819Y298194D01*
X78719Y298176D01*
X78620Y298154D01*
X78522Y298129D01*
X78425Y298100D01*
X78329Y298067D01*
X78234Y298031D01*
X78141Y297990D01*
X78049Y297947D01*
X77959Y297899D01*
X77871Y297848D01*
X77785Y297794D01*
X77702Y297737D01*
X77620Y297676D01*
X77541Y297613D01*
X77465Y297546D01*
X77391Y297476D01*
X77320Y297404D01*
X77252Y297328D01*
X77186Y297251D01*
X77124Y297170D01*
X77065Y297088D01*
X77009Y297003D01*
X76957Y296916D01*
X76908Y296827D01*
X76862Y296736D01*
X76820Y296644D01*
X76782Y296550D01*
X76747Y296455D01*
X76716Y296358D01*
X76689Y296260D01*
X76665Y296161D01*
X76646Y296062D01*
X76630Y295961D01*
X76618Y295860D01*
X76610Y295759D01*
X76606Y295658D01*
X76606Y295556D01*
X76610Y295455D01*
X76618Y295354D01*
X76630Y295253D01*
X76646Y295152D01*
X76665Y295053D01*
X76689Y294954D01*
X76716Y294856D01*
X76747Y294759D01*
X76782Y294664D01*
X76820Y294570D01*
X76862Y294478D01*
X76908Y294387D01*
X76957Y294298D01*
X77009Y294211D01*
X77065Y294126D01*
X77124Y294044D01*
X77186Y293963D01*
X77252Y293886D01*
X77320Y293810D01*
X77391Y293738D01*
X77465Y293668D01*
X77541Y293601D01*
X77620Y293538D01*
X77702Y293477D01*
X77785Y293420D01*
X77871Y293366D01*
X77959Y293315D01*
X78049Y293267D01*
X78141Y293224D01*
X78234Y293183D01*
X78329Y293147D01*
X78425Y293114D01*
X78522Y293085D01*
X78620Y293060D01*
X78719Y293038D01*
X78819Y293020D01*
X78920Y293007D01*
X79021Y292997D01*
X79122Y292991D01*
X79224Y292989D01*
X82590Y292989D01*
X82590Y299720D01*
X82588Y299813D01*
X82582Y299905D01*
X82573Y299998D01*
X82559Y300089D01*
X82542Y300181D01*
X82521Y300271D01*
X82497Y300360D01*
X82468Y300449D01*
X82436Y300536D01*
X82401Y300621D01*
X82362Y300706D01*
X82320Y300788D01*
X82274Y300869D01*
X82225Y300947D01*
X82172Y301024D01*
X82117Y301098D01*
X82058Y301170D01*
X81997Y301240D01*
X81933Y301307D01*
X81866Y301371D01*
X81796Y301432D01*
X81724Y301491D01*
X81650Y301546D01*
X81573Y301599D01*
X81495Y301648D01*
X81414Y301694D01*
X81332Y301736D01*
X81247Y301775D01*
X81162Y301810D01*
X81075Y301842D01*
X80986Y301871D01*
X80897Y301895D01*
X80807Y301916D01*
X80715Y301933D01*
X80624Y301947D01*
X80531Y301956D01*
X80439Y301962D01*
X80346Y301964D01*
X77354Y301964D01*
X90134Y298224D02*
X93873Y296728D01*
X90134Y298225D02*
X90054Y298259D01*
X89976Y298296D01*
X89899Y298337D01*
X89825Y298382D01*
X89752Y298429D01*
X89682Y298480D01*
X89614Y298534D01*
X89549Y298591D01*
X89486Y298651D01*
X89426Y298714D01*
X89368Y298779D01*
X89314Y298847D01*
X89263Y298917D01*
X89215Y298989D01*
X89170Y299064D01*
X89129Y299140D01*
X89091Y299218D01*
X89057Y299298D01*
X89026Y299379D01*
X88999Y299461D01*
X88975Y299545D01*
X88956Y299629D01*
X88940Y299715D01*
X88928Y299801D01*
X88920Y299887D01*
X88916Y299974D01*
X88915Y300061D01*
X88919Y300147D01*
X88926Y300234D01*
X88938Y300320D01*
X88953Y300405D01*
X88972Y300490D01*
X88994Y300574D01*
X89021Y300656D01*
X89051Y300738D01*
X89084Y300818D01*
X89122Y300896D01*
X89162Y300973D01*
X89207Y301048D01*
X89254Y301120D01*
X89305Y301191D01*
X89358Y301259D01*
X89415Y301325D01*
X89475Y301388D01*
X89537Y301448D01*
X89602Y301506D01*
X89670Y301560D01*
X89739Y301612D01*
X89812Y301660D01*
X89886Y301705D01*
X89962Y301747D01*
X90040Y301785D01*
X90119Y301819D01*
X90200Y301851D01*
X90283Y301878D01*
X90366Y301902D01*
X90451Y301922D01*
X90536Y301938D01*
X90622Y301950D01*
X90708Y301959D01*
X90795Y301963D01*
X90882Y301964D01*
X90882Y301963D02*
X91087Y301958D01*
X91290Y301947D01*
X91494Y301932D01*
X91697Y301912D01*
X91900Y301887D01*
X92102Y301857D01*
X92303Y301823D01*
X92504Y301783D01*
X92703Y301739D01*
X92901Y301690D01*
X93098Y301636D01*
X93294Y301578D01*
X93488Y301514D01*
X93681Y301446D01*
X93871Y301374D01*
X94061Y301297D01*
X94248Y301215D01*
X93873Y296728D02*
X93953Y296694D01*
X94031Y296657D01*
X94108Y296616D01*
X94182Y296571D01*
X94255Y296524D01*
X94325Y296473D01*
X94393Y296419D01*
X94458Y296362D01*
X94521Y296302D01*
X94581Y296239D01*
X94639Y296174D01*
X94693Y296106D01*
X94744Y296036D01*
X94792Y295964D01*
X94837Y295889D01*
X94878Y295813D01*
X94916Y295735D01*
X94950Y295655D01*
X94981Y295574D01*
X95008Y295492D01*
X95032Y295408D01*
X95051Y295324D01*
X95067Y295238D01*
X95079Y295152D01*
X95087Y295066D01*
X95091Y294979D01*
X95092Y294892D01*
X95088Y294806D01*
X95081Y294719D01*
X95069Y294633D01*
X95054Y294548D01*
X95035Y294463D01*
X95013Y294379D01*
X94986Y294297D01*
X94956Y294215D01*
X94923Y294135D01*
X94885Y294057D01*
X94845Y293980D01*
X94800Y293905D01*
X94753Y293833D01*
X94702Y293762D01*
X94649Y293694D01*
X94592Y293628D01*
X94532Y293565D01*
X94470Y293505D01*
X94405Y293447D01*
X94337Y293393D01*
X94268Y293341D01*
X94195Y293293D01*
X94121Y293248D01*
X94045Y293206D01*
X93967Y293168D01*
X93888Y293134D01*
X93807Y293102D01*
X93724Y293075D01*
X93641Y293051D01*
X93556Y293031D01*
X93471Y293015D01*
X93385Y293003D01*
X93299Y292994D01*
X93212Y292990D01*
X93125Y292989D01*
X93126Y292989D02*
X92826Y292997D01*
X92526Y293012D01*
X92227Y293034D01*
X91928Y293063D01*
X91631Y293099D01*
X91334Y293142D01*
X91038Y293193D01*
X90744Y293250D01*
X90451Y293314D01*
X90159Y293385D01*
X89869Y293463D01*
X89582Y293547D01*
X89296Y293639D01*
X89012Y293737D01*
X101530Y292989D02*
X101530Y306451D01*
X107513Y301964D02*
X101530Y297476D01*
X104147Y299346D02*
X107513Y292989D01*
X121161Y298224D02*
X124901Y296728D01*
X121161Y298225D02*
X121081Y298259D01*
X121003Y298296D01*
X120926Y298337D01*
X120852Y298382D01*
X120779Y298429D01*
X120709Y298480D01*
X120641Y298534D01*
X120576Y298591D01*
X120513Y298651D01*
X120453Y298714D01*
X120395Y298779D01*
X120341Y298847D01*
X120290Y298917D01*
X120242Y298989D01*
X120197Y299064D01*
X120156Y299140D01*
X120118Y299218D01*
X120084Y299298D01*
X120053Y299379D01*
X120026Y299461D01*
X120002Y299545D01*
X119983Y299629D01*
X119967Y299715D01*
X119955Y299801D01*
X119947Y299887D01*
X119943Y299974D01*
X119942Y300061D01*
X119946Y300147D01*
X119953Y300234D01*
X119965Y300320D01*
X119980Y300405D01*
X119999Y300490D01*
X120021Y300574D01*
X120048Y300656D01*
X120078Y300738D01*
X120111Y300818D01*
X120149Y300896D01*
X120189Y300973D01*
X120234Y301048D01*
X120281Y301120D01*
X120332Y301191D01*
X120385Y301259D01*
X120442Y301325D01*
X120502Y301388D01*
X120564Y301448D01*
X120629Y301506D01*
X120697Y301560D01*
X120766Y301612D01*
X120839Y301660D01*
X120913Y301705D01*
X120989Y301747D01*
X121067Y301785D01*
X121146Y301819D01*
X121227Y301851D01*
X121310Y301878D01*
X121393Y301902D01*
X121478Y301922D01*
X121563Y301938D01*
X121649Y301950D01*
X121735Y301959D01*
X121822Y301963D01*
X121909Y301964D01*
X121909Y301963D02*
X122114Y301958D01*
X122317Y301947D01*
X122521Y301932D01*
X122724Y301912D01*
X122927Y301887D01*
X123129Y301857D01*
X123330Y301823D01*
X123531Y301783D01*
X123730Y301739D01*
X123928Y301690D01*
X124125Y301636D01*
X124321Y301578D01*
X124515Y301514D01*
X124708Y301446D01*
X124898Y301374D01*
X125088Y301297D01*
X125275Y301215D01*
X124901Y296728D02*
X124981Y296694D01*
X125059Y296657D01*
X125136Y296616D01*
X125210Y296571D01*
X125283Y296524D01*
X125353Y296473D01*
X125421Y296419D01*
X125486Y296362D01*
X125549Y296302D01*
X125609Y296239D01*
X125667Y296174D01*
X125721Y296106D01*
X125772Y296036D01*
X125820Y295964D01*
X125865Y295889D01*
X125906Y295813D01*
X125944Y295735D01*
X125978Y295655D01*
X126009Y295574D01*
X126036Y295492D01*
X126060Y295408D01*
X126079Y295324D01*
X126095Y295238D01*
X126107Y295152D01*
X126115Y295066D01*
X126119Y294979D01*
X126120Y294892D01*
X126116Y294806D01*
X126109Y294719D01*
X126097Y294633D01*
X126082Y294548D01*
X126063Y294463D01*
X126041Y294379D01*
X126014Y294297D01*
X125984Y294215D01*
X125951Y294135D01*
X125913Y294057D01*
X125873Y293980D01*
X125828Y293905D01*
X125781Y293833D01*
X125730Y293762D01*
X125677Y293694D01*
X125620Y293628D01*
X125560Y293565D01*
X125498Y293505D01*
X125433Y293447D01*
X125365Y293393D01*
X125296Y293341D01*
X125223Y293293D01*
X125149Y293248D01*
X125073Y293206D01*
X124995Y293168D01*
X124916Y293134D01*
X124835Y293102D01*
X124752Y293075D01*
X124669Y293051D01*
X124584Y293031D01*
X124499Y293015D01*
X124413Y293003D01*
X124327Y292994D01*
X124240Y292990D01*
X124153Y292989D01*
X123853Y292997D01*
X123553Y293012D01*
X123254Y293034D01*
X122955Y293063D01*
X122658Y293099D01*
X122361Y293142D01*
X122065Y293193D01*
X121771Y293250D01*
X121478Y293314D01*
X121186Y293385D01*
X120896Y293463D01*
X120609Y293547D01*
X120323Y293639D01*
X120039Y293737D01*
X131903Y295981D02*
X131903Y298972D01*
X131902Y298972D02*
X131904Y299080D01*
X131910Y299188D01*
X131920Y299295D01*
X131933Y299403D01*
X131951Y299509D01*
X131972Y299615D01*
X131997Y299720D01*
X132026Y299824D01*
X132059Y299927D01*
X132095Y300029D01*
X132135Y300129D01*
X132179Y300228D01*
X132226Y300326D01*
X132276Y300421D01*
X132330Y300515D01*
X132388Y300606D01*
X132448Y300696D01*
X132512Y300783D01*
X132579Y300867D01*
X132649Y300950D01*
X132722Y301030D01*
X132798Y301107D01*
X132876Y301181D01*
X132957Y301252D01*
X133041Y301321D01*
X133127Y301386D01*
X133215Y301448D01*
X133305Y301507D01*
X133398Y301563D01*
X133493Y301615D01*
X133589Y301664D01*
X133687Y301710D01*
X133787Y301751D01*
X133888Y301790D01*
X133990Y301824D01*
X134094Y301855D01*
X134198Y301882D01*
X134304Y301905D01*
X134410Y301925D01*
X134517Y301940D01*
X134624Y301952D01*
X134732Y301960D01*
X134840Y301964D01*
X134948Y301964D01*
X135056Y301960D01*
X135164Y301952D01*
X135271Y301940D01*
X135378Y301925D01*
X135484Y301905D01*
X135590Y301882D01*
X135694Y301855D01*
X135798Y301824D01*
X135900Y301790D01*
X136001Y301751D01*
X136101Y301710D01*
X136199Y301664D01*
X136295Y301615D01*
X136390Y301563D01*
X136483Y301507D01*
X136573Y301448D01*
X136661Y301386D01*
X136747Y301321D01*
X136831Y301252D01*
X136912Y301181D01*
X136990Y301107D01*
X137066Y301030D01*
X137139Y300950D01*
X137209Y300867D01*
X137276Y300783D01*
X137340Y300696D01*
X137400Y300606D01*
X137458Y300515D01*
X137512Y300421D01*
X137562Y300326D01*
X137609Y300228D01*
X137653Y300129D01*
X137693Y300029D01*
X137729Y299927D01*
X137762Y299824D01*
X137791Y299720D01*
X137816Y299615D01*
X137837Y299509D01*
X137855Y299403D01*
X137868Y299295D01*
X137878Y299188D01*
X137884Y299080D01*
X137886Y298972D01*
X137886Y295981D01*
X137884Y295873D01*
X137878Y295765D01*
X137868Y295658D01*
X137855Y295550D01*
X137837Y295444D01*
X137816Y295338D01*
X137791Y295233D01*
X137762Y295129D01*
X137729Y295026D01*
X137693Y294924D01*
X137653Y294824D01*
X137609Y294725D01*
X137562Y294627D01*
X137512Y294532D01*
X137458Y294438D01*
X137400Y294347D01*
X137340Y294257D01*
X137276Y294170D01*
X137209Y294086D01*
X137139Y294003D01*
X137066Y293923D01*
X136990Y293846D01*
X136912Y293772D01*
X136831Y293701D01*
X136747Y293632D01*
X136661Y293567D01*
X136573Y293505D01*
X136483Y293446D01*
X136390Y293390D01*
X136295Y293338D01*
X136199Y293289D01*
X136101Y293243D01*
X136001Y293202D01*
X135900Y293163D01*
X135798Y293129D01*
X135694Y293098D01*
X135590Y293071D01*
X135484Y293048D01*
X135378Y293028D01*
X135271Y293013D01*
X135164Y293001D01*
X135056Y292993D01*
X134948Y292989D01*
X134840Y292989D01*
X134732Y292993D01*
X134624Y293001D01*
X134517Y293013D01*
X134410Y293028D01*
X134304Y293048D01*
X134198Y293071D01*
X134094Y293098D01*
X133990Y293129D01*
X133888Y293163D01*
X133787Y293202D01*
X133687Y293243D01*
X133589Y293289D01*
X133493Y293338D01*
X133398Y293390D01*
X133305Y293446D01*
X133215Y293505D01*
X133127Y293567D01*
X133041Y293632D01*
X132957Y293701D01*
X132876Y293772D01*
X132798Y293846D01*
X132722Y293923D01*
X132649Y294003D01*
X132579Y294086D01*
X132512Y294170D01*
X132448Y294257D01*
X132388Y294347D01*
X132330Y294438D01*
X132276Y294532D01*
X132226Y294627D01*
X132179Y294725D01*
X132135Y294824D01*
X132095Y294924D01*
X132059Y295026D01*
X132026Y295129D01*
X131997Y295233D01*
X131972Y295338D01*
X131951Y295444D01*
X131933Y295550D01*
X131920Y295658D01*
X131910Y295765D01*
X131904Y295873D01*
X131902Y295981D01*
X143885Y295233D02*
X143885Y306451D01*
X143885Y295233D02*
X143887Y295140D01*
X143893Y295048D01*
X143902Y294955D01*
X143916Y294864D01*
X143933Y294772D01*
X143954Y294682D01*
X143978Y294593D01*
X144007Y294504D01*
X144039Y294417D01*
X144074Y294332D01*
X144113Y294247D01*
X144155Y294165D01*
X144201Y294084D01*
X144250Y294006D01*
X144303Y293929D01*
X144358Y293855D01*
X144417Y293783D01*
X144478Y293713D01*
X144542Y293646D01*
X144609Y293582D01*
X144679Y293521D01*
X144751Y293462D01*
X144825Y293407D01*
X144902Y293354D01*
X144980Y293305D01*
X145061Y293259D01*
X145143Y293217D01*
X145228Y293178D01*
X145313Y293143D01*
X145400Y293111D01*
X145489Y293082D01*
X145578Y293058D01*
X145668Y293037D01*
X145760Y293020D01*
X145851Y293006D01*
X145944Y292997D01*
X146036Y292991D01*
X146129Y292989D01*
X156964Y292989D02*
X156964Y306451D01*
X156964Y292989D02*
X153224Y292989D01*
X153131Y292991D01*
X153039Y292997D01*
X152946Y293006D01*
X152855Y293020D01*
X152763Y293037D01*
X152673Y293058D01*
X152584Y293082D01*
X152495Y293111D01*
X152408Y293143D01*
X152323Y293178D01*
X152238Y293217D01*
X152156Y293259D01*
X152075Y293305D01*
X151997Y293354D01*
X151920Y293407D01*
X151846Y293462D01*
X151774Y293521D01*
X151704Y293582D01*
X151637Y293646D01*
X151573Y293713D01*
X151512Y293783D01*
X151453Y293855D01*
X151398Y293929D01*
X151345Y294006D01*
X151296Y294084D01*
X151250Y294165D01*
X151208Y294247D01*
X151169Y294332D01*
X151134Y294417D01*
X151102Y294504D01*
X151073Y294593D01*
X151049Y294682D01*
X151028Y294772D01*
X151011Y294864D01*
X150997Y294955D01*
X150988Y295048D01*
X150982Y295140D01*
X150980Y295233D01*
X150981Y295233D02*
X150981Y299720D01*
X150980Y299720D02*
X150982Y299813D01*
X150988Y299905D01*
X150997Y299998D01*
X151011Y300089D01*
X151028Y300181D01*
X151049Y300271D01*
X151073Y300360D01*
X151102Y300449D01*
X151134Y300536D01*
X151169Y300621D01*
X151208Y300706D01*
X151250Y300788D01*
X151296Y300869D01*
X151345Y300947D01*
X151398Y301024D01*
X151453Y301098D01*
X151512Y301170D01*
X151573Y301240D01*
X151637Y301307D01*
X151704Y301371D01*
X151774Y301432D01*
X151846Y301491D01*
X151920Y301546D01*
X151997Y301599D01*
X152075Y301648D01*
X152156Y301694D01*
X152238Y301736D01*
X152323Y301775D01*
X152408Y301810D01*
X152495Y301842D01*
X152584Y301871D01*
X152673Y301895D01*
X152764Y301916D01*
X152855Y301933D01*
X152946Y301947D01*
X153039Y301956D01*
X153131Y301962D01*
X153224Y301964D01*
X156964Y301964D01*
X165630Y292989D02*
X169370Y292989D01*
X165630Y292989D02*
X165537Y292991D01*
X165445Y292997D01*
X165352Y293006D01*
X165261Y293020D01*
X165169Y293037D01*
X165079Y293058D01*
X164990Y293082D01*
X164901Y293111D01*
X164814Y293143D01*
X164729Y293178D01*
X164644Y293217D01*
X164562Y293259D01*
X164481Y293305D01*
X164403Y293354D01*
X164326Y293407D01*
X164252Y293462D01*
X164180Y293521D01*
X164110Y293582D01*
X164043Y293646D01*
X163979Y293713D01*
X163918Y293783D01*
X163859Y293855D01*
X163804Y293929D01*
X163751Y294006D01*
X163702Y294084D01*
X163656Y294165D01*
X163614Y294247D01*
X163575Y294332D01*
X163540Y294417D01*
X163508Y294504D01*
X163479Y294593D01*
X163455Y294682D01*
X163434Y294772D01*
X163417Y294864D01*
X163403Y294955D01*
X163394Y295048D01*
X163388Y295140D01*
X163386Y295233D01*
X163387Y295233D02*
X163387Y298972D01*
X163386Y298972D02*
X163388Y299080D01*
X163394Y299188D01*
X163404Y299295D01*
X163417Y299403D01*
X163435Y299509D01*
X163456Y299615D01*
X163481Y299720D01*
X163510Y299824D01*
X163543Y299927D01*
X163579Y300029D01*
X163619Y300129D01*
X163663Y300228D01*
X163710Y300326D01*
X163760Y300421D01*
X163814Y300515D01*
X163872Y300606D01*
X163932Y300696D01*
X163996Y300783D01*
X164063Y300867D01*
X164133Y300950D01*
X164206Y301030D01*
X164282Y301107D01*
X164360Y301181D01*
X164441Y301252D01*
X164525Y301321D01*
X164611Y301386D01*
X164699Y301448D01*
X164789Y301507D01*
X164882Y301563D01*
X164977Y301615D01*
X165073Y301664D01*
X165171Y301710D01*
X165271Y301751D01*
X165372Y301790D01*
X165474Y301824D01*
X165578Y301855D01*
X165682Y301882D01*
X165788Y301905D01*
X165894Y301925D01*
X166001Y301940D01*
X166108Y301952D01*
X166216Y301960D01*
X166324Y301964D01*
X166432Y301964D01*
X166540Y301960D01*
X166648Y301952D01*
X166755Y301940D01*
X166862Y301925D01*
X166968Y301905D01*
X167074Y301882D01*
X167178Y301855D01*
X167282Y301824D01*
X167384Y301790D01*
X167485Y301751D01*
X167585Y301710D01*
X167683Y301664D01*
X167779Y301615D01*
X167874Y301563D01*
X167967Y301507D01*
X168057Y301448D01*
X168145Y301386D01*
X168231Y301321D01*
X168315Y301252D01*
X168396Y301181D01*
X168474Y301107D01*
X168550Y301030D01*
X168623Y300950D01*
X168693Y300867D01*
X168760Y300783D01*
X168824Y300696D01*
X168884Y300606D01*
X168942Y300515D01*
X168996Y300421D01*
X169046Y300326D01*
X169093Y300228D01*
X169137Y300129D01*
X169177Y300029D01*
X169213Y299927D01*
X169246Y299824D01*
X169275Y299720D01*
X169300Y299615D01*
X169321Y299509D01*
X169339Y299403D01*
X169352Y299295D01*
X169362Y299188D01*
X169368Y299080D01*
X169370Y298972D01*
X169370Y297476D01*
X163387Y297476D01*
X175803Y292989D02*
X175803Y301964D01*
X180291Y301964D01*
X180291Y300468D01*
X193254Y298224D02*
X196994Y296728D01*
X193254Y298225D02*
X193174Y298259D01*
X193096Y298296D01*
X193019Y298337D01*
X192945Y298382D01*
X192872Y298429D01*
X192802Y298480D01*
X192734Y298534D01*
X192669Y298591D01*
X192606Y298651D01*
X192546Y298714D01*
X192488Y298779D01*
X192434Y298847D01*
X192383Y298917D01*
X192335Y298989D01*
X192290Y299064D01*
X192249Y299140D01*
X192211Y299218D01*
X192177Y299298D01*
X192146Y299379D01*
X192119Y299461D01*
X192095Y299545D01*
X192076Y299629D01*
X192060Y299715D01*
X192048Y299801D01*
X192040Y299887D01*
X192036Y299974D01*
X192035Y300061D01*
X192039Y300147D01*
X192046Y300234D01*
X192058Y300320D01*
X192073Y300405D01*
X192092Y300490D01*
X192114Y300574D01*
X192141Y300656D01*
X192171Y300738D01*
X192204Y300818D01*
X192242Y300896D01*
X192282Y300973D01*
X192327Y301048D01*
X192374Y301120D01*
X192425Y301191D01*
X192478Y301259D01*
X192535Y301325D01*
X192595Y301388D01*
X192657Y301448D01*
X192722Y301506D01*
X192790Y301560D01*
X192859Y301612D01*
X192932Y301660D01*
X193006Y301705D01*
X193082Y301747D01*
X193160Y301785D01*
X193239Y301819D01*
X193320Y301851D01*
X193403Y301878D01*
X193486Y301902D01*
X193571Y301922D01*
X193656Y301938D01*
X193742Y301950D01*
X193828Y301959D01*
X193915Y301963D01*
X194002Y301964D01*
X194002Y301963D02*
X194207Y301958D01*
X194410Y301947D01*
X194614Y301932D01*
X194817Y301912D01*
X195020Y301887D01*
X195222Y301857D01*
X195423Y301823D01*
X195624Y301783D01*
X195823Y301739D01*
X196021Y301690D01*
X196218Y301636D01*
X196414Y301578D01*
X196608Y301514D01*
X196801Y301446D01*
X196991Y301374D01*
X197181Y301297D01*
X197368Y301215D01*
X196993Y296728D02*
X197073Y296694D01*
X197151Y296657D01*
X197228Y296616D01*
X197302Y296571D01*
X197375Y296524D01*
X197445Y296473D01*
X197513Y296419D01*
X197578Y296362D01*
X197641Y296302D01*
X197701Y296239D01*
X197759Y296174D01*
X197813Y296106D01*
X197864Y296036D01*
X197912Y295964D01*
X197957Y295889D01*
X197998Y295813D01*
X198036Y295735D01*
X198070Y295655D01*
X198101Y295574D01*
X198128Y295492D01*
X198152Y295408D01*
X198171Y295324D01*
X198187Y295238D01*
X198199Y295152D01*
X198207Y295066D01*
X198211Y294979D01*
X198212Y294892D01*
X198208Y294806D01*
X198201Y294719D01*
X198189Y294633D01*
X198174Y294548D01*
X198155Y294463D01*
X198133Y294379D01*
X198106Y294297D01*
X198076Y294215D01*
X198043Y294135D01*
X198005Y294057D01*
X197965Y293980D01*
X197920Y293905D01*
X197873Y293833D01*
X197822Y293762D01*
X197769Y293694D01*
X197712Y293628D01*
X197652Y293565D01*
X197590Y293505D01*
X197525Y293447D01*
X197457Y293393D01*
X197388Y293341D01*
X197315Y293293D01*
X197241Y293248D01*
X197165Y293206D01*
X197087Y293168D01*
X197008Y293134D01*
X196927Y293102D01*
X196844Y293075D01*
X196761Y293051D01*
X196676Y293031D01*
X196591Y293015D01*
X196505Y293003D01*
X196419Y292994D01*
X196332Y292990D01*
X196245Y292989D01*
X196246Y292989D02*
X195946Y292997D01*
X195646Y293012D01*
X195347Y293034D01*
X195048Y293063D01*
X194751Y293099D01*
X194454Y293142D01*
X194158Y293193D01*
X193864Y293250D01*
X193571Y293314D01*
X193279Y293385D01*
X192989Y293463D01*
X192702Y293547D01*
X192416Y293639D01*
X192132Y293737D01*
X203793Y292989D02*
X203793Y301964D01*
X203419Y305703D02*
X203419Y306451D01*
X204167Y306451D01*
X204167Y305703D01*
X203419Y305703D01*
X215368Y306451D02*
X215368Y292989D01*
X211629Y292989D01*
X211536Y292991D01*
X211444Y292997D01*
X211351Y293006D01*
X211260Y293020D01*
X211168Y293037D01*
X211078Y293058D01*
X210989Y293082D01*
X210900Y293111D01*
X210813Y293143D01*
X210728Y293178D01*
X210643Y293217D01*
X210561Y293259D01*
X210480Y293305D01*
X210402Y293354D01*
X210325Y293407D01*
X210251Y293462D01*
X210179Y293521D01*
X210109Y293582D01*
X210042Y293646D01*
X209978Y293713D01*
X209917Y293783D01*
X209858Y293855D01*
X209803Y293929D01*
X209750Y294006D01*
X209701Y294084D01*
X209655Y294165D01*
X209613Y294247D01*
X209574Y294332D01*
X209539Y294417D01*
X209507Y294504D01*
X209478Y294593D01*
X209454Y294682D01*
X209433Y294772D01*
X209416Y294864D01*
X209402Y294955D01*
X209393Y295048D01*
X209387Y295140D01*
X209385Y295233D01*
X209385Y299720D01*
X209387Y299813D01*
X209393Y299905D01*
X209402Y299998D01*
X209416Y300089D01*
X209433Y300181D01*
X209454Y300271D01*
X209478Y300360D01*
X209507Y300449D01*
X209539Y300536D01*
X209574Y300621D01*
X209613Y300706D01*
X209655Y300788D01*
X209701Y300869D01*
X209750Y300947D01*
X209803Y301024D01*
X209858Y301098D01*
X209917Y301170D01*
X209978Y301240D01*
X210042Y301307D01*
X210109Y301371D01*
X210179Y301432D01*
X210251Y301491D01*
X210325Y301546D01*
X210402Y301599D01*
X210480Y301648D01*
X210561Y301694D01*
X210643Y301736D01*
X210728Y301775D01*
X210813Y301810D01*
X210900Y301842D01*
X210989Y301871D01*
X211078Y301895D01*
X211169Y301916D01*
X211260Y301933D01*
X211351Y301947D01*
X211444Y301956D01*
X211536Y301962D01*
X211629Y301964D01*
X215368Y301964D01*
X224034Y292989D02*
X227774Y292989D01*
X224034Y292989D02*
X223941Y292991D01*
X223849Y292997D01*
X223756Y293006D01*
X223665Y293020D01*
X223573Y293037D01*
X223483Y293058D01*
X223394Y293082D01*
X223305Y293111D01*
X223218Y293143D01*
X223133Y293178D01*
X223048Y293217D01*
X222966Y293259D01*
X222885Y293305D01*
X222807Y293354D01*
X222730Y293407D01*
X222656Y293462D01*
X222584Y293521D01*
X222514Y293582D01*
X222447Y293646D01*
X222383Y293713D01*
X222322Y293783D01*
X222263Y293855D01*
X222208Y293929D01*
X222155Y294006D01*
X222106Y294084D01*
X222060Y294165D01*
X222018Y294247D01*
X221979Y294332D01*
X221944Y294417D01*
X221912Y294504D01*
X221883Y294593D01*
X221859Y294682D01*
X221838Y294772D01*
X221821Y294864D01*
X221807Y294955D01*
X221798Y295048D01*
X221792Y295140D01*
X221790Y295233D01*
X221791Y295233D02*
X221791Y298972D01*
X221790Y298972D02*
X221792Y299080D01*
X221798Y299188D01*
X221808Y299295D01*
X221821Y299403D01*
X221839Y299509D01*
X221860Y299615D01*
X221885Y299720D01*
X221914Y299824D01*
X221947Y299927D01*
X221983Y300029D01*
X222023Y300129D01*
X222067Y300228D01*
X222114Y300326D01*
X222164Y300421D01*
X222218Y300515D01*
X222276Y300606D01*
X222336Y300696D01*
X222400Y300783D01*
X222467Y300867D01*
X222537Y300950D01*
X222610Y301030D01*
X222686Y301107D01*
X222764Y301181D01*
X222845Y301252D01*
X222929Y301321D01*
X223015Y301386D01*
X223103Y301448D01*
X223193Y301507D01*
X223286Y301563D01*
X223381Y301615D01*
X223477Y301664D01*
X223575Y301710D01*
X223675Y301751D01*
X223776Y301790D01*
X223878Y301824D01*
X223982Y301855D01*
X224086Y301882D01*
X224192Y301905D01*
X224298Y301925D01*
X224405Y301940D01*
X224512Y301952D01*
X224620Y301960D01*
X224728Y301964D01*
X224836Y301964D01*
X224944Y301960D01*
X225052Y301952D01*
X225159Y301940D01*
X225266Y301925D01*
X225372Y301905D01*
X225478Y301882D01*
X225582Y301855D01*
X225686Y301824D01*
X225788Y301790D01*
X225889Y301751D01*
X225989Y301710D01*
X226087Y301664D01*
X226183Y301615D01*
X226278Y301563D01*
X226371Y301507D01*
X226461Y301448D01*
X226549Y301386D01*
X226635Y301321D01*
X226719Y301252D01*
X226800Y301181D01*
X226878Y301107D01*
X226954Y301030D01*
X227027Y300950D01*
X227097Y300867D01*
X227164Y300783D01*
X227228Y300696D01*
X227288Y300606D01*
X227346Y300515D01*
X227400Y300421D01*
X227450Y300326D01*
X227497Y300228D01*
X227541Y300129D01*
X227581Y300029D01*
X227617Y299927D01*
X227650Y299824D01*
X227679Y299720D01*
X227704Y299615D01*
X227725Y299509D01*
X227743Y299403D01*
X227756Y299295D01*
X227766Y299188D01*
X227772Y299080D01*
X227774Y298972D01*
X227774Y297476D01*
X221791Y297476D01*
D15*
X547688Y311150D02*
X547688Y279400D01*
X547688Y311150D02*
X547688Y342900D01*
X547688Y374650D01*
X547688Y406400D01*
X547688Y438150D01*
X230188Y438150D01*
X1588Y438150D01*
X1588Y374650D01*
D11*
X243904Y413766D02*
X243904Y428498D01*
X247996Y428498D01*
X248122Y428496D01*
X248248Y428490D01*
X248374Y428481D01*
X248499Y428467D01*
X248624Y428450D01*
X248748Y428428D01*
X248871Y428403D01*
X248994Y428374D01*
X249116Y428342D01*
X249237Y428305D01*
X249356Y428265D01*
X249474Y428222D01*
X249591Y428174D01*
X249706Y428123D01*
X249820Y428069D01*
X249932Y428011D01*
X250042Y427950D01*
X250150Y427885D01*
X250256Y427817D01*
X250360Y427746D01*
X250462Y427671D01*
X250561Y427594D01*
X250658Y427513D01*
X250753Y427430D01*
X250845Y427344D01*
X250934Y427255D01*
X251020Y427163D01*
X251103Y427068D01*
X251184Y426971D01*
X251261Y426872D01*
X251336Y426770D01*
X251407Y426666D01*
X251475Y426560D01*
X251540Y426452D01*
X251601Y426342D01*
X251659Y426230D01*
X251713Y426116D01*
X251764Y426001D01*
X251812Y425884D01*
X251855Y425766D01*
X251895Y425646D01*
X251932Y425526D01*
X251964Y425404D01*
X251993Y425281D01*
X252018Y425158D01*
X252040Y425034D01*
X252057Y424909D01*
X252071Y424784D01*
X252080Y424658D01*
X252086Y424532D01*
X252088Y424406D01*
X252088Y417858D01*
X252086Y417732D01*
X252080Y417606D01*
X252071Y417480D01*
X252057Y417355D01*
X252040Y417230D01*
X252018Y417106D01*
X251993Y416983D01*
X251964Y416860D01*
X251932Y416738D01*
X251895Y416618D01*
X251855Y416498D01*
X251812Y416380D01*
X251764Y416263D01*
X251713Y416148D01*
X251659Y416034D01*
X251601Y415922D01*
X251540Y415812D01*
X251475Y415704D01*
X251407Y415598D01*
X251336Y415494D01*
X251261Y415392D01*
X251184Y415293D01*
X251103Y415196D01*
X251020Y415101D01*
X250934Y415009D01*
X250845Y414920D01*
X250753Y414834D01*
X250658Y414751D01*
X250561Y414670D01*
X250462Y414593D01*
X250360Y414518D01*
X250256Y414447D01*
X250150Y414379D01*
X250042Y414314D01*
X249932Y414253D01*
X249820Y414195D01*
X249706Y414141D01*
X249591Y414090D01*
X249474Y414042D01*
X249356Y413999D01*
X249237Y413959D01*
X249116Y413922D01*
X248994Y413890D01*
X248871Y413861D01*
X248748Y413836D01*
X248624Y413814D01*
X248499Y413797D01*
X248374Y413783D01*
X248248Y413774D01*
X248122Y413768D01*
X247996Y413766D01*
X243904Y413766D01*
X259092Y417040D02*
X259092Y420314D01*
X259094Y420427D01*
X259100Y420540D01*
X259110Y420652D01*
X259123Y420765D01*
X259141Y420876D01*
X259162Y420987D01*
X259187Y421098D01*
X259216Y421207D01*
X259249Y421315D01*
X259285Y421422D01*
X259325Y421528D01*
X259369Y421632D01*
X259416Y421735D01*
X259467Y421836D01*
X259521Y421935D01*
X259579Y422032D01*
X259640Y422127D01*
X259704Y422220D01*
X259771Y422311D01*
X259842Y422399D01*
X259915Y422485D01*
X259992Y422568D01*
X260071Y422649D01*
X260153Y422727D01*
X260238Y422802D01*
X260325Y422874D01*
X260414Y422943D01*
X260506Y423008D01*
X260600Y423071D01*
X260696Y423130D01*
X260795Y423186D01*
X260895Y423239D01*
X260997Y423288D01*
X261100Y423333D01*
X261205Y423375D01*
X261311Y423413D01*
X261419Y423448D01*
X261528Y423479D01*
X261637Y423506D01*
X261748Y423529D01*
X261859Y423549D01*
X261971Y423564D01*
X262084Y423576D01*
X262197Y423584D01*
X262309Y423588D01*
X262423Y423588D01*
X262535Y423584D01*
X262648Y423576D01*
X262761Y423564D01*
X262873Y423549D01*
X262984Y423529D01*
X263095Y423506D01*
X263204Y423479D01*
X263313Y423448D01*
X263421Y423413D01*
X263527Y423375D01*
X263632Y423333D01*
X263735Y423288D01*
X263837Y423239D01*
X263937Y423186D01*
X264036Y423130D01*
X264132Y423071D01*
X264226Y423008D01*
X264318Y422943D01*
X264407Y422874D01*
X264494Y422802D01*
X264579Y422727D01*
X264661Y422649D01*
X264740Y422568D01*
X264817Y422485D01*
X264890Y422399D01*
X264961Y422311D01*
X265028Y422220D01*
X265092Y422127D01*
X265153Y422032D01*
X265211Y421935D01*
X265265Y421836D01*
X265316Y421735D01*
X265363Y421632D01*
X265407Y421528D01*
X265447Y421422D01*
X265483Y421315D01*
X265516Y421207D01*
X265545Y421098D01*
X265570Y420987D01*
X265591Y420876D01*
X265609Y420765D01*
X265622Y420652D01*
X265632Y420540D01*
X265638Y420427D01*
X265640Y420314D01*
X265640Y417040D01*
X265638Y416927D01*
X265632Y416814D01*
X265622Y416702D01*
X265609Y416589D01*
X265591Y416478D01*
X265570Y416367D01*
X265545Y416256D01*
X265516Y416147D01*
X265483Y416039D01*
X265447Y415932D01*
X265407Y415826D01*
X265363Y415722D01*
X265316Y415619D01*
X265265Y415518D01*
X265211Y415419D01*
X265153Y415322D01*
X265092Y415227D01*
X265028Y415134D01*
X264961Y415043D01*
X264890Y414955D01*
X264817Y414869D01*
X264740Y414786D01*
X264661Y414705D01*
X264579Y414627D01*
X264494Y414552D01*
X264407Y414480D01*
X264318Y414411D01*
X264226Y414346D01*
X264132Y414283D01*
X264036Y414224D01*
X263937Y414168D01*
X263837Y414115D01*
X263735Y414066D01*
X263632Y414021D01*
X263527Y413979D01*
X263421Y413941D01*
X263313Y413906D01*
X263204Y413875D01*
X263095Y413848D01*
X262984Y413825D01*
X262873Y413805D01*
X262761Y413790D01*
X262648Y413778D01*
X262535Y413770D01*
X262423Y413766D01*
X262309Y413766D01*
X262197Y413770D01*
X262084Y413778D01*
X261971Y413790D01*
X261859Y413805D01*
X261748Y413825D01*
X261637Y413848D01*
X261528Y413875D01*
X261419Y413906D01*
X261311Y413941D01*
X261205Y413979D01*
X261100Y414021D01*
X260997Y414066D01*
X260895Y414115D01*
X260795Y414168D01*
X260696Y414224D01*
X260600Y414283D01*
X260506Y414346D01*
X260414Y414411D01*
X260325Y414480D01*
X260238Y414552D01*
X260153Y414627D01*
X260071Y414705D01*
X259992Y414786D01*
X259915Y414869D01*
X259842Y414955D01*
X259771Y415043D01*
X259704Y415134D01*
X259640Y415227D01*
X259579Y415322D01*
X259521Y415419D01*
X259467Y415518D01*
X259416Y415619D01*
X259369Y415722D01*
X259325Y415826D01*
X259285Y415932D01*
X259249Y416039D01*
X259216Y416147D01*
X259187Y416256D01*
X259162Y416367D01*
X259141Y416478D01*
X259123Y416589D01*
X259110Y416702D01*
X259100Y416814D01*
X259094Y416927D01*
X259092Y417040D01*
X274452Y413766D02*
X277726Y413766D01*
X274452Y413766D02*
X274356Y413768D01*
X274259Y413774D01*
X274163Y413783D01*
X274068Y413796D01*
X273973Y413813D01*
X273879Y413834D01*
X273786Y413858D01*
X273693Y413886D01*
X273602Y413918D01*
X273513Y413953D01*
X273424Y413992D01*
X273337Y414034D01*
X273252Y414079D01*
X273169Y414128D01*
X273088Y414180D01*
X273009Y414235D01*
X272932Y414293D01*
X272858Y414354D01*
X272786Y414418D01*
X272716Y414485D01*
X272649Y414555D01*
X272585Y414627D01*
X272524Y414701D01*
X272466Y414778D01*
X272411Y414857D01*
X272359Y414938D01*
X272310Y415021D01*
X272265Y415106D01*
X272223Y415193D01*
X272184Y415282D01*
X272149Y415371D01*
X272117Y415462D01*
X272089Y415555D01*
X272065Y415648D01*
X272044Y415742D01*
X272027Y415837D01*
X272014Y415932D01*
X272005Y416028D01*
X271999Y416125D01*
X271997Y416221D01*
X271997Y421132D01*
X271999Y421228D01*
X272005Y421325D01*
X272014Y421421D01*
X272027Y421516D01*
X272044Y421611D01*
X272065Y421705D01*
X272089Y421798D01*
X272117Y421891D01*
X272149Y421982D01*
X272184Y422071D01*
X272223Y422160D01*
X272265Y422247D01*
X272310Y422332D01*
X272359Y422415D01*
X272411Y422496D01*
X272466Y422575D01*
X272524Y422652D01*
X272585Y422726D01*
X272649Y422798D01*
X272716Y422868D01*
X272786Y422935D01*
X272858Y422999D01*
X272932Y423060D01*
X273009Y423118D01*
X273088Y423173D01*
X273169Y423225D01*
X273252Y423274D01*
X273337Y423319D01*
X273424Y423361D01*
X273513Y423400D01*
X273602Y423435D01*
X273693Y423467D01*
X273786Y423495D01*
X273879Y423519D01*
X273973Y423540D01*
X274068Y423557D01*
X274163Y423570D01*
X274259Y423579D01*
X274356Y423585D01*
X274452Y423587D01*
X277726Y423587D01*
X282769Y414584D02*
X282769Y413766D01*
X282769Y414584D02*
X283587Y414584D01*
X283587Y413766D01*
X282769Y413766D01*
X289664Y419495D02*
X299486Y419495D01*
X306835Y413766D02*
X306835Y428498D01*
X315020Y413766D01*
X315020Y428498D01*
X322024Y420314D02*
X322024Y417040D01*
X322024Y420314D02*
X322026Y420427D01*
X322032Y420540D01*
X322042Y420652D01*
X322055Y420765D01*
X322073Y420876D01*
X322094Y420987D01*
X322119Y421098D01*
X322148Y421207D01*
X322181Y421315D01*
X322217Y421422D01*
X322257Y421528D01*
X322301Y421632D01*
X322348Y421735D01*
X322399Y421836D01*
X322453Y421935D01*
X322511Y422032D01*
X322572Y422127D01*
X322636Y422220D01*
X322703Y422311D01*
X322774Y422399D01*
X322847Y422485D01*
X322924Y422568D01*
X323003Y422649D01*
X323085Y422727D01*
X323170Y422802D01*
X323257Y422874D01*
X323346Y422943D01*
X323438Y423008D01*
X323532Y423071D01*
X323628Y423130D01*
X323727Y423186D01*
X323827Y423239D01*
X323929Y423288D01*
X324032Y423333D01*
X324137Y423375D01*
X324243Y423413D01*
X324351Y423448D01*
X324460Y423479D01*
X324569Y423506D01*
X324680Y423529D01*
X324791Y423549D01*
X324903Y423564D01*
X325016Y423576D01*
X325129Y423584D01*
X325241Y423588D01*
X325355Y423588D01*
X325467Y423584D01*
X325580Y423576D01*
X325693Y423564D01*
X325805Y423549D01*
X325916Y423529D01*
X326027Y423506D01*
X326136Y423479D01*
X326245Y423448D01*
X326353Y423413D01*
X326459Y423375D01*
X326564Y423333D01*
X326667Y423288D01*
X326769Y423239D01*
X326869Y423186D01*
X326968Y423130D01*
X327064Y423071D01*
X327158Y423008D01*
X327250Y422943D01*
X327339Y422874D01*
X327426Y422802D01*
X327511Y422727D01*
X327593Y422649D01*
X327672Y422568D01*
X327749Y422485D01*
X327822Y422399D01*
X327893Y422311D01*
X327960Y422220D01*
X328024Y422127D01*
X328085Y422032D01*
X328143Y421935D01*
X328197Y421836D01*
X328248Y421735D01*
X328295Y421632D01*
X328339Y421528D01*
X328379Y421422D01*
X328415Y421315D01*
X328448Y421207D01*
X328477Y421098D01*
X328502Y420987D01*
X328523Y420876D01*
X328541Y420765D01*
X328554Y420652D01*
X328564Y420540D01*
X328570Y420427D01*
X328572Y420314D01*
X328571Y420314D02*
X328571Y417040D01*
X328572Y417040D02*
X328570Y416927D01*
X328564Y416814D01*
X328554Y416702D01*
X328541Y416589D01*
X328523Y416478D01*
X328502Y416367D01*
X328477Y416256D01*
X328448Y416147D01*
X328415Y416039D01*
X328379Y415932D01*
X328339Y415826D01*
X328295Y415722D01*
X328248Y415619D01*
X328197Y415518D01*
X328143Y415419D01*
X328085Y415322D01*
X328024Y415227D01*
X327960Y415134D01*
X327893Y415043D01*
X327822Y414955D01*
X327749Y414869D01*
X327672Y414786D01*
X327593Y414705D01*
X327511Y414627D01*
X327426Y414552D01*
X327339Y414480D01*
X327250Y414411D01*
X327158Y414346D01*
X327064Y414283D01*
X326968Y414224D01*
X326869Y414168D01*
X326769Y414115D01*
X326667Y414066D01*
X326564Y414021D01*
X326459Y413979D01*
X326353Y413941D01*
X326245Y413906D01*
X326136Y413875D01*
X326027Y413848D01*
X325916Y413825D01*
X325805Y413805D01*
X325693Y413790D01*
X325580Y413778D01*
X325467Y413770D01*
X325355Y413766D01*
X325241Y413766D01*
X325129Y413770D01*
X325016Y413778D01*
X324903Y413790D01*
X324791Y413805D01*
X324680Y413825D01*
X324569Y413848D01*
X324460Y413875D01*
X324351Y413906D01*
X324243Y413941D01*
X324137Y413979D01*
X324032Y414021D01*
X323929Y414066D01*
X323827Y414115D01*
X323727Y414168D01*
X323628Y414224D01*
X323532Y414283D01*
X323438Y414346D01*
X323346Y414411D01*
X323257Y414480D01*
X323170Y414552D01*
X323085Y414627D01*
X323003Y414705D01*
X322924Y414786D01*
X322847Y414869D01*
X322774Y414955D01*
X322703Y415043D01*
X322636Y415134D01*
X322572Y415227D01*
X322511Y415322D01*
X322453Y415419D01*
X322399Y415518D01*
X322348Y415619D01*
X322301Y415722D01*
X322257Y415826D01*
X322217Y415932D01*
X322181Y416039D01*
X322148Y416147D01*
X322119Y416256D01*
X322094Y416367D01*
X322073Y416478D01*
X322055Y416589D01*
X322042Y416702D01*
X322032Y416814D01*
X322026Y416927D01*
X322024Y417040D01*
X334303Y414584D02*
X334303Y413766D01*
X334303Y414584D02*
X335122Y414584D01*
X335122Y413766D01*
X334303Y413766D01*
X340745Y414994D02*
X340745Y415812D01*
X341564Y415812D01*
X341564Y414994D01*
X340745Y414994D01*
X340745Y421541D02*
X340745Y422360D01*
X341564Y422360D01*
X341564Y421541D01*
X340745Y421541D01*
D15*
X1588Y374650D02*
X1588Y342900D01*
X1588Y311150D01*
X1588Y279400D01*
X547688Y279400D01*
D11*
X383604Y318516D02*
X383604Y333248D01*
X387696Y333248D01*
X387823Y333246D01*
X387950Y333240D01*
X388077Y333230D01*
X388204Y333216D01*
X388330Y333199D01*
X388455Y333177D01*
X388580Y333151D01*
X388704Y333122D01*
X388827Y333089D01*
X388948Y333052D01*
X389069Y333011D01*
X389188Y332966D01*
X389306Y332918D01*
X389422Y332866D01*
X389537Y332811D01*
X389649Y332752D01*
X389760Y332689D01*
X389869Y332623D01*
X389976Y332554D01*
X390081Y332481D01*
X390183Y332406D01*
X390283Y332327D01*
X390380Y332245D01*
X390475Y332160D01*
X390567Y332072D01*
X390656Y331981D01*
X390743Y331888D01*
X390826Y331792D01*
X390907Y331693D01*
X390984Y331592D01*
X391058Y331489D01*
X391129Y331383D01*
X391197Y331275D01*
X391261Y331165D01*
X391322Y331053D01*
X391379Y330940D01*
X391433Y330824D01*
X391483Y330707D01*
X391529Y330589D01*
X391572Y330469D01*
X391611Y330348D01*
X391646Y330225D01*
X391677Y330102D01*
X391705Y329978D01*
X391728Y329853D01*
X391748Y329727D01*
X391764Y329601D01*
X391776Y329474D01*
X391784Y329347D01*
X391788Y329220D01*
X391788Y329092D01*
X391784Y328965D01*
X391776Y328838D01*
X391764Y328711D01*
X391748Y328585D01*
X391728Y328459D01*
X391705Y328334D01*
X391677Y328210D01*
X391646Y328087D01*
X391611Y327964D01*
X391572Y327843D01*
X391529Y327723D01*
X391483Y327605D01*
X391433Y327488D01*
X391379Y327372D01*
X391322Y327259D01*
X391261Y327147D01*
X391197Y327037D01*
X391129Y326929D01*
X391058Y326823D01*
X390984Y326720D01*
X390907Y326619D01*
X390826Y326520D01*
X390743Y326424D01*
X390656Y326331D01*
X390567Y326240D01*
X390475Y326152D01*
X390380Y326067D01*
X390283Y325985D01*
X390183Y325906D01*
X390081Y325831D01*
X389976Y325758D01*
X389869Y325689D01*
X389760Y325623D01*
X389649Y325560D01*
X389537Y325501D01*
X389422Y325446D01*
X389306Y325394D01*
X389188Y325346D01*
X389069Y325301D01*
X388948Y325260D01*
X388827Y325223D01*
X388704Y325190D01*
X388580Y325161D01*
X388455Y325135D01*
X388330Y325113D01*
X388204Y325096D01*
X388077Y325082D01*
X387950Y325072D01*
X387823Y325066D01*
X387696Y325064D01*
X383604Y325064D01*
X388514Y325064D02*
X391788Y318516D01*
X400639Y318516D02*
X404731Y318516D01*
X400639Y318516D02*
X400543Y318518D01*
X400446Y318524D01*
X400350Y318533D01*
X400255Y318546D01*
X400160Y318563D01*
X400066Y318584D01*
X399973Y318608D01*
X399880Y318636D01*
X399789Y318668D01*
X399700Y318703D01*
X399611Y318742D01*
X399524Y318784D01*
X399439Y318829D01*
X399356Y318878D01*
X399275Y318930D01*
X399196Y318985D01*
X399119Y319043D01*
X399045Y319104D01*
X398973Y319168D01*
X398903Y319235D01*
X398836Y319305D01*
X398772Y319377D01*
X398711Y319451D01*
X398653Y319528D01*
X398598Y319607D01*
X398546Y319688D01*
X398497Y319771D01*
X398452Y319856D01*
X398410Y319943D01*
X398371Y320032D01*
X398336Y320121D01*
X398304Y320212D01*
X398276Y320305D01*
X398252Y320398D01*
X398231Y320492D01*
X398214Y320587D01*
X398201Y320682D01*
X398192Y320778D01*
X398186Y320875D01*
X398184Y320971D01*
X398183Y320971D02*
X398183Y325064D01*
X398185Y325177D01*
X398191Y325290D01*
X398201Y325402D01*
X398214Y325515D01*
X398232Y325626D01*
X398253Y325737D01*
X398278Y325848D01*
X398307Y325957D01*
X398340Y326065D01*
X398376Y326172D01*
X398416Y326278D01*
X398460Y326382D01*
X398507Y326485D01*
X398558Y326586D01*
X398612Y326685D01*
X398670Y326782D01*
X398731Y326877D01*
X398795Y326970D01*
X398862Y327061D01*
X398933Y327149D01*
X399006Y327235D01*
X399083Y327318D01*
X399162Y327399D01*
X399244Y327477D01*
X399329Y327552D01*
X399416Y327624D01*
X399505Y327693D01*
X399597Y327758D01*
X399691Y327821D01*
X399787Y327880D01*
X399886Y327936D01*
X399986Y327989D01*
X400088Y328038D01*
X400191Y328083D01*
X400296Y328125D01*
X400402Y328163D01*
X400510Y328198D01*
X400619Y328229D01*
X400728Y328256D01*
X400839Y328279D01*
X400950Y328299D01*
X401062Y328314D01*
X401175Y328326D01*
X401288Y328334D01*
X401400Y328338D01*
X401514Y328338D01*
X401626Y328334D01*
X401739Y328326D01*
X401852Y328314D01*
X401964Y328299D01*
X402075Y328279D01*
X402186Y328256D01*
X402295Y328229D01*
X402404Y328198D01*
X402512Y328163D01*
X402618Y328125D01*
X402723Y328083D01*
X402826Y328038D01*
X402928Y327989D01*
X403028Y327936D01*
X403127Y327880D01*
X403223Y327821D01*
X403317Y327758D01*
X403409Y327693D01*
X403498Y327624D01*
X403585Y327552D01*
X403670Y327477D01*
X403752Y327399D01*
X403831Y327318D01*
X403908Y327235D01*
X403981Y327149D01*
X404052Y327061D01*
X404119Y326970D01*
X404183Y326877D01*
X404244Y326782D01*
X404302Y326685D01*
X404356Y326586D01*
X404407Y326485D01*
X404454Y326382D01*
X404498Y326278D01*
X404538Y326172D01*
X404574Y326065D01*
X404607Y325957D01*
X404636Y325848D01*
X404661Y325737D01*
X404682Y325626D01*
X404700Y325515D01*
X404713Y325402D01*
X404723Y325290D01*
X404729Y325177D01*
X404731Y325064D01*
X404731Y323427D01*
X398183Y323427D01*
X410572Y328337D02*
X413845Y318516D01*
X417119Y328337D01*
X422356Y319334D02*
X422356Y318516D01*
X422356Y319334D02*
X423174Y319334D01*
X423174Y318516D01*
X422356Y318516D01*
X428797Y319744D02*
X428797Y320562D01*
X429616Y320562D01*
X429616Y319744D01*
X428797Y319744D01*
X428797Y326291D02*
X428797Y327110D01*
X429616Y327110D01*
X429616Y326291D01*
X428797Y326291D01*
D15*
X369888Y311150D02*
X1588Y311150D01*
X369888Y311150D02*
X547688Y311150D01*
X369888Y342900D02*
X1588Y342900D01*
X369888Y342900D02*
X547688Y342900D01*
X230188Y374650D02*
X1588Y374650D01*
X230188Y374650D02*
X369888Y374650D01*
X547688Y374650D01*
X230188Y406400D02*
X230188Y438150D01*
X230188Y406400D02*
X230188Y374650D01*
X230188Y406400D02*
X369888Y406400D01*
X547688Y406400D01*
D16*
X369888Y406400D02*
X369888Y374650D01*
D11*
X386877Y382016D02*
X390151Y382016D01*
X386877Y382016D02*
X386765Y382018D01*
X386654Y382024D01*
X386542Y382033D01*
X386431Y382046D01*
X386321Y382064D01*
X386211Y382084D01*
X386102Y382109D01*
X385994Y382137D01*
X385887Y382169D01*
X385781Y382205D01*
X385676Y382244D01*
X385573Y382287D01*
X385471Y382333D01*
X385371Y382383D01*
X385272Y382436D01*
X385176Y382493D01*
X385081Y382552D01*
X384989Y382615D01*
X384899Y382681D01*
X384811Y382750D01*
X384725Y382822D01*
X384642Y382897D01*
X384562Y382975D01*
X384484Y383055D01*
X384409Y383138D01*
X384337Y383224D01*
X384268Y383312D01*
X384202Y383402D01*
X384139Y383494D01*
X384080Y383589D01*
X384023Y383685D01*
X383970Y383784D01*
X383920Y383884D01*
X383874Y383986D01*
X383831Y384089D01*
X383792Y384194D01*
X383756Y384300D01*
X383724Y384407D01*
X383696Y384515D01*
X383671Y384624D01*
X383651Y384734D01*
X383633Y384844D01*
X383620Y384955D01*
X383611Y385067D01*
X383605Y385178D01*
X383603Y385290D01*
X383604Y385290D02*
X383604Y393474D01*
X383603Y393474D02*
X383605Y393588D01*
X383611Y393702D01*
X383621Y393816D01*
X383635Y393930D01*
X383653Y394043D01*
X383675Y394155D01*
X383700Y394266D01*
X383730Y394376D01*
X383763Y394486D01*
X383800Y394594D01*
X383841Y394700D01*
X383886Y394806D01*
X383934Y394909D01*
X383986Y395011D01*
X384042Y395111D01*
X384100Y395209D01*
X384163Y395305D01*
X384228Y395398D01*
X384297Y395490D01*
X384369Y395578D01*
X384444Y395665D01*
X384522Y395748D01*
X384603Y395829D01*
X384686Y395907D01*
X384773Y395982D01*
X384861Y396054D01*
X384953Y396123D01*
X385046Y396188D01*
X385142Y396250D01*
X385240Y396309D01*
X385340Y396365D01*
X385442Y396417D01*
X385545Y396465D01*
X385651Y396510D01*
X385757Y396551D01*
X385865Y396588D01*
X385975Y396621D01*
X386085Y396651D01*
X386196Y396676D01*
X386308Y396698D01*
X386421Y396716D01*
X386535Y396730D01*
X386649Y396740D01*
X386763Y396746D01*
X386877Y396748D01*
X390151Y396748D01*
X396364Y391837D02*
X396364Y384471D01*
X396365Y384471D02*
X396367Y384375D01*
X396373Y384278D01*
X396382Y384182D01*
X396395Y384087D01*
X396412Y383992D01*
X396433Y383898D01*
X396457Y383805D01*
X396485Y383712D01*
X396517Y383621D01*
X396552Y383532D01*
X396591Y383443D01*
X396633Y383356D01*
X396678Y383271D01*
X396727Y383188D01*
X396779Y383107D01*
X396834Y383028D01*
X396892Y382951D01*
X396953Y382877D01*
X397017Y382805D01*
X397084Y382735D01*
X397154Y382668D01*
X397226Y382604D01*
X397300Y382543D01*
X397377Y382485D01*
X397456Y382430D01*
X397537Y382378D01*
X397620Y382329D01*
X397705Y382284D01*
X397792Y382242D01*
X397881Y382203D01*
X397970Y382168D01*
X398061Y382136D01*
X398154Y382108D01*
X398247Y382084D01*
X398341Y382063D01*
X398436Y382046D01*
X398531Y382033D01*
X398627Y382024D01*
X398724Y382018D01*
X398820Y382016D01*
X402912Y382016D01*
X402912Y391837D01*
X410089Y387745D02*
X419910Y387745D01*
X427296Y382016D02*
X427296Y396748D01*
X427296Y382016D02*
X433843Y382016D01*
X442249Y387745D02*
X445932Y387745D01*
X442249Y387746D02*
X442143Y387744D01*
X442037Y387738D01*
X441932Y387728D01*
X441827Y387715D01*
X441723Y387697D01*
X441619Y387676D01*
X441516Y387651D01*
X441414Y387622D01*
X441313Y387589D01*
X441214Y387553D01*
X441116Y387512D01*
X441020Y387469D01*
X440925Y387422D01*
X440832Y387371D01*
X440741Y387317D01*
X440652Y387259D01*
X440565Y387199D01*
X440480Y387135D01*
X440398Y387068D01*
X440319Y386998D01*
X440242Y386925D01*
X440168Y386850D01*
X440096Y386772D01*
X440028Y386691D01*
X439963Y386608D01*
X439900Y386522D01*
X439841Y386434D01*
X439786Y386344D01*
X439733Y386252D01*
X439684Y386158D01*
X439639Y386062D01*
X439597Y385965D01*
X439559Y385866D01*
X439524Y385766D01*
X439493Y385665D01*
X439466Y385563D01*
X439443Y385459D01*
X439424Y385355D01*
X439408Y385251D01*
X439396Y385145D01*
X439388Y385040D01*
X439384Y384934D01*
X439384Y384828D01*
X439388Y384722D01*
X439396Y384617D01*
X439408Y384511D01*
X439424Y384407D01*
X439443Y384303D01*
X439466Y384199D01*
X439493Y384097D01*
X439524Y383996D01*
X439559Y383896D01*
X439597Y383797D01*
X439639Y383700D01*
X439684Y383604D01*
X439733Y383510D01*
X439786Y383418D01*
X439841Y383328D01*
X439900Y383240D01*
X439963Y383154D01*
X440028Y383071D01*
X440096Y382990D01*
X440168Y382912D01*
X440242Y382837D01*
X440319Y382764D01*
X440398Y382694D01*
X440480Y382627D01*
X440565Y382563D01*
X440652Y382503D01*
X440741Y382445D01*
X440832Y382391D01*
X440925Y382340D01*
X441020Y382293D01*
X441116Y382250D01*
X441214Y382209D01*
X441313Y382173D01*
X441414Y382140D01*
X441516Y382111D01*
X441619Y382086D01*
X441723Y382065D01*
X441827Y382047D01*
X441932Y382034D01*
X442037Y382024D01*
X442143Y382018D01*
X442249Y382016D01*
X445932Y382016D01*
X445932Y389382D01*
X445930Y389478D01*
X445924Y389575D01*
X445915Y389671D01*
X445902Y389766D01*
X445885Y389861D01*
X445864Y389955D01*
X445840Y390048D01*
X445812Y390141D01*
X445780Y390232D01*
X445745Y390321D01*
X445706Y390410D01*
X445664Y390497D01*
X445619Y390582D01*
X445570Y390665D01*
X445518Y390746D01*
X445463Y390825D01*
X445405Y390902D01*
X445344Y390976D01*
X445280Y391048D01*
X445213Y391118D01*
X445143Y391185D01*
X445071Y391249D01*
X444997Y391310D01*
X444920Y391368D01*
X444841Y391423D01*
X444760Y391475D01*
X444677Y391524D01*
X444592Y391569D01*
X444505Y391611D01*
X444416Y391650D01*
X444327Y391685D01*
X444236Y391717D01*
X444143Y391745D01*
X444050Y391769D01*
X443956Y391790D01*
X443861Y391807D01*
X443766Y391820D01*
X443670Y391829D01*
X443573Y391835D01*
X443477Y391837D01*
X440203Y391837D01*
X452359Y377105D02*
X453996Y377105D01*
X458906Y391837D01*
X452359Y391837D02*
X455632Y382016D01*
X467202Y382016D02*
X471294Y382016D01*
X467202Y382016D02*
X467106Y382018D01*
X467009Y382024D01*
X466913Y382033D01*
X466818Y382046D01*
X466723Y382063D01*
X466629Y382084D01*
X466536Y382108D01*
X466443Y382136D01*
X466352Y382168D01*
X466263Y382203D01*
X466174Y382242D01*
X466087Y382284D01*
X466002Y382329D01*
X465919Y382378D01*
X465838Y382430D01*
X465759Y382485D01*
X465682Y382543D01*
X465608Y382604D01*
X465536Y382668D01*
X465466Y382735D01*
X465399Y382805D01*
X465335Y382877D01*
X465274Y382951D01*
X465216Y383028D01*
X465161Y383107D01*
X465109Y383188D01*
X465060Y383271D01*
X465015Y383356D01*
X464973Y383443D01*
X464934Y383532D01*
X464899Y383621D01*
X464867Y383712D01*
X464839Y383805D01*
X464815Y383898D01*
X464794Y383992D01*
X464777Y384087D01*
X464764Y384182D01*
X464755Y384278D01*
X464749Y384375D01*
X464747Y384471D01*
X464747Y388564D01*
X464749Y388677D01*
X464755Y388790D01*
X464765Y388902D01*
X464778Y389015D01*
X464796Y389126D01*
X464817Y389237D01*
X464842Y389348D01*
X464871Y389457D01*
X464904Y389565D01*
X464940Y389672D01*
X464980Y389778D01*
X465024Y389882D01*
X465071Y389985D01*
X465122Y390086D01*
X465176Y390185D01*
X465234Y390282D01*
X465295Y390377D01*
X465359Y390470D01*
X465426Y390561D01*
X465497Y390649D01*
X465570Y390735D01*
X465647Y390818D01*
X465726Y390899D01*
X465808Y390977D01*
X465893Y391052D01*
X465980Y391124D01*
X466069Y391193D01*
X466161Y391258D01*
X466255Y391321D01*
X466351Y391380D01*
X466450Y391436D01*
X466550Y391489D01*
X466652Y391538D01*
X466755Y391583D01*
X466860Y391625D01*
X466966Y391663D01*
X467074Y391698D01*
X467183Y391729D01*
X467292Y391756D01*
X467403Y391779D01*
X467514Y391799D01*
X467626Y391814D01*
X467739Y391826D01*
X467852Y391834D01*
X467964Y391838D01*
X468078Y391838D01*
X468190Y391834D01*
X468303Y391826D01*
X468416Y391814D01*
X468528Y391799D01*
X468639Y391779D01*
X468750Y391756D01*
X468859Y391729D01*
X468968Y391698D01*
X469076Y391663D01*
X469182Y391625D01*
X469287Y391583D01*
X469390Y391538D01*
X469492Y391489D01*
X469592Y391436D01*
X469691Y391380D01*
X469787Y391321D01*
X469881Y391258D01*
X469973Y391193D01*
X470062Y391124D01*
X470149Y391052D01*
X470234Y390977D01*
X470316Y390899D01*
X470395Y390818D01*
X470472Y390735D01*
X470545Y390649D01*
X470616Y390561D01*
X470683Y390470D01*
X470747Y390377D01*
X470808Y390282D01*
X470866Y390185D01*
X470920Y390086D01*
X470971Y389985D01*
X471018Y389882D01*
X471062Y389778D01*
X471102Y389672D01*
X471138Y389565D01*
X471171Y389457D01*
X471200Y389348D01*
X471225Y389237D01*
X471246Y389126D01*
X471264Y389015D01*
X471277Y388902D01*
X471287Y388790D01*
X471293Y388677D01*
X471295Y388564D01*
X471294Y388564D02*
X471294Y386927D01*
X464747Y386927D01*
X478230Y382016D02*
X478230Y391837D01*
X483141Y391837D01*
X483141Y390200D01*
X489264Y387745D02*
X493356Y386108D01*
X489264Y387745D02*
X489181Y387780D01*
X489099Y387819D01*
X489019Y387862D01*
X488941Y387907D01*
X488864Y387956D01*
X488790Y388009D01*
X488719Y388064D01*
X488649Y388123D01*
X488583Y388184D01*
X488519Y388248D01*
X488458Y388315D01*
X488399Y388384D01*
X488344Y388456D01*
X488292Y388530D01*
X488243Y388606D01*
X488197Y388684D01*
X488155Y388765D01*
X488116Y388846D01*
X488081Y388930D01*
X488049Y389015D01*
X488021Y389101D01*
X487996Y389188D01*
X487976Y389276D01*
X487959Y389365D01*
X487946Y389455D01*
X487937Y389545D01*
X487931Y389636D01*
X487930Y389726D01*
X487932Y389817D01*
X487939Y389907D01*
X487949Y389997D01*
X487963Y390087D01*
X487981Y390175D01*
X488002Y390263D01*
X488027Y390350D01*
X488056Y390436D01*
X488089Y390521D01*
X488125Y390604D01*
X488165Y390685D01*
X488208Y390765D01*
X488254Y390843D01*
X488304Y390918D01*
X488357Y390992D01*
X488413Y391063D01*
X488472Y391132D01*
X488534Y391198D01*
X488599Y391261D01*
X488666Y391322D01*
X488736Y391380D01*
X488808Y391434D01*
X488883Y391486D01*
X488960Y391534D01*
X489038Y391579D01*
X489119Y391621D01*
X489201Y391659D01*
X489285Y391693D01*
X489370Y391724D01*
X489456Y391752D01*
X489544Y391775D01*
X489632Y391795D01*
X489721Y391811D01*
X489811Y391823D01*
X489901Y391832D01*
X489992Y391836D01*
X490082Y391837D01*
X490083Y391837D02*
X490306Y391831D01*
X490529Y391820D01*
X490752Y391803D01*
X490975Y391781D01*
X491196Y391754D01*
X491417Y391721D01*
X491638Y391683D01*
X491857Y391640D01*
X492075Y391592D01*
X492292Y391538D01*
X492508Y391479D01*
X492722Y391415D01*
X492934Y391346D01*
X493145Y391272D01*
X493354Y391192D01*
X493561Y391108D01*
X493766Y391019D01*
X493356Y386108D02*
X493439Y386073D01*
X493521Y386034D01*
X493601Y385991D01*
X493679Y385946D01*
X493756Y385897D01*
X493830Y385844D01*
X493901Y385789D01*
X493971Y385730D01*
X494037Y385669D01*
X494101Y385605D01*
X494162Y385538D01*
X494221Y385469D01*
X494276Y385397D01*
X494328Y385323D01*
X494377Y385247D01*
X494423Y385169D01*
X494465Y385088D01*
X494504Y385007D01*
X494539Y384923D01*
X494571Y384838D01*
X494599Y384752D01*
X494624Y384665D01*
X494644Y384577D01*
X494661Y384488D01*
X494674Y384398D01*
X494683Y384308D01*
X494689Y384217D01*
X494690Y384127D01*
X494688Y384036D01*
X494681Y383946D01*
X494671Y383856D01*
X494657Y383766D01*
X494639Y383678D01*
X494618Y383590D01*
X494593Y383503D01*
X494564Y383417D01*
X494531Y383332D01*
X494495Y383249D01*
X494455Y383168D01*
X494412Y383088D01*
X494366Y383010D01*
X494316Y382935D01*
X494263Y382861D01*
X494207Y382790D01*
X494148Y382721D01*
X494086Y382655D01*
X494021Y382592D01*
X493954Y382531D01*
X493884Y382473D01*
X493812Y382419D01*
X493737Y382367D01*
X493660Y382319D01*
X493582Y382274D01*
X493501Y382232D01*
X493419Y382194D01*
X493335Y382160D01*
X493250Y382129D01*
X493164Y382101D01*
X493076Y382078D01*
X492988Y382058D01*
X492899Y382042D01*
X492809Y382030D01*
X492719Y382021D01*
X492628Y382017D01*
X492538Y382016D01*
X492210Y382025D01*
X491882Y382041D01*
X491554Y382065D01*
X491228Y382097D01*
X490902Y382137D01*
X490577Y382184D01*
X490253Y382239D01*
X489931Y382301D01*
X489610Y382372D01*
X489291Y382449D01*
X488974Y382535D01*
X488659Y382627D01*
X488347Y382727D01*
X488036Y382835D01*
X500812Y383244D02*
X500812Y384062D01*
X501630Y384062D01*
X501630Y383244D01*
X500812Y383244D01*
X500812Y389791D02*
X500812Y390610D01*
X501630Y390610D01*
X501630Y389791D01*
X500812Y389791D01*
D16*
X369888Y342900D02*
X369888Y311150D01*
D11*
X250451Y382016D02*
X247177Y382016D01*
X247065Y382018D01*
X246954Y382024D01*
X246842Y382033D01*
X246731Y382046D01*
X246621Y382064D01*
X246511Y382084D01*
X246402Y382109D01*
X246294Y382137D01*
X246187Y382169D01*
X246081Y382205D01*
X245976Y382244D01*
X245873Y382287D01*
X245771Y382333D01*
X245671Y382383D01*
X245572Y382436D01*
X245476Y382493D01*
X245381Y382552D01*
X245289Y382615D01*
X245199Y382681D01*
X245111Y382750D01*
X245025Y382822D01*
X244942Y382897D01*
X244862Y382975D01*
X244784Y383055D01*
X244709Y383138D01*
X244637Y383224D01*
X244568Y383312D01*
X244502Y383402D01*
X244439Y383494D01*
X244380Y383589D01*
X244323Y383685D01*
X244270Y383784D01*
X244220Y383884D01*
X244174Y383986D01*
X244131Y384089D01*
X244092Y384194D01*
X244056Y384300D01*
X244024Y384407D01*
X243996Y384515D01*
X243971Y384624D01*
X243951Y384734D01*
X243933Y384844D01*
X243920Y384955D01*
X243911Y385067D01*
X243905Y385178D01*
X243903Y385290D01*
X243904Y385290D02*
X243904Y393474D01*
X243903Y393474D02*
X243905Y393588D01*
X243911Y393702D01*
X243921Y393816D01*
X243935Y393930D01*
X243953Y394043D01*
X243975Y394155D01*
X244000Y394266D01*
X244030Y394376D01*
X244063Y394486D01*
X244100Y394594D01*
X244141Y394700D01*
X244186Y394806D01*
X244234Y394909D01*
X244286Y395011D01*
X244342Y395111D01*
X244400Y395209D01*
X244463Y395305D01*
X244528Y395398D01*
X244597Y395490D01*
X244669Y395578D01*
X244744Y395665D01*
X244822Y395748D01*
X244903Y395829D01*
X244986Y395907D01*
X245073Y395982D01*
X245161Y396054D01*
X245253Y396123D01*
X245346Y396188D01*
X245442Y396250D01*
X245540Y396309D01*
X245640Y396365D01*
X245742Y396417D01*
X245845Y396465D01*
X245951Y396510D01*
X246057Y396551D01*
X246165Y396588D01*
X246275Y396621D01*
X246385Y396651D01*
X246496Y396676D01*
X246608Y396698D01*
X246721Y396716D01*
X246835Y396730D01*
X246949Y396740D01*
X247063Y396746D01*
X247177Y396748D01*
X250451Y396748D01*
X256664Y391837D02*
X256664Y384471D01*
X256665Y384471D02*
X256667Y384375D01*
X256673Y384278D01*
X256682Y384182D01*
X256695Y384087D01*
X256712Y383992D01*
X256733Y383898D01*
X256757Y383805D01*
X256785Y383712D01*
X256817Y383621D01*
X256852Y383532D01*
X256891Y383443D01*
X256933Y383356D01*
X256978Y383271D01*
X257027Y383188D01*
X257079Y383107D01*
X257134Y383028D01*
X257192Y382951D01*
X257253Y382877D01*
X257317Y382805D01*
X257384Y382735D01*
X257454Y382668D01*
X257526Y382604D01*
X257600Y382543D01*
X257677Y382485D01*
X257756Y382430D01*
X257837Y382378D01*
X257920Y382329D01*
X258005Y382284D01*
X258092Y382242D01*
X258181Y382203D01*
X258270Y382168D01*
X258361Y382136D01*
X258454Y382108D01*
X258547Y382084D01*
X258641Y382063D01*
X258736Y382046D01*
X258831Y382033D01*
X258927Y382024D01*
X259024Y382018D01*
X259120Y382016D01*
X263212Y382016D01*
X263212Y391837D01*
X269935Y384062D02*
X269935Y383244D01*
X269935Y384062D02*
X270753Y384062D01*
X270753Y383244D01*
X269935Y383244D01*
X269935Y389791D02*
X269935Y390610D01*
X270753Y390610D01*
X270753Y389791D01*
X269935Y389791D01*
X15304Y364998D02*
X15304Y350266D01*
X15304Y364998D02*
X19396Y364998D01*
X19523Y364996D01*
X19650Y364990D01*
X19777Y364980D01*
X19904Y364966D01*
X20030Y364949D01*
X20155Y364927D01*
X20280Y364901D01*
X20404Y364872D01*
X20527Y364839D01*
X20648Y364802D01*
X20769Y364761D01*
X20888Y364716D01*
X21006Y364668D01*
X21122Y364616D01*
X21237Y364561D01*
X21349Y364502D01*
X21460Y364439D01*
X21569Y364373D01*
X21676Y364304D01*
X21781Y364231D01*
X21883Y364156D01*
X21983Y364077D01*
X22080Y363995D01*
X22175Y363910D01*
X22267Y363822D01*
X22356Y363731D01*
X22443Y363638D01*
X22526Y363542D01*
X22607Y363443D01*
X22684Y363342D01*
X22758Y363239D01*
X22829Y363133D01*
X22897Y363025D01*
X22961Y362915D01*
X23022Y362803D01*
X23079Y362690D01*
X23133Y362574D01*
X23183Y362457D01*
X23229Y362339D01*
X23272Y362219D01*
X23311Y362098D01*
X23346Y361975D01*
X23377Y361852D01*
X23405Y361728D01*
X23428Y361603D01*
X23448Y361477D01*
X23464Y361351D01*
X23476Y361224D01*
X23484Y361097D01*
X23488Y360970D01*
X23488Y360842D01*
X23484Y360715D01*
X23476Y360588D01*
X23464Y360461D01*
X23448Y360335D01*
X23428Y360209D01*
X23405Y360084D01*
X23377Y359960D01*
X23346Y359837D01*
X23311Y359714D01*
X23272Y359593D01*
X23229Y359473D01*
X23183Y359355D01*
X23133Y359238D01*
X23079Y359122D01*
X23022Y359009D01*
X22961Y358897D01*
X22897Y358787D01*
X22829Y358679D01*
X22758Y358573D01*
X22684Y358470D01*
X22607Y358369D01*
X22526Y358270D01*
X22443Y358174D01*
X22356Y358081D01*
X22267Y357990D01*
X22175Y357902D01*
X22080Y357817D01*
X21983Y357735D01*
X21883Y357656D01*
X21781Y357581D01*
X21676Y357508D01*
X21569Y357439D01*
X21460Y357373D01*
X21349Y357310D01*
X21237Y357251D01*
X21122Y357196D01*
X21006Y357144D01*
X20888Y357096D01*
X20769Y357051D01*
X20648Y357010D01*
X20527Y356973D01*
X20404Y356940D01*
X20280Y356911D01*
X20155Y356885D01*
X20030Y356863D01*
X19904Y356846D01*
X19777Y356832D01*
X19650Y356822D01*
X19523Y356816D01*
X19396Y356814D01*
X15304Y356814D01*
X29945Y350266D02*
X36492Y350266D01*
X29945Y350266D02*
X29945Y364998D01*
X36492Y364998D01*
X34855Y358450D02*
X29945Y358450D01*
X45398Y364998D02*
X45398Y350266D01*
X41306Y364998D02*
X49490Y364998D01*
X54512Y348629D02*
X61060Y348629D01*
X67568Y350266D02*
X67568Y364998D01*
X71661Y364998D01*
X71787Y364996D01*
X71913Y364990D01*
X72039Y364981D01*
X72164Y364967D01*
X72289Y364950D01*
X72413Y364928D01*
X72536Y364903D01*
X72659Y364874D01*
X72781Y364842D01*
X72902Y364805D01*
X73021Y364765D01*
X73139Y364722D01*
X73256Y364674D01*
X73371Y364623D01*
X73485Y364569D01*
X73597Y364511D01*
X73707Y364450D01*
X73815Y364385D01*
X73921Y364317D01*
X74025Y364246D01*
X74127Y364171D01*
X74226Y364094D01*
X74323Y364013D01*
X74418Y363930D01*
X74510Y363844D01*
X74599Y363755D01*
X74685Y363663D01*
X74768Y363568D01*
X74849Y363471D01*
X74926Y363372D01*
X75001Y363270D01*
X75072Y363166D01*
X75140Y363060D01*
X75205Y362952D01*
X75266Y362842D01*
X75324Y362730D01*
X75378Y362616D01*
X75429Y362501D01*
X75477Y362384D01*
X75520Y362266D01*
X75560Y362146D01*
X75597Y362026D01*
X75629Y361904D01*
X75658Y361781D01*
X75683Y361658D01*
X75705Y361534D01*
X75722Y361409D01*
X75736Y361284D01*
X75745Y361158D01*
X75751Y361032D01*
X75753Y360906D01*
X75753Y354358D01*
X75751Y354232D01*
X75745Y354106D01*
X75736Y353980D01*
X75722Y353855D01*
X75705Y353730D01*
X75683Y353606D01*
X75658Y353483D01*
X75629Y353360D01*
X75597Y353238D01*
X75560Y353118D01*
X75520Y352998D01*
X75477Y352880D01*
X75429Y352763D01*
X75378Y352648D01*
X75324Y352534D01*
X75266Y352422D01*
X75205Y352312D01*
X75140Y352204D01*
X75072Y352098D01*
X75001Y351994D01*
X74926Y351892D01*
X74849Y351793D01*
X74768Y351696D01*
X74685Y351601D01*
X74599Y351509D01*
X74510Y351420D01*
X74418Y351334D01*
X74323Y351251D01*
X74226Y351170D01*
X74127Y351093D01*
X74025Y351018D01*
X73921Y350947D01*
X73815Y350879D01*
X73707Y350814D01*
X73597Y350753D01*
X73485Y350695D01*
X73371Y350641D01*
X73256Y350590D01*
X73139Y350542D01*
X73021Y350499D01*
X72902Y350459D01*
X72781Y350422D01*
X72659Y350390D01*
X72536Y350361D01*
X72413Y350336D01*
X72289Y350314D01*
X72164Y350297D01*
X72039Y350283D01*
X71913Y350274D01*
X71787Y350268D01*
X71661Y350266D01*
X67568Y350266D01*
X82562Y350266D02*
X82562Y360087D01*
X82153Y364180D02*
X82153Y364998D01*
X82971Y364998D01*
X82971Y364180D01*
X82153Y364180D01*
X91477Y355995D02*
X95160Y355995D01*
X91477Y355996D02*
X91371Y355994D01*
X91265Y355988D01*
X91160Y355978D01*
X91055Y355965D01*
X90951Y355947D01*
X90847Y355926D01*
X90744Y355901D01*
X90642Y355872D01*
X90541Y355839D01*
X90442Y355803D01*
X90344Y355762D01*
X90248Y355719D01*
X90153Y355672D01*
X90060Y355621D01*
X89969Y355567D01*
X89880Y355509D01*
X89793Y355449D01*
X89708Y355385D01*
X89626Y355318D01*
X89547Y355248D01*
X89470Y355175D01*
X89396Y355100D01*
X89324Y355022D01*
X89256Y354941D01*
X89191Y354858D01*
X89128Y354772D01*
X89069Y354684D01*
X89014Y354594D01*
X88961Y354502D01*
X88912Y354408D01*
X88867Y354312D01*
X88825Y354215D01*
X88787Y354116D01*
X88752Y354016D01*
X88721Y353915D01*
X88694Y353813D01*
X88671Y353709D01*
X88652Y353605D01*
X88636Y353501D01*
X88624Y353395D01*
X88616Y353290D01*
X88612Y353184D01*
X88612Y353078D01*
X88616Y352972D01*
X88624Y352867D01*
X88636Y352761D01*
X88652Y352657D01*
X88671Y352553D01*
X88694Y352449D01*
X88721Y352347D01*
X88752Y352246D01*
X88787Y352146D01*
X88825Y352047D01*
X88867Y351950D01*
X88912Y351854D01*
X88961Y351760D01*
X89014Y351668D01*
X89069Y351578D01*
X89128Y351490D01*
X89191Y351404D01*
X89256Y351321D01*
X89324Y351240D01*
X89396Y351162D01*
X89470Y351087D01*
X89547Y351014D01*
X89626Y350944D01*
X89708Y350877D01*
X89793Y350813D01*
X89880Y350753D01*
X89969Y350695D01*
X90060Y350641D01*
X90153Y350590D01*
X90248Y350543D01*
X90344Y350500D01*
X90442Y350459D01*
X90541Y350423D01*
X90642Y350390D01*
X90744Y350361D01*
X90847Y350336D01*
X90951Y350315D01*
X91055Y350297D01*
X91160Y350284D01*
X91265Y350274D01*
X91371Y350268D01*
X91477Y350266D01*
X95160Y350266D01*
X95160Y357632D01*
X95158Y357728D01*
X95152Y357825D01*
X95143Y357921D01*
X95130Y358016D01*
X95113Y358111D01*
X95092Y358205D01*
X95068Y358298D01*
X95040Y358391D01*
X95008Y358482D01*
X94973Y358571D01*
X94934Y358660D01*
X94892Y358747D01*
X94847Y358832D01*
X94798Y358915D01*
X94746Y358996D01*
X94691Y359075D01*
X94633Y359152D01*
X94572Y359226D01*
X94508Y359298D01*
X94441Y359368D01*
X94371Y359435D01*
X94299Y359499D01*
X94225Y359560D01*
X94148Y359618D01*
X94069Y359673D01*
X93988Y359725D01*
X93905Y359774D01*
X93820Y359819D01*
X93733Y359861D01*
X93644Y359900D01*
X93555Y359935D01*
X93464Y359967D01*
X93371Y359995D01*
X93278Y360019D01*
X93184Y360040D01*
X93089Y360057D01*
X92994Y360070D01*
X92898Y360079D01*
X92801Y360085D01*
X92705Y360087D01*
X89431Y360087D01*
X104447Y350266D02*
X108540Y350266D01*
X104447Y350266D02*
X104351Y350268D01*
X104254Y350274D01*
X104158Y350283D01*
X104063Y350296D01*
X103968Y350313D01*
X103874Y350334D01*
X103781Y350358D01*
X103688Y350386D01*
X103597Y350418D01*
X103508Y350453D01*
X103419Y350492D01*
X103332Y350534D01*
X103247Y350579D01*
X103164Y350628D01*
X103083Y350680D01*
X103004Y350735D01*
X102927Y350793D01*
X102853Y350854D01*
X102781Y350918D01*
X102711Y350985D01*
X102644Y351055D01*
X102580Y351127D01*
X102519Y351201D01*
X102461Y351278D01*
X102406Y351357D01*
X102354Y351438D01*
X102305Y351521D01*
X102260Y351606D01*
X102218Y351693D01*
X102179Y351782D01*
X102144Y351871D01*
X102112Y351962D01*
X102084Y352055D01*
X102060Y352148D01*
X102039Y352242D01*
X102022Y352337D01*
X102009Y352432D01*
X102000Y352528D01*
X101994Y352625D01*
X101992Y352721D01*
X101992Y357632D01*
X101994Y357728D01*
X102000Y357825D01*
X102009Y357921D01*
X102022Y358016D01*
X102039Y358111D01*
X102060Y358205D01*
X102084Y358298D01*
X102112Y358391D01*
X102144Y358482D01*
X102179Y358571D01*
X102218Y358660D01*
X102260Y358747D01*
X102305Y358832D01*
X102354Y358915D01*
X102406Y358996D01*
X102461Y359075D01*
X102519Y359152D01*
X102580Y359226D01*
X102644Y359298D01*
X102711Y359368D01*
X102781Y359435D01*
X102853Y359499D01*
X102927Y359560D01*
X103004Y359618D01*
X103083Y359673D01*
X103164Y359725D01*
X103247Y359774D01*
X103332Y359819D01*
X103419Y359861D01*
X103508Y359900D01*
X103597Y359935D01*
X103688Y359967D01*
X103781Y359995D01*
X103874Y360019D01*
X103968Y360040D01*
X104063Y360057D01*
X104158Y360070D01*
X104254Y360079D01*
X104351Y360085D01*
X104447Y360087D01*
X108540Y360087D01*
X108540Y347811D01*
X108539Y347811D02*
X108537Y347712D01*
X108531Y347613D01*
X108521Y347515D01*
X108507Y347417D01*
X108489Y347320D01*
X108468Y347223D01*
X108442Y347128D01*
X108413Y347034D01*
X108379Y346940D01*
X108343Y346849D01*
X108302Y346759D01*
X108258Y346670D01*
X108210Y346584D01*
X108159Y346499D01*
X108104Y346416D01*
X108047Y346336D01*
X107986Y346258D01*
X107922Y346183D01*
X107855Y346110D01*
X107785Y346040D01*
X107712Y345973D01*
X107637Y345909D01*
X107559Y345848D01*
X107479Y345791D01*
X107396Y345736D01*
X107312Y345685D01*
X107225Y345637D01*
X107136Y345593D01*
X107046Y345552D01*
X106955Y345516D01*
X106861Y345482D01*
X106767Y345453D01*
X106672Y345427D01*
X106575Y345406D01*
X106478Y345388D01*
X106380Y345374D01*
X106282Y345364D01*
X106183Y345358D01*
X106084Y345356D01*
X106084Y345355D02*
X102810Y345355D01*
X114966Y348629D02*
X121514Y348629D01*
X128023Y354358D02*
X128023Y364998D01*
X128023Y354358D02*
X128025Y354231D01*
X128031Y354104D01*
X128041Y353977D01*
X128055Y353850D01*
X128072Y353724D01*
X128094Y353599D01*
X128120Y353474D01*
X128149Y353350D01*
X128182Y353227D01*
X128219Y353106D01*
X128260Y352985D01*
X128305Y352866D01*
X128353Y352748D01*
X128405Y352632D01*
X128460Y352517D01*
X128519Y352405D01*
X128582Y352294D01*
X128648Y352185D01*
X128717Y352078D01*
X128790Y351973D01*
X128865Y351871D01*
X128944Y351771D01*
X129026Y351674D01*
X129111Y351579D01*
X129199Y351487D01*
X129290Y351398D01*
X129383Y351311D01*
X129479Y351228D01*
X129578Y351147D01*
X129679Y351070D01*
X129782Y350996D01*
X129888Y350925D01*
X129996Y350857D01*
X130106Y350793D01*
X130218Y350732D01*
X130331Y350675D01*
X130447Y350621D01*
X130564Y350571D01*
X130682Y350525D01*
X130802Y350482D01*
X130923Y350443D01*
X131046Y350408D01*
X131169Y350377D01*
X131293Y350349D01*
X131418Y350326D01*
X131544Y350306D01*
X131670Y350290D01*
X131797Y350278D01*
X131924Y350270D01*
X132051Y350266D01*
X132179Y350266D01*
X132306Y350270D01*
X132433Y350278D01*
X132560Y350290D01*
X132686Y350306D01*
X132812Y350326D01*
X132937Y350349D01*
X133061Y350377D01*
X133184Y350408D01*
X133307Y350443D01*
X133428Y350482D01*
X133548Y350525D01*
X133666Y350571D01*
X133783Y350621D01*
X133899Y350675D01*
X134012Y350732D01*
X134124Y350793D01*
X134234Y350857D01*
X134342Y350925D01*
X134448Y350996D01*
X134551Y351070D01*
X134652Y351147D01*
X134751Y351228D01*
X134847Y351311D01*
X134940Y351398D01*
X135031Y351487D01*
X135119Y351579D01*
X135204Y351674D01*
X135286Y351771D01*
X135365Y351871D01*
X135440Y351973D01*
X135513Y352078D01*
X135582Y352185D01*
X135648Y352294D01*
X135711Y352405D01*
X135770Y352517D01*
X135825Y352632D01*
X135877Y352748D01*
X135925Y352866D01*
X135970Y352985D01*
X136011Y353106D01*
X136048Y353227D01*
X136081Y353350D01*
X136110Y353474D01*
X136136Y353599D01*
X136158Y353724D01*
X136175Y353850D01*
X136189Y353977D01*
X136199Y354104D01*
X136205Y354231D01*
X136207Y354358D01*
X136207Y364998D01*
X144140Y364998D02*
X144140Y350266D01*
X144140Y364998D02*
X148233Y364998D01*
X148360Y364996D01*
X148487Y364990D01*
X148614Y364980D01*
X148741Y364966D01*
X148867Y364949D01*
X148992Y364927D01*
X149117Y364901D01*
X149241Y364872D01*
X149364Y364839D01*
X149485Y364802D01*
X149606Y364761D01*
X149725Y364716D01*
X149843Y364668D01*
X149959Y364616D01*
X150074Y364561D01*
X150186Y364502D01*
X150297Y364439D01*
X150406Y364373D01*
X150513Y364304D01*
X150618Y364231D01*
X150720Y364156D01*
X150820Y364077D01*
X150917Y363995D01*
X151012Y363910D01*
X151104Y363822D01*
X151193Y363731D01*
X151280Y363638D01*
X151363Y363542D01*
X151444Y363443D01*
X151521Y363342D01*
X151595Y363239D01*
X151666Y363133D01*
X151734Y363025D01*
X151798Y362915D01*
X151859Y362803D01*
X151916Y362690D01*
X151970Y362574D01*
X152020Y362457D01*
X152066Y362339D01*
X152109Y362219D01*
X152148Y362098D01*
X152183Y361975D01*
X152214Y361852D01*
X152242Y361728D01*
X152265Y361603D01*
X152285Y361477D01*
X152301Y361351D01*
X152313Y361224D01*
X152321Y361097D01*
X152325Y360970D01*
X152325Y360842D01*
X152321Y360715D01*
X152313Y360588D01*
X152301Y360461D01*
X152285Y360335D01*
X152265Y360209D01*
X152242Y360084D01*
X152214Y359960D01*
X152183Y359837D01*
X152148Y359714D01*
X152109Y359593D01*
X152066Y359473D01*
X152020Y359355D01*
X151970Y359238D01*
X151916Y359122D01*
X151859Y359009D01*
X151798Y358897D01*
X151734Y358787D01*
X151666Y358679D01*
X151595Y358573D01*
X151521Y358470D01*
X151444Y358369D01*
X151363Y358270D01*
X151280Y358174D01*
X151193Y358081D01*
X151104Y357990D01*
X151012Y357902D01*
X150917Y357817D01*
X150820Y357735D01*
X150720Y357656D01*
X150618Y357581D01*
X150513Y357508D01*
X150406Y357439D01*
X150297Y357373D01*
X150186Y357310D01*
X150074Y357251D01*
X149959Y357196D01*
X149843Y357144D01*
X149725Y357096D01*
X149606Y357051D01*
X149485Y357010D01*
X149364Y356973D01*
X149241Y356940D01*
X149117Y356911D01*
X148992Y356885D01*
X148867Y356863D01*
X148741Y356846D01*
X148614Y356832D01*
X148487Y356822D01*
X148360Y356816D01*
X148233Y356814D01*
X144140Y356814D01*
X16532Y331202D02*
X16408Y330940D01*
X16290Y330675D01*
X16179Y330407D01*
X16074Y330137D01*
X15976Y329864D01*
X15884Y329590D01*
X15799Y329313D01*
X15720Y329034D01*
X15648Y328753D01*
X15583Y328470D01*
X15525Y328187D01*
X15473Y327901D01*
X15428Y327615D01*
X15390Y327328D01*
X15359Y327040D01*
X15335Y326751D01*
X15318Y326461D01*
X15307Y326172D01*
X15304Y325882D01*
X16532Y331202D02*
X16568Y331303D01*
X16608Y331402D01*
X16652Y331500D01*
X16699Y331597D01*
X16750Y331692D01*
X16803Y331784D01*
X16861Y331875D01*
X16921Y331964D01*
X16984Y332051D01*
X17051Y332135D01*
X17120Y332217D01*
X17192Y332296D01*
X17267Y332373D01*
X17345Y332447D01*
X17425Y332519D01*
X17508Y332587D01*
X17593Y332652D01*
X17680Y332715D01*
X17769Y332774D01*
X17861Y332830D01*
X17954Y332883D01*
X18050Y332932D01*
X18147Y332978D01*
X18245Y333021D01*
X18345Y333060D01*
X18446Y333095D01*
X18549Y333127D01*
X18652Y333155D01*
X18757Y333180D01*
X18862Y333201D01*
X18968Y333218D01*
X19075Y333231D01*
X19182Y333240D01*
X19289Y333246D01*
X19396Y333248D01*
X19503Y333246D01*
X19610Y333240D01*
X19717Y333231D01*
X19824Y333218D01*
X19930Y333201D01*
X20035Y333180D01*
X20140Y333155D01*
X20243Y333127D01*
X20346Y333095D01*
X20447Y333060D01*
X20547Y333021D01*
X20645Y332978D01*
X20742Y332932D01*
X20838Y332883D01*
X20931Y332830D01*
X21023Y332774D01*
X21112Y332715D01*
X21199Y332652D01*
X21284Y332587D01*
X21367Y332519D01*
X21447Y332447D01*
X21525Y332373D01*
X21600Y332296D01*
X21672Y332217D01*
X21741Y332135D01*
X21808Y332051D01*
X21871Y331964D01*
X21931Y331875D01*
X21989Y331784D01*
X22042Y331692D01*
X22093Y331597D01*
X22140Y331500D01*
X22184Y331402D01*
X22224Y331303D01*
X22260Y331202D01*
X22384Y330940D01*
X22502Y330675D01*
X22613Y330407D01*
X22718Y330137D01*
X22816Y329865D01*
X22908Y329590D01*
X22993Y329313D01*
X23072Y329034D01*
X23144Y328753D01*
X23209Y328470D01*
X23267Y328187D01*
X23319Y327901D01*
X23364Y327615D01*
X23402Y327328D01*
X23433Y327040D01*
X23457Y326751D01*
X23474Y326461D01*
X23485Y326172D01*
X23488Y325882D01*
X15304Y325882D02*
X15307Y325592D01*
X15318Y325303D01*
X15335Y325013D01*
X15359Y324724D01*
X15390Y324436D01*
X15428Y324149D01*
X15473Y323863D01*
X15525Y323578D01*
X15583Y323294D01*
X15648Y323011D01*
X15720Y322730D01*
X15799Y322452D01*
X15884Y322175D01*
X15976Y321900D01*
X16074Y321627D01*
X16179Y321357D01*
X16290Y321089D01*
X16408Y320824D01*
X16532Y320562D01*
X16568Y320461D01*
X16608Y320362D01*
X16652Y320263D01*
X16699Y320167D01*
X16750Y320072D01*
X16803Y319980D01*
X16861Y319889D01*
X16921Y319800D01*
X16984Y319713D01*
X17051Y319629D01*
X17120Y319547D01*
X17192Y319468D01*
X17267Y319391D01*
X17345Y319317D01*
X17425Y319245D01*
X17508Y319177D01*
X17593Y319112D01*
X17680Y319049D01*
X17769Y318990D01*
X17861Y318934D01*
X17954Y318881D01*
X18050Y318832D01*
X18147Y318786D01*
X18245Y318743D01*
X18345Y318704D01*
X18446Y318669D01*
X18549Y318637D01*
X18652Y318609D01*
X18757Y318584D01*
X18862Y318563D01*
X18968Y318546D01*
X19075Y318533D01*
X19182Y318524D01*
X19289Y318518D01*
X19396Y318516D01*
X22260Y320562D02*
X22384Y320824D01*
X22502Y321089D01*
X22613Y321357D01*
X22718Y321627D01*
X22816Y321900D01*
X22908Y322174D01*
X22993Y322451D01*
X23072Y322730D01*
X23144Y323011D01*
X23209Y323294D01*
X23267Y323577D01*
X23319Y323863D01*
X23364Y324149D01*
X23402Y324436D01*
X23433Y324724D01*
X23457Y325013D01*
X23474Y325303D01*
X23485Y325592D01*
X23488Y325882D01*
X22260Y320562D02*
X22224Y320461D01*
X22184Y320362D01*
X22140Y320264D01*
X22093Y320167D01*
X22042Y320072D01*
X21989Y319980D01*
X21931Y319889D01*
X21871Y319800D01*
X21808Y319713D01*
X21741Y319629D01*
X21672Y319547D01*
X21600Y319468D01*
X21525Y319391D01*
X21447Y319317D01*
X21367Y319245D01*
X21284Y319177D01*
X21199Y319112D01*
X21112Y319049D01*
X21023Y318990D01*
X20931Y318934D01*
X20838Y318881D01*
X20742Y318832D01*
X20645Y318786D01*
X20547Y318743D01*
X20447Y318704D01*
X20346Y318669D01*
X20243Y318637D01*
X20140Y318609D01*
X20035Y318584D01*
X19930Y318563D01*
X19824Y318546D01*
X19717Y318533D01*
X19610Y318524D01*
X19503Y318518D01*
X19396Y318516D01*
X16122Y321790D02*
X22670Y329974D01*
X30169Y321790D02*
X33443Y333248D01*
X30169Y321790D02*
X38354Y321790D01*
X35898Y325064D02*
X35898Y318516D01*
X44258Y318516D02*
X44258Y319334D01*
X45077Y319334D01*
X45077Y318516D01*
X44258Y318516D01*
X50982Y325882D02*
X50985Y326172D01*
X50996Y326461D01*
X51013Y326751D01*
X51037Y327040D01*
X51068Y327328D01*
X51106Y327615D01*
X51151Y327901D01*
X51203Y328187D01*
X51261Y328470D01*
X51326Y328753D01*
X51398Y329034D01*
X51477Y329313D01*
X51562Y329590D01*
X51654Y329864D01*
X51752Y330137D01*
X51857Y330407D01*
X51968Y330675D01*
X52086Y330940D01*
X52210Y331202D01*
X52209Y331202D02*
X52245Y331303D01*
X52285Y331402D01*
X52329Y331500D01*
X52376Y331597D01*
X52427Y331692D01*
X52480Y331784D01*
X52538Y331875D01*
X52598Y331964D01*
X52661Y332051D01*
X52728Y332135D01*
X52797Y332217D01*
X52869Y332296D01*
X52944Y332373D01*
X53022Y332447D01*
X53102Y332519D01*
X53185Y332587D01*
X53270Y332652D01*
X53357Y332715D01*
X53446Y332774D01*
X53538Y332830D01*
X53631Y332883D01*
X53727Y332932D01*
X53824Y332978D01*
X53922Y333021D01*
X54022Y333060D01*
X54123Y333095D01*
X54226Y333127D01*
X54329Y333155D01*
X54434Y333180D01*
X54539Y333201D01*
X54645Y333218D01*
X54752Y333231D01*
X54859Y333240D01*
X54966Y333246D01*
X55073Y333248D01*
X55180Y333246D01*
X55287Y333240D01*
X55394Y333231D01*
X55501Y333218D01*
X55607Y333201D01*
X55712Y333180D01*
X55817Y333155D01*
X55920Y333127D01*
X56023Y333095D01*
X56124Y333060D01*
X56224Y333021D01*
X56322Y332978D01*
X56419Y332932D01*
X56515Y332883D01*
X56608Y332830D01*
X56700Y332774D01*
X56789Y332715D01*
X56876Y332652D01*
X56961Y332587D01*
X57044Y332519D01*
X57124Y332447D01*
X57202Y332373D01*
X57277Y332296D01*
X57349Y332217D01*
X57418Y332135D01*
X57485Y332051D01*
X57548Y331964D01*
X57608Y331875D01*
X57666Y331784D01*
X57719Y331692D01*
X57770Y331597D01*
X57817Y331500D01*
X57861Y331402D01*
X57901Y331303D01*
X57937Y331202D01*
X57938Y331202D02*
X58062Y330940D01*
X58180Y330675D01*
X58291Y330407D01*
X58396Y330137D01*
X58494Y329865D01*
X58586Y329590D01*
X58671Y329313D01*
X58750Y329034D01*
X58822Y328753D01*
X58887Y328470D01*
X58945Y328187D01*
X58997Y327901D01*
X59042Y327615D01*
X59080Y327328D01*
X59111Y327040D01*
X59135Y326751D01*
X59152Y326461D01*
X59163Y326172D01*
X59166Y325882D01*
X50982Y325882D02*
X50985Y325592D01*
X50996Y325303D01*
X51013Y325013D01*
X51037Y324724D01*
X51068Y324436D01*
X51106Y324149D01*
X51151Y323863D01*
X51203Y323578D01*
X51261Y323294D01*
X51326Y323011D01*
X51398Y322730D01*
X51477Y322452D01*
X51562Y322175D01*
X51654Y321900D01*
X51752Y321627D01*
X51857Y321357D01*
X51968Y321089D01*
X52086Y320824D01*
X52210Y320562D01*
X52209Y320562D02*
X52245Y320461D01*
X52285Y320362D01*
X52329Y320263D01*
X52376Y320167D01*
X52427Y320072D01*
X52480Y319980D01*
X52538Y319889D01*
X52598Y319800D01*
X52661Y319713D01*
X52728Y319629D01*
X52797Y319547D01*
X52869Y319468D01*
X52944Y319391D01*
X53022Y319317D01*
X53102Y319245D01*
X53185Y319177D01*
X53270Y319112D01*
X53357Y319049D01*
X53446Y318990D01*
X53538Y318934D01*
X53631Y318881D01*
X53727Y318832D01*
X53824Y318786D01*
X53922Y318743D01*
X54022Y318704D01*
X54123Y318669D01*
X54226Y318637D01*
X54329Y318609D01*
X54434Y318584D01*
X54539Y318563D01*
X54645Y318546D01*
X54752Y318533D01*
X54859Y318524D01*
X54966Y318518D01*
X55073Y318516D01*
X57937Y320562D02*
X58061Y320824D01*
X58179Y321089D01*
X58290Y321357D01*
X58395Y321627D01*
X58493Y321900D01*
X58585Y322174D01*
X58670Y322451D01*
X58749Y322730D01*
X58821Y323011D01*
X58886Y323294D01*
X58944Y323577D01*
X58996Y323863D01*
X59041Y324149D01*
X59079Y324436D01*
X59110Y324724D01*
X59134Y325013D01*
X59151Y325303D01*
X59162Y325592D01*
X59165Y325882D01*
X57937Y320562D02*
X57901Y320461D01*
X57861Y320362D01*
X57817Y320264D01*
X57770Y320167D01*
X57719Y320072D01*
X57666Y319980D01*
X57608Y319889D01*
X57548Y319800D01*
X57485Y319713D01*
X57418Y319629D01*
X57349Y319547D01*
X57277Y319468D01*
X57202Y319391D01*
X57124Y319317D01*
X57044Y319245D01*
X56961Y319177D01*
X56876Y319112D01*
X56789Y319049D01*
X56700Y318990D01*
X56608Y318934D01*
X56515Y318881D01*
X56419Y318832D01*
X56322Y318786D01*
X56224Y318743D01*
X56124Y318704D01*
X56023Y318669D01*
X55920Y318637D01*
X55817Y318609D01*
X55712Y318584D01*
X55607Y318563D01*
X55501Y318546D01*
X55394Y318533D01*
X55287Y318524D01*
X55180Y318518D01*
X55073Y318516D01*
X51800Y321790D02*
X58347Y329974D01*
X65847Y329974D02*
X69939Y333248D01*
X69939Y318516D01*
X65847Y318516D02*
X74031Y318516D01*
X79936Y318516D02*
X79936Y319334D01*
X80754Y319334D01*
X80754Y318516D01*
X79936Y318516D01*
X91160Y333248D02*
X91281Y333246D01*
X91401Y333240D01*
X91521Y333230D01*
X91641Y333216D01*
X91760Y333199D01*
X91879Y333177D01*
X91996Y333152D01*
X92113Y333123D01*
X92229Y333089D01*
X92344Y333053D01*
X92457Y333012D01*
X92569Y332968D01*
X92680Y332920D01*
X92789Y332868D01*
X92896Y332813D01*
X93002Y332755D01*
X93105Y332693D01*
X93206Y332627D01*
X93305Y332559D01*
X93402Y332487D01*
X93496Y332412D01*
X93588Y332334D01*
X93678Y332253D01*
X93764Y332169D01*
X93848Y332083D01*
X93929Y331993D01*
X94007Y331901D01*
X94082Y331807D01*
X94154Y331710D01*
X94222Y331611D01*
X94288Y331510D01*
X94350Y331407D01*
X94408Y331301D01*
X94463Y331194D01*
X94515Y331085D01*
X94563Y330974D01*
X94607Y330862D01*
X94648Y330749D01*
X94684Y330634D01*
X94718Y330518D01*
X94747Y330401D01*
X94772Y330284D01*
X94794Y330165D01*
X94811Y330046D01*
X94825Y329926D01*
X94835Y329806D01*
X94841Y329686D01*
X94843Y329565D01*
X91160Y333248D02*
X91025Y333246D01*
X90890Y333240D01*
X90755Y333231D01*
X90620Y333217D01*
X90486Y333200D01*
X90352Y333179D01*
X90220Y333154D01*
X90087Y333125D01*
X89956Y333092D01*
X89826Y333056D01*
X89697Y333016D01*
X89569Y332972D01*
X89442Y332925D01*
X89317Y332874D01*
X89193Y332820D01*
X89071Y332762D01*
X88950Y332700D01*
X88832Y332635D01*
X88715Y332567D01*
X88600Y332496D01*
X88487Y332421D01*
X88377Y332343D01*
X88269Y332262D01*
X88163Y332178D01*
X88059Y332091D01*
X87958Y332000D01*
X87860Y331908D01*
X87765Y331812D01*
X87672Y331713D01*
X87582Y331612D01*
X87495Y331509D01*
X87411Y331403D01*
X87330Y331295D01*
X87252Y331184D01*
X87177Y331071D01*
X87106Y330956D01*
X87038Y330840D01*
X86973Y330721D01*
X86912Y330600D01*
X86854Y330478D01*
X86800Y330354D01*
X86749Y330229D01*
X86702Y330102D01*
X86658Y329974D01*
X93616Y326700D02*
X93704Y326787D01*
X93789Y326876D01*
X93872Y326967D01*
X93951Y327061D01*
X94028Y327158D01*
X94101Y327257D01*
X94171Y327358D01*
X94238Y327462D01*
X94302Y327567D01*
X94363Y327674D01*
X94420Y327783D01*
X94474Y327894D01*
X94524Y328007D01*
X94571Y328121D01*
X94614Y328236D01*
X94654Y328353D01*
X94690Y328471D01*
X94722Y328589D01*
X94750Y328709D01*
X94775Y328830D01*
X94796Y328951D01*
X94813Y329073D01*
X94827Y329196D01*
X94836Y329319D01*
X94842Y329442D01*
X94844Y329565D01*
X93616Y326700D02*
X86659Y318516D01*
X94843Y318516D01*
X101525Y325882D02*
X101528Y326172D01*
X101539Y326461D01*
X101556Y326751D01*
X101580Y327040D01*
X101611Y327328D01*
X101649Y327615D01*
X101694Y327901D01*
X101746Y328187D01*
X101804Y328470D01*
X101869Y328753D01*
X101941Y329034D01*
X102020Y329313D01*
X102105Y329590D01*
X102197Y329864D01*
X102295Y330137D01*
X102400Y330407D01*
X102511Y330675D01*
X102629Y330940D01*
X102753Y331202D01*
X102789Y331303D01*
X102829Y331402D01*
X102873Y331500D01*
X102920Y331597D01*
X102971Y331692D01*
X103024Y331784D01*
X103082Y331875D01*
X103142Y331964D01*
X103205Y332051D01*
X103272Y332135D01*
X103341Y332217D01*
X103413Y332296D01*
X103488Y332373D01*
X103566Y332447D01*
X103646Y332519D01*
X103729Y332587D01*
X103814Y332652D01*
X103901Y332715D01*
X103990Y332774D01*
X104082Y332830D01*
X104175Y332883D01*
X104271Y332932D01*
X104368Y332978D01*
X104466Y333021D01*
X104566Y333060D01*
X104667Y333095D01*
X104770Y333127D01*
X104873Y333155D01*
X104978Y333180D01*
X105083Y333201D01*
X105189Y333218D01*
X105296Y333231D01*
X105403Y333240D01*
X105510Y333246D01*
X105617Y333248D01*
X105724Y333246D01*
X105831Y333240D01*
X105938Y333231D01*
X106045Y333218D01*
X106151Y333201D01*
X106256Y333180D01*
X106361Y333155D01*
X106464Y333127D01*
X106567Y333095D01*
X106668Y333060D01*
X106768Y333021D01*
X106866Y332978D01*
X106963Y332932D01*
X107059Y332883D01*
X107152Y332830D01*
X107244Y332774D01*
X107333Y332715D01*
X107420Y332652D01*
X107505Y332587D01*
X107588Y332519D01*
X107668Y332447D01*
X107746Y332373D01*
X107821Y332296D01*
X107893Y332217D01*
X107962Y332135D01*
X108029Y332051D01*
X108092Y331964D01*
X108152Y331875D01*
X108210Y331784D01*
X108263Y331692D01*
X108314Y331597D01*
X108361Y331500D01*
X108405Y331402D01*
X108445Y331303D01*
X108481Y331202D01*
X108605Y330940D01*
X108723Y330675D01*
X108834Y330407D01*
X108939Y330137D01*
X109037Y329865D01*
X109129Y329590D01*
X109214Y329313D01*
X109293Y329034D01*
X109365Y328753D01*
X109430Y328470D01*
X109488Y328187D01*
X109540Y327901D01*
X109585Y327615D01*
X109623Y327328D01*
X109654Y327040D01*
X109678Y326751D01*
X109695Y326461D01*
X109706Y326172D01*
X109709Y325882D01*
X101525Y325882D02*
X101528Y325592D01*
X101539Y325303D01*
X101556Y325013D01*
X101580Y324724D01*
X101611Y324436D01*
X101649Y324149D01*
X101694Y323863D01*
X101746Y323578D01*
X101804Y323294D01*
X101869Y323011D01*
X101941Y322730D01*
X102020Y322452D01*
X102105Y322175D01*
X102197Y321900D01*
X102295Y321627D01*
X102400Y321357D01*
X102511Y321089D01*
X102629Y320824D01*
X102753Y320562D01*
X102789Y320461D01*
X102829Y320362D01*
X102873Y320263D01*
X102920Y320167D01*
X102971Y320072D01*
X103024Y319980D01*
X103082Y319889D01*
X103142Y319800D01*
X103205Y319713D01*
X103272Y319629D01*
X103341Y319547D01*
X103413Y319468D01*
X103488Y319391D01*
X103566Y319317D01*
X103646Y319245D01*
X103729Y319177D01*
X103814Y319112D01*
X103901Y319049D01*
X103990Y318990D01*
X104082Y318934D01*
X104175Y318881D01*
X104271Y318832D01*
X104368Y318786D01*
X104466Y318743D01*
X104566Y318704D01*
X104667Y318669D01*
X104770Y318637D01*
X104873Y318609D01*
X104978Y318584D01*
X105083Y318563D01*
X105189Y318546D01*
X105296Y318533D01*
X105403Y318524D01*
X105510Y318518D01*
X105617Y318516D01*
X108481Y320562D02*
X108605Y320824D01*
X108723Y321089D01*
X108834Y321357D01*
X108939Y321627D01*
X109037Y321900D01*
X109129Y322174D01*
X109214Y322451D01*
X109293Y322730D01*
X109365Y323011D01*
X109430Y323294D01*
X109488Y323577D01*
X109540Y323863D01*
X109585Y324149D01*
X109623Y324436D01*
X109654Y324724D01*
X109678Y325013D01*
X109695Y325303D01*
X109706Y325592D01*
X109709Y325882D01*
X108481Y320562D02*
X108445Y320461D01*
X108405Y320362D01*
X108361Y320264D01*
X108314Y320167D01*
X108263Y320072D01*
X108210Y319980D01*
X108152Y319889D01*
X108092Y319800D01*
X108029Y319713D01*
X107962Y319629D01*
X107893Y319547D01*
X107821Y319468D01*
X107746Y319391D01*
X107668Y319317D01*
X107588Y319245D01*
X107505Y319177D01*
X107420Y319112D01*
X107333Y319049D01*
X107244Y318990D01*
X107152Y318934D01*
X107059Y318881D01*
X106963Y318832D01*
X106866Y318786D01*
X106768Y318743D01*
X106668Y318704D01*
X106567Y318669D01*
X106464Y318637D01*
X106361Y318609D01*
X106256Y318584D01*
X106151Y318563D01*
X106045Y318546D01*
X105938Y318533D01*
X105831Y318524D01*
X105724Y318518D01*
X105617Y318516D01*
X102343Y321790D02*
X108891Y329974D01*
X120892Y333248D02*
X121013Y333246D01*
X121133Y333240D01*
X121253Y333230D01*
X121373Y333216D01*
X121492Y333199D01*
X121611Y333177D01*
X121728Y333152D01*
X121845Y333123D01*
X121961Y333089D01*
X122076Y333053D01*
X122189Y333012D01*
X122301Y332968D01*
X122412Y332920D01*
X122521Y332868D01*
X122628Y332813D01*
X122734Y332755D01*
X122837Y332693D01*
X122938Y332627D01*
X123037Y332559D01*
X123134Y332487D01*
X123228Y332412D01*
X123320Y332334D01*
X123410Y332253D01*
X123496Y332169D01*
X123580Y332083D01*
X123661Y331993D01*
X123739Y331901D01*
X123814Y331807D01*
X123886Y331710D01*
X123954Y331611D01*
X124020Y331510D01*
X124082Y331407D01*
X124140Y331301D01*
X124195Y331194D01*
X124247Y331085D01*
X124295Y330974D01*
X124339Y330862D01*
X124380Y330749D01*
X124416Y330634D01*
X124450Y330518D01*
X124479Y330401D01*
X124504Y330284D01*
X124526Y330165D01*
X124543Y330046D01*
X124557Y329926D01*
X124567Y329806D01*
X124573Y329686D01*
X124575Y329565D01*
X120892Y333248D02*
X120757Y333246D01*
X120622Y333240D01*
X120487Y333231D01*
X120352Y333217D01*
X120218Y333200D01*
X120084Y333179D01*
X119952Y333154D01*
X119819Y333125D01*
X119688Y333092D01*
X119558Y333056D01*
X119429Y333016D01*
X119301Y332972D01*
X119174Y332925D01*
X119049Y332874D01*
X118925Y332820D01*
X118803Y332762D01*
X118682Y332700D01*
X118564Y332635D01*
X118447Y332567D01*
X118332Y332496D01*
X118219Y332421D01*
X118109Y332343D01*
X118001Y332262D01*
X117895Y332178D01*
X117791Y332091D01*
X117690Y332000D01*
X117592Y331908D01*
X117497Y331812D01*
X117404Y331713D01*
X117314Y331612D01*
X117227Y331509D01*
X117143Y331403D01*
X117062Y331295D01*
X116984Y331184D01*
X116909Y331071D01*
X116838Y330956D01*
X116770Y330840D01*
X116705Y330721D01*
X116644Y330600D01*
X116586Y330478D01*
X116532Y330354D01*
X116481Y330229D01*
X116434Y330102D01*
X116390Y329974D01*
X123347Y326700D02*
X123435Y326787D01*
X123520Y326876D01*
X123603Y326967D01*
X123682Y327061D01*
X123759Y327158D01*
X123832Y327257D01*
X123902Y327358D01*
X123969Y327462D01*
X124033Y327567D01*
X124094Y327674D01*
X124151Y327783D01*
X124205Y327894D01*
X124255Y328007D01*
X124302Y328121D01*
X124345Y328236D01*
X124385Y328353D01*
X124421Y328471D01*
X124453Y328589D01*
X124481Y328709D01*
X124506Y328830D01*
X124527Y328951D01*
X124544Y329073D01*
X124558Y329196D01*
X124567Y329319D01*
X124573Y329442D01*
X124575Y329565D01*
X123347Y326700D02*
X116391Y318516D01*
X124575Y318516D01*
X131256Y318516D02*
X135348Y318516D01*
X135475Y318518D01*
X135602Y318524D01*
X135729Y318534D01*
X135856Y318548D01*
X135982Y318565D01*
X136107Y318587D01*
X136232Y318613D01*
X136356Y318642D01*
X136479Y318675D01*
X136600Y318712D01*
X136721Y318753D01*
X136840Y318798D01*
X136958Y318846D01*
X137074Y318898D01*
X137189Y318953D01*
X137301Y319012D01*
X137412Y319075D01*
X137521Y319141D01*
X137628Y319210D01*
X137733Y319283D01*
X137835Y319358D01*
X137935Y319437D01*
X138032Y319519D01*
X138127Y319604D01*
X138219Y319692D01*
X138308Y319783D01*
X138395Y319876D01*
X138478Y319972D01*
X138559Y320071D01*
X138636Y320172D01*
X138710Y320275D01*
X138781Y320381D01*
X138849Y320489D01*
X138913Y320599D01*
X138974Y320711D01*
X139031Y320824D01*
X139085Y320940D01*
X139135Y321057D01*
X139181Y321175D01*
X139224Y321295D01*
X139263Y321416D01*
X139298Y321539D01*
X139329Y321662D01*
X139357Y321786D01*
X139380Y321911D01*
X139400Y322037D01*
X139416Y322163D01*
X139428Y322290D01*
X139436Y322417D01*
X139440Y322544D01*
X139440Y322672D01*
X139436Y322799D01*
X139428Y322926D01*
X139416Y323053D01*
X139400Y323179D01*
X139380Y323305D01*
X139357Y323430D01*
X139329Y323554D01*
X139298Y323677D01*
X139263Y323800D01*
X139224Y323921D01*
X139181Y324041D01*
X139135Y324159D01*
X139085Y324276D01*
X139031Y324392D01*
X138974Y324505D01*
X138913Y324617D01*
X138849Y324727D01*
X138781Y324835D01*
X138710Y324941D01*
X138636Y325044D01*
X138559Y325145D01*
X138478Y325244D01*
X138395Y325340D01*
X138308Y325433D01*
X138219Y325524D01*
X138127Y325612D01*
X138032Y325697D01*
X137935Y325779D01*
X137835Y325858D01*
X137733Y325933D01*
X137628Y326006D01*
X137521Y326075D01*
X137412Y326141D01*
X137301Y326204D01*
X137189Y326263D01*
X137074Y326318D01*
X136958Y326370D01*
X136840Y326418D01*
X136721Y326463D01*
X136600Y326504D01*
X136479Y326541D01*
X136356Y326574D01*
X136232Y326603D01*
X136107Y326629D01*
X135982Y326651D01*
X135856Y326668D01*
X135729Y326682D01*
X135602Y326692D01*
X135475Y326698D01*
X135348Y326700D01*
X136167Y333248D02*
X131256Y333248D01*
X136167Y333248D02*
X136280Y333246D01*
X136393Y333240D01*
X136505Y333230D01*
X136618Y333217D01*
X136729Y333199D01*
X136840Y333178D01*
X136951Y333153D01*
X137060Y333124D01*
X137168Y333091D01*
X137275Y333055D01*
X137381Y333015D01*
X137485Y332971D01*
X137588Y332924D01*
X137689Y332873D01*
X137788Y332819D01*
X137885Y332761D01*
X137980Y332700D01*
X138073Y332636D01*
X138164Y332569D01*
X138252Y332498D01*
X138338Y332425D01*
X138421Y332348D01*
X138502Y332269D01*
X138580Y332187D01*
X138655Y332102D01*
X138727Y332015D01*
X138796Y331926D01*
X138861Y331834D01*
X138924Y331740D01*
X138983Y331644D01*
X139039Y331545D01*
X139092Y331445D01*
X139141Y331343D01*
X139186Y331240D01*
X139228Y331135D01*
X139266Y331029D01*
X139301Y330921D01*
X139332Y330812D01*
X139359Y330703D01*
X139382Y330592D01*
X139402Y330481D01*
X139417Y330369D01*
X139429Y330256D01*
X139437Y330143D01*
X139441Y330031D01*
X139441Y329917D01*
X139437Y329805D01*
X139429Y329692D01*
X139417Y329579D01*
X139402Y329467D01*
X139382Y329356D01*
X139359Y329245D01*
X139332Y329136D01*
X139301Y329027D01*
X139266Y328919D01*
X139228Y328813D01*
X139186Y328708D01*
X139141Y328605D01*
X139092Y328503D01*
X139039Y328403D01*
X138983Y328304D01*
X138924Y328208D01*
X138861Y328114D01*
X138796Y328022D01*
X138727Y327933D01*
X138655Y327846D01*
X138580Y327761D01*
X138502Y327679D01*
X138421Y327600D01*
X138338Y327523D01*
X138252Y327450D01*
X138164Y327379D01*
X138073Y327312D01*
X137980Y327248D01*
X137885Y327187D01*
X137788Y327129D01*
X137689Y327075D01*
X137588Y327024D01*
X137485Y326977D01*
X137381Y326933D01*
X137275Y326893D01*
X137168Y326857D01*
X137060Y326824D01*
X136951Y326795D01*
X136840Y326770D01*
X136729Y326749D01*
X136618Y326731D01*
X136505Y326718D01*
X136393Y326708D01*
X136280Y326702D01*
X136167Y326700D01*
X132893Y326700D01*
X154050Y329974D02*
X158143Y333248D01*
X158143Y318516D01*
X162235Y318516D02*
X154050Y318516D01*
X168916Y322608D02*
X168918Y322735D01*
X168924Y322862D01*
X168934Y322989D01*
X168948Y323116D01*
X168965Y323242D01*
X168987Y323367D01*
X169013Y323492D01*
X169042Y323616D01*
X169075Y323739D01*
X169112Y323860D01*
X169153Y323981D01*
X169198Y324100D01*
X169246Y324218D01*
X169298Y324334D01*
X169353Y324449D01*
X169412Y324561D01*
X169475Y324672D01*
X169541Y324781D01*
X169610Y324888D01*
X169683Y324993D01*
X169758Y325095D01*
X169837Y325195D01*
X169919Y325292D01*
X170004Y325387D01*
X170092Y325479D01*
X170183Y325568D01*
X170276Y325655D01*
X170372Y325738D01*
X170471Y325819D01*
X170572Y325896D01*
X170675Y325970D01*
X170781Y326041D01*
X170889Y326109D01*
X170999Y326173D01*
X171111Y326234D01*
X171224Y326291D01*
X171340Y326345D01*
X171457Y326395D01*
X171575Y326441D01*
X171695Y326484D01*
X171816Y326523D01*
X171939Y326558D01*
X172062Y326589D01*
X172186Y326617D01*
X172311Y326640D01*
X172437Y326660D01*
X172563Y326676D01*
X172690Y326688D01*
X172817Y326696D01*
X172944Y326700D01*
X173072Y326700D01*
X173199Y326696D01*
X173326Y326688D01*
X173453Y326676D01*
X173579Y326660D01*
X173705Y326640D01*
X173830Y326617D01*
X173954Y326589D01*
X174077Y326558D01*
X174200Y326523D01*
X174321Y326484D01*
X174441Y326441D01*
X174559Y326395D01*
X174676Y326345D01*
X174792Y326291D01*
X174905Y326234D01*
X175017Y326173D01*
X175127Y326109D01*
X175235Y326041D01*
X175341Y325970D01*
X175444Y325896D01*
X175545Y325819D01*
X175644Y325738D01*
X175740Y325655D01*
X175833Y325568D01*
X175924Y325479D01*
X176012Y325387D01*
X176097Y325292D01*
X176179Y325195D01*
X176258Y325095D01*
X176333Y324993D01*
X176406Y324888D01*
X176475Y324781D01*
X176541Y324672D01*
X176604Y324561D01*
X176663Y324449D01*
X176718Y324334D01*
X176770Y324218D01*
X176818Y324100D01*
X176863Y323981D01*
X176904Y323860D01*
X176941Y323739D01*
X176974Y323616D01*
X177003Y323492D01*
X177029Y323367D01*
X177051Y323242D01*
X177068Y323116D01*
X177082Y322989D01*
X177092Y322862D01*
X177098Y322735D01*
X177100Y322608D01*
X177098Y322481D01*
X177092Y322354D01*
X177082Y322227D01*
X177068Y322100D01*
X177051Y321974D01*
X177029Y321849D01*
X177003Y321724D01*
X176974Y321600D01*
X176941Y321477D01*
X176904Y321356D01*
X176863Y321235D01*
X176818Y321116D01*
X176770Y320998D01*
X176718Y320882D01*
X176663Y320767D01*
X176604Y320655D01*
X176541Y320544D01*
X176475Y320435D01*
X176406Y320328D01*
X176333Y320223D01*
X176258Y320121D01*
X176179Y320021D01*
X176097Y319924D01*
X176012Y319829D01*
X175924Y319737D01*
X175833Y319648D01*
X175740Y319561D01*
X175644Y319478D01*
X175545Y319397D01*
X175444Y319320D01*
X175341Y319246D01*
X175235Y319175D01*
X175127Y319107D01*
X175017Y319043D01*
X174905Y318982D01*
X174792Y318925D01*
X174676Y318871D01*
X174559Y318821D01*
X174441Y318775D01*
X174321Y318732D01*
X174200Y318693D01*
X174077Y318658D01*
X173954Y318627D01*
X173830Y318599D01*
X173705Y318576D01*
X173579Y318556D01*
X173453Y318540D01*
X173326Y318528D01*
X173199Y318520D01*
X173072Y318516D01*
X172944Y318516D01*
X172817Y318520D01*
X172690Y318528D01*
X172563Y318540D01*
X172437Y318556D01*
X172311Y318576D01*
X172186Y318599D01*
X172062Y318627D01*
X171939Y318658D01*
X171816Y318693D01*
X171695Y318732D01*
X171575Y318775D01*
X171457Y318821D01*
X171340Y318871D01*
X171224Y318925D01*
X171111Y318982D01*
X170999Y319043D01*
X170889Y319107D01*
X170781Y319175D01*
X170675Y319246D01*
X170572Y319320D01*
X170471Y319397D01*
X170372Y319478D01*
X170276Y319561D01*
X170183Y319648D01*
X170092Y319737D01*
X170004Y319829D01*
X169919Y319924D01*
X169837Y320021D01*
X169758Y320121D01*
X169683Y320223D01*
X169610Y320328D01*
X169541Y320435D01*
X169475Y320544D01*
X169412Y320655D01*
X169353Y320767D01*
X169298Y320882D01*
X169246Y320998D01*
X169198Y321116D01*
X169153Y321235D01*
X169112Y321356D01*
X169075Y321477D01*
X169042Y321600D01*
X169013Y321724D01*
X168987Y321849D01*
X168965Y321974D01*
X168948Y322100D01*
X168934Y322227D01*
X168924Y322354D01*
X168918Y322481D01*
X168916Y322608D01*
X169734Y329974D02*
X169736Y330087D01*
X169742Y330200D01*
X169752Y330312D01*
X169765Y330425D01*
X169783Y330536D01*
X169804Y330647D01*
X169829Y330758D01*
X169858Y330867D01*
X169891Y330975D01*
X169927Y331082D01*
X169967Y331188D01*
X170011Y331292D01*
X170058Y331395D01*
X170109Y331496D01*
X170163Y331595D01*
X170221Y331692D01*
X170282Y331787D01*
X170346Y331880D01*
X170413Y331971D01*
X170484Y332059D01*
X170557Y332145D01*
X170634Y332228D01*
X170713Y332309D01*
X170795Y332387D01*
X170880Y332462D01*
X170967Y332534D01*
X171056Y332603D01*
X171148Y332668D01*
X171242Y332731D01*
X171338Y332790D01*
X171437Y332846D01*
X171537Y332899D01*
X171639Y332948D01*
X171742Y332993D01*
X171847Y333035D01*
X171953Y333073D01*
X172061Y333108D01*
X172170Y333139D01*
X172279Y333166D01*
X172390Y333189D01*
X172501Y333209D01*
X172613Y333224D01*
X172726Y333236D01*
X172839Y333244D01*
X172951Y333248D01*
X173065Y333248D01*
X173177Y333244D01*
X173290Y333236D01*
X173403Y333224D01*
X173515Y333209D01*
X173626Y333189D01*
X173737Y333166D01*
X173846Y333139D01*
X173955Y333108D01*
X174063Y333073D01*
X174169Y333035D01*
X174274Y332993D01*
X174377Y332948D01*
X174479Y332899D01*
X174579Y332846D01*
X174678Y332790D01*
X174774Y332731D01*
X174868Y332668D01*
X174960Y332603D01*
X175049Y332534D01*
X175136Y332462D01*
X175221Y332387D01*
X175303Y332309D01*
X175382Y332228D01*
X175459Y332145D01*
X175532Y332059D01*
X175603Y331971D01*
X175670Y331880D01*
X175734Y331787D01*
X175795Y331692D01*
X175853Y331595D01*
X175907Y331496D01*
X175958Y331395D01*
X176005Y331292D01*
X176049Y331188D01*
X176089Y331082D01*
X176125Y330975D01*
X176158Y330867D01*
X176187Y330758D01*
X176212Y330647D01*
X176233Y330536D01*
X176251Y330425D01*
X176264Y330312D01*
X176274Y330200D01*
X176280Y330087D01*
X176282Y329974D01*
X176280Y329861D01*
X176274Y329748D01*
X176264Y329636D01*
X176251Y329523D01*
X176233Y329412D01*
X176212Y329301D01*
X176187Y329190D01*
X176158Y329081D01*
X176125Y328973D01*
X176089Y328866D01*
X176049Y328760D01*
X176005Y328656D01*
X175958Y328553D01*
X175907Y328452D01*
X175853Y328353D01*
X175795Y328256D01*
X175734Y328161D01*
X175670Y328068D01*
X175603Y327977D01*
X175532Y327889D01*
X175459Y327803D01*
X175382Y327720D01*
X175303Y327639D01*
X175221Y327561D01*
X175136Y327486D01*
X175049Y327414D01*
X174960Y327345D01*
X174868Y327280D01*
X174774Y327217D01*
X174678Y327158D01*
X174579Y327102D01*
X174479Y327049D01*
X174377Y327000D01*
X174274Y326955D01*
X174169Y326913D01*
X174063Y326875D01*
X173955Y326840D01*
X173846Y326809D01*
X173737Y326782D01*
X173626Y326759D01*
X173515Y326739D01*
X173403Y326724D01*
X173290Y326712D01*
X173177Y326704D01*
X173065Y326700D01*
X172951Y326700D01*
X172839Y326704D01*
X172726Y326712D01*
X172613Y326724D01*
X172501Y326739D01*
X172390Y326759D01*
X172279Y326782D01*
X172170Y326809D01*
X172061Y326840D01*
X171953Y326875D01*
X171847Y326913D01*
X171742Y326955D01*
X171639Y327000D01*
X171537Y327049D01*
X171437Y327102D01*
X171338Y327158D01*
X171242Y327217D01*
X171148Y327280D01*
X171056Y327345D01*
X170967Y327414D01*
X170880Y327486D01*
X170795Y327561D01*
X170713Y327639D01*
X170634Y327720D01*
X170557Y327803D01*
X170484Y327889D01*
X170413Y327977D01*
X170346Y328068D01*
X170282Y328161D01*
X170221Y328256D01*
X170163Y328353D01*
X170109Y328452D01*
X170058Y328553D01*
X170011Y328656D01*
X169967Y328760D01*
X169927Y328866D01*
X169891Y328973D01*
X169858Y329081D01*
X169829Y329190D01*
X169804Y329301D01*
X169783Y329412D01*
X169765Y329523D01*
X169752Y329636D01*
X169742Y329748D01*
X169736Y329861D01*
X169734Y329974D01*
X183501Y320562D02*
X183501Y319744D01*
X183501Y320562D02*
X184319Y320562D01*
X184319Y319744D01*
X183501Y319744D01*
X183501Y326291D02*
X183501Y327110D01*
X184319Y327110D01*
X184319Y326291D01*
X183501Y326291D01*
X190719Y329974D02*
X194811Y333248D01*
X194811Y318516D01*
X190719Y318516D02*
X198904Y318516D01*
X205585Y322608D02*
X205587Y322735D01*
X205593Y322862D01*
X205603Y322989D01*
X205617Y323116D01*
X205634Y323242D01*
X205656Y323367D01*
X205682Y323492D01*
X205711Y323616D01*
X205744Y323739D01*
X205781Y323860D01*
X205822Y323981D01*
X205867Y324100D01*
X205915Y324218D01*
X205967Y324334D01*
X206022Y324449D01*
X206081Y324561D01*
X206144Y324672D01*
X206210Y324781D01*
X206279Y324888D01*
X206352Y324993D01*
X206427Y325095D01*
X206506Y325195D01*
X206588Y325292D01*
X206673Y325387D01*
X206761Y325479D01*
X206852Y325568D01*
X206945Y325655D01*
X207041Y325738D01*
X207140Y325819D01*
X207241Y325896D01*
X207344Y325970D01*
X207450Y326041D01*
X207558Y326109D01*
X207668Y326173D01*
X207780Y326234D01*
X207893Y326291D01*
X208009Y326345D01*
X208126Y326395D01*
X208244Y326441D01*
X208364Y326484D01*
X208485Y326523D01*
X208608Y326558D01*
X208731Y326589D01*
X208855Y326617D01*
X208980Y326640D01*
X209106Y326660D01*
X209232Y326676D01*
X209359Y326688D01*
X209486Y326696D01*
X209613Y326700D01*
X209741Y326700D01*
X209868Y326696D01*
X209995Y326688D01*
X210122Y326676D01*
X210248Y326660D01*
X210374Y326640D01*
X210499Y326617D01*
X210623Y326589D01*
X210746Y326558D01*
X210869Y326523D01*
X210990Y326484D01*
X211110Y326441D01*
X211228Y326395D01*
X211345Y326345D01*
X211461Y326291D01*
X211574Y326234D01*
X211686Y326173D01*
X211796Y326109D01*
X211904Y326041D01*
X212010Y325970D01*
X212113Y325896D01*
X212214Y325819D01*
X212313Y325738D01*
X212409Y325655D01*
X212502Y325568D01*
X212593Y325479D01*
X212681Y325387D01*
X212766Y325292D01*
X212848Y325195D01*
X212927Y325095D01*
X213002Y324993D01*
X213075Y324888D01*
X213144Y324781D01*
X213210Y324672D01*
X213273Y324561D01*
X213332Y324449D01*
X213387Y324334D01*
X213439Y324218D01*
X213487Y324100D01*
X213532Y323981D01*
X213573Y323860D01*
X213610Y323739D01*
X213643Y323616D01*
X213672Y323492D01*
X213698Y323367D01*
X213720Y323242D01*
X213737Y323116D01*
X213751Y322989D01*
X213761Y322862D01*
X213767Y322735D01*
X213769Y322608D01*
X213767Y322481D01*
X213761Y322354D01*
X213751Y322227D01*
X213737Y322100D01*
X213720Y321974D01*
X213698Y321849D01*
X213672Y321724D01*
X213643Y321600D01*
X213610Y321477D01*
X213573Y321356D01*
X213532Y321235D01*
X213487Y321116D01*
X213439Y320998D01*
X213387Y320882D01*
X213332Y320767D01*
X213273Y320655D01*
X213210Y320544D01*
X213144Y320435D01*
X213075Y320328D01*
X213002Y320223D01*
X212927Y320121D01*
X212848Y320021D01*
X212766Y319924D01*
X212681Y319829D01*
X212593Y319737D01*
X212502Y319648D01*
X212409Y319561D01*
X212313Y319478D01*
X212214Y319397D01*
X212113Y319320D01*
X212010Y319246D01*
X211904Y319175D01*
X211796Y319107D01*
X211686Y319043D01*
X211574Y318982D01*
X211461Y318925D01*
X211345Y318871D01*
X211228Y318821D01*
X211110Y318775D01*
X210990Y318732D01*
X210869Y318693D01*
X210746Y318658D01*
X210623Y318627D01*
X210499Y318599D01*
X210374Y318576D01*
X210248Y318556D01*
X210122Y318540D01*
X209995Y318528D01*
X209868Y318520D01*
X209741Y318516D01*
X209613Y318516D01*
X209486Y318520D01*
X209359Y318528D01*
X209232Y318540D01*
X209106Y318556D01*
X208980Y318576D01*
X208855Y318599D01*
X208731Y318627D01*
X208608Y318658D01*
X208485Y318693D01*
X208364Y318732D01*
X208244Y318775D01*
X208126Y318821D01*
X208009Y318871D01*
X207893Y318925D01*
X207780Y318982D01*
X207668Y319043D01*
X207558Y319107D01*
X207450Y319175D01*
X207344Y319246D01*
X207241Y319320D01*
X207140Y319397D01*
X207041Y319478D01*
X206945Y319561D01*
X206852Y319648D01*
X206761Y319737D01*
X206673Y319829D01*
X206588Y319924D01*
X206506Y320021D01*
X206427Y320121D01*
X206352Y320223D01*
X206279Y320328D01*
X206210Y320435D01*
X206144Y320544D01*
X206081Y320655D01*
X206022Y320767D01*
X205967Y320882D01*
X205915Y320998D01*
X205867Y321116D01*
X205822Y321235D01*
X205781Y321356D01*
X205744Y321477D01*
X205711Y321600D01*
X205682Y321724D01*
X205656Y321849D01*
X205634Y321974D01*
X205617Y322100D01*
X205603Y322227D01*
X205593Y322354D01*
X205587Y322481D01*
X205585Y322608D01*
X206403Y329974D02*
X206405Y330087D01*
X206411Y330200D01*
X206421Y330312D01*
X206434Y330425D01*
X206452Y330536D01*
X206473Y330647D01*
X206498Y330758D01*
X206527Y330867D01*
X206560Y330975D01*
X206596Y331082D01*
X206636Y331188D01*
X206680Y331292D01*
X206727Y331395D01*
X206778Y331496D01*
X206832Y331595D01*
X206890Y331692D01*
X206951Y331787D01*
X207015Y331880D01*
X207082Y331971D01*
X207153Y332059D01*
X207226Y332145D01*
X207303Y332228D01*
X207382Y332309D01*
X207464Y332387D01*
X207549Y332462D01*
X207636Y332534D01*
X207725Y332603D01*
X207817Y332668D01*
X207911Y332731D01*
X208007Y332790D01*
X208106Y332846D01*
X208206Y332899D01*
X208308Y332948D01*
X208411Y332993D01*
X208516Y333035D01*
X208622Y333073D01*
X208730Y333108D01*
X208839Y333139D01*
X208948Y333166D01*
X209059Y333189D01*
X209170Y333209D01*
X209282Y333224D01*
X209395Y333236D01*
X209508Y333244D01*
X209620Y333248D01*
X209734Y333248D01*
X209846Y333244D01*
X209959Y333236D01*
X210072Y333224D01*
X210184Y333209D01*
X210295Y333189D01*
X210406Y333166D01*
X210515Y333139D01*
X210624Y333108D01*
X210732Y333073D01*
X210838Y333035D01*
X210943Y332993D01*
X211046Y332948D01*
X211148Y332899D01*
X211248Y332846D01*
X211347Y332790D01*
X211443Y332731D01*
X211537Y332668D01*
X211629Y332603D01*
X211718Y332534D01*
X211805Y332462D01*
X211890Y332387D01*
X211972Y332309D01*
X212051Y332228D01*
X212128Y332145D01*
X212201Y332059D01*
X212272Y331971D01*
X212339Y331880D01*
X212403Y331787D01*
X212464Y331692D01*
X212522Y331595D01*
X212576Y331496D01*
X212627Y331395D01*
X212674Y331292D01*
X212718Y331188D01*
X212758Y331082D01*
X212794Y330975D01*
X212827Y330867D01*
X212856Y330758D01*
X212881Y330647D01*
X212902Y330536D01*
X212920Y330425D01*
X212933Y330312D01*
X212943Y330200D01*
X212949Y330087D01*
X212951Y329974D01*
X212949Y329861D01*
X212943Y329748D01*
X212933Y329636D01*
X212920Y329523D01*
X212902Y329412D01*
X212881Y329301D01*
X212856Y329190D01*
X212827Y329081D01*
X212794Y328973D01*
X212758Y328866D01*
X212718Y328760D01*
X212674Y328656D01*
X212627Y328553D01*
X212576Y328452D01*
X212522Y328353D01*
X212464Y328256D01*
X212403Y328161D01*
X212339Y328068D01*
X212272Y327977D01*
X212201Y327889D01*
X212128Y327803D01*
X212051Y327720D01*
X211972Y327639D01*
X211890Y327561D01*
X211805Y327486D01*
X211718Y327414D01*
X211629Y327345D01*
X211537Y327280D01*
X211443Y327217D01*
X211347Y327158D01*
X211248Y327102D01*
X211148Y327049D01*
X211046Y327000D01*
X210943Y326955D01*
X210838Y326913D01*
X210732Y326875D01*
X210624Y326840D01*
X210515Y326809D01*
X210406Y326782D01*
X210295Y326759D01*
X210184Y326739D01*
X210072Y326724D01*
X209959Y326712D01*
X209846Y326704D01*
X209734Y326700D01*
X209620Y326700D01*
X209508Y326704D01*
X209395Y326712D01*
X209282Y326724D01*
X209170Y326739D01*
X209059Y326759D01*
X208948Y326782D01*
X208839Y326809D01*
X208730Y326840D01*
X208622Y326875D01*
X208516Y326913D01*
X208411Y326955D01*
X208308Y327000D01*
X208206Y327049D01*
X208106Y327102D01*
X208007Y327158D01*
X207911Y327217D01*
X207817Y327280D01*
X207725Y327345D01*
X207636Y327414D01*
X207549Y327486D01*
X207464Y327561D01*
X207382Y327639D01*
X207303Y327720D01*
X207226Y327803D01*
X207153Y327889D01*
X207082Y327977D01*
X207015Y328068D01*
X206951Y328161D01*
X206890Y328256D01*
X206832Y328353D01*
X206778Y328452D01*
X206727Y328553D01*
X206680Y328656D01*
X206636Y328760D01*
X206596Y328866D01*
X206560Y328973D01*
X206527Y329081D01*
X206498Y329190D01*
X206473Y329301D01*
X206452Y329412D01*
X206434Y329523D01*
X206421Y329636D01*
X206411Y329748D01*
X206405Y329861D01*
X206403Y329974D01*
M02*
