  0
SECTION
  2
HEADER
  9
$ACADVER
  1
AC1009
  9
$FILLMODE
 70
0
  9
$EXTMIN
 10
-1.0160
 20
-3.2543
 30
0.0000
  9
$EXTMAX
 10
54.6862
 20
81.9912
 30
0.0000
  0
ENDSEC
  0
SECTION
  2
TABLES
  0
TABLE
  2
LTYPE
 70
1
  0
LTYPE
  2
CONTINUOUS
 70
64
  3
Solid line
 72
65
 73
0
 40
0
  0
ENDTAB
  0
TABLE
  2
LAYER
 70
255
  0
LAYER
  2
20
 70
64
 62
30
  6
CONTINUOUS
  0
LAYER
  2
21
 70
64
 62
253
  6
CONTINUOUS
  0
LAYER
  2
49
 70
64
 62
253
  6
CONTINUOUS
  0
LAYER
  2
51
 70
64
 62
253
  6
CONTINUOUS
  0
ENDTAB
  0
ENDSEC
  0
SECTION
  2
BLOCKS
  0
BLOCK
  8
0
  2
RECT
 70
64
 10
0.0000
 20
0.0000
 30
0.0000
  3
RECT
  0
SOLID
  8
0
 10
-0.5000
 20
-0.5000
 30
0.0000
 11
0.5000
 21
-0.5000
 31
0.0000
 12
-0.5000
 22
0.5000
 32
0.0000
 13
0.5000
 23
0.5000
 33
0.0000
  0
ENDBLK
  8
0
  0
BLOCK
  8
0
  2
PIE
 70
64
 10
0.0000
 20
0.0000
 30
0.0000
  3
PIE
  0
CIRCLE
  8
0
 10
0.0000
 20
0.0000
 30
0.0000
 40
0.5000
  0
ENDBLK
  8
0
  0
BLOCK
  8
0
  2
OCTAGONP
 70
64
 10
0.0000
 20
0.0000
 30
0.0000
  3
OCTAGONP
  0
POLYLINE
  8
0
 66
1
 10
0.0000
 20
0.0000
 30
0.0000
 40
0.0000
 41
0.0000
 70
1
  0
VERTEX
  8
0
 10
-0.5000
 20
-0.2071
 30
0.0000
  0
VERTEX
  8
0
 10
-0.5000
 20
0.2071
 30
0.0000
  0
VERTEX
  8
0
 10
-0.2071
 20
0.5000
 30
0.0000
  0
VERTEX
  8
0
 10
0.2071
 20
0.5000
 30
0.0000
  0
VERTEX
  8
0
 10
0.5000
 20
0.2071
 30
0.0000
  0
VERTEX
  8
0
 10
0.5000
 20
-0.2071
 30
0.0000
  0
VERTEX
  8
0
 10
0.2071
 20
-0.5000
 30
0.0000
  0
VERTEX
  8
0
 10
-0.2071
 20
-0.5000
 30
0.0000
  0
SEQEND
  8
0
  0
ENDBLK
  8
0
  0
BLOCK
  8
0
  2
SQUAREP
 70
64
 10
0.0000
 20
0.0000
 30
0.0000
  3
SQUAREP
  0
SOLID
  8
0
 10
-0.5000
 20
-0.5000
 30
0.0000
 11
0.5000
 21
-0.5000
 31
0.0000
 12
-0.5000
 22
0.5000
 32
0.0000
 13
0.5000
 23
0.5000
 33
0.0000
  0
ENDBLK
  8
0
  0
BLOCK
  8
0
  2
ROUNDP
 70
64
 10
0.0000
 20
0.0000
 30
0.0000
  3
ROUNDP
  0
CIRCLE
  8
0
 10
0.0000
 20
0.0000
 30
0.0000
 40
0.5000
  0
ENDBLK
  8
0
  0
BLOCK
  8
0
  2
ANNULUSP
 70
64
 10
0.0000
 20
0.0000
 30
0.0000
  3
ANNULUSP
  0
CIRCLE
  8
0
 10
0.0000
 20
0.0000
 30
0.0000
 40
0.5000
  0
ENDBLK
  8
0
  0
BLOCK
  8
0
  2
THERMALP
 70
64
 10
0.0000
 20
0.0000
 30
0.0000
  3
THERMALP
  0
LINE
  8
0
 10
-0.2379
 20
0.4500
 30
0.0000
 11
0.2379
 21
0.4500
 31
0.0000
  0
LINE
  8
0
 10
0.4500
 20
0.2379
 30
0.0000
 11
0.4500
 21
-0.2379
 31
0.0000
  0
LINE
  8
0
 10
0.2379
 20
-0.4500
 30
0.0000
 11
-0.2379
 21
-0.4500
 31
0.0000
  0
LINE
  8
0
 10
-0.4500
 20
-0.2379
 30
0.0000
 11
-0.4500
 21
0.2379
 31
0.0000
  0
ENDBLK
  8
0
  0
BLOCK
  8
0
  2
OCTAGONV
 70
64
 10
0.0000
 20
0.0000
 30
0.0000
  3
OCTAGONV
  0
POLYLINE
  8
0
 66
1
 10
0.0000
 20
0.0000
 30
0.0000
 40
0.0000
 41
0.0000
 70
1
  0
VERTEX
  8
0
 10
-0.5000
 20
-0.2071
 30
0.0000
  0
VERTEX
  8
0
 10
-0.5000
 20
0.2071
 30
0.0000
  0
VERTEX
  8
0
 10
-0.2071
 20
0.5000
 30
0.0000
  0
VERTEX
  8
0
 10
0.2071
 20
0.5000
 30
0.0000
  0
VERTEX
  8
0
 10
0.5000
 20
0.2071
 30
0.0000
  0
VERTEX
  8
0
 10
0.5000
 20
-0.2071
 30
0.0000
  0
VERTEX
  8
0
 10
0.2071
 20
-0.5000
 30
0.0000
  0
VERTEX
  8
0
 10
-0.2071
 20
-0.5000
 30
0.0000
  0
SEQEND
  8
0
  0
ENDBLK
  8
0
  0
BLOCK
  8
0
  2
SQUAREV
 70
64
 10
0.0000
 20
0.0000
 30
0.0000
  3
SQUAREV
  0
SOLID
  8
0
 10
-0.5000
 20
-0.5000
 30
0.0000
 11
0.5000
 21
-0.5000
 31
0.0000
 12
-0.5000
 22
0.5000
 32
0.0000
 13
0.5000
 23
0.5000
 33
0.0000
  0
ENDBLK
  8
0
  0
BLOCK
  8
0
  2
ROUNDV
 70
64
 10
0.0000
 20
0.0000
 30
0.0000
  3
ROUNDV
  0
CIRCLE
  8
0
 10
0.0000
 20
0.0000
 30
0.0000
 40
0.5000
  0
ENDBLK
  8
0
  0
BLOCK
  8
0
  2
ANNULUSV
 70
64
 10
0.0000
 20
0.0000
 30
0.0000
  3
ANNULUSV
  0
CIRCLE
  8
0
 10
0.0000
 20
0.0000
 30
0.0000
 40
0.5000
  0
ENDBLK
  8
0
  0
BLOCK
  8
0
  2
THERMALV
 70
64
 10
0.0000
 20
0.0000
 30
0.0000
  3
THERMALV
  0
LINE
  8
0
 10
-0.2379
 20
0.4500
 30
0.0000
 11
0.2379
 21
0.4500
 31
0.0000
  0
LINE
  8
0
 10
0.4500
 20
0.2379
 30
0.0000
 11
0.4500
 21
-0.2379
 31
0.0000
  0
LINE
  8
0
 10
0.2379
 20
-0.4500
 30
0.0000
 11
-0.2379
 21
-0.4500
 31
0.0000
  0
LINE
  8
0
 10
-0.4500
 20
-0.2379
 30
0.0000
 11
-0.4500
 21
0.2379
 31
0.0000
  0
ENDBLK
  8
0
  0
ENDSEC
  0
SECTION
  2
ENTITIES
  0
LINE
  8
20
 10
0.0000
 20
57.0000
 30
0.0000
 11
0.0000
 21
-2.0000
 31
0.0000
  0
ARC
  8
20
 10
1.0000
 20
-2.0000
 30
0.0000
 40
1.0000
 50
180.0000
 51
270.0000
  0
LINE
  8
20
 10
1.0000
 20
-3.0000
 30
0.0000
 11
31.0000
 21
-3.0000
 31
0.0000
  0
ARC
  8
20
 10
31.0000
 20
-2.0000
 30
0.0000
 40
1.0000
 50
270.0000
 51
0.0000
  0
LINE
  8
20
 10
32.0000
 20
-2.0000
 30
0.0000
 11
32.0000
 21
57.0000
 31
0.0000
  0
LINE
  8
20
 10
8.5000
 20
58.0000
 30
0.0000
 11
1.0000
 21
58.0000
 31
0.0000
  0
ARC
  8
20
 10
1.0000
 20
57.0000
 30
0.0000
 40
1.0000
 50
90.0000
 51
180.0000
  0
ARC
  8
20
 10
31.0000
 20
57.0000
 30
0.0000
 40
1.0000
 50
0.0000
 51
90.0000
  0
LINE
  8
20
 10
31.0000
 20
58.0000
 30
0.0000
 11
10.5000
 21
58.0000
 31
0.0000
  0
ARC
  8
20
 10
9.5000
 20
58.0000
 30
0.0000
 40
1.0000
 50
180.0000
 51
0.0000
  0
LINE
  8
21
 10
11.0554
 20
55.8475
 30
0.0000
 11
11.5464
 21
55.8475
 31
0.0000
  0
ARC
  8
21
 10
11.5464
 20
55.5202
 30
0.0000
 40
0.3274
 50
0.0000
 51
90.0000
  0
LINE
  8
21
 10
11.8738
 20
55.5202
 30
0.0000
 11
11.8738
 21
55.4383
 31
0.0000
  0
ARC
  8
21
 10
11.4646
 20
55.4383
 30
0.0000
 40
0.4092
 50
180.0000
 51
0.0000
  0
LINE
  8
21
 10
11.0554
 20
55.4383
 30
0.0000
 11
11.0554
 21
55.8475
 31
0.0000
  0
ARC
  8
21
 10
11.7101
 20
55.8475
 30
0.0000
 40
0.6548
 50
90.0003
 51
180.0000
  0
LINE
  8
21
 10
12.5419
 20
55.0291
 30
0.0000
 11
13.0330
 21
55.0291
 31
0.0000
  0
ARC
  8
21
 10
13.0330
 20
55.3565
 30
0.0000
 40
0.3274
 50
270.0000
 51
359.9995
  0
LINE
  8
21
 10
13.3604
 20
55.3565
 30
0.0000
 11
13.3604
 21
55.5202
 31
0.0000
  0
ARC
  8
21
 10
13.0330
 20
55.5202
 30
0.0000
 40
0.3274
 50
0.0000
 51
90.0000
  0
LINE
  8
21
 10
13.0330
 20
55.8475
 30
0.0000
 11
12.5419
 21
55.8475
 31
0.0000
  0
LINE
  8
21
 10
12.5419
 20
55.8475
 30
0.0000
 11
12.5419
 21
56.5023
 31
0.0000
  0
LINE
  8
21
 10
12.5419
 20
56.5023
 30
0.0000
 11
13.3604
 21
56.5023
 31
0.0000
  0
ARC
  8
21
 10
15.2425
 20
55.7657
 30
0.0000
 40
1.2140
 50
154.0109
 51
180.0000
  0
ARC
  8
21
 10
14.4377
 20
56.1995
 30
0.0000
 40
0.3028
 50
90.0000
 51
161.0756
  0
ARC
  8
21
 10
14.4377
 20
56.1995
 30
0.0000
 40
0.3028
 50
18.9237
 51
90.0001
  0
ARC
  8
21
 10
13.6329
 20
55.7657
 30
0.0000
 40
1.2140
 50
360.0000
 51
25.9897
  0
ARC
  8
21
 10
15.2425
 20
55.7657
 30
0.0000
 40
1.2140
 50
180.0000
 51
205.9889
  0
ARC
  8
21
 10
14.4377
 20
55.3319
 30
0.0000
 40
0.3028
 50
198.9251
 51
270.0001
  0
ARC
  8
21
 10
13.6329
 20
55.7657
 30
0.0000
 40
1.2140
 50
334.0105
 51
359.9999
  0
ARC
  8
21
 10
14.4377
 20
55.3319
 30
0.0000
 40
0.3028
 50
270.0000
 51
341.0759
  0
LINE
  8
21
 10
14.1103
 20
55.3565
 30
0.0000
 11
14.7651
 21
56.1749
 31
0.0000
  0
ARC
  8
21
 10
15.9652
 20
56.1340
 30
0.0000
 40
0.3683
 50
0.0000
 51
90.0000
  0
ARC
  8
21
 10
15.9652
 20
56.0291
 30
0.0000
 40
0.4732
 50
90.0000
 51
162.0549
  0
ARC
  8
21
 10
15.9379
 20
56.1340
 30
0.0000
 40
0.3956
 50
313.6022
 51
0.0000
  0
LINE
  8
21
 10
16.2108
 20
55.8475
 30
0.0000
 11
15.5151
 21
55.0291
 31
0.0000
  0
LINE
  8
21
 10
15.5151
 20
55.0291
 30
0.0000
 11
16.3335
 21
55.0291
 31
0.0000
  0
LINE
  8
21
 10
11.3983
 20
18.2309
 30
0.0000
 11
14.9543
 21
18.2309
 31
0.0000
  0
LINE
  8
21
 10
14.9543
 20
16.3767
 30
0.0000
 11
11.3983
 21
16.3767
 31
0.0000
  0
LINE
  8
21
 10
14.9543
 20
18.2309
 30
0.0000
 11
14.9543
 21
16.3767
 31
0.0000
  0
LINE
  8
21
 10
11.3983
 20
18.2309
 30
0.0000
 11
11.3983
 21
16.3767
 31
0.0000
  0
LINE
  8
21
 10
18.4250
 20
54.6100
 30
0.0000
 11
18.4250
 21
3.8100
 31
0.0000
  0
LINE
  8
21
 10
18.4250
 20
3.8100
 30
0.0000
 11
3.5250
 21
3.8100
 31
0.0000
  0
LINE
  8
21
 10
3.5250
 20
3.8100
 30
0.0000
 11
0.6250
 21
3.8100
 31
0.0000
  0
LINE
  8
21
 10
0.6250
 20
3.8100
 30
0.0000
 11
0.6250
 21
54.6100
 31
0.0000
  0
LINE
  8
21
 10
0.6250
 20
54.6100
 30
0.0000
 11
3.5250
 21
54.6100
 31
0.0000
  0
LINE
  8
21
 10
3.5250
 20
54.6100
 30
0.0000
 11
8.5250
 21
54.6100
 31
0.0000
  0
LINE
  8
21
 10
10.5250
 20
54.6100
 30
0.0000
 11
15.5250
 21
54.6100
 31
0.0000
  0
LINE
  8
21
 10
15.5250
 20
54.6100
 30
0.0000
 11
18.4250
 21
54.6100
 31
0.0000
  0
ARC
  8
21
 10
9.5250
 20
54.6100
 30
0.0000
 40
1.0000
 50
180.0000
 51
0.0000
  0
LINE
  8
21
 10
15.5250
 20
54.6100
 30
0.0000
 11
15.5250
 21
51.6100
 31
0.0000
  0
LINE
  8
21
 10
15.5250
 20
51.6100
 30
0.0000
 11
15.5250
 21
38.3100
 31
0.0000
  0
LINE
  8
21
 10
15.5250
 20
38.3100
 30
0.0000
 11
15.5250
 21
35.4100
 31
0.0000
  0
LINE
  8
21
 10
15.5250
 20
35.4100
 30
0.0000
 11
15.5250
 21
23.0100
 31
0.0000
  0
LINE
  8
21
 10
15.5250
 20
23.0100
 30
0.0000
 11
15.5250
 21
20.1100
 31
0.0000
  0
LINE
  8
21
 10
15.5250
 20
20.1100
 30
0.0000
 11
15.5250
 21
6.8100
 31
0.0000
  0
LINE
  8
21
 10
15.5250
 20
6.8100
 30
0.0000
 11
15.5250
 21
3.8100
 31
0.0000
  0
LINE
  8
21
 10
3.5250
 20
54.6100
 30
0.0000
 11
3.5250
 21
51.6100
 31
0.0000
  0
LINE
  8
21
 10
3.5250
 20
51.6100
 30
0.0000
 11
3.5250
 21
38.3100
 31
0.0000
  0
LINE
  8
21
 10
3.5250
 20
38.3100
 30
0.0000
 11
3.5250
 21
35.4100
 31
0.0000
  0
LINE
  8
21
 10
3.5250
 20
35.4100
 30
0.0000
 11
3.5250
 21
23.0100
 31
0.0000
  0
LINE
  8
21
 10
3.5250
 20
23.0100
 30
0.0000
 11
3.5250
 21
20.1100
 31
0.0000
  0
LINE
  8
21
 10
3.5250
 20
20.1100
 30
0.0000
 11
3.5250
 21
6.8100
 31
0.0000
  0
LINE
  8
21
 10
3.5250
 20
6.8100
 30
0.0000
 11
3.5250
 21
3.8100
 31
0.0000
  0
LINE
  8
21
 10
15.5250
 20
51.6100
 30
0.0000
 11
3.5250
 21
51.6100
 31
0.0000
  0
LINE
  8
21
 10
15.5250
 20
6.8100
 30
0.0000
 11
3.5250
 21
6.8100
 31
0.0000
  0
LINE
  8
21
 10
15.5250
 20
23.0100
 30
0.0000
 11
3.5250
 21
23.0100
 31
0.0000
  0
LINE
  8
21
 10
15.5250
 20
35.4100
 30
0.0000
 11
3.5250
 21
35.4100
 31
0.0000
  0
LINE
  8
21
 10
15.5250
 20
20.1100
 30
0.0000
 11
3.5250
 21
20.1100
 31
0.0000
  0
LINE
  8
21
 10
15.5250
 20
38.3100
 30
0.0000
 11
3.5250
 21
38.3100
 31
0.0000
  0
LINE
  8
21
 10
20.9550
 20
54.6100
 30
0.0000
 11
20.9550
 21
53.5380
 31
0.0000
  0
LINE
  8
21
 10
20.9550
 20
52.5380
 30
0.0000
 11
20.9550
 21
51.4660
 31
0.0000
  0
LINE
  8
21
 10
20.9550
 20
50.4660
 30
0.0000
 11
20.9550
 21
49.3940
 31
0.0000
  0
LINE
  8
21
 10
20.9550
 20
48.3940
 30
0.0000
 11
20.9550
 21
47.3220
 31
0.0000
  0
LINE
  8
21
 10
20.9550
 20
46.3220
 30
0.0000
 11
20.9550
 21
45.2500
 31
0.0000
  0
LINE
  8
21
 10
20.9550
 20
44.2500
 30
0.0000
 11
20.9550
 21
43.1780
 31
0.0000
  0
LINE
  8
21
 10
20.9550
 20
42.1780
 30
0.0000
 11
20.9550
 21
41.1060
 31
0.0000
  0
LINE
  8
21
 10
20.9550
 20
40.1060
 30
0.0000
 11
20.9550
 21
39.0340
 31
0.0000
  0
LINE
  8
21
 10
20.9550
 20
38.0340
 30
0.0000
 11
20.9550
 21
36.9620
 31
0.0000
  0
LINE
  8
21
 10
20.9550
 20
35.9620
 30
0.0000
 11
20.9550
 21
34.8900
 31
0.0000
  0
LINE
  8
21
 10
20.9550
 20
33.8900
 30
0.0000
 11
20.9550
 21
32.8180
 31
0.0000
  0
LINE
  8
21
 10
20.9550
 20
31.8180
 30
0.0000
 11
20.9550
 21
30.7460
 31
0.0000
  0
LINE
  8
21
 10
20.9550
 20
29.7460
 30
0.0000
 11
20.9550
 21
28.6740
 31
0.0000
  0
LINE
  8
21
 10
20.9550
 20
27.6740
 30
0.0000
 11
20.9550
 21
26.6020
 31
0.0000
  0
LINE
  8
21
 10
20.9550
 20
25.6020
 30
0.0000
 11
20.9550
 21
24.5300
 31
0.0000
  0
LINE
  8
21
 10
20.9550
 20
23.5300
 30
0.0000
 11
20.9550
 21
22.4580
 31
0.0000
  0
LINE
  8
21
 10
20.9550
 20
21.4580
 30
0.0000
 11
20.9550
 21
20.3860
 31
0.0000
  0
LINE
  8
21
 10
20.9550
 20
19.3860
 30
0.0000
 11
20.9550
 21
18.3140
 31
0.0000
  0
LINE
  8
21
 10
20.9550
 20
17.3140
 30
0.0000
 11
20.9550
 21
16.2420
 31
0.0000
  0
LINE
  8
21
 10
20.9550
 20
15.2420
 30
0.0000
 11
20.9550
 21
14.1700
 31
0.0000
  0
LINE
  8
21
 10
20.9550
 20
13.1700
 30
0.0000
 11
20.9550
 21
12.0980
 31
0.0000
  0
LINE
  8
21
 10
20.9550
 20
11.0980
 30
0.0000
 11
20.9550
 21
10.0260
 31
0.0000
  0
LINE
  8
21
 10
20.9550
 20
9.0260
 30
0.0000
 11
20.9550
 21
7.9540
 31
0.0000
  0
LINE
  8
21
 10
20.9550
 20
6.9540
 30
0.0000
 11
20.9550
 21
5.8820
 31
0.0000
  0
LINE
  8
21
 10
20.9550
 20
4.8820
 30
0.0000
 11
20.9550
 21
3.8100
 31
0.0000
  0
LINE
  8
21
 10
3.1650
 20
3.8100
 30
0.0000
 11
3.1650
 21
4.8820
 31
0.0000
  0
LINE
  8
21
 10
3.1650
 20
5.8820
 30
0.0000
 11
3.1650
 21
6.9540
 31
0.0000
  0
LINE
  8
21
 10
3.1650
 20
7.9540
 30
0.0000
 11
3.1650
 21
9.0260
 31
0.0000
  0
LINE
  8
21
 10
3.1650
 20
10.0260
 30
0.0000
 11
3.1650
 21
11.0980
 31
0.0000
  0
LINE
  8
21
 10
3.1650
 20
12.0980
 30
0.0000
 11
3.1650
 21
13.1700
 31
0.0000
  0
LINE
  8
21
 10
3.1650
 20
14.1700
 30
0.0000
 11
3.1650
 21
15.2420
 31
0.0000
  0
LINE
  8
21
 10
3.1650
 20
16.2420
 30
0.0000
 11
3.1650
 21
17.3140
 31
0.0000
  0
LINE
  8
21
 10
3.1650
 20
18.3140
 30
0.0000
 11
3.1650
 21
19.3860
 31
0.0000
  0
LINE
  8
21
 10
3.1650
 20
20.3860
 30
0.0000
 11
3.1650
 21
21.4580
 31
0.0000
  0
LINE
  8
21
 10
3.1650
 20
22.4580
 30
0.0000
 11
3.1650
 21
23.5300
 31
0.0000
  0
LINE
  8
21
 10
3.1650
 20
24.5300
 30
0.0000
 11
3.1650
 21
25.6020
 31
0.0000
  0
LINE
  8
21
 10
3.1650
 20
26.6020
 30
0.0000
 11
3.1650
 21
27.6740
 31
0.0000
  0
LINE
  8
21
 10
3.1650
 20
28.6740
 30
0.0000
 11
3.1650
 21
29.7460
 31
0.0000
  0
LINE
  8
21
 10
3.1650
 20
30.7460
 30
0.0000
 11
3.1650
 21
31.8180
 31
0.0000
  0
LINE
  8
21
 10
3.1650
 20
32.8180
 30
0.0000
 11
3.1650
 21
33.8900
 31
0.0000
  0
LINE
  8
21
 10
3.1650
 20
34.8900
 30
0.0000
 11
3.1650
 21
35.9620
 31
0.0000
  0
LINE
  8
21
 10
3.1650
 20
36.9620
 30
0.0000
 11
3.1650
 21
38.0340
 31
0.0000
  0
LINE
  8
21
 10
3.1650
 20
39.0340
 30
0.0000
 11
3.1650
 21
40.1060
 31
0.0000
  0
LINE
  8
21
 10
3.1650
 20
41.1060
 30
0.0000
 11
3.1650
 21
42.1780
 31
0.0000
  0
LINE
  8
21
 10
3.1650
 20
43.1780
 30
0.0000
 11
3.1650
 21
44.2500
 31
0.0000
  0
LINE
  8
21
 10
3.1650
 20
45.2500
 30
0.0000
 11
3.1650
 21
46.3220
 31
0.0000
  0
LINE
  8
21
 10
3.1650
 20
47.3220
 30
0.0000
 11
3.1650
 21
48.3940
 31
0.0000
  0
LINE
  8
21
 10
3.1650
 20
49.3940
 30
0.0000
 11
3.1650
 21
50.4660
 31
0.0000
  0
LINE
  8
21
 10
3.1650
 20
51.4660
 30
0.0000
 11
3.1650
 21
52.5380
 31
0.0000
  0
LINE
  8
21
 10
3.1650
 20
53.5380
 30
0.0000
 11
3.1650
 21
54.6100
 31
0.0000
  0
LINE
  8
21
 10
3.1750
 20
54.6100
 30
0.0000
 11
3.9450
 21
54.6100
 31
0.0000
  0
LINE
  8
21
 10
4.9450
 20
54.6100
 30
0.0000
 11
5.7150
 21
54.6100
 31
0.0000
  0
LINE
  8
21
 10
5.7150
 20
54.6100
 30
0.0000
 11
5.7150
 21
53.5380
 31
0.0000
  0
LINE
  8
21
 10
5.7150
 20
52.5380
 30
0.0000
 11
5.7150
 21
51.4660
 31
0.0000
  0
LINE
  8
21
 10
5.7150
 20
50.4660
 30
0.0000
 11
5.7150
 21
49.3940
 31
0.0000
  0
LINE
  8
21
 10
5.7150
 20
48.3940
 30
0.0000
 11
5.7150
 21
47.3220
 31
0.0000
  0
LINE
  8
21
 10
5.7150
 20
46.3220
 30
0.0000
 11
5.7150
 21
45.2500
 31
0.0000
  0
LINE
  8
21
 10
5.7150
 20
44.2500
 30
0.0000
 11
5.7150
 21
43.1780
 31
0.0000
  0
LINE
  8
21
 10
5.7150
 20
42.1780
 30
0.0000
 11
5.7150
 21
41.1060
 31
0.0000
  0
LINE
  8
21
 10
5.7150
 20
40.1060
 30
0.0000
 11
5.7150
 21
39.0340
 31
0.0000
  0
LINE
  8
21
 10
5.7150
 20
38.0340
 30
0.0000
 11
5.7150
 21
36.9620
 31
0.0000
  0
LINE
  8
21
 10
5.7150
 20
35.9620
 30
0.0000
 11
5.7150
 21
34.8900
 31
0.0000
  0
LINE
  8
21
 10
5.7150
 20
33.8900
 30
0.0000
 11
5.7150
 21
32.8180
 31
0.0000
  0
LINE
  8
21
 10
5.7150
 20
31.8180
 30
0.0000
 11
5.7150
 21
30.7460
 31
0.0000
  0
LINE
  8
21
 10
5.7150
 20
29.7460
 30
0.0000
 11
5.7150
 21
28.6740
 31
0.0000
  0
LINE
  8
21
 10
5.7150
 20
27.6740
 30
0.0000
 11
5.7150
 21
26.6020
 31
0.0000
  0
LINE
  8
21
 10
5.7150
 20
25.6020
 30
0.0000
 11
5.7150
 21
24.5300
 31
0.0000
  0
LINE
  8
21
 10
5.7150
 20
23.5300
 30
0.0000
 11
5.7150
 21
22.4580
 31
0.0000
  0
LINE
  8
21
 10
5.7150
 20
21.4580
 30
0.0000
 11
5.7150
 21
20.3860
 31
0.0000
  0
LINE
  8
21
 10
5.7150
 20
19.3860
 30
0.0000
 11
5.7150
 21
18.3140
 31
0.0000
  0
LINE
  8
21
 10
5.7150
 20
17.3140
 30
0.0000
 11
5.7150
 21
16.2420
 31
0.0000
  0
LINE
  8
21
 10
5.7150
 20
15.2420
 30
0.0000
 11
5.7150
 21
14.1700
 31
0.0000
  0
LINE
  8
21
 10
5.7150
 20
13.1700
 30
0.0000
 11
5.7150
 21
12.0980
 31
0.0000
  0
LINE
  8
21
 10
5.7150
 20
11.0980
 30
0.0000
 11
5.7150
 21
10.0260
 31
0.0000
  0
LINE
  8
21
 10
5.7150
 20
9.0260
 30
0.0000
 11
5.7150
 21
7.9540
 31
0.0000
  0
LINE
  8
21
 10
5.7150
 20
6.9540
 30
0.0000
 11
5.7150
 21
5.8820
 31
0.0000
  0
LINE
  8
21
 10
5.7150
 20
4.8820
 30
0.0000
 11
5.7150
 21
3.8100
 31
0.0000
  0
LINE
  8
21
 10
5.7150
 20
3.8100
 30
0.0000
 11
4.9450
 21
3.8100
 31
0.0000
  0
LINE
  8
21
 10
3.9450
 20
3.8100
 30
0.0000
 11
3.1750
 21
3.8100
 31
0.0000
  0
LINE
  8
21
 10
20.9550
 20
54.6100
 30
0.0000
 11
20.1850
 21
54.6100
 31
0.0000
  0
LINE
  8
21
 10
19.1850
 20
54.6100
 30
0.0000
 11
18.4150
 21
54.6100
 31
0.0000
  0
LINE
  8
21
 10
18.4150
 20
54.6100
 30
0.0000
 11
18.4150
 21
53.5380
 31
0.0000
  0
LINE
  8
21
 10
18.4150
 20
52.5380
 30
0.0000
 11
18.4150
 21
51.4660
 31
0.0000
  0
LINE
  8
21
 10
18.4150
 20
50.4660
 30
0.0000
 11
18.4150
 21
49.3940
 31
0.0000
  0
LINE
  8
21
 10
18.4150
 20
48.3940
 30
0.0000
 11
18.4150
 21
47.3220
 31
0.0000
  0
LINE
  8
21
 10
18.4150
 20
46.3220
 30
0.0000
 11
18.4150
 21
45.2500
 31
0.0000
  0
LINE
  8
21
 10
18.4150
 20
44.2500
 30
0.0000
 11
18.4150
 21
43.1780
 31
0.0000
  0
LINE
  8
21
 10
18.4150
 20
42.1780
 30
0.0000
 11
18.4150
 21
41.1060
 31
0.0000
  0
LINE
  8
21
 10
18.4150
 20
40.1060
 30
0.0000
 11
18.4150
 21
39.0340
 31
0.0000
  0
LINE
  8
21
 10
18.4150
 20
38.0340
 30
0.0000
 11
18.4150
 21
36.9620
 31
0.0000
  0
LINE
  8
21
 10
18.4150
 20
35.9620
 30
0.0000
 11
18.4150
 21
34.8900
 31
0.0000
  0
LINE
  8
21
 10
18.4150
 20
33.8900
 30
0.0000
 11
18.4150
 21
32.8180
 31
0.0000
  0
LINE
  8
21
 10
18.4150
 20
31.8180
 30
0.0000
 11
18.4150
 21
30.7460
 31
0.0000
  0
LINE
  8
21
 10
18.4150
 20
29.7460
 30
0.0000
 11
18.4150
 21
28.6740
 31
0.0000
  0
LINE
  8
21
 10
18.4150
 20
27.6740
 30
0.0000
 11
18.4150
 21
26.6020
 31
0.0000
  0
LINE
  8
21
 10
18.4150
 20
25.6020
 30
0.0000
 11
18.4150
 21
24.5300
 31
0.0000
  0
LINE
  8
21
 10
18.4150
 20
23.5300
 30
0.0000
 11
18.4150
 21
22.4580
 31
0.0000
  0
LINE
  8
21
 10
18.4150
 20
21.4580
 30
0.0000
 11
18.4150
 21
20.3860
 31
0.0000
  0
LINE
  8
21
 10
18.4150
 20
19.3860
 30
0.0000
 11
18.4150
 21
18.3140
 31
0.0000
  0
LINE
  8
21
 10
18.4150
 20
17.3140
 30
0.0000
 11
18.4150
 21
16.2420
 31
0.0000
  0
LINE
  8
21
 10
18.4150
 20
15.2420
 30
0.0000
 11
18.4150
 21
14.1700
 31
0.0000
  0
LINE
  8
21
 10
18.4150
 20
13.1700
 30
0.0000
 11
18.4150
 21
12.0980
 31
0.0000
  0
LINE
  8
21
 10
18.4150
 20
11.0980
 30
0.0000
 11
18.4150
 21
10.0260
 31
0.0000
  0
LINE
  8
21
 10
18.4150
 20
9.0260
 30
0.0000
 11
18.4150
 21
7.9540
 31
0.0000
  0
LINE
  8
21
 10
18.4150
 20
6.9540
 30
0.0000
 11
18.4150
 21
5.8820
 31
0.0000
  0
LINE
  8
21
 10
18.4150
 20
4.8820
 30
0.0000
 11
18.4150
 21
3.8100
 31
0.0000
  0
LINE
  8
21
 10
18.4150
 20
3.8100
 30
0.0000
 11
19.1850
 21
3.8100
 31
0.0000
  0
LINE
  8
21
 10
20.1850
 20
3.8100
 30
0.0000
 11
20.9550
 21
3.8100
 31
0.0000
  0
LINE
  8
21
 10
9.6837
 20
7.2708
 30
0.0000
 11
13.4938
 21
7.2708
 31
0.0000
  0
LINE
  8
21
 10
13.4938
 20
15.9068
 30
0.0000
 11
9.6837
 21
15.9068
 31
0.0000
  0
LINE
  8
21
 10
9.6837
 20
14.9543
 30
0.0000
 11
9.6837
 21
14.5732
 31
0.0000
  0
LINE
  8
21
 10
9.6837
 20
13.6843
 30
0.0000
 11
9.6837
 21
13.3033
 31
0.0000
  0
LINE
  8
51
 10
9.6837
 20
14.9543
 30
0.0000
 11
9.6837
 21
15.8433
 31
0.0000
  0
LINE
  8
51
 10
9.6837
 20
14.5732
 30
0.0000
 11
9.6837
 21
13.6843
 31
0.0000
  0
LINE
  8
21
 10
9.6837
 20
12.4143
 30
0.0000
 11
9.6837
 21
12.0333
 31
0.0000
  0
LINE
  8
51
 10
9.6837
 20
13.3033
 30
0.0000
 11
9.6837
 21
12.4143
 31
0.0000
  0
LINE
  8
21
 10
9.6837
 20
11.1443
 30
0.0000
 11
9.6837
 21
10.7633
 31
0.0000
  0
LINE
  8
51
 10
9.6837
 20
12.0333
 30
0.0000
 11
9.6837
 21
11.1443
 31
0.0000
  0
LINE
  8
21
 10
9.6837
 20
9.8742
 30
0.0000
 11
9.6837
 21
9.4932
 31
0.0000
  0
LINE
  8
51
 10
9.6837
 20
10.7633
 30
0.0000
 11
9.6837
 21
9.8742
 31
0.0000
  0
LINE
  8
21
 10
9.6837
 20
8.6043
 30
0.0000
 11
9.6837
 21
8.2233
 31
0.0000
  0
LINE
  8
51
 10
9.6837
 20
9.4932
 30
0.0000
 11
9.6837
 21
8.6043
 31
0.0000
  0
LINE
  8
21
 10
9.6837
 20
7.3342
 30
0.0000
 11
9.6837
 21
7.2708
 31
0.0000
  0
LINE
  8
51
 10
9.6837
 20
8.2233
 30
0.0000
 11
9.6837
 21
7.3342
 31
0.0000
  0
LINE
  8
21
 10
9.6837
 20
15.9068
 30
0.0000
 11
9.6837
 21
15.8433
 31
0.0000
  0
LINE
  8
51
 10
13.4938
 20
14.9543
 30
0.0000
 11
13.4938
 21
15.8433
 31
0.0000
  0
LINE
  8
21
 10
13.4938
 20
14.9543
 30
0.0000
 11
13.4938
 21
14.5732
 31
0.0000
  0
LINE
  8
21
 10
13.4938
 20
13.6843
 30
0.0000
 11
13.4938
 21
13.3033
 31
0.0000
  0
LINE
  8
51
 10
13.4938
 20
14.5732
 30
0.0000
 11
13.4938
 21
13.6843
 31
0.0000
  0
LINE
  8
21
 10
13.4938
 20
12.4143
 30
0.0000
 11
13.4938
 21
12.0333
 31
0.0000
  0
LINE
  8
51
 10
13.4938
 20
13.3033
 30
0.0000
 11
13.4938
 21
12.4143
 31
0.0000
  0
LINE
  8
21
 10
13.4938
 20
11.1443
 30
0.0000
 11
13.4938
 21
10.7633
 31
0.0000
  0
LINE
  8
51
 10
13.4938
 20
12.0333
 30
0.0000
 11
13.4938
 21
11.1443
 31
0.0000
  0
LINE
  8
21
 10
13.4938
 20
9.8742
 30
0.0000
 11
13.4938
 21
9.4932
 31
0.0000
  0
LINE
  8
51
 10
13.4938
 20
10.7633
 30
0.0000
 11
13.4938
 21
9.8742
 31
0.0000
  0
LINE
  8
21
 10
13.4938
 20
8.6043
 30
0.0000
 11
13.4938
 21
8.2233
 31
0.0000
  0
LINE
  8
51
 10
13.4938
 20
9.4932
 30
0.0000
 11
13.4938
 21
8.6043
 31
0.0000
  0
LINE
  8
21
 10
13.4938
 20
7.3342
 30
0.0000
 11
13.4938
 21
7.2708
 31
0.0000
  0
LINE
  8
51
 10
13.4938
 20
8.2233
 30
0.0000
 11
13.4938
 21
7.3342
 31
0.0000
  0
LINE
  8
21
 10
13.4938
 20
15.9068
 30
0.0000
 11
13.4938
 21
15.8433
 31
0.0000
  0
CIRCLE
  8
21
 10
10.4330
 20
15.0940
 30
0.0000
 40
0.5334
  0
INSERT
  8
51
  2
RECT
 10
14.0653
 20
15.3988
 30
0.0000
 41
0.3556
 42
1.0160
 43
1.0000
 50
270.0000
  0
INSERT
  8
51
  2
RECT
 10
14.0653
 20
14.1288
 30
0.0000
 41
0.3556
 42
1.0160
 43
1.0000
 50
270.0000
  0
INSERT
  8
51
  2
RECT
 10
14.0653
 20
12.8588
 30
0.0000
 41
0.3556
 42
1.0160
 43
1.0000
 50
270.0000
  0
INSERT
  8
51
  2
RECT
 10
14.0653
 20
11.5888
 30
0.0000
 41
0.3556
 42
1.0160
 43
1.0000
 50
270.0000
  0
INSERT
  8
51
  2
RECT
 10
14.0653
 20
10.3187
 30
0.0000
 41
0.3556
 42
1.0160
 43
1.0000
 50
270.0000
  0
INSERT
  8
51
  2
RECT
 10
14.0653
 20
9.0488
 30
0.0000
 41
0.3556
 42
1.0160
 43
1.0000
 50
270.0000
  0
INSERT
  8
51
  2
RECT
 10
14.0653
 20
7.7788
 30
0.0000
 41
0.3556
 42
1.0160
 43
1.0000
 50
270.0000
  0
INSERT
  8
51
  2
RECT
 10
9.1123
 20
7.7788
 30
0.0000
 41
0.3556
 42
1.0160
 43
1.0000
 50
270.0000
  0
INSERT
  8
51
  2
RECT
 10
9.1123
 20
9.0488
 30
0.0000
 41
0.3556
 42
1.0160
 43
1.0000
 50
270.0000
  0
INSERT
  8
51
  2
RECT
 10
9.1123
 20
10.3187
 30
0.0000
 41
0.3556
 42
1.0160
 43
1.0000
 50
270.0000
  0
INSERT
  8
51
  2
RECT
 10
9.1123
 20
11.5888
 30
0.0000
 41
0.3556
 42
1.0160
 43
1.0000
 50
270.0000
  0
INSERT
  8
51
  2
RECT
 10
9.1123
 20
12.8588
 30
0.0000
 41
0.3556
 42
1.0160
 43
1.0000
 50
270.0000
  0
INSERT
  8
51
  2
RECT
 10
9.1123
 20
14.1288
 30
0.0000
 41
0.3556
 42
1.0160
 43
1.0000
 50
270.0000
  0
INSERT
  8
51
  2
RECT
 10
9.1123
 20
15.3988
 30
0.0000
 41
0.3556
 42
1.0160
 43
1.0000
 50
270.0000
  0
LINE
  8
21
 10
31.9088
 20
58.4200
 30
0.0000
 11
31.9088
 21
0.0000
 31
0.0000
  0
LINE
  8
21
 10
31.9088
 20
0.0000
 30
0.0000
 11
30.4800
 21
0.0000
 31
0.0000
  0
LINE
  8
21
 10
30.4800
 20
0.0000
 30
0.0000
 11
29.0513
 21
0.0000
 31
0.0000
  0
LINE
  8
21
 10
29.0513
 20
0.0000
 30
0.0000
 11
22.7012
 21
0.0000
 31
0.0000
  0
LINE
  8
21
 10
22.7012
 20
0.0000
 30
0.0000
 11
22.7012
 21
27.1462
 31
0.0000
  0
LINE
  8
21
 10
22.7012
 20
27.1462
 30
0.0000
 11
22.7012
 21
31.2738
 31
0.0000
  0
LINE
  8
21
 10
22.7012
 20
31.2738
 30
0.0000
 11
22.7012
 21
52.5463
 31
0.0000
  0
LINE
  8
21
 10
22.7012
 20
52.5463
 30
0.0000
 11
22.7012
 21
52.8638
 31
0.0000
  0
LINE
  8
21
 10
22.7012
 20
52.8638
 30
0.0000
 11
22.7012
 21
53.0225
 31
0.0000
  0
LINE
  8
21
 10
22.7012
 20
53.0225
 30
0.0000
 11
22.7012
 21
53.1813
 31
0.0000
  0
LINE
  8
21
 10
22.7012
 20
53.1813
 30
0.0000
 11
22.7012
 21
53.3400
 31
0.0000
  0
LINE
  8
21
 10
22.7012
 20
53.3400
 30
0.0000
 11
22.7012
 21
53.4988
 31
0.0000
  0
LINE
  8
21
 10
22.7012
 20
53.6575
 30
0.0000
 11
22.7012
 21
53.8163
 31
0.0000
  0
LINE
  8
21
 10
22.7012
 20
53.8163
 30
0.0000
 11
22.7012
 21
53.9750
 31
0.0000
  0
LINE
  8
21
 10
22.7012
 20
53.9750
 30
0.0000
 11
22.7012
 21
54.1338
 31
0.0000
  0
LINE
  8
21
 10
22.7012
 20
54.1338
 30
0.0000
 11
22.7012
 21
58.4200
 31
0.0000
  0
LINE
  8
21
 10
22.7012
 20
58.4200
 30
0.0000
 11
29.0513
 21
58.4200
 31
0.0000
  0
LINE
  8
21
 10
29.0513
 20
58.4200
 30
0.0000
 11
30.4800
 21
58.4200
 31
0.0000
  0
LINE
  8
21
 10
30.4800
 20
58.4200
 30
0.0000
 11
31.9088
 21
58.4200
 31
0.0000
  0
LINE
  8
21
 10
30.6388
 20
57.1500
 30
0.0000
 11
30.6388
 21
1.2700
 31
0.0000
  0
LINE
  8
21
 10
30.6388
 20
1.2700
 30
0.0000
 11
30.4800
 21
1.2700
 31
0.0000
  0
LINE
  8
21
 10
30.4800
 20
1.2700
 30
0.0000
 11
29.0513
 21
1.2700
 31
0.0000
  0
LINE
  8
21
 10
29.0513
 20
1.2700
 30
0.0000
 11
23.9712
 21
1.2700
 31
0.0000
  0
LINE
  8
21
 10
23.9712
 20
1.2700
 30
0.0000
 11
23.9712
 21
27.1462
 31
0.0000
  0
LINE
  8
21
 10
23.9712
 20
27.1462
 30
0.0000
 11
23.9712
 21
31.2738
 31
0.0000
  0
LINE
  8
21
 10
23.9712
 20
31.2738
 30
0.0000
 11
23.9712
 21
57.1500
 31
0.0000
  0
LINE
  8
21
 10
23.9712
 20
57.1500
 30
0.0000
 11
29.0513
 21
57.1500
 31
0.0000
  0
LINE
  8
21
 10
29.0513
 20
57.1500
 30
0.0000
 11
30.4800
 21
57.1500
 31
0.0000
  0
LINE
  8
21
 10
30.4800
 20
57.1500
 30
0.0000
 11
30.6388
 21
57.1500
 31
0.0000
  0
LINE
  8
21
 10
23.9712
 20
31.2738
 30
0.0000
 11
23.4950
 21
31.2738
 31
0.0000
  0
LINE
  8
21
 10
23.4950
 20
31.2738
 30
0.0000
 11
22.7012
 21
31.2738
 31
0.0000
  0
LINE
  8
21
 10
23.9712
 20
27.1462
 30
0.0000
 11
23.4950
 21
27.1462
 31
0.0000
  0
LINE
  8
21
 10
23.4950
 20
27.1462
 30
0.0000
 11
22.7012
 21
27.1462
 31
0.0000
  0
LINE
  8
21
 10
30.4800
 20
1.2700
 30
0.0000
 11
30.4800
 21
0.7937
 31
0.0000
  0
LINE
  8
21
 10
30.4800
 20
0.7937
 30
0.0000
 11
30.4800
 21
0.0000
 31
0.0000
  0
LINE
  8
21
 10
30.4800
 20
57.1500
 30
0.0000
 11
30.4800
 21
57.6263
 31
0.0000
  0
LINE
  8
21
 10
30.4800
 20
57.6263
 30
0.0000
 11
30.4800
 21
58.4200
 31
0.0000
  0
LINE
  8
21
 10
29.0513
 20
57.1500
 30
0.0000
 11
29.0513
 21
57.6263
 31
0.0000
  0
LINE
  8
21
 10
29.0513
 20
57.6263
 30
0.0000
 11
29.0513
 21
58.4200
 31
0.0000
  0
LINE
  8
21
 10
29.0513
 20
1.2700
 30
0.0000
 11
29.0513
 21
0.7937
 31
0.0000
  0
LINE
  8
21
 10
29.0513
 20
0.7937
 30
0.0000
 11
29.0513
 21
0.0000
 31
0.0000
  0
LINE
  8
21
 10
31.1150
 20
57.6263
 30
0.0000
 11
31.1150
 21
0.7937
 31
0.0000
  0
LINE
  8
21
 10
23.4950
 20
27.1462
 30
0.0000
 11
23.4950
 21
0.7937
 31
0.0000
  0
LINE
  8
21
 10
29.0513
 20
0.7937
 30
0.0000
 11
23.4950
 21
0.7937
 31
0.0000
  0
LINE
  8
21
 10
31.1150
 20
57.6263
 30
0.0000
 11
30.4800
 21
57.6263
 31
0.0000
  0
LINE
  8
21
 10
29.0513
 20
57.6263
 30
0.0000
 11
23.4950
 21
57.6263
 31
0.0000
  0
LINE
  8
21
 10
23.4950
 20
31.2738
 30
0.0000
 11
23.4950
 21
53.3400
 31
0.0000
  0
LINE
  8
21
 10
23.4950
 20
53.3400
 30
0.0000
 11
23.4950
 21
57.6263
 31
0.0000
  0
LINE
  8
21
 10
30.4800
 20
0.7937
 30
0.0000
 11
31.1150
 21
0.7937
 31
0.0000
  0
LINE
  8
21
 10
23.9712
 20
1.2700
 30
0.0000
 11
23.4950
 21
0.7937
 31
0.0000
  0
LINE
  8
21
 10
30.6388
 20
1.2700
 30
0.0000
 11
31.1150
 21
0.7937
 31
0.0000
  0
LINE
  8
21
 10
31.1150
 20
57.6263
 30
0.0000
 11
30.6388
 21
57.1500
 31
0.0000
  0
LINE
  8
21
 10
23.4950
 20
57.6263
 30
0.0000
 11
23.9712
 21
57.1500
 31
0.0000
  0
ARC
  8
21
 10
31.9088
 20
56.5150
 30
0.0000
 40
0.6350
 50
270.0000
 51
90.0000
  0
ARC
  8
21
 10
31.9088
 20
1.9050
 30
0.0000
 40
0.6350
 50
270.0000
 51
90.0000
  0
ARC
  8
21
 10
31.9088
 20
29.2894
 30
0.0000
 40
0.5556
 50
270.0000
 51
90.0000
  0
LINE
  8
21
 10
23.4950
 20
53.3400
 30
0.0000
 11
22.7012
 21
54.1338
 31
0.0000
  0
LINE
  8
21
 10
23.4950
 20
53.3400
 30
0.0000
 11
23.4949
 21
53.3400
 31
0.0000
  0
LINE
  8
21
 10
23.4949
 20
53.3400
 30
0.0000
 11
23.3362
 21
53.1813
 31
0.0000
  0
LINE
  8
21
 10
23.3362
 20
53.1813
 30
0.0000
 11
23.0187
 21
52.8638
 31
0.0000
  0
LINE
  8
21
 10
23.0187
 20
52.8638
 30
0.0000
 11
22.7012
 21
52.5463
 31
0.0000
  0
LINE
  8
21
 10
23.3362
 20
53.3400
 30
0.0000
 11
22.7012
 21
53.9750
 31
0.0000
  0
LINE
  8
21
 10
22.7012
 20
53.8163
 30
0.0000
 11
23.3362
 21
53.1813
 31
0.0000
  0
LINE
  8
21
 10
23.1775
 20
53.1813
 30
0.0000
 11
23.1774
 21
53.1813
 31
0.0000
  0
LINE
  8
21
 10
23.1774
 20
53.1813
 30
0.0000
 11
22.7012
 21
53.6575
 31
0.0000
  0
LINE
  8
21
 10
22.7012
 20
53.6575
 30
0.0000
 11
22.7012
 21
53.4988
 31
0.0000
  0
LINE
  8
21
 10
22.7012
 20
53.4988
 30
0.0000
 11
23.1775
 21
53.0225
 31
0.0000
  0
LINE
  8
21
 10
22.7012
 20
53.3400
 30
0.0000
 11
23.0187
 21
53.0225
 31
0.0000
  0
LINE
  8
21
 10
22.7012
 20
53.1813
 30
0.0000
 11
23.0187
 21
52.8638
 31
0.0000
  0
LINE
  8
21
 10
22.7012
 20
53.0225
 30
0.0000
 11
22.7013
 21
53.0225
 31
0.0000
  0
LINE
  8
21
 10
22.7013
 20
53.0225
 30
0.0000
 11
22.8600
 21
52.8638
 31
0.0000
  0
LINE
  8
21
 10
22.7012
 20
52.8638
 30
0.0000
 11
22.8600
 21
52.7050
 31
0.0000
  0
INSERT
  8
21
  2
RECT
 10
26.0350
 20
53.3400
 30
0.0000
 41
0.5080
 42
0.5080
 43
1.0000
 50
270.0000
  0
INSERT
  8
21
  2
RECT
 10
28.5750
 20
53.3400
 30
0.0000
 41
0.5080
 42
0.5080
 43
1.0000
 50
270.0000
  0
INSERT
  8
21
  2
RECT
 10
28.5750
 20
50.8000
 30
0.0000
 41
0.5080
 42
0.5080
 43
1.0000
 50
270.0000
  0
INSERT
  8
21
  2
RECT
 10
26.0350
 20
50.8000
 30
0.0000
 41
0.5080
 42
0.5080
 43
1.0000
 50
270.0000
  0
INSERT
  8
21
  2
RECT
 10
28.5750
 20
48.2600
 30
0.0000
 41
0.5080
 42
0.5080
 43
1.0000
 50
270.0000
  0
INSERT
  8
21
  2
RECT
 10
26.0350
 20
48.2600
 30
0.0000
 41
0.5080
 42
0.5080
 43
1.0000
 50
270.0000
  0
INSERT
  8
21
  2
RECT
 10
28.5750
 20
45.7200
 30
0.0000
 41
0.5080
 42
0.5080
 43
1.0000
 50
270.0000
  0
INSERT
  8
21
  2
RECT
 10
26.0350
 20
45.7200
 30
0.0000
 41
0.5080
 42
0.5080
 43
1.0000
 50
270.0000
  0
INSERT
  8
21
  2
RECT
 10
28.5750
 20
43.1800
 30
0.0000
 41
0.5080
 42
0.5080
 43
1.0000
 50
270.0000
  0
INSERT
  8
21
  2
RECT
 10
26.0350
 20
43.1800
 30
0.0000
 41
0.5080
 42
0.5080
 43
1.0000
 50
270.0000
  0
INSERT
  8
21
  2
RECT
 10
28.5750
 20
40.6400
 30
0.0000
 41
0.5080
 42
0.5080
 43
1.0000
 50
270.0000
  0
INSERT
  8
21
  2
RECT
 10
26.0350
 20
40.6400
 30
0.0000
 41
0.5080
 42
0.5080
 43
1.0000
 50
270.0000
  0
INSERT
  8
21
  2
RECT
 10
28.5750
 20
38.1000
 30
0.0000
 41
0.5080
 42
0.5080
 43
1.0000
 50
270.0000
  0
INSERT
  8
21
  2
RECT
 10
26.0350
 20
38.1000
 30
0.0000
 41
0.5080
 42
0.5080
 43
1.0000
 50
270.0000
  0
INSERT
  8
21
  2
RECT
 10
28.5750
 20
35.5600
 30
0.0000
 41
0.5080
 42
0.5080
 43
1.0000
 50
270.0000
  0
INSERT
  8
21
  2
RECT
 10
26.0350
 20
35.5600
 30
0.0000
 41
0.5080
 42
0.5080
 43
1.0000
 50
270.0000
  0
INSERT
  8
21
  2
RECT
 10
28.5750
 20
33.0200
 30
0.0000
 41
0.5080
 42
0.5080
 43
1.0000
 50
270.0000
  0
INSERT
  8
21
  2
RECT
 10
26.0350
 20
33.0200
 30
0.0000
 41
0.5080
 42
0.5080
 43
1.0000
 50
270.0000
  0
INSERT
  8
21
  2
RECT
 10
28.5750
 20
30.4800
 30
0.0000
 41
0.5080
 42
0.5080
 43
1.0000
 50
270.0000
  0
INSERT
  8
21
  2
RECT
 10
26.0350
 20
30.4800
 30
0.0000
 41
0.5080
 42
0.5080
 43
1.0000
 50
270.0000
  0
INSERT
  8
21
  2
RECT
 10
28.5750
 20
27.9400
 30
0.0000
 41
0.5080
 42
0.5080
 43
1.0000
 50
270.0000
  0
INSERT
  8
21
  2
RECT
 10
26.0350
 20
27.9400
 30
0.0000
 41
0.5080
 42
0.5080
 43
1.0000
 50
270.0000
  0
INSERT
  8
21
  2
RECT
 10
28.5750
 20
25.4000
 30
0.0000
 41
0.5080
 42
0.5080
 43
1.0000
 50
270.0000
  0
INSERT
  8
21
  2
RECT
 10
26.0350
 20
25.4000
 30
0.0000
 41
0.5080
 42
0.5080
 43
1.0000
 50
270.0000
  0
INSERT
  8
21
  2
RECT
 10
28.5750
 20
22.8600
 30
0.0000
 41
0.5080
 42
0.5080
 43
1.0000
 50
270.0000
  0
INSERT
  8
21
  2
RECT
 10
26.0350
 20
22.8600
 30
0.0000
 41
0.5080
 42
0.5080
 43
1.0000
 50
270.0000
  0
INSERT
  8
21
  2
RECT
 10
28.5750
 20
20.3200
 30
0.0000
 41
0.5080
 42
0.5080
 43
1.0000
 50
270.0000
  0
INSERT
  8
21
  2
RECT
 10
26.0350
 20
20.3200
 30
0.0000
 41
0.5080
 42
0.5080
 43
1.0000
 50
270.0000
  0
INSERT
  8
21
  2
RECT
 10
28.5750
 20
17.7800
 30
0.0000
 41
0.5080
 42
0.5080
 43
1.0000
 50
270.0000
  0
INSERT
  8
21
  2
RECT
 10
26.0350
 20
17.7800
 30
0.0000
 41
0.5080
 42
0.5080
 43
1.0000
 50
270.0000
  0
INSERT
  8
21
  2
RECT
 10
28.5750
 20
15.2400
 30
0.0000
 41
0.5080
 42
0.5080
 43
1.0000
 50
270.0000
  0
INSERT
  8
21
  2
RECT
 10
26.0350
 20
15.2400
 30
0.0000
 41
0.5080
 42
0.5080
 43
1.0000
 50
270.0000
  0
INSERT
  8
21
  2
RECT
 10
28.5750
 20
12.7000
 30
0.0000
 41
0.5080
 42
0.5080
 43
1.0000
 50
270.0000
  0
INSERT
  8
21
  2
RECT
 10
26.0350
 20
12.7000
 30
0.0000
 41
0.5080
 42
0.5080
 43
1.0000
 50
270.0000
  0
INSERT
  8
21
  2
RECT
 10
28.5750
 20
10.1600
 30
0.0000
 41
0.5080
 42
0.5080
 43
1.0000
 50
270.0000
  0
INSERT
  8
21
  2
RECT
 10
26.0350
 20
10.1600
 30
0.0000
 41
0.5080
 42
0.5080
 43
1.0000
 50
270.0000
  0
INSERT
  8
21
  2
RECT
 10
28.5750
 20
7.6200
 30
0.0000
 41
0.5080
 42
0.5080
 43
1.0000
 50
270.0000
  0
INSERT
  8
21
  2
RECT
 10
26.0350
 20
7.6200
 30
0.0000
 41
0.5080
 42
0.5080
 43
1.0000
 50
270.0000
  0
INSERT
  8
21
  2
RECT
 10
28.5750
 20
5.0800
 30
0.0000
 41
0.5080
 42
0.5080
 43
1.0000
 50
270.0000
  0
INSERT
  8
21
  2
RECT
 10
26.0350
 20
5.0800
 30
0.0000
 41
0.5080
 42
0.5080
 43
1.0000
 50
270.0000
  0
LINE
  8
51
 10
12.2873
 20
9.2075
 30
0.0000
 11
10.2553
 21
9.2075
 31
0.0000
  0
CIRCLE
  8
21
 10
11.2713
 20
9.2075
 30
0.0000
 40
1.0160
  0
LINE
  8
51
 10
12.2873
 20
13.4938
 30
0.0000
 11
10.2553
 21
13.4938
 31
0.0000
  0
CIRCLE
  8
21
 10
11.2713
 20
13.4938
 30
0.0000
 40
1.0160
  0
ARC
  8
21
 10
3.2063
 20
-1.1587
 30
0.0000
 40
1.7000
 50
28.0725
 51
151.9275
  0
ARC
  8
21
 10
3.2063
 20
-1.1587
 30
0.0000
 40
1.7000
 50
208.0725
 51
331.9275
  0
LINE
  8
51
 10
4.7062
 20
-0.3588
 30
0.0000
 11
4.7062
 21
-1.9587
 31
0.0000
  0
LINE
  8
21
 10
4.7938
 20
-0.0475
 30
0.0000
 11
4.7938
 21
0.5875
 31
0.0000
  0
LINE
  8
21
 10
1.5600
 20
-0.0475
 30
0.0000
 11
1.5600
 21
0.5875
 31
0.0000
  0
LINE
  8
21
 10
1.8775
 20
0.2700
 30
0.0000
 11
1.2425
 21
0.2700
 31
0.0000
  0
ARC
  8
21
 10
3.2063
 20
-1.1587
 30
0.0000
 40
1.7000
 50
28.0725
 51
151.9275
  0
ARC
  8
21
 10
3.2063
 20
-1.1587
 30
0.0000
 40
1.7000
 50
208.0725
 51
331.9275
  0
ARC
  8
51
 10
3.2063
 20
-1.1587
 30
0.0000
 40
1.7000
 50
151.9275
 51
208.0725
  0
LINE
  8
51
 10
1.8444
 20
-1.5207
 30
0.0000
 11
2.1576
 21
-0.5808
 31
0.0000
  0
LINE
  8
51
 10
2.1576
 20
-0.5808
 30
0.0000
 11
2.4709
 21
-1.5207
 31
0.0000
  0
LINE
  8
51
 10
2.3926
 20
-1.2857
 30
0.0000
 11
1.9227
 21
-1.2857
 31
0.0000
  0
LINE
  8
51
 10
4.2620
 20
-1.5207
 30
0.0000
 11
4.0532
 21
-1.5207
 31
0.0000
  0
ARC
  8
51
 10
4.0532
 20
-1.3118
 30
0.0000
 40
0.2088
 50
180.0000
 51
270.0000
  0
LINE
  8
51
 10
3.8444
 20
-1.3118
 30
0.0000
 11
3.8444
 21
-0.7897
 31
0.0000
  0
ARC
  8
51
 10
4.0532
 20
-0.7897
 30
0.0000
 40
0.2089
 50
90.0017
 51
180.0000
  0
LINE
  8
51
 10
4.0532
 20
-0.5808
 30
0.0000
 11
4.2620
 21
-0.5808
 31
0.0000
  0
CIRCLE
  8
51
 10
3.2063
 20
-1.1587
 30
0.0000
 40
1.5000
  0
LINE
  8
21
 10
8.9642
 20
1.5867
 30
0.0000
 11
5.4083
 21
1.5867
 31
0.0000
  0
LINE
  8
21
 10
5.4083
 20
3.4409
 30
0.0000
 11
8.9642
 21
3.4409
 31
0.0000
  0
LINE
  8
21
 10
5.4083
 20
1.5867
 30
0.0000
 11
5.4083
 21
3.4409
 31
0.0000
  0
LINE
  8
21
 10
8.9642
 20
1.5867
 30
0.0000
 11
8.9642
 21
3.4409
 31
0.0000
  0
LINE
  8
21
 10
10.1918
 20
16.3767
 30
0.0000
 11
6.6358
 21
16.3767
 31
0.0000
  0
LINE
  8
21
 10
6.6358
 20
18.2309
 30
0.0000
 11
10.1918
 21
18.2309
 31
0.0000
  0
LINE
  8
21
 10
6.6358
 20
16.3767
 30
0.0000
 11
6.6358
 21
18.2309
 31
0.0000
  0
LINE
  8
21
 10
10.1918
 20
16.3767
 30
0.0000
 11
10.1918
 21
18.2309
 31
0.0000
  0
LINE
  8
21
 10
10.8987
 20
2.7525
 30
0.0000
 11
10.8987
 21
-0.8475
 31
0.0000
  0
LINE
  8
21
 10
10.8987
 20
-0.8475
 30
0.0000
 11
12.0988
 21
-0.8475
 31
0.0000
  0
LINE
  8
21
 10
10.8987
 20
2.7525
 30
0.0000
 11
12.0988
 21
2.7525
 31
0.0000
  0
LINE
  8
21
 10
19.9988
 20
-0.8475
 30
0.0000
 11
19.9988
 21
2.7525
 31
0.0000
  0
LINE
  8
21
 10
19.9988
 20
2.7525
 30
0.0000
 11
18.6988
 21
2.7525
 31
0.0000
  0
LINE
  8
21
 10
19.9988
 20
-0.8475
 30
0.0000
 11
18.6988
 21
-0.8475
 31
0.0000
  0
LINE
  8
21
 10
13.6988
 20
2.7525
 30
0.0000
 11
14.5988
 21
2.7525
 31
0.0000
  0
LINE
  8
21
 10
16.1988
 20
2.7525
 30
0.0000
 11
17.0988
 21
2.7525
 31
0.0000
  0
LINE
  8
21
 10
13.6988
 20
-0.8475
 30
0.0000
 11
14.5988
 21
-0.8475
 31
0.0000
  0
LINE
  8
21
 10
16.1988
 20
-0.8475
 30
0.0000
 11
17.0988
 21
-0.8475
 31
0.0000
  0
LINE
  8
51
 10
12.0988
 20
2.7525
 30
0.0000
 11
13.6988
 21
2.7525
 31
0.0000
  0
LINE
  8
51
 10
14.5988
 20
2.7525
 30
0.0000
 11
16.1988
 21
2.7525
 31
0.0000
  0
LINE
  8
51
 10
17.0988
 20
2.7525
 30
0.0000
 11
18.6988
 21
2.7525
 31
0.0000
  0
LINE
  8
51
 10
12.0988
 20
-0.8475
 30
0.0000
 11
13.6988
 21
-0.8475
 31
0.0000
  0
LINE
  8
51
 10
14.5988
 20
-0.8475
 30
0.0000
 11
16.1988
 21
-0.8475
 31
0.0000
  0
LINE
  8
51
 10
17.0988
 20
-0.8475
 30
0.0000
 11
18.6988
 21
-0.8475
 31
0.0000
  0
LINE
  8
21
 10
13.6988
 20
1.6525
 30
0.0000
 11
13.6988
 21
0.2525
 31
0.0000
  0
LINE
  8
21
 10
13.6988
 20
0.2525
 30
0.0000
 11
17.0988
 21
0.2525
 31
0.0000
  0
LINE
  8
21
 10
17.0988
 20
0.2525
 30
0.0000
 11
17.0988
 21
1.6525
 31
0.0000
  0
LINE
  8
21
 10
17.0988
 20
1.6525
 30
0.0000
 11
13.6988
 21
1.6525
 31
0.0000
  0
INSERT
  8
21
  2
RECT
 10
16.3987
 20
0.9525
 30
0.0000
 41
1.4000
 42
1.4000
 43
1.0000
 50
0.0000
  0
LINE
  8
21
 10
1.3589
 20
66.9502
 30
0.0000
 11
1.3589
 21
68.2964
 31
0.0000
  0
LINE
  8
21
 10
1.3589
 20
68.2964
 30
0.0000
 11
1.7328
 21
68.2964
 31
0.0000
  0
ARC
  8
21
 10
1.7328
 20
68.0720
 30
0.0000
 40
0.2244
 50
0.0000
 51
90.0000
  0
LINE
  8
21
 10
1.9572
 20
68.0720
 30
0.0000
 11
1.9572
 21
67.6233
 31
0.0000
  0
ARC
  8
21
 10
1.7328
 20
67.6233
 30
0.0000
 40
0.2244
 50
270.0008
 51
0.0000
  0
LINE
  8
21
 10
1.7328
 20
67.3989
 30
0.0000
 11
1.3589
 21
67.3989
 31
0.0000
  0
LINE
  8
21
 10
2.5485
 20
68.7451
 30
0.0000
 11
2.5485
 21
67.6233
 31
0.0000
  0
ARC
  8
21
 10
2.7729
 20
67.6233
 30
0.0000
 40
0.2244
 50
180.0000
 51
270.0000
  0
LINE
  8
21
 10
3.8564
 20
67.9224
 30
0.0000
 11
3.5199
 21
67.9224
 31
0.0000
  0
ARC
  8
21
 10
3.5199
 20
67.6607
 30
0.0000
 40
0.2618
 50
90.0000
 51
270.0000
  0
LINE
  8
21
 10
3.5199
 20
67.3989
 30
0.0000
 11
3.8564
 21
67.3989
 31
0.0000
  0
LINE
  8
21
 10
3.8564
 20
67.3989
 30
0.0000
 11
3.8564
 21
68.0720
 31
0.0000
  0
ARC
  8
21
 10
3.6320
 20
68.0720
 30
0.0000
 40
0.2244
 50
0.0000
 51
90.0000
  0
LINE
  8
21
 10
3.6320
 20
68.2964
 30
0.0000
 11
3.3329
 21
68.2964
 31
0.0000
  0
LINE
  8
21
 10
5.0241
 20
67.3989
 30
0.0000
 11
4.7250
 21
67.3989
 31
0.0000
  0
ARC
  8
21
 10
4.7250
 20
67.6233
 30
0.0000
 40
0.2244
 50
180.0000
 51
270.0000
  0
LINE
  8
21
 10
4.5006
 20
67.6233
 30
0.0000
 11
4.5006
 21
68.0720
 31
0.0000
  0
ARC
  8
21
 10
4.7250
 20
68.0720
 30
0.0000
 40
0.2244
 50
89.9992
 51
180.0000
  0
LINE
  8
21
 10
4.7250
 20
68.2964
 30
0.0000
 11
5.0241
 21
68.2964
 31
0.0000
  0
LINE
  8
21
 10
6.1464
 20
67.3989
 30
0.0000
 11
5.7725
 21
67.3989
 31
0.0000
  0
ARC
  8
21
 10
5.7725
 20
67.6233
 30
0.0000
 40
0.2244
 50
180.0000
 51
270.0000
  0
LINE
  8
21
 10
5.5481
 20
67.6233
 30
0.0000
 11
5.5481
 21
67.9972
 31
0.0000
  0
ARC
  8
21
 10
5.8473
 20
67.9972
 30
0.0000
 40
0.2992
 50
0.0000
 51
180.0000
  0
LINE
  8
21
 10
6.1464
 20
67.9972
 30
0.0000
 11
6.1464
 21
67.8476
 31
0.0000
  0
LINE
  8
21
 10
6.1464
 20
67.8476
 30
0.0000
 11
5.5481
 21
67.8476
 31
0.0000
  0
LINE
  8
21
 10
6.8130
 20
67.3989
 30
0.0000
 11
6.8130
 21
68.2964
 31
0.0000
  0
LINE
  8
21
 10
6.8130
 20
68.2964
 30
0.0000
 11
7.4861
 21
68.2964
 31
0.0000
  0
ARC
  8
21
 10
7.4861
 20
68.0720
 30
0.0000
 40
0.2244
 50
0.0000
 51
90.0000
  0
LINE
  8
21
 10
7.7105
 20
68.0720
 30
0.0000
 11
7.7105
 21
67.3989
 31
0.0000
  0
LINE
  8
21
 10
7.2617
 20
67.3989
 30
0.0000
 11
7.2617
 21
68.2964
 31
0.0000
  0
LINE
  8
21
 10
8.9754
 20
67.3989
 30
0.0000
 11
8.6014
 21
67.3989
 31
0.0000
  0
ARC
  8
21
 10
8.6014
 20
67.6233
 30
0.0000
 40
0.2244
 50
180.0000
 51
270.0000
  0
LINE
  8
21
 10
8.3771
 20
67.6233
 30
0.0000
 11
8.3771
 21
67.9972
 31
0.0000
  0
ARC
  8
21
 10
8.6762
 20
67.9972
 30
0.0000
 40
0.2992
 50
0.0000
 51
180.0000
  0
LINE
  8
21
 10
8.9754
 20
67.9972
 30
0.0000
 11
8.9754
 21
67.8476
 31
0.0000
  0
LINE
  8
21
 10
8.9754
 20
67.8476
 30
0.0000
 11
8.3771
 21
67.8476
 31
0.0000
  0
LINE
  8
21
 10
9.6090
 20
67.3989
 30
0.0000
 11
9.6090
 21
68.2964
 31
0.0000
  0
LINE
  8
21
 10
9.6090
 20
68.2964
 30
0.0000
 11
9.9830
 21
68.2964
 31
0.0000
  0
ARC
  8
21
 10
9.9830
 20
68.0720
 30
0.0000
 40
0.2244
 50
0.0000
 51
90.0000
  0
LINE
  8
21
 10
10.2074
 20
68.0720
 30
0.0000
 11
10.2074
 21
67.3989
 31
0.0000
  0
LINE
  8
21
 10
10.7198
 20
68.2964
 30
0.0000
 11
11.1685
 21
68.2964
 31
0.0000
  0
LINE
  8
21
 10
10.8694
 20
68.7451
 30
0.0000
 11
10.8694
 21
67.6233
 31
0.0000
  0
ARC
  8
21
 10
11.0937
 20
67.6233
 30
0.0000
 40
0.2244
 50
180.0000
 51
270.0000
  0
LINE
  8
21
 10
11.0937
 20
67.3989
 30
0.0000
 11
11.1685
 21
67.3989
 31
0.0000
  0
LINE
  8
21
 10
12.9635
 20
67.3989
 30
0.0000
 11
12.6643
 21
67.3989
 31
0.0000
  0
ARC
  8
21
 10
12.6643
 20
67.6233
 30
0.0000
 40
0.2244
 50
180.0000
 51
270.0000
  0
LINE
  8
21
 10
12.4400
 20
67.6233
 30
0.0000
 11
12.4400
 21
68.0720
 31
0.0000
  0
ARC
  8
21
 10
12.6643
 20
68.0720
 30
0.0000
 40
0.2244
 50
89.9992
 51
180.0000
  0
LINE
  8
21
 10
12.6643
 20
68.2964
 30
0.0000
 11
12.9635
 21
68.2964
 31
0.0000
  0
LINE
  8
21
 10
13.4875
 20
67.6981
 30
0.0000
 11
13.4875
 21
67.9972
 31
0.0000
  0
ARC
  8
21
 10
13.7866
 20
67.9972
 30
0.0000
 40
0.2992
 50
0.0000
 51
180.0000
  0
LINE
  8
21
 10
14.0858
 20
67.9972
 30
0.0000
 11
14.0858
 21
67.6981
 31
0.0000
  0
ARC
  8
21
 10
13.7866
 20
67.6981
 30
0.0000
 40
0.2992
 50
180.0000
 51
0.0000
  0
LINE
  8
21
 10
14.7524
 20
67.3989
 30
0.0000
 11
14.7524
 21
68.2964
 31
0.0000
  0
LINE
  8
21
 10
14.7524
 20
68.2964
 30
0.0000
 11
15.4255
 21
68.2964
 31
0.0000
  0
ARC
  8
21
 10
15.4255
 20
68.0720
 30
0.0000
 40
0.2244
 50
0.0000
 51
90.0000
  0
LINE
  8
21
 10
15.6498
 20
68.0720
 30
0.0000
 11
15.6498
 21
67.3989
 31
0.0000
  0
LINE
  8
21
 10
15.2011
 20
67.3989
 30
0.0000
 11
15.2011
 21
68.2964
 31
0.0000
  0
LINE
  8
21
 10
16.3706
 20
66.9502
 30
0.0000
 11
16.3706
 21
68.2964
 31
0.0000
  0
LINE
  8
21
 10
16.3706
 20
68.2964
 30
0.0000
 11
16.7446
 21
68.2964
 31
0.0000
  0
ARC
  8
21
 10
16.7446
 20
68.0720
 30
0.0000
 40
0.2244
 50
0.0000
 51
90.0000
  0
LINE
  8
21
 10
16.9690
 20
68.0720
 30
0.0000
 11
16.9690
 21
67.6233
 31
0.0000
  0
ARC
  8
21
 10
16.7446
 20
67.6233
 30
0.0000
 40
0.2244
 50
270.0008
 51
0.0000
  0
LINE
  8
21
 10
16.7446
 20
67.3989
 30
0.0000
 11
16.3706
 21
67.3989
 31
0.0000
  0
LINE
  8
21
 10
17.5484
 20
67.6981
 30
0.0000
 11
17.5484
 21
67.9972
 31
0.0000
  0
ARC
  8
21
 10
17.8475
 20
67.9972
 30
0.0000
 40
0.2992
 50
0.0000
 51
180.0000
  0
LINE
  8
21
 10
18.1467
 20
67.9972
 30
0.0000
 11
18.1467
 21
67.6981
 31
0.0000
  0
ARC
  8
21
 10
17.8475
 20
67.6981
 30
0.0000
 40
0.2992
 50
180.0000
 51
0.0000
  0
LINE
  8
21
 10
18.7804
 20
67.3989
 30
0.0000
 11
18.7804
 21
68.2964
 31
0.0000
  0
LINE
  8
21
 10
18.7804
 20
68.2964
 30
0.0000
 11
19.1543
 21
68.2964
 31
0.0000
  0
ARC
  8
21
 10
19.1543
 20
68.0720
 30
0.0000
 40
0.2244
 50
0.0000
 51
90.0000
  0
LINE
  8
21
 10
19.3787
 20
68.0720
 30
0.0000
 11
19.3787
 21
67.3989
 31
0.0000
  0
LINE
  8
21
 10
20.6106
 20
67.3989
 30
0.0000
 11
20.2367
 21
67.3989
 31
0.0000
  0
ARC
  8
21
 10
20.2367
 20
67.6233
 30
0.0000
 40
0.2244
 50
180.0000
 51
270.0000
  0
LINE
  8
21
 10
20.0123
 20
67.6233
 30
0.0000
 11
20.0123
 21
67.9972
 31
0.0000
  0
ARC
  8
21
 10
20.3115
 20
67.9972
 30
0.0000
 40
0.2992
 50
0.0000
 51
180.0000
  0
LINE
  8
21
 10
20.6106
 20
67.9972
 30
0.0000
 11
20.6106
 21
67.8476
 31
0.0000
  0
LINE
  8
21
 10
20.6106
 20
67.8476
 30
0.0000
 11
20.0123
 21
67.8476
 31
0.0000
  0
LINE
  8
21
 10
21.2443
 20
67.3989
 30
0.0000
 11
21.2443
 21
68.2964
 31
0.0000
  0
LINE
  8
21
 10
21.2443
 20
68.2964
 30
0.0000
 11
21.6182
 21
68.2964
 31
0.0000
  0
ARC
  8
21
 10
21.6182
 20
68.0720
 30
0.0000
 40
0.2244
 50
0.0000
 51
90.0000
  0
LINE
  8
21
 10
21.8426
 20
68.0720
 30
0.0000
 11
21.8426
 21
67.3989
 31
0.0000
  0
LINE
  8
21
 10
22.3550
 20
68.2964
 30
0.0000
 11
22.8038
 21
68.2964
 31
0.0000
  0
LINE
  8
21
 10
22.5046
 20
68.7451
 30
0.0000
 11
22.5046
 21
67.6233
 31
0.0000
  0
ARC
  8
21
 10
22.7290
 20
67.6233
 30
0.0000
 40
0.2244
 50
180.0000
 51
270.0000
  0
LINE
  8
21
 10
22.7290
 20
67.3989
 30
0.0000
 11
22.8038
 21
67.3989
 31
0.0000
  0
LINE
  8
21
 10
24.5594
 20
67.7728
 30
0.0000
 11
24.1854
 21
67.9224
 31
0.0000
  0
ARC
  8
21
 10
24.2574
 20
68.1025
 30
0.0000
 40
0.1939
 50
89.1810
 51
248.1986
  0
ARC
  8
21
 10
24.2481
 20
67.4471
 30
0.0000
 40
0.8493
 50
65.7609
 51
89.1810
  0
ARC
  8
21
 10
24.4874
 20
67.5928
 30
0.0000
 40
0.1939
 50
269.1810
 51
68.1986
  0
ARC
  8
21
 10
24.5027
 20
68.6672
 30
0.0000
 40
1.2684
 50
250.2096
 51
269.1810
  0
LINE
  8
21
 10
25.2393
 20
67.3989
 30
0.0000
 11
25.2393
 21
68.2964
 31
0.0000
  0
LINE
  8
21
 10
25.2019
 20
68.6703
 30
0.0000
 11
25.2019
 21
68.7451
 31
0.0000
  0
LINE
  8
21
 10
25.2019
 20
68.7451
 30
0.0000
 11
25.2767
 21
68.7451
 31
0.0000
  0
LINE
  8
21
 10
25.2767
 20
68.7451
 30
0.0000
 11
25.2767
 21
68.6703
 31
0.0000
  0
LINE
  8
21
 10
25.2767
 20
68.6703
 30
0.0000
 11
25.2019
 21
68.6703
 31
0.0000
  0
LINE
  8
21
 10
26.3968
 20
68.7451
 30
0.0000
 11
26.3968
 21
67.3989
 31
0.0000
  0
LINE
  8
21
 10
26.3968
 20
67.3989
 30
0.0000
 11
26.0229
 21
67.3989
 31
0.0000
  0
ARC
  8
21
 10
26.0229
 20
67.6233
 30
0.0000
 40
0.2244
 50
180.0000
 51
270.0000
  0
LINE
  8
21
 10
25.7985
 20
67.6233
 30
0.0000
 11
25.7985
 21
68.0720
 31
0.0000
  0
ARC
  8
21
 10
26.0229
 20
68.0720
 30
0.0000
 40
0.2244
 50
89.9992
 51
180.0000
  0
LINE
  8
21
 10
26.0229
 20
68.2964
 30
0.0000
 11
26.3968
 21
68.2964
 31
0.0000
  0
LINE
  8
21
 10
27.6374
 20
67.3989
 30
0.0000
 11
27.2635
 21
67.3989
 31
0.0000
  0
ARC
  8
21
 10
27.2635
 20
67.6233
 30
0.0000
 40
0.2244
 50
180.0000
 51
270.0000
  0
LINE
  8
21
 10
27.0391
 20
67.6233
 30
0.0000
 11
27.0391
 21
67.9972
 31
0.0000
  0
ARC
  8
21
 10
27.3382
 20
67.9972
 30
0.0000
 40
0.2992
 50
0.0000
 51
180.0000
  0
LINE
  8
21
 10
27.6374
 20
67.9972
 30
0.0000
 11
27.6374
 21
67.8476
 31
0.0000
  0
LINE
  8
21
 10
27.6374
 20
67.8476
 30
0.0000
 11
27.0391
 21
67.8476
 31
0.0000
  0
ENDSEC
  0
EOF
