  0
SECTION
  2
HEADER
  9
$ACADVER
  1
AC1009
  9
$FILLMODE
 70
0
  9
$EXTMIN
 10
-4.5835
 20
-6.0345
 30
0.0000
  9
$EXTMAX
 10
54.6862
 20
75.9512
 30
0.0000
  0
ENDSEC
  0
SECTION
  2
TABLES
  0
TABLE
  2
LTYPE
 70
1
  0
LTYPE
  2
CONTINUOUS
 70
64
  3
Solid line
 72
65
 73
0
 40
0
  0
ENDTAB
  0
TABLE
  2
LAYER
 70
255
  0
LAYER
  2
19
 70
64
 62
53
  6
CONTINUOUS
  0
LAYER
  2
20
 70
64
 62
30
  6
CONTINUOUS
  0
LAYER
  2
21
 70
64
 62
253
  6
CONTINUOUS
  0
LAYER
  2
39
 70
64
 62
22
  6
CONTINUOUS
  0
LAYER
  2
40
 70
64
 62
175
  6
CONTINUOUS
  0
LAYER
  2
43
 70
64
 62
82
  6
CONTINUOUS
  0
LAYER
  2
48
 70
64
 62
213
  6
CONTINUOUS
  0
LAYER
  2
49
 70
64
 62
253
  6
CONTINUOUS
  0
LAYER
  2
51
 70
64
 62
253
  6
CONTINUOUS
  0
LAYER
  2
105
 70
64
 62
5
  6
CONTINUOUS
  0
LAYER
  2
114
 70
64
 62
253
  6
CONTINUOUS
  0
LAYER
  2
115
 70
64
 62
253
  6
CONTINUOUS
  0
LAYER
  2
211
 70
64
 62
253
  6
CONTINUOUS
  0
LAYER
  2
212
 70
64
 62
253
  6
CONTINUOUS
  0
LAYER
  2
213
 70
64
 62
253
  6
CONTINUOUS
  0
LAYER
  2
214
 70
64
 62
253
  6
CONTINUOUS
  0
LAYER
  2
216
 70
64
 62
253
  6
CONTINUOUS
  0
LAYER
  2
217
 70
64
 62
253
  6
CONTINUOUS
  0
LAYER
  2
218
 70
64
 62
253
  6
CONTINUOUS
  0
LAYER
  2
219
 70
64
 62
253
  6
CONTINUOUS
  0
LAYER
  2
220
 70
64
 62
253
  6
CONTINUOUS
  0
LAYER
  2
221
 70
64
 62
253
  6
CONTINUOUS
  0
LAYER
  2
222
 70
64
 62
253
  6
CONTINUOUS
  0
LAYER
  2
223
 70
64
 62
253
  6
CONTINUOUS
  0
LAYER
  2
224
 70
64
 62
253
  6
CONTINUOUS
  0
LAYER
  2
225
 70
64
 62
253
  6
CONTINUOUS
  0
LAYER
  2
226
 70
64
 62
253
  6
CONTINUOUS
  0
LAYER
  2
227
 70
64
 62
253
  6
CONTINUOUS
  0
ENDTAB
  0
ENDSEC
  0
SECTION
  2
BLOCKS
  0
BLOCK
  8
0
  2
RECT
 70
64
 10
0.0000
 20
0.0000
 30
0.0000
  3
RECT
  0
SOLID
  8
0
 10
-0.5000
 20
-0.5000
 30
0.0000
 11
0.5000
 21
-0.5000
 31
0.0000
 12
-0.5000
 22
0.5000
 32
0.0000
 13
0.5000
 23
0.5000
 33
0.0000
  0
ENDBLK
  8
0
  0
BLOCK
  8
0
  2
PIE
 70
64
 10
0.0000
 20
0.0000
 30
0.0000
  3
PIE
  0
CIRCLE
  8
0
 10
0.0000
 20
0.0000
 30
0.0000
 40
0.5000
  0
ENDBLK
  8
0
  0
BLOCK
  8
0
  2
OCTAGONP
 70
64
 10
0.0000
 20
0.0000
 30
0.0000
  3
OCTAGONP
  0
POLYLINE
  8
0
 66
1
 10
0.0000
 20
0.0000
 30
0.0000
 40
0.0000
 41
0.0000
 70
1
  0
VERTEX
  8
0
 10
-0.5000
 20
-0.2071
 30
0.0000
  0
VERTEX
  8
0
 10
-0.5000
 20
0.2071
 30
0.0000
  0
VERTEX
  8
0
 10
-0.2071
 20
0.5000
 30
0.0000
  0
VERTEX
  8
0
 10
0.2071
 20
0.5000
 30
0.0000
  0
VERTEX
  8
0
 10
0.5000
 20
0.2071
 30
0.0000
  0
VERTEX
  8
0
 10
0.5000
 20
-0.2071
 30
0.0000
  0
VERTEX
  8
0
 10
0.2071
 20
-0.5000
 30
0.0000
  0
VERTEX
  8
0
 10
-0.2071
 20
-0.5000
 30
0.0000
  0
SEQEND
  8
0
  0
ENDBLK
  8
0
  0
BLOCK
  8
0
  2
SQUAREP
 70
64
 10
0.0000
 20
0.0000
 30
0.0000
  3
SQUAREP
  0
SOLID
  8
0
 10
-0.5000
 20
-0.5000
 30
0.0000
 11
0.5000
 21
-0.5000
 31
0.0000
 12
-0.5000
 22
0.5000
 32
0.0000
 13
0.5000
 23
0.5000
 33
0.0000
  0
ENDBLK
  8
0
  0
BLOCK
  8
0
  2
ROUNDP
 70
64
 10
0.0000
 20
0.0000
 30
0.0000
  3
ROUNDP
  0
CIRCLE
  8
0
 10
0.0000
 20
0.0000
 30
0.0000
 40
0.5000
  0
ENDBLK
  8
0
  0
BLOCK
  8
0
  2
ANNULUSP
 70
64
 10
0.0000
 20
0.0000
 30
0.0000
  3
ANNULUSP
  0
CIRCLE
  8
0
 10
0.0000
 20
0.0000
 30
0.0000
 40
0.5000
  0
ENDBLK
  8
0
  0
BLOCK
  8
0
  2
THERMALP
 70
64
 10
0.0000
 20
0.0000
 30
0.0000
  3
THERMALP
  0
LINE
  8
0
 10
-0.2379
 20
0.4500
 30
0.0000
 11
0.2379
 21
0.4500
 31
0.0000
  0
LINE
  8
0
 10
0.4500
 20
0.2379
 30
0.0000
 11
0.4500
 21
-0.2379
 31
0.0000
  0
LINE
  8
0
 10
0.2379
 20
-0.4500
 30
0.0000
 11
-0.2379
 21
-0.4500
 31
0.0000
  0
LINE
  8
0
 10
-0.4500
 20
-0.2379
 30
0.0000
 11
-0.4500
 21
0.2379
 31
0.0000
  0
ENDBLK
  8
0
  0
BLOCK
  8
0
  2
OCTAGONV
 70
64
 10
0.0000
 20
0.0000
 30
0.0000
  3
OCTAGONV
  0
POLYLINE
  8
0
 66
1
 10
0.0000
 20
0.0000
 30
0.0000
 40
0.0000
 41
0.0000
 70
1
  0
VERTEX
  8
0
 10
-0.5000
 20
-0.2071
 30
0.0000
  0
VERTEX
  8
0
 10
-0.5000
 20
0.2071
 30
0.0000
  0
VERTEX
  8
0
 10
-0.2071
 20
0.5000
 30
0.0000
  0
VERTEX
  8
0
 10
0.2071
 20
0.5000
 30
0.0000
  0
VERTEX
  8
0
 10
0.5000
 20
0.2071
 30
0.0000
  0
VERTEX
  8
0
 10
0.5000
 20
-0.2071
 30
0.0000
  0
VERTEX
  8
0
 10
0.2071
 20
-0.5000
 30
0.0000
  0
VERTEX
  8
0
 10
-0.2071
 20
-0.5000
 30
0.0000
  0
SEQEND
  8
0
  0
ENDBLK
  8
0
  0
BLOCK
  8
0
  2
SQUAREV
 70
64
 10
0.0000
 20
0.0000
 30
0.0000
  3
SQUAREV
  0
SOLID
  8
0
 10
-0.5000
 20
-0.5000
 30
0.0000
 11
0.5000
 21
-0.5000
 31
0.0000
 12
-0.5000
 22
0.5000
 32
0.0000
 13
0.5000
 23
0.5000
 33
0.0000
  0
ENDBLK
  8
0
  0
BLOCK
  8
0
  2
ROUNDV
 70
64
 10
0.0000
 20
0.0000
 30
0.0000
  3
ROUNDV
  0
CIRCLE
  8
0
 10
0.0000
 20
0.0000
 30
0.0000
 40
0.5000
  0
ENDBLK
  8
0
  0
BLOCK
  8
0
  2
ANNULUSV
 70
64
 10
0.0000
 20
0.0000
 30
0.0000
  3
ANNULUSV
  0
CIRCLE
  8
0
 10
0.0000
 20
0.0000
 30
0.0000
 40
0.5000
  0
ENDBLK
  8
0
  0
BLOCK
  8
0
  2
THERMALV
 70
64
 10
0.0000
 20
0.0000
 30
0.0000
  3
THERMALV
  0
LINE
  8
0
 10
-0.2379
 20
0.4500
 30
0.0000
 11
0.2379
 21
0.4500
 31
0.0000
  0
LINE
  8
0
 10
0.4500
 20
0.2379
 30
0.0000
 11
0.4500
 21
-0.2379
 31
0.0000
  0
LINE
  8
0
 10
0.2379
 20
-0.4500
 30
0.0000
 11
-0.2379
 21
-0.4500
 31
0.0000
  0
LINE
  8
0
 10
-0.4500
 20
-0.2379
 30
0.0000
 11
-0.4500
 21
0.2379
 31
0.0000
  0
ENDBLK
  8
0
  0
ENDSEC
  0
SECTION
  2
ENTITIES
  0
LINE
  8
20
 10
0.0000
 20
0.0000
 30
0.0000
 11
14.0000
 21
0.0000
 31
0.0000
  0
LINE
  8
20
 10
0.0000
 20
53.0000
 30
0.0000
 11
0.0000
 21
0.0000
 31
0.0000
  0
LINE
  8
20
 10
14.0000
 20
0.0000
 30
0.0000
 11
14.0000
 21
53.0000
 31
0.0000
  0
LINE
  8
20
 10
14.0000
 20
53.0000
 30
0.0000
 11
0.0000
 21
53.0000
 31
0.0000
  0
LINE
  8
21
 10
6.1913
 20
5.0800
 30
0.0000
 11
7.9375
 21
5.0800
 31
0.0000
  0
LINE
  8
21
 10
6.8262
 20
5.7150
 30
0.0000
 11
6.1913
 21
5.0800
 31
0.0000
  0
LINE
  8
21
 10
6.1913
 20
5.0800
 30
0.0000
 11
6.8262
 21
4.4450
 31
0.0000
  0
LINE
  8
21
 10
12.1808
 20
46.7754
 30
0.0000
 11
13.3492
 21
46.7754
 31
0.0000
  0
LINE
  8
21
 10
13.3492
 20
46.7754
 30
0.0000
 11
13.3492
 21
46.4509
 31
0.0000
  0
ARC
  8
21
 10
13.0246
 20
46.4509
 30
0.0000
 40
0.3246
 50
180.0000
 51
0.0000
  0
LINE
  8
21
 10
12.7001
 20
46.4509
 30
0.0000
 11
12.7001
 21
46.7754
 31
0.0000
  0
LINE
  8
21
 10
12.1808
 20
45.1278
 30
0.0000
 11
12.1808
 21
45.6471
 31
0.0000
  0
LINE
  8
21
 10
12.1808
 20
45.6471
 30
0.0000
 11
13.3492
 21
45.6471
 31
0.0000
  0
LINE
  8
21
 10
13.3492
 20
45.6471
 30
0.0000
 11
13.3492
 21
45.1278
 31
0.0000
  0
LINE
  8
21
 10
12.8299
 20
45.6471
 30
0.0000
 11
12.8299
 21
45.2577
 31
0.0000
  0
LINE
  8
21
 10
12.1808
 20
44.4485
 30
0.0000
 11
13.3492
 21
44.4485
 31
0.0000
  0
LINE
  8
21
 10
13.3492
 20
44.7731
 30
0.0000
 11
13.3492
 21
44.1240
 31
0.0000
  0
LINE
  8
21
 10
12.1808
 20
43.0586
 30
0.0000
 11
13.3492
 21
43.0586
 31
0.0000
  0
LINE
  8
21
 10
13.3492
 20
43.0586
 30
0.0000
 11
13.3492
 21
42.7340
 31
0.0000
  0
ARC
  8
21
 10
13.0246
 20
42.7340
 30
0.0000
 40
0.3246
 50
270.0000
 51
0.0000
  0
LINE
  8
21
 10
13.0246
 20
42.4095
 30
0.0000
 11
12.5054
 21
42.4095
 31
0.0000
  0
ARC
  8
21
 10
12.5054
 20
42.7340
 30
0.0000
 40
0.3246
 50
180.0000
 51
270.0000
  0
LINE
  8
21
 10
12.1808
 20
42.7340
 30
0.0000
 11
12.1808
 21
43.0586
 31
0.0000
  0
LINE
  8
21
 10
12.1808
 20
41.8958
 30
0.0000
 11
12.9597
 21
41.8958
 31
0.0000
  0
LINE
  8
21
 10
13.2843
 20
41.9283
 30
0.0000
 11
13.3492
 21
41.9283
 31
0.0000
  0
LINE
  8
21
 10
13.3492
 20
41.9283
 30
0.0000
 11
13.3492
 21
41.8634
 31
0.0000
  0
LINE
  8
21
 10
13.3492
 20
41.8634
 30
0.0000
 11
13.2843
 21
41.8634
 31
0.0000
  0
LINE
  8
21
 10
13.2843
 20
41.8634
 30
0.0000
 11
13.2843
 21
41.9283
 31
0.0000
  0
LINE
  8
21
 10
12.6352
 20
40.9182
 30
0.0000
 11
12.6352
 21
41.2103
 31
0.0000
  0
ARC
  8
21
 10
12.4080
 20
41.2103
 30
0.0000
 40
0.2272
 50
0.0000
 51
180.0000
  0
LINE
  8
21
 10
12.1808
 20
41.2103
 30
0.0000
 11
12.1808
 21
40.9182
 31
0.0000
  0
LINE
  8
21
 10
12.1808
 20
40.9182
 30
0.0000
 11
12.7650
 21
40.9182
 31
0.0000
  0
ARC
  8
21
 10
12.7650
 20
41.1129
 30
0.0000
 40
0.1947
 50
270.0000
 51
0.0009
  0
LINE
  8
21
 10
12.9597
 20
41.1129
 30
0.0000
 11
12.9597
 21
41.3726
 31
0.0000
  0
LINE
  8
21
 10
12.1808
 20
39.8895
 30
0.0000
 11
12.1808
 21
40.2140
 31
0.0000
  0
ARC
  8
21
 10
12.3755
 20
40.2140
 30
0.0000
 40
0.1947
 50
90.0000
 51
180.0000
  0
LINE
  8
21
 10
12.3755
 20
40.4088
 30
0.0000
 11
12.7650
 21
40.4088
 31
0.0000
  0
ARC
  8
21
 10
12.7650
 20
40.2140
 30
0.0000
 40
0.1947
 50
0.0000
 51
90.0000
  0
LINE
  8
21
 10
12.9597
 20
40.2140
 30
0.0000
 11
12.9597
 21
39.8895
 31
0.0000
  0
LINE
  8
21
 10
12.9597
 20
39.8895
 30
0.0000
 11
11.9861
 21
39.8895
 31
0.0000
  0
ARC
  8
21
 10
11.9861
 20
40.0842
 30
0.0000
 40
0.1947
 50
180.0000
 51
270.0000
  0
LINE
  8
21
 10
11.7913
 20
40.0842
 30
0.0000
 11
11.7913
 21
40.3439
 31
0.0000
  0
LINE
  8
21
 10
12.1808
 20
39.3361
 30
0.0000
 11
12.9597
 21
39.3361
 31
0.0000
  0
LINE
  8
21
 10
12.9597
 20
39.3361
 30
0.0000
 11
12.9597
 21
39.0115
 31
0.0000
  0
ARC
  8
21
 10
12.7650
 20
39.0115
 30
0.0000
 40
0.1947
 50
270.0018
 51
360.0000
  0
LINE
  8
21
 10
12.7650
 20
38.8168
 30
0.0000
 11
12.1808
 21
38.8168
 31
0.0000
  0
LINE
  8
21
 10
12.4404
 20
38.3074
 30
0.0000
 11
12.7001
 21
38.3074
 31
0.0000
  0
ARC
  8
21
 10
12.7001
 20
38.0477
 30
0.0000
 40
0.2596
 50
270.0000
 51
90.0000
  0
LINE
  8
21
 10
12.7001
 20
37.7881
 30
0.0000
 11
12.4404
 21
37.7881
 31
0.0000
  0
ARC
  8
21
 10
12.4404
 20
38.0477
 30
0.0000
 40
0.2596
 50
90.0000
 51
270.0000
  0
LINE
  8
21
 10
12.5054
 20
36.8949
 30
0.0000
 11
12.6352
 21
37.2194
 31
0.0000
  0
ARC
  8
21
 10
12.7914
 20
37.1569
 30
0.0000
 40
0.1683
 50
359.1818
 51
158.1989
  0
ARC
  8
21
 10
12.2227
 20
37.1650
 30
0.0000
 40
0.7371
 50
335.7612
 51
359.1819
  0
ARC
  8
21
 10
12.3491
 20
36.9574
 30
0.0000
 40
0.1683
 50
179.1818
 51
338.1989
  0
ARC
  8
21
 10
13.2815
 20
36.9441
 30
0.0000
 40
1.1008
 50
160.2090
 51
179.1819
  0
LINE
  8
21
 10
12.9597
 20
36.4229
 30
0.0000
 11
12.9597
 21
36.0335
 31
0.0000
  0
LINE
  8
21
 10
13.3492
 20
36.2931
 30
0.0000
 11
12.3755
 21
36.2931
 31
0.0000
  0
ARC
  8
21
 10
12.3755
 20
36.0984
 30
0.0000
 40
0.1947
 50
90.0000
 51
180.0000
  0
LINE
  8
21
 10
12.1808
 20
36.0984
 30
0.0000
 11
12.1808
 21
36.0335
 31
0.0000
  0
LINE
  8
21
 10
12.1808
 20
35.6094
 30
0.0000
 11
12.9597
 21
35.6094
 31
0.0000
  0
LINE
  8
21
 10
13.2843
 20
35.6418
 30
0.0000
 11
13.3492
 21
35.6418
 31
0.0000
  0
LINE
  8
21
 10
13.3492
 20
35.6418
 30
0.0000
 11
13.3492
 21
35.5769
 31
0.0000
  0
LINE
  8
21
 10
13.3492
 20
35.5769
 30
0.0000
 11
13.2843
 21
35.5769
 31
0.0000
  0
LINE
  8
21
 10
13.2843
 20
35.5769
 30
0.0000
 11
13.2843
 21
35.6418
 31
0.0000
  0
LINE
  8
21
 10
12.1808
 20
34.6894
 30
0.0000
 11
12.1808
 21
34.9490
 31
0.0000
  0
ARC
  8
21
 10
12.3755
 20
34.9490
 30
0.0000
 40
0.1947
 50
90.0000
 51
180.0000
  0
LINE
  8
21
 10
12.3755
 20
35.1438
 30
0.0000
 11
12.7650
 21
35.1438
 31
0.0000
  0
ARC
  8
21
 10
12.7650
 20
34.9490
 30
0.0000
 40
0.1947
 50
0.0000
 51
90.0000
  0
LINE
  8
21
 10
12.9597
 20
34.9490
 30
0.0000
 11
12.9597
 21
34.6894
 31
0.0000
  0
LINE
  8
21
 10
10.2758
 20
46.7754
 30
0.0000
 11
11.4442
 21
46.7754
 31
0.0000
  0
LINE
  8
21
 10
11.4442
 20
46.1263
 30
0.0000
 11
10.7302
 21
46.7754
 31
0.0000
  0
LINE
  8
21
 10
10.2758
 20
46.1263
 30
0.0000
 11
10.9898
 21
46.5158
 31
0.0000
  0
LINE
  8
21
 10
10.2758
 20
45.1795
 30
0.0000
 11
10.2758
 21
45.5040
 31
0.0000
  0
ARC
  8
21
 10
10.4705
 20
45.5040
 30
0.0000
 40
0.1947
 50
90.0000
 51
180.0000
  0
LINE
  8
21
 10
10.4705
 20
45.6988
 30
0.0000
 11
10.7951
 21
45.6988
 31
0.0000
  0
ARC
  8
21
 10
10.7951
 20
45.4391
 30
0.0000
 40
0.2596
 50
270.0000
 51
90.0000
  0
LINE
  8
21
 10
10.7951
 20
45.1795
 30
0.0000
 11
10.6653
 21
45.1795
 31
0.0000
  0
LINE
  8
21
 10
10.6653
 20
45.1795
 30
0.0000
 11
10.6653
 21
45.6988
 31
0.0000
  0
LINE
  8
21
 10
9.8863
 20
44.7463
 30
0.0000
 11
9.8863
 21
44.6165
 31
0.0000
  0
LINE
  8
21
 10
9.8863
 20
44.6165
 30
0.0000
 11
11.0547
 21
44.2270
 31
0.0000
  0
LINE
  8
21
 10
11.0547
 20
44.7463
 30
0.0000
 11
10.2758
 21
44.4866
 31
0.0000
  0
LINE
  8
21
 10
11.4442
 20
43.7498
 30
0.0000
 11
10.2758
 21
43.7498
 31
0.0000
  0
LINE
  8
21
 10
10.2758
 20
43.7498
 30
0.0000
 11
10.2758
 21
43.4252
 31
0.0000
  0
ARC
  8
21
 10
10.4705
 20
43.4252
 30
0.0000
 40
0.1947
 50
180.0000
 51
269.9982
  0
LINE
  8
21
 10
10.4705
 20
43.2305
 30
0.0000
 11
10.8600
 21
43.2305
 31
0.0000
  0
ARC
  8
21
 10
10.8600
 20
43.4252
 30
0.0000
 40
0.1947
 50
270.0000
 51
0.0009
  0
LINE
  8
21
 10
11.0547
 20
43.4252
 30
0.0000
 11
11.0547
 21
43.7498
 31
0.0000
  0
LINE
  8
21
 10
10.5354
 20
42.7651
 30
0.0000
 11
10.7951
 21
42.7651
 31
0.0000
  0
ARC
  8
21
 10
10.7951
 20
42.5054
 30
0.0000
 40
0.2596
 50
270.0000
 51
90.0000
  0
LINE
  8
21
 10
10.7951
 20
42.2458
 30
0.0000
 11
10.5354
 21
42.2458
 31
0.0000
  0
ARC
  8
21
 10
10.5354
 20
42.5054
 30
0.0000
 40
0.2596
 50
90.0000
 51
270.0000
  0
LINE
  8
21
 10
10.7302
 20
41.2611
 30
0.0000
 11
10.7302
 21
41.5532
 31
0.0000
  0
ARC
  8
21
 10
10.5030
 20
41.5532
 30
0.0000
 40
0.2272
 50
0.0000
 51
180.0000
  0
LINE
  8
21
 10
10.2758
 20
41.5532
 30
0.0000
 11
10.2758
 21
41.2611
 31
0.0000
  0
LINE
  8
21
 10
10.2758
 20
41.2611
 30
0.0000
 11
10.8600
 21
41.2611
 31
0.0000
  0
ARC
  8
21
 10
10.8600
 20
41.4558
 30
0.0000
 40
0.1947
 50
270.0000
 51
0.0009
  0
LINE
  8
21
 10
11.0547
 20
41.4558
 30
0.0000
 11
11.0547
 21
41.7155
 31
0.0000
  0
LINE
  8
21
 10
10.2758
 20
40.7010
 30
0.0000
 11
11.0547
 21
40.7010
 31
0.0000
  0
LINE
  8
21
 10
11.0547
 20
40.7010
 30
0.0000
 11
11.0547
 21
40.3116
 31
0.0000
  0
LINE
  8
21
 10
11.0547
 20
40.3116
 30
0.0000
 11
10.9249
 21
40.3116
 31
0.0000
  0
LINE
  8
21
 10
11.4442
 20
39.4323
 30
0.0000
 11
10.2758
 21
39.4323
 31
0.0000
  0
LINE
  8
21
 10
10.2758
 20
39.4323
 30
0.0000
 11
10.2758
 21
39.7568
 31
0.0000
  0
ARC
  8
21
 10
10.4705
 20
39.7568
 30
0.0000
 40
0.1947
 50
90.0000
 51
180.0000
  0
LINE
  8
21
 10
10.4705
 20
39.9516
 30
0.0000
 11
10.8600
 21
39.9516
 31
0.0000
  0
ARC
  8
21
 10
10.8600
 20
39.7568
 30
0.0000
 40
0.1947
 50
0.0000
 51
90.0000
  0
LINE
  8
21
 10
11.0547
 20
39.7568
 30
0.0000
 11
11.0547
 21
39.4323
 31
0.0000
  0
LINE
  8
21
 10
10.2758
 20
38.2411
 30
0.0000
 11
11.4442
 21
38.2411
 31
0.0000
  0
LINE
  8
21
 10
11.4442
 20
38.2411
 30
0.0000
 11
11.4442
 21
37.9165
 31
0.0000
  0
ARC
  8
21
 10
11.1196
 20
37.9165
 30
0.0000
 40
0.3246
 50
180.0000
 51
0.0000
  0
LINE
  8
21
 10
10.7951
 20
37.9165
 30
0.0000
 11
10.7951
 21
38.2411
 31
0.0000
  0
LINE
  8
21
 10
10.2758
 20
36.6371
 30
0.0000
 11
10.2758
 21
36.8968
 31
0.0000
  0
ARC
  8
21
 10
10.5354
 20
36.8968
 30
0.0000
 40
0.2596
 50
90.0000
 51
180.0000
  0
LINE
  8
21
 10
10.5354
 20
37.1564
 30
0.0000
 11
11.1846
 21
37.1564
 31
0.0000
  0
ARC
  8
21
 10
11.1846
 20
36.8968
 30
0.0000
 40
0.2596
 50
0.0007
 51
90.0000
  0
LINE
  8
21
 10
11.4442
 20
36.8968
 30
0.0000
 11
11.4442
 21
36.6371
 31
0.0000
  0
LINE
  8
21
 10
10.9249
 20
36.1456
 30
0.0000
 11
10.9249
 21
35.8210
 31
0.0000
  0
ARC
  8
21
 10
10.6004
 20
35.8210
 30
0.0000
 40
0.3246
 50
180.0000
 51
0.0000
  0
LINE
  8
21
 10
10.2758
 20
35.8210
 30
0.0000
 11
10.2758
 21
36.1456
 31
0.0000
  0
LINE
  8
21
 10
10.2758
 20
36.1456
 30
0.0000
 11
11.4442
 21
36.1456
 31
0.0000
  0
LINE
  8
21
 10
11.4442
 20
36.1456
 30
0.0000
 11
11.4442
 21
35.8210
 31
0.0000
  0
ARC
  8
21
 10
11.1846
 20
35.8210
 30
0.0000
 40
0.2596
 50
180.0000
 51
0.0000
  0
LINE
  8
21
 10
10.2758
 20
34.4025
 30
0.0000
 11
11.4442
 21
34.4025
 31
0.0000
  0
LINE
  8
21
 10
11.4442
 20
34.4025
 30
0.0000
 11
11.4442
 21
34.0780
 31
0.0000
  0
ARC
  8
21
 10
11.1196
 20
34.0780
 30
0.0000
 40
0.3246
 50
180.0000
 51
0.0000
  0
LINE
  8
21
 10
10.7951
 20
34.0780
 30
0.0000
 11
10.7951
 21
34.4025
 31
0.0000
  0
LINE
  8
21
 10
10.2758
 20
33.7534
 30
0.0000
 11
10.7951
 21
34.0131
 31
0.0000
  0
LINE
  8
21
 10
10.2758
 20
32.7589
 30
0.0000
 11
10.2758
 21
33.0835
 31
0.0000
  0
ARC
  8
21
 10
10.4705
 20
33.0835
 30
0.0000
 40
0.1947
 50
90.0000
 51
180.0000
  0
LINE
  8
21
 10
10.4705
 20
33.2782
 30
0.0000
 11
10.7951
 21
33.2782
 31
0.0000
  0
ARC
  8
21
 10
10.7951
 20
33.0186
 30
0.0000
 40
0.2596
 50
270.0000
 51
90.0000
  0
LINE
  8
21
 10
10.7951
 20
32.7589
 30
0.0000
 11
10.6653
 21
32.7589
 31
0.0000
  0
LINE
  8
21
 10
10.6653
 20
32.7589
 30
0.0000
 11
10.6653
 21
33.2782
 31
0.0000
  0
LINE
  8
21
 10
11.0547
 20
32.3257
 30
0.0000
 11
10.2758
 21
32.0661
 31
0.0000
  0
LINE
  8
21
 10
10.2758
 20
32.0661
 30
0.0000
 11
11.0547
 21
31.8064
 31
0.0000
  0
LINE
  8
21
 10
10.2758
 20
31.4127
 30
0.0000
 11
10.3407
 21
31.4127
 31
0.0000
  0
LINE
  8
21
 10
10.3407
 20
31.4127
 30
0.0000
 11
10.3407
 21
31.3478
 31
0.0000
  0
LINE
  8
21
 10
10.3407
 20
31.3478
 30
0.0000
 11
10.2758
 21
31.3478
 31
0.0000
  0
LINE
  8
21
 10
10.2758
 20
31.3478
 30
0.0000
 11
10.2758
 21
31.4127
 31
0.0000
  0
ARC
  8
21
 10
10.8600
 20
29.3323
 30
0.0000
 40
0.9629
 50
64.0109
 51
90.0001
  0
ARC
  8
21
 10
11.2040
 20
29.9706
 30
0.0000
 40
0.2402
 50
360.0000
 51
71.0751
  0
ARC
  8
21
 10
11.2040
 20
29.9706
 30
0.0000
 40
0.2402
 50
288.9259
 51
359.9998
  0
ARC
  8
21
 10
10.8600
 20
30.6088
 30
0.0000
 40
0.9628
 50
269.9999
 51
295.9891
  0
ARC
  8
21
 10
10.8600
 20
29.3322
 30
0.0000
 40
0.9629
 50
90.0000
 51
115.9888
  0
ARC
  8
21
 10
10.5160
 20
29.9706
 30
0.0000
 40
0.2402
 50
108.9254
 51
179.9998
  0
ARC
  8
21
 10
10.8600
 20
30.6089
 30
0.0000
 40
0.9629
 50
244.0112
 51
270.0000
  0
ARC
  8
21
 10
10.5160
 20
29.9706
 30
0.0000
 40
0.2402
 50
180.0000
 51
251.0733
  0
LINE
  8
21
 10
10.5354
 20
30.2302
 30
0.0000
 11
11.1846
 21
29.7109
 31
0.0000
  0
LINE
  8
21
 10
8.4646
 20
4.4958
 30
0.0000
 11
8.4646
 21
5.6642
 31
0.0000
  0
LINE
  8
21
 10
8.4646
 20
5.6642
 30
0.0000
 11
9.1137
 21
4.4958
 31
0.0000
  0
LINE
  8
21
 10
9.1137
 20
4.4958
 30
0.0000
 11
9.1137
 21
5.6642
 31
0.0000
  0
LINE
  8
21
 10
9.6344
 20
4.7554
 30
0.0000
 11
9.6344
 21
5.0151
 31
0.0000
  0
ARC
  8
21
 10
9.8940
 20
5.0151
 30
0.0000
 40
0.2596
 50
0.0000
 51
180.0000
  0
LINE
  8
21
 10
10.1536
 20
5.0151
 30
0.0000
 11
10.1536
 21
4.7554
 31
0.0000
  0
ARC
  8
21
 10
9.8940
 20
4.7554
 30
0.0000
 40
0.2596
 50
180.0000
 51
0.0000
  0
LINE
  8
21
 10
11.3009
 20
4.4958
 30
0.0000
 11
11.3009
 21
5.6642
 31
0.0000
  0
LINE
  8
21
 10
11.3009
 20
5.6642
 30
0.0000
 11
11.6254
 21
5.6642
 31
0.0000
  0
ARC
  8
21
 10
11.6254
 20
5.3396
 30
0.0000
 40
0.3246
 50
270.0000
 51
90.0000
  0
LINE
  8
21
 10
11.6254
 20
5.0151
 30
0.0000
 11
11.3009
 21
5.0151
 31
0.0000
  0
LINE
  8
21
 10
12.3705
 20
4.4958
 30
0.0000
 11
12.3705
 21
5.2747
 31
0.0000
  0
LINE
  8
21
 10
12.3380
 20
5.5993
 30
0.0000
 11
12.3380
 21
5.6642
 31
0.0000
  0
LINE
  8
21
 10
12.3380
 20
5.6642
 30
0.0000
 11
12.4030
 21
5.6642
 31
0.0000
  0
LINE
  8
21
 10
12.4030
 20
5.6642
 30
0.0000
 11
12.4030
 21
5.5993
 31
0.0000
  0
LINE
  8
21
 10
12.4030
 20
5.5993
 30
0.0000
 11
12.3380
 21
5.5993
 31
0.0000
  0
LINE
  8
21
 10
12.8729
 20
4.4958
 30
0.0000
 11
12.8729
 21
5.2747
 31
0.0000
  0
LINE
  8
21
 10
12.8729
 20
5.2747
 30
0.0000
 11
13.1974
 21
5.2747
 31
0.0000
  0
ARC
  8
21
 10
13.1974
 20
5.0800
 30
0.0000
 40
0.1947
 50
0.0009
 51
90.0000
  0
LINE
  8
21
 10
13.3921
 20
5.0800
 30
0.0000
 11
13.3921
 21
4.4958
 31
0.0000
  0
ARC
  8
48
 10
3.6911
 20
73.4448
 30
0.0000
 40
0.3500
 50
269.9995
 51
0.0000
  0
ARC
  8
48
 10
3.6911
 20
73.8341
 30
0.0000
 40
0.7393
 50
224.7606
 51
269.9996
  0
ARC
  8
48
 10
3.5598
 20
74.3197
 30
0.0000
 40
0.3500
 50
90.0000
 51
180.0000
  0
ARC
  8
48
 10
3.5598
 20
74.0135
 30
0.0000
 40
0.6562
 50
53.1299
 51
89.9999
  0
ARC
  8
48
 10
3.5653
 20
74.3197
 30
0.0000
 40
0.3554
 50
180.0000
 51
239.4897
  0
ARC
  8
48
 10
3.6856
 20
73.4448
 30
0.0000
 40
0.3554
 50
0.0002
 51
59.4895
  0
LINE
  8
48
 10
3.8661
 20
73.7510
 30
0.0000
 11
3.3849
 21
74.0135
 31
0.0000
  0
LINE
  8
48
 10
4.6083
 20
74.1447
 30
0.0000
 11
4.9583
 21
73.0949
 31
0.0000
  0
LINE
  8
48
 10
4.9583
 20
73.0949
 30
0.0000
 11
5.3083
 21
74.1447
 31
0.0000
  0
LINE
  8
48
 10
6.6109
 20
73.0949
 30
0.0000
 11
6.1734
 21
73.0949
 31
0.0000
  0
ARC
  8
48
 10
6.1734
 20
73.3573
 30
0.0000
 40
0.2625
 50
180.0000
 51
270.0000
  0
LINE
  8
48
 10
5.9109
 20
73.3573
 30
0.0000
 11
5.9109
 21
73.7948
 31
0.0000
  0
ARC
  8
48
 10
6.2609
 20
73.7948
 30
0.0000
 40
0.3500
 50
0.0000
 51
180.0000
  0
LINE
  8
48
 10
6.6109
 20
73.7948
 30
0.0000
 11
6.6109
 21
73.6198
 31
0.0000
  0
LINE
  8
48
 10
6.6109
 20
73.6198
 30
0.0000
 11
5.9109
 21
73.6198
 31
0.0000
  0
LINE
  8
48
 10
7.3178
 20
73.0949
 30
0.0000
 11
7.3178
 21
74.1447
 31
0.0000
  0
LINE
  8
48
 10
7.3178
 20
74.1447
 30
0.0000
 11
7.7552
 21
74.1447
 31
0.0000
  0
ARC
  8
48
 10
7.7552
 20
73.8822
 30
0.0000
 40
0.2625
 50
0.0000
 51
90.0000
  0
LINE
  8
48
 10
8.0177
 20
73.8822
 30
0.0000
 11
8.0177
 21
73.0949
 31
0.0000
  0
LINE
  8
48
 10
9.6524
 20
73.0949
 30
0.0000
 11
9.6524
 21
74.6697
 31
0.0000
  0
LINE
  8
48
 10
9.6524
 20
74.6697
 30
0.0000
 11
10.0899
 21
74.6697
 31
0.0000
  0
ARC
  8
48
 10
10.0899
 20
74.2322
 30
0.0000
 40
0.4374
 50
270.0000
 51
90.0000
  0
LINE
  8
48
 10
10.0899
 20
73.7948
 30
0.0000
 11
9.6524
 21
73.7948
 31
0.0000
  0
LINE
  8
48
 10
11.8213
 20
73.0949
 30
0.0000
 11
11.3838
 21
73.0949
 31
0.0000
  0
ARC
  8
48
 10
11.3838
 20
73.3573
 30
0.0000
 40
0.2625
 50
180.0000
 51
270.0000
  0
LINE
  8
48
 10
11.1214
 20
73.3573
 30
0.0000
 11
11.1214
 21
73.7948
 31
0.0000
  0
ARC
  8
48
 10
11.4713
 20
73.7948
 30
0.0000
 40
0.3500
 50
0.0000
 51
180.0000
  0
LINE
  8
48
 10
11.8213
 20
73.7948
 30
0.0000
 11
11.8213
 21
73.6198
 31
0.0000
  0
LINE
  8
48
 10
11.8213
 20
73.6198
 30
0.0000
 11
11.1214
 21
73.6198
 31
0.0000
  0
LINE
  8
48
 10
12.3412
 20
74.1447
 30
0.0000
 11
12.8661
 21
74.1447
 31
0.0000
  0
LINE
  8
48
 10
12.5161
 20
74.6697
 30
0.0000
 11
12.5161
 21
73.3573
 31
0.0000
  0
ARC
  8
48
 10
12.7786
 20
73.3573
 30
0.0000
 40
0.2625
 50
180.0000
 51
270.0000
  0
LINE
  8
48
 10
12.7786
 20
73.0949
 30
0.0000
 11
12.8661
 21
73.0949
 31
0.0000
  0
LINE
  8
48
 10
14.1659
 20
73.0949
 30
0.0000
 11
13.7285
 21
73.0949
 31
0.0000
  0
ARC
  8
48
 10
13.7285
 20
73.3573
 30
0.0000
 40
0.2625
 50
180.0000
 51
270.0000
  0
LINE
  8
48
 10
13.4660
 20
73.3573
 30
0.0000
 11
13.4660
 21
73.7948
 31
0.0000
  0
ARC
  8
48
 10
13.8160
 20
73.7948
 30
0.0000
 40
0.3500
 50
0.0000
 51
180.0000
  0
LINE
  8
48
 10
14.1659
 20
73.7948
 30
0.0000
 11
14.1659
 21
73.6198
 31
0.0000
  0
LINE
  8
48
 10
14.1659
 20
73.6198
 30
0.0000
 11
13.4660
 21
73.6198
 31
0.0000
  0
LINE
  8
48
 10
14.8831
 20
73.0949
 30
0.0000
 11
14.8831
 21
74.1447
 31
0.0000
  0
LINE
  8
48
 10
14.8831
 20
74.1447
 30
0.0000
 11
15.4080
 21
74.1447
 31
0.0000
  0
LINE
  8
48
 10
15.4080
 20
74.1447
 30
0.0000
 11
15.4080
 21
73.9697
 31
0.0000
  0
LINE
  8
48
 10
16.4836
 20
73.5323
 30
0.0000
 11
16.0462
 21
73.7073
 31
0.0000
  0
ARC
  8
48
 10
16.1304
 20
73.9179
 30
0.0000
 40
0.2268
 50
89.1807
 51
248.1990
  0
ARC
  8
48
 10
16.1194
 20
73.1512
 30
0.0000
 40
0.9936
 50
65.7612
 51
89.1807
  0
ARC
  8
48
 10
16.3994
 20
73.3217
 30
0.0000
 40
0.2268
 50
269.1807
 51
68.1990
  0
ARC
  8
48
 10
16.4173
 20
74.5786
 30
0.0000
 40
1.4839
 50
250.2099
 51
269.1807
  0
LINE
  8
48
 10
17.9695
 20
73.0949
 30
0.0000
 11
17.5321
 21
73.0949
 31
0.0000
  0
ARC
  8
48
 10
17.5321
 20
73.3573
 30
0.0000
 40
0.2625
 50
180.0000
 51
270.0000
  0
LINE
  8
48
 10
17.2696
 20
73.3573
 30
0.0000
 11
17.2696
 21
73.7948
 31
0.0000
  0
ARC
  8
48
 10
17.6196
 20
73.7948
 30
0.0000
 40
0.3500
 50
0.0000
 51
180.0000
  0
LINE
  8
48
 10
17.9695
 20
73.7948
 30
0.0000
 11
17.9695
 21
73.6198
 31
0.0000
  0
LINE
  8
48
 10
17.9695
 20
73.6198
 30
0.0000
 11
17.2696
 21
73.6198
 31
0.0000
  0
LINE
  8
48
 10
18.6764
 20
73.0949
 30
0.0000
 11
18.6764
 21
74.1447
 31
0.0000
  0
LINE
  8
48
 10
18.6764
 20
74.1447
 30
0.0000
 11
19.1139
 21
74.1447
 31
0.0000
  0
ARC
  8
48
 10
19.1139
 20
73.8822
 30
0.0000
 40
0.2625
 50
0.0000
 51
90.0000
  0
LINE
  8
48
 10
19.3764
 20
73.8822
 30
0.0000
 11
19.3764
 21
73.0949
 31
0.0000
  0
ARC
  8
48
 10
8.9703
 20
71.6090
 30
0.0000
 40
0.3937
 50
0.0000
 51
90.0000
  0
ARC
  8
48
 10
8.9703
 20
71.4969
 30
0.0000
 40
0.5058
 50
90.0000
 51
162.0550
  0
ARC
  8
48
 10
8.9411
 20
71.6090
 30
0.0000
 40
0.4229
 50
313.6028
 51
359.9999
  0
LINE
  8
48
 10
9.2328
 20
71.3027
 30
0.0000
 11
8.4891
 21
70.4279
 31
0.0000
  0
LINE
  8
48
 10
8.4891
 20
70.4279
 30
0.0000
 11
9.3640
 21
70.4279
 31
0.0000
  0
ARC
  8
48
 10
11.3500
 20
71.2152
 30
0.0000
 40
1.2978
 50
154.0111
 51
180.0000
  0
ARC
  8
48
 10
10.4897
 20
71.6789
 30
0.0000
 40
0.3237
 50
90.0000
 51
161.0758
  0
ARC
  8
48
 10
10.4897
 20
71.6789
 30
0.0000
 40
0.3237
 50
18.9235
 51
90.0002
  0
ARC
  8
48
 10
9.6294
 20
71.2152
 30
0.0000
 40
1.2977
 50
0.0000
 51
25.9895
  0
ARC
  8
48
 10
11.3500
 20
71.2152
 30
0.0000
 40
1.2978
 50
180.0001
 51
205.9888
  0
ARC
  8
48
 10
10.4897
 20
70.7516
 30
0.0000
 40
0.3237
 50
198.9248
 51
270.0001
  0
ARC
  8
48
 10
9.6294
 20
71.2153
 30
0.0000
 40
1.2978
 50
334.0107
 51
359.9999
  0
ARC
  8
48
 10
10.4897
 20
70.7516
 30
0.0000
 40
0.3237
 50
270.0000
 51
341.0761
  0
LINE
  8
48
 10
10.1397
 20
70.7778
 30
0.0000
 11
10.8396
 21
71.6527
 31
0.0000
  0
ARC
  8
48
 10
12.0966
 20
71.6090
 30
0.0000
 40
0.3937
 50
0.0000
 51
90.0000
  0
ARC
  8
48
 10
12.0966
 20
71.4969
 30
0.0000
 40
0.5058
 50
90.0000
 51
162.0550
  0
ARC
  8
48
 10
12.0674
 20
71.6090
 30
0.0000
 40
0.4229
 50
313.6028
 51
359.9999
  0
LINE
  8
48
 10
12.3590
 20
71.3027
 30
0.0000
 11
11.6154
 21
70.4279
 31
0.0000
  0
LINE
  8
48
 10
11.6154
 20
70.4279
 30
0.0000
 11
12.4903
 21
70.4279
 31
0.0000
  0
ARC
  8
48
 10
14.4763
 20
71.2152
 30
0.0000
 40
1.2978
 50
154.0111
 51
180.0000
  0
ARC
  8
48
 10
13.6159
 20
71.6789
 30
0.0000
 40
0.3237
 50
90.0000
 51
161.0758
  0
ARC
  8
48
 10
13.6159
 20
71.6789
 30
0.0000
 40
0.3237
 50
18.9235
 51
90.0002
  0
ARC
  8
48
 10
12.7557
 20
71.2152
 30
0.0000
 40
1.2977
 50
0.0000
 51
25.9895
  0
ARC
  8
48
 10
14.4763
 20
71.2152
 30
0.0000
 40
1.2978
 50
180.0001
 51
205.9888
  0
ARC
  8
48
 10
13.6159
 20
70.7516
 30
0.0000
 40
0.3237
 50
198.9248
 51
270.0001
  0
ARC
  8
48
 10
12.7556
 20
71.2153
 30
0.0000
 40
1.2978
 50
334.0107
 51
359.9999
  0
ARC
  8
48
 10
13.6159
 20
70.7516
 30
0.0000
 40
0.3237
 50
270.0000
 51
341.0761
  0
LINE
  8
48
 10
13.2660
 20
70.7778
 30
0.0000
 11
13.9659
 21
71.6527
 31
0.0000
  0
LINE
  8
48
 10
35.1853
 20
74.6689
 30
0.0000
 11
35.6228
 21
75.0189
 31
0.0000
  0
LINE
  8
48
 10
35.6228
 20
75.0189
 30
0.0000
 11
35.6228
 21
73.4441
 31
0.0000
  0
LINE
  8
48
 10
35.1853
 20
73.4441
 30
0.0000
 11
36.0602
 21
73.4441
 31
0.0000
  0
LINE
  8
48
 10
36.7485
 20
74.3190
 30
0.0000
 11
37.2734
 21
74.3190
 31
0.0000
  0
ARC
  8
48
 10
37.2734
 20
73.9690
 30
0.0000
 40
0.3500
 50
0.0000
 51
90.0000
  0
LINE
  8
48
 10
37.6234
 20
73.9690
 30
0.0000
 11
37.6234
 21
73.8815
 31
0.0000
  0
ARC
  8
48
 10
37.1859
 20
73.8815
 30
0.0000
 40
0.4374
 50
180.0000
 51
0.0000
  0
LINE
  8
48
 10
36.7485
 20
73.8815
 30
0.0000
 11
36.7485
 21
74.3190
 31
0.0000
  0
ARC
  8
48
 10
37.4484
 20
74.3190
 30
0.0000
 40
0.6999
 50
90.0003
 51
180.0000
  0
LINE
  8
48
 10
38.3116
 20
74.3190
 30
0.0000
 11
38.8365
 21
74.3190
 31
0.0000
  0
ARC
  8
48
 10
38.8365
 20
73.9690
 30
0.0000
 40
0.3500
 50
0.0000
 51
90.0000
  0
LINE
  8
48
 10
39.1865
 20
73.9690
 30
0.0000
 11
39.1865
 21
73.8815
 31
0.0000
  0
ARC
  8
48
 10
38.7490
 20
73.8815
 30
0.0000
 40
0.4374
 50
180.0000
 51
0.0000
  0
LINE
  8
48
 10
38.3116
 20
73.8815
 30
0.0000
 11
38.3116
 21
74.3190
 31
0.0000
  0
ARC
  8
48
 10
39.0115
 20
74.3190
 30
0.0000
 40
0.6999
 50
90.0003
 51
180.0000
  0
LINE
  8
48
 10
39.8914
 20
74.0565
 30
0.0000
 11
40.9413
 21
74.0565
 31
0.0000
  0
ARC
  8
48
 10
42.1275
 20
74.6252
 30
0.0000
 40
0.3937
 50
0.0000
 51
90.0000
  0
ARC
  8
48
 10
42.1275
 20
74.5131
 30
0.0000
 40
0.5058
 50
90.0000
 51
162.0550
  0
ARC
  8
48
 10
42.0983
 20
74.6252
 30
0.0000
 40
0.4229
 50
313.6028
 51
359.9999
  0
LINE
  8
48
 10
42.3899
 20
74.3190
 30
0.0000
 11
41.6463
 21
73.4441
 31
0.0000
  0
LINE
  8
48
 10
41.6463
 20
73.4441
 30
0.0000
 11
42.5212
 21
73.4441
 31
0.0000
  0
LINE
  8
48
 10
43.2261
 20
74.0565
 30
0.0000
 11
44.2760
 21
74.0565
 31
0.0000
  0
ARC
  8
48
 10
46.2787
 20
74.2315
 30
0.0000
 40
1.2978
 50
154.0111
 51
180.0000
  0
ARC
  8
48
 10
45.4184
 20
74.6952
 30
0.0000
 40
0.3237
 50
90.0000
 51
161.0758
  0
ARC
  8
48
 10
45.4184
 20
74.6952
 30
0.0000
 40
0.3237
 50
18.9235
 51
90.0002
  0
ARC
  8
48
 10
44.5581
 20
74.2315
 30
0.0000
 40
1.2977
 50
0.0000
 51
25.9895
  0
ARC
  8
48
 10
46.2787
 20
74.2315
 30
0.0000
 40
1.2978
 50
180.0001
 51
205.9888
  0
ARC
  8
48
 10
45.4184
 20
73.7678
 30
0.0000
 40
0.3237
 50
198.9248
 51
270.0001
  0
ARC
  8
48
 10
44.5581
 20
74.2315
 30
0.0000
 40
1.2978
 50
334.0107
 51
359.9999
  0
ARC
  8
48
 10
45.4184
 20
73.7678
 30
0.0000
 40
0.3237
 50
270.0000
 51
341.0761
  0
LINE
  8
48
 10
45.0684
 20
73.7941
 30
0.0000
 11
45.7683
 21
74.6689
 31
0.0000
  0
LINE
  8
48
 10
46.5441
 20
74.6689
 30
0.0000
 11
46.9815
 21
75.0189
 31
0.0000
  0
LINE
  8
48
 10
46.9815
 20
75.0189
 30
0.0000
 11
46.9815
 21
73.4441
 31
0.0000
  0
LINE
  8
48
 10
46.5441
 20
73.4441
 30
0.0000
 11
47.4189
 21
73.4441
 31
0.0000
  0
LINE
  8
48
 10
48.1239
 20
74.0565
 30
0.0000
 11
49.1738
 21
74.0565
 31
0.0000
  0
ARC
  8
48
 10
51.1765
 20
74.2315
 30
0.0000
 40
1.2978
 50
154.0111
 51
180.0000
  0
ARC
  8
48
 10
50.3162
 20
74.6952
 30
0.0000
 40
0.3237
 50
90.0000
 51
161.0758
  0
ARC
  8
48
 10
50.3162
 20
74.6952
 30
0.0000
 40
0.3237
 50
18.9235
 51
90.0002
  0
ARC
  8
48
 10
49.4559
 20
74.2315
 30
0.0000
 40
1.2977
 50
0.0000
 51
25.9895
  0
ARC
  8
48
 10
51.1765
 20
74.2315
 30
0.0000
 40
1.2978
 50
180.0001
 51
205.9888
  0
ARC
  8
48
 10
50.3162
 20
73.7678
 30
0.0000
 40
0.3237
 50
198.9248
 51
270.0001
  0
ARC
  8
48
 10
49.4559
 20
74.2315
 30
0.0000
 40
1.2978
 50
334.0107
 51
359.9999
  0
ARC
  8
48
 10
50.3162
 20
73.7678
 30
0.0000
 40
0.3237
 50
270.0000
 51
341.0761
  0
LINE
  8
48
 10
49.9662
 20
73.7941
 30
0.0000
 11
50.6661
 21
74.6689
 31
0.0000
  0
ARC
  8
48
 10
52.7396
 20
74.2315
 30
0.0000
 40
1.2978
 50
154.0111
 51
180.0000
  0
ARC
  8
48
 10
51.8793
 20
74.6952
 30
0.0000
 40
0.3237
 50
90.0000
 51
161.0758
  0
ARC
  8
48
 10
51.8793
 20
74.6952
 30
0.0000
 40
0.3237
 50
18.9235
 51
90.0002
  0
ARC
  8
48
 10
51.0190
 20
74.2315
 30
0.0000
 40
1.2977
 50
0.0000
 51
25.9895
  0
ARC
  8
48
 10
52.7396
 20
74.2315
 30
0.0000
 40
1.2978
 50
180.0001
 51
205.9888
  0
ARC
  8
48
 10
51.8793
 20
73.7678
 30
0.0000
 40
0.3237
 50
198.9248
 51
270.0001
  0
ARC
  8
48
 10
51.0190
 20
74.2315
 30
0.0000
 40
1.2978
 50
334.0107
 51
359.9999
  0
ARC
  8
48
 10
51.8793
 20
73.7678
 30
0.0000
 40
0.3237
 50
270.0000
 51
341.0761
  0
LINE
  8
48
 10
51.5293
 20
73.7941
 30
0.0000
 11
52.2292
 21
74.6689
 31
0.0000
  0
LINE
  8
48
 10
30.1054
 20
70.2691
 30
0.0000
 11
30.5428
 21
70.2691
 31
0.0000
  0
ARC
  8
48
 10
30.5428
 20
70.7065
 30
0.0000
 40
0.4374
 50
270.0000
 51
90.0000
  0
LINE
  8
48
 10
30.1054
 20
71.8439
 30
0.0000
 11
30.6303
 21
71.8439
 31
0.0000
  0
ARC
  8
48
 10
30.6303
 20
71.4939
 30
0.0000
 40
0.3500
 50
270.0000
 51
90.0000
  0
LINE
  8
48
 10
30.6303
 20
71.1440
 30
0.0000
 11
30.2803
 21
71.1440
 31
0.0000
  0
LINE
  8
48
 10
31.6685
 20
70.2691
 30
0.0000
 11
32.1934
 21
70.2691
 31
0.0000
  0
ARC
  8
48
 10
32.1934
 20
70.6191
 30
0.0000
 40
0.3500
 50
270.0000
 51
359.9995
  0
LINE
  8
48
 10
32.5434
 20
70.6191
 30
0.0000
 11
32.5434
 21
70.7940
 31
0.0000
  0
ARC
  8
48
 10
32.1934
 20
70.7940
 30
0.0000
 40
0.3500
 50
0.0000
 51
90.0000
  0
LINE
  8
48
 10
32.1934
 20
71.1440
 30
0.0000
 11
31.6685
 21
71.1440
 31
0.0000
  0
LINE
  8
48
 10
31.6685
 20
71.1440
 30
0.0000
 11
31.6685
 21
71.8439
 31
0.0000
  0
LINE
  8
48
 10
31.6685
 20
71.8439
 30
0.0000
 11
32.5434
 21
71.8439
 31
0.0000
  0
LINE
  8
48
 10
33.3286
 20
69.7442
 30
0.0000
 11
33.3286
 21
71.3190
 31
0.0000
  0
LINE
  8
48
 10
34.0285
 20
71.3190
 30
0.0000
 11
34.0285
 21
70.6191
 31
0.0000
  0
ARC
  8
48
 10
33.6785
 20
70.6191
 30
0.0000
 40
0.3500
 50
180.0000
 51
0.0000
  0
LINE
  8
48
 10
34.0285
 20
70.6191
 30
0.0000
 11
34.0285
 21
70.4441
 31
0.0000
  0
ARC
  8
48
 10
34.2035
 20
70.4441
 30
0.0000
 40
0.1750
 50
180.0000
 51
270.0010
  0
LINE
  8
48
 10
34.8114
 20
70.2691
 30
0.0000
 11
34.8114
 21
71.3190
 31
0.0000
  0
LINE
  8
48
 10
34.8114
 20
71.3190
 30
0.0000
 11
35.5988
 21
71.3190
 31
0.0000
  0
ARC
  8
48
 10
35.5988
 20
71.0565
 30
0.0000
 40
0.2625
 50
0.0000
 51
90.0000
  0
LINE
  8
48
 10
35.8613
 20
71.0565
 30
0.0000
 11
35.8613
 21
70.2691
 31
0.0000
  0
LINE
  8
48
 10
35.3364
 20
70.2691
 30
0.0000
 11
35.3364
 21
71.3190
 31
0.0000
  0
ARC
  8
48
 10
52.1765
 20
71.4502
 30
0.0000
 40
0.3937
 50
0.0000
 51
90.0000
  0
ARC
  8
48
 10
52.1765
 20
71.3381
 30
0.0000
 40
0.5058
 50
90.0000
 51
162.0550
  0
ARC
  8
48
 10
52.1474
 20
71.4502
 30
0.0000
 40
0.4229
 50
313.6028
 51
359.9999
  0
LINE
  8
48
 10
52.4390
 20
71.1440
 30
0.0000
 11
51.6954
 21
70.2691
 31
0.0000
  0
LINE
  8
48
 10
51.6954
 20
70.2691
 30
0.0000
 11
52.5702
 21
70.2691
 31
0.0000
  0
ARC
  8
48
 10
47.5956
 20
64.5478
 30
0.0000
 40
1.2978
 50
154.0111
 51
180.0000
  0
ARC
  8
48
 10
46.7353
 20
65.0114
 30
0.0000
 40
0.3237
 50
90.0000
 51
161.0758
  0
ARC
  8
48
 10
46.7353
 20
65.0114
 30
0.0000
 40
0.3237
 50
18.9235
 51
90.0002
  0
ARC
  8
48
 10
45.8750
 20
64.5478
 30
0.0000
 40
1.2977
 50
0.0000
 51
25.9895
  0
ARC
  8
48
 10
47.5956
 20
64.5478
 30
0.0000
 40
1.2978
 50
180.0001
 51
205.9888
  0
ARC
  8
48
 10
46.7353
 20
64.0841
 30
0.0000
 40
0.3237
 50
198.9248
 51
270.0001
  0
ARC
  8
48
 10
45.8750
 20
64.5478
 30
0.0000
 40
1.2978
 50
334.0107
 51
359.9999
  0
ARC
  8
48
 10
46.7353
 20
64.0841
 30
0.0000
 40
0.3237
 50
270.0000
 51
341.0761
  0
LINE
  8
48
 10
46.3853
 20
64.1103
 30
0.0000
 11
47.0853
 21
64.9852
 31
0.0000
  0
LINE
  8
21
 10
6.2294
 20
2.8011
 30
0.0000
 11
6.4904
 21
3.0099
 31
0.0000
  0
LINE
  8
21
 10
6.4904
 20
3.0099
 30
0.0000
 11
6.4904
 21
2.0701
 31
0.0000
  0
LINE
  8
21
 10
6.2294
 20
2.0701
 30
0.0000
 11
6.7515
 21
2.0701
 31
0.0000
  0
ARC
  8
21
 10
7.4309
 20
2.7750
 30
0.0000
 40
0.2350
 50
0.0000
 51
90.0000
  0
ARC
  8
21
 10
7.4309
 20
2.7081
 30
0.0000
 40
0.3018
 50
90.0001
 51
162.0550
  0
ARC
  8
21
 10
7.4135
 20
2.7750
 30
0.0000
 40
0.2524
 50
313.6042
 51
359.9995
  0
LINE
  8
21
 10
7.5875
 20
2.5922
 30
0.0000
 11
7.1437
 21
2.0701
 31
0.0000
  0
LINE
  8
21
 10
7.1437
 20
2.0701
 30
0.0000
 11
7.6659
 21
2.0701
 31
0.0000
  0
LINE
  8
21
 10
6.2294
 20
7.7223
 30
0.0000
 11
6.4904
 21
7.9312
 31
0.0000
  0
LINE
  8
21
 10
6.4904
 20
7.9312
 30
0.0000
 11
6.4904
 21
6.9914
 31
0.0000
  0
LINE
  8
21
 10
6.2294
 20
6.9914
 30
0.0000
 11
6.7515
 21
6.9914
 31
0.0000
  0
ARC
  8
21
 10
7.9182
 20
7.4613
 30
0.0000
 40
0.7745
 50
154.0110
 51
180.0001
  0
ARC
  8
21
 10
7.4048
 20
7.7380
 30
0.0000
 40
0.1932
 50
90.0003
 51
161.0756
  0
ARC
  8
21
 10
7.4048
 20
7.7380
 30
0.0000
 40
0.1932
 50
18.9247
 51
90.0003
  0
ARC
  8
21
 10
6.8914
 20
7.4613
 30
0.0000
 40
0.7745
 50
359.9999
 51
25.9890
  0
ARC
  8
21
 10
7.9182
 20
7.4613
 30
0.0000
 40
0.7745
 50
180.0000
 51
205.9887
  0
ARC
  8
21
 10
7.4048
 20
7.1845
 30
0.0000
 40
0.1932
 50
198.9255
 51
269.9999
  0
ARC
  8
21
 10
6.8914
 20
7.4613
 30
0.0000
 40
0.7745
 50
334.0113
 51
360.0000
  0
ARC
  8
21
 10
7.4048
 20
7.1845
 30
0.0000
 40
0.1932
 50
270.0000
 51
341.0747
  0
LINE
  8
21
 10
7.1960
 20
7.2002
 30
0.0000
 11
7.6136
 21
7.7223
 31
0.0000
  0
LINE
  8
21
 10
6.7515
 20
10.1078
 30
0.0000
 11
6.4382
 21
10.1078
 31
0.0000
  0
ARC
  8
21
 10
6.4382
 20
10.3166
 30
0.0000
 40
0.2088
 50
180.0000
 51
270.0000
  0
LINE
  8
21
 10
6.2294
 20
10.3166
 30
0.0000
 11
6.2294
 21
10.3688
 31
0.0000
  0
ARC
  8
21
 10
6.4904
 20
10.3688
 30
0.0000
 40
0.2611
 50
0.0000
 51
180.0000
  0
LINE
  8
21
 10
6.7515
 20
10.3688
 30
0.0000
 11
6.7515
 21
10.1078
 31
0.0000
  0
ARC
  8
21
 10
6.3338
 20
10.1078
 30
0.0000
 40
0.4177
 50
270.0000
 51
0.0000
  0
ARC
  8
21
 10
6.4904
 20
12.4912
 30
0.0000
 40
0.2611
 50
0.0000
 51
180.0000
  0
ARC
  8
21
 10
6.4904
 20
12.4912
 30
0.0000
 40
0.2611
 50
180.0000
 51
0.0000
  0
ARC
  8
21
 10
6.4904
 20
12.9611
 30
0.0000
 40
0.2088
 50
0.0000
 51
180.0000
  0
ARC
  8
21
 10
6.4904
 20
12.9611
 30
0.0000
 40
0.2088
 50
180.0000
 51
0.0000
  0
LINE
  8
21
 10
6.2294
 20
15.6055
 30
0.0000
 11
6.2294
 21
15.7099
 31
0.0000
  0
LINE
  8
21
 10
6.2294
 20
15.7099
 30
0.0000
 11
6.7515
 21
15.7099
 31
0.0000
  0
LINE
  8
21
 10
6.7515
 20
15.7099
 30
0.0000
 11
6.4904
 21
14.7701
 31
0.0000
  0
LINE
  8
21
 10
6.2294
 20
17.8322
 30
0.0000
 11
6.5426
 21
17.8322
 31
0.0000
  0
ARC
  8
21
 10
6.5426
 20
17.6234
 30
0.0000
 40
0.2088
 50
0.0000
 51
90.0000
  0
LINE
  8
21
 10
6.7515
 20
17.6234
 30
0.0000
 11
6.7515
 21
17.5712
 31
0.0000
  0
ARC
  8
21
 10
6.4904
 20
17.5712
 30
0.0000
 40
0.2611
 50
180.0000
 51
0.0000
  0
LINE
  8
21
 10
6.2294
 20
17.5712
 30
0.0000
 11
6.2294
 21
17.8322
 31
0.0000
  0
ARC
  8
21
 10
6.6470
 20
17.8322
 30
0.0000
 40
0.4177
 50
90.0004
 51
180.0000
  0
LINE
  8
21
 10
6.2294
 20
19.8501
 30
0.0000
 11
6.5426
 21
19.8501
 31
0.0000
  0
ARC
  8
21
 10
6.5426
 20
20.0589
 30
0.0000
 40
0.2088
 50
270.0000
 51
0.0000
  0
LINE
  8
21
 10
6.7515
 20
20.0589
 30
0.0000
 11
6.7515
 21
20.1634
 31
0.0000
  0
ARC
  8
21
 10
6.5426
 20
20.1634
 30
0.0000
 40
0.2088
 50
0.0000
 51
90.0000
  0
LINE
  8
21
 10
6.5426
 20
20.3722
 30
0.0000
 11
6.2294
 21
20.3722
 31
0.0000
  0
LINE
  8
21
 10
6.2294
 20
20.3722
 30
0.0000
 11
6.2294
 21
20.7899
 31
0.0000
  0
LINE
  8
21
 10
6.2294
 20
20.7899
 30
0.0000
 11
6.7515
 21
20.7899
 31
0.0000
  0
LINE
  8
21
 10
6.4382
 20
23.3299
 30
0.0000
 11
6.2294
 21
22.5989
 31
0.0000
  0
LINE
  8
21
 10
6.2294
 20
22.5989
 30
0.0000
 11
6.7515
 21
22.5989
 31
0.0000
  0
LINE
  8
21
 10
6.5948
 20
22.8078
 30
0.0000
 11
6.5948
 21
22.3901
 31
0.0000
  0
LINE
  8
21
 10
6.2294
 20
24.9301
 30
0.0000
 11
6.4904
 21
24.9301
 31
0.0000
  0
ARC
  8
21
 10
6.4904
 20
25.1912
 30
0.0000
 40
0.2611
 50
270.0000
 51
90.0000
  0
LINE
  8
21
 10
6.2294
 20
25.8699
 30
0.0000
 11
6.5426
 21
25.8699
 31
0.0000
  0
ARC
  8
21
 10
6.5426
 20
25.6611
 30
0.0000
 40
0.2088
 50
270.0000
 51
90.0000
  0
LINE
  8
21
 10
6.5426
 20
25.4522
 30
0.0000
 11
6.3338
 21
25.4522
 31
0.0000
  0
ARC
  8
21
 10
6.5165
 20
28.1750
 30
0.0000
 40
0.2350
 50
0.0000
 51
90.0000
  0
ARC
  8
21
 10
6.5165
 20
28.1081
 30
0.0000
 40
0.3018
 50
90.0001
 51
162.0550
  0
ARC
  8
21
 10
6.4991
 20
28.1750
 30
0.0000
 40
0.2524
 50
313.6042
 51
359.9995
  0
LINE
  8
21
 10
6.6731
 20
27.9922
 30
0.0000
 11
6.2294
 21
27.4701
 31
0.0000
  0
LINE
  8
21
 10
6.2294
 20
27.4701
 30
0.0000
 11
6.7515
 21
27.4701
 31
0.0000
  0
LINE
  8
21
 10
6.2294
 20
30.8998
 30
0.0000
 11
6.4904
 21
31.1087
 31
0.0000
  0
LINE
  8
21
 10
6.4904
 20
31.1087
 30
0.0000
 11
6.4904
 21
30.1689
 31
0.0000
  0
LINE
  8
21
 10
6.2294
 20
30.1689
 30
0.0000
 11
6.7515
 21
30.1689
 31
0.0000
  0
LINE
  8
21
 10
6.5426
 20
33.6487
 30
0.0000
 11
6.5426
 21
32.9177
 31
0.0000
  0
ARC
  8
21
 10
6.3338
 20
32.9177
 30
0.0000
 40
0.2088
 50
270.0000
 51
0.0000
  0
LINE
  8
21
 10
6.3338
 20
32.7088
 30
0.0000
 11
6.2294
 21
32.7088
 31
0.0000
  0
LINE
  8
21
 10
6.2294
 20
35.2489
 30
0.0000
 11
6.2294
 21
36.1887
 31
0.0000
  0
LINE
  8
21
 10
6.2294
 20
35.7710
 30
0.0000
 11
6.7515
 21
35.7710
 31
0.0000
  0
LINE
  8
21
 10
6.7515
 20
36.1887
 30
0.0000
 11
6.7515
 21
35.2489
 31
0.0000
  0
LINE
  8
21
 10
6.2294
 20
37.6301
 30
0.0000
 11
6.2294
 21
38.5699
 31
0.0000
  0
LINE
  8
21
 10
6.2294
 20
38.5699
 30
0.0000
 11
6.6470
 21
38.5699
 31
0.0000
  0
LINE
  8
21
 10
6.2294
 20
38.1522
 30
0.0000
 11
6.6470
 21
38.1522
 31
0.0000
  0
LINE
  8
21
 10
6.6470
 20
40.1701
 30
0.0000
 11
6.2294
 21
40.1701
 31
0.0000
  0
LINE
  8
21
 10
6.2294
 20
40.1701
 30
0.0000
 11
6.2294
 21
41.1099
 31
0.0000
  0
LINE
  8
21
 10
6.2294
 20
41.1099
 30
0.0000
 11
6.6470
 21
41.1099
 31
0.0000
  0
LINE
  8
21
 10
6.2294
 20
40.6922
 30
0.0000
 11
6.5426
 21
40.6922
 31
0.0000
  0
LINE
  8
21
 10
6.2294
 20
42.7101
 30
0.0000
 11
6.2294
 21
43.6499
 31
0.0000
  0
LINE
  8
21
 10
6.2294
 20
43.6499
 30
0.0000
 11
6.4904
 21
43.6499
 31
0.0000
  0
ARC
  8
21
 10
6.4904
 20
43.3888
 30
0.0000
 40
0.2611
 50
0.0000
 51
90.0000
  0
LINE
  8
21
 10
6.7515
 20
43.3888
 30
0.0000
 11
6.7515
 21
42.9712
 31
0.0000
  0
ARC
  8
21
 10
6.4904
 20
42.9712
 30
0.0000
 40
0.2611
 50
270.0000
 51
0.0000
  0
LINE
  8
21
 10
6.4904
 20
42.7101
 30
0.0000
 11
6.2294
 21
42.7101
 31
0.0000
  0
LINE
  8
21
 10
6.6470
 20
45.2501
 30
0.0000
 11
6.4382
 21
45.2501
 31
0.0000
  0
ARC
  8
21
 10
6.4382
 20
45.4589
 30
0.0000
 40
0.2088
 50
180.0000
 51
270.0000
  0
LINE
  8
21
 10
6.2294
 20
45.4589
 30
0.0000
 11
6.2294
 21
45.9811
 31
0.0000
  0
ARC
  8
21
 10
6.4382
 20
45.9811
 30
0.0000
 40
0.2088
 50
90.0009
 51
180.0000
  0
LINE
  8
21
 10
6.4382
 20
46.1899
 30
0.0000
 11
6.6470
 21
46.1899
 31
0.0000
  0
LINE
  8
21
 10
6.2294
 20
48.3122
 30
0.0000
 11
6.4904
 21
48.3122
 31
0.0000
  0
ARC
  8
21
 10
6.4904
 20
48.0512
 30
0.0000
 40
0.2611
 50
270.0000
 51
90.0000
  0
LINE
  8
21
 10
6.4904
 20
47.7901
 30
0.0000
 11
6.2294
 21
47.7901
 31
0.0000
  0
LINE
  8
21
 10
6.2294
 20
47.7901
 30
0.0000
 11
6.2294
 21
48.7299
 31
0.0000
  0
LINE
  8
21
 10
6.2294
 20
48.7299
 30
0.0000
 11
6.4904
 21
48.7299
 31
0.0000
  0
ARC
  8
21
 10
6.4904
 20
48.5211
 30
0.0000
 40
0.2088
 50
270.0000
 51
90.0000
  0
LINE
  8
21
 10
6.2294
 20
50.3301
 30
0.0000
 11
6.5426
 21
51.2699
 31
0.0000
  0
LINE
  8
21
 10
6.5426
 20
51.2699
 30
0.0000
 11
6.8559
 21
50.3301
 31
0.0000
  0
LINE
  8
21
 10
6.7776
 20
50.5650
 30
0.0000
 11
6.3077
 21
50.5650
 31
0.0000
  0
LINE
  8
21
 10
9.5637
 20
19.1707
 30
0.0000
 11
9.3548
 21
18.4397
 31
0.0000
  0
LINE
  8
21
 10
9.3548
 20
18.4397
 30
0.0000
 11
9.8769
 21
18.4397
 31
0.0000
  0
LINE
  8
21
 10
9.7203
 20
18.6485
 30
0.0000
 11
9.7203
 21
18.2309
 31
0.0000
  0
LINE
  8
21
 10
10.2300
 20
18.2309
 30
0.0000
 11
10.6477
 21
18.8574
 31
0.0000
  0
LINE
  8
21
 10
10.2300
 20
18.8574
 30
0.0000
 11
10.6477
 21
18.2309
 31
0.0000
  0
LINE
  8
21
 10
7.4237
 20
17.4378
 30
0.0000
 11
7.6848
 21
17.6467
 31
0.0000
  0
LINE
  8
21
 10
7.6848
 20
17.6467
 30
0.0000
 11
7.6848
 21
16.7068
 31
0.0000
  0
LINE
  8
21
 10
7.4237
 20
16.7068
 30
0.0000
 11
7.9458
 21
16.7068
 31
0.0000
  0
LINE
  8
21
 10
8.3686
 20
16.7068
 30
0.0000
 11
8.3686
 21
17.6467
 31
0.0000
  0
LINE
  8
21
 10
8.3686
 20
17.6467
 30
0.0000
 11
8.8907
 21
16.7068
 31
0.0000
  0
LINE
  8
21
 10
8.8907
 20
16.7068
 30
0.0000
 11
8.8907
 21
17.6467
 31
0.0000
  0
LINE
  8
21
 10
9.5223
 20
17.6467
 30
0.0000
 11
9.3135
 21
16.9157
 31
0.0000
  0
LINE
  8
21
 10
9.3135
 20
16.9157
 30
0.0000
 11
9.8356
 21
16.9157
 31
0.0000
  0
LINE
  8
21
 10
9.6790
 20
17.1245
 30
0.0000
 11
9.6790
 21
16.7068
 31
0.0000
  0
LINE
  8
21
 10
10.2279
 20
17.4378
 30
0.0000
 11
10.4889
 21
17.6467
 31
0.0000
  0
LINE
  8
21
 10
10.4889
 20
17.6467
 30
0.0000
 11
10.4889
 21
16.7068
 31
0.0000
  0
LINE
  8
21
 10
10.2279
 20
16.7068
 30
0.0000
 11
10.7500
 21
16.7068
 31
0.0000
  0
LINE
  8
21
 10
11.3511
 20
17.6467
 30
0.0000
 11
11.1423
 21
16.9157
 31
0.0000
  0
LINE
  8
21
 10
11.1423
 20
16.9157
 30
0.0000
 11
11.6644
 21
16.9157
 31
0.0000
  0
LINE
  8
21
 10
11.5077
 20
17.1245
 30
0.0000
 11
11.5077
 21
16.7068
 31
0.0000
  0
ARC
  8
21
 10
12.3177
 20
16.9679
 30
0.0000
 40
0.2611
 50
0.0000
 51
180.0000
  0
ARC
  8
21
 10
12.3177
 20
16.9679
 30
0.0000
 40
0.2611
 50
180.0000
 51
0.0000
  0
ARC
  8
21
 10
12.3177
 20
17.4378
 30
0.0000
 40
0.2088
 50
0.0000
 51
180.0000
  0
ARC
  8
21
 10
12.3177
 20
17.4378
 30
0.0000
 40
0.2088
 50
180.0000
 51
0.0000
  0
CIRCLE
  8
20
 10
11.9063
 20
49.8475
 30
0.0000
 40
1.0000
  0
LINE
  8
21
 10
9.3725
 20
12.9300
 30
0.0000
 11
9.3725
 21
9.9300
 31
0.0000
  0
LINE
  8
21
 10
9.3725
 20
9.9300
 30
0.0000
 11
7.7725
 21
9.9300
 31
0.0000
  0
LINE
  8
21
 10
7.7725
 20
9.9300
 30
0.0000
 11
7.7725
 21
12.9300
 31
0.0000
  0
LINE
  8
21
 10
7.7725
 20
12.9300
 30
0.0000
 11
9.3725
 21
12.9300
 31
0.0000
  0
CIRCLE
  8
51
 10
8.5725
 20
7.6200
 30
0.0000
 40
0.3000
  0
CIRCLE
  8
51
 10
8.5725
 20
15.2400
 30
0.0000
 40
0.3000
  0
INSERT
  8
21
  2
RECT
 10
8.5725
 20
10.5300
 30
0.0000
 41
0.4000
 42
1.6000
 43
1.0000
 50
270.0000
  0
INSERT
  8
21
  2
RECT
 10
8.5725
 20
13.7294
 30
0.0000
 41
1.5988
 42
0.6000
 43
1.0000
 50
270.0000
  0
INSERT
  8
51
  2
RECT
 10
8.5725
 20
14.8844
 30
0.0000
 41
0.7112
 42
0.6000
 43
1.0000
 50
270.0000
  0
INSERT
  8
51
  2
RECT
 10
8.5725
 20
7.9756
 30
0.0000
 41
0.7112
 42
0.6000
 43
1.0000
 50
90.0000
  0
INSERT
  8
21
  2
RECT
 10
8.5725
 20
9.1306
 30
0.0000
 41
1.5988
 42
0.6000
 43
1.0000
 50
90.0000
  0
LINE
  8
21
 10
12.0713
 20
12.9300
 30
0.0000
 11
12.0713
 21
9.9300
 31
0.0000
  0
LINE
  8
21
 10
12.0713
 20
9.9300
 30
0.0000
 11
10.4713
 21
9.9300
 31
0.0000
  0
LINE
  8
21
 10
10.4713
 20
9.9300
 30
0.0000
 11
10.4713
 21
12.9300
 31
0.0000
  0
LINE
  8
21
 10
10.4713
 20
12.9300
 30
0.0000
 11
12.0713
 21
12.9300
 31
0.0000
  0
CIRCLE
  8
51
 10
11.2713
 20
7.6200
 30
0.0000
 40
0.3000
  0
CIRCLE
  8
51
 10
11.2713
 20
15.2400
 30
0.0000
 40
0.3000
  0
INSERT
  8
21
  2
RECT
 10
11.2713
 20
10.5300
 30
0.0000
 41
0.4000
 42
1.6000
 43
1.0000
 50
270.0000
  0
INSERT
  8
21
  2
RECT
 10
11.2713
 20
13.7294
 30
0.0000
 41
1.5988
 42
0.6000
 43
1.0000
 50
270.0000
  0
INSERT
  8
51
  2
RECT
 10
11.2713
 20
14.8844
 30
0.0000
 41
0.7112
 42
0.6000
 43
1.0000
 50
270.0000
  0
INSERT
  8
51
  2
RECT
 10
11.2713
 20
7.9756
 30
0.0000
 41
0.7112
 42
0.6000
 43
1.0000
 50
90.0000
  0
INSERT
  8
21
  2
RECT
 10
11.2713
 20
9.1306
 30
0.0000
 41
1.5988
 42
0.6000
 43
1.0000
 50
90.0000
  0
LINE
  8
21
 10
7.7725
 20
22.6300
 30
0.0000
 11
7.7725
 21
25.6300
 31
0.0000
  0
LINE
  8
21
 10
7.7725
 20
25.6300
 30
0.0000
 11
9.3725
 21
25.6300
 31
0.0000
  0
LINE
  8
21
 10
9.3725
 20
25.6300
 30
0.0000
 11
9.3725
 21
22.6300
 31
0.0000
  0
LINE
  8
21
 10
9.3725
 20
22.6300
 30
0.0000
 11
7.7725
 21
22.6300
 31
0.0000
  0
CIRCLE
  8
51
 10
8.5725
 20
27.9400
 30
0.0000
 40
0.3000
  0
CIRCLE
  8
51
 10
8.5725
 20
20.3200
 30
0.0000
 40
0.3000
  0
INSERT
  8
21
  2
RECT
 10
8.5725
 20
25.0300
 30
0.0000
 41
0.4000
 42
1.6000
 43
1.0000
 50
90.0000
  0
INSERT
  8
21
  2
RECT
 10
8.5725
 20
21.8306
 30
0.0000
 41
1.5988
 42
0.6000
 43
1.0000
 50
90.0000
  0
INSERT
  8
51
  2
RECT
 10
8.5725
 20
20.6756
 30
0.0000
 41
0.7112
 42
0.6000
 43
1.0000
 50
90.0000
  0
INSERT
  8
51
  2
RECT
 10
8.5725
 20
27.5844
 30
0.0000
 41
0.7112
 42
0.6000
 43
1.0000
 50
270.0000
  0
INSERT
  8
21
  2
RECT
 10
8.5725
 20
26.4294
 30
0.0000
 41
1.5988
 42
0.6000
 43
1.0000
 50
270.0000
  0
LINE
  8
21
 10
10.4713
 20
22.6300
 30
0.0000
 11
10.4713
 21
25.6300
 31
0.0000
  0
LINE
  8
21
 10
10.4713
 20
25.6300
 30
0.0000
 11
12.0713
 21
25.6300
 31
0.0000
  0
LINE
  8
21
 10
12.0713
 20
25.6300
 30
0.0000
 11
12.0713
 21
22.6300
 31
0.0000
  0
LINE
  8
21
 10
12.0713
 20
22.6300
 30
0.0000
 11
10.4713
 21
22.6300
 31
0.0000
  0
CIRCLE
  8
51
 10
11.2713
 20
27.9400
 30
0.0000
 40
0.3000
  0
CIRCLE
  8
51
 10
11.2713
 20
20.3200
 30
0.0000
 40
0.3000
  0
INSERT
  8
21
  2
RECT
 10
11.2713
 20
25.0300
 30
0.0000
 41
0.4000
 42
1.6000
 43
1.0000
 50
90.0000
  0
INSERT
  8
21
  2
RECT
 10
11.2713
 20
21.8306
 30
0.0000
 41
1.5988
 42
0.6000
 43
1.0000
 50
90.0000
  0
INSERT
  8
51
  2
RECT
 10
11.2713
 20
20.6756
 30
0.0000
 41
0.7112
 42
0.6000
 43
1.0000
 50
90.0000
  0
INSERT
  8
51
  2
RECT
 10
11.2713
 20
27.5844
 30
0.0000
 41
0.7112
 42
0.6000
 43
1.0000
 50
270.0000
  0
INSERT
  8
21
  2
RECT
 10
11.2713
 20
26.4294
 30
0.0000
 41
1.5988
 42
0.6000
 43
1.0000
 50
270.0000
  0
LINE
  8
21
 10
3.9800
 20
1.1700
 30
0.0000
 11
3.9800
 21
52.1700
 31
0.0000
  0
LINE
  8
21
 10
3.9800
 20
52.1700
 30
0.0000
 11
-4.5200
 21
52.1700
 31
0.0000
  0
LINE
  8
21
 10
-4.5200
 20
52.1700
 30
0.0000
 11
-4.5200
 21
1.1700
 31
0.0000
  0
LINE
  8
21
 10
-4.5200
 20
1.1700
 30
0.0000
 11
3.9800
 21
1.1700
 31
0.0000
  0
LINE
  8
21
 10
1.5800
 20
2.5700
 30
0.0000
 11
2.8800
 21
2.5700
 31
0.0000
  0
LINE
  8
21
 10
1.5800
 20
2.5700
 30
0.0000
 11
1.8800
 21
2.3700
 31
0.0000
  0
LINE
  8
21
 10
2.8800
 20
2.2700
 30
0.0000
 11
2.8800
 21
2.8700
 31
0.0000
  0
INSERT
  8
21
  2
RECT
 10
4.1300
 20
20.3200
 30
0.0000
 41
0.4000
 42
0.3000
 43
1.0000
 50
90.0000
  0
INSERT
  8
51
  2
RECT
 10
4.7800
 20
20.3200
 30
0.0000
 41
0.4000
 42
1.0000
 43
1.0000
 50
90.0000
  0
INSERT
  8
21
  2
RECT
 10
4.1300
 20
2.5400
 30
0.0000
 41
0.4000
 42
0.3000
 43
1.0000
 50
90.0000
  0
INSERT
  8
51
  2
RECT
 10
4.7800
 20
2.5400
 30
0.0000
 41
0.4000
 42
1.0000
 43
1.0000
 50
90.0000
  0
INSERT
  8
21
  2
RECT
 10
4.1300
 20
5.0800
 30
0.0000
 41
0.4000
 42
0.3000
 43
1.0000
 50
90.0000
  0
INSERT
  8
51
  2
RECT
 10
4.7800
 20
5.0800
 30
0.0000
 41
0.4000
 42
1.0000
 43
1.0000
 50
90.0000
  0
INSERT
  8
21
  2
RECT
 10
4.1300
 20
7.6200
 30
0.0000
 41
0.4000
 42
0.3000
 43
1.0000
 50
90.0000
  0
INSERT
  8
51
  2
RECT
 10
4.7800
 20
7.6200
 30
0.0000
 41
0.4000
 42
1.0000
 43
1.0000
 50
90.0000
  0
INSERT
  8
21
  2
RECT
 10
4.1300
 20
10.1600
 30
0.0000
 41
0.4000
 42
0.3000
 43
1.0000
 50
90.0000
  0
INSERT
  8
51
  2
RECT
 10
4.7800
 20
10.1600
 30
0.0000
 41
0.4000
 42
1.0000
 43
1.0000
 50
90.0000
  0
INSERT
  8
21
  2
RECT
 10
4.1300
 20
12.7000
 30
0.0000
 41
0.4000
 42
0.3000
 43
1.0000
 50
90.0000
  0
INSERT
  8
51
  2
RECT
 10
4.7800
 20
12.7000
 30
0.0000
 41
0.4000
 42
1.0000
 43
1.0000
 50
90.0000
  0
INSERT
  8
21
  2
RECT
 10
4.1300
 20
15.2400
 30
0.0000
 41
0.4000
 42
0.3000
 43
1.0000
 50
90.0000
  0
INSERT
  8
51
  2
RECT
 10
4.7800
 20
15.2400
 30
0.0000
 41
0.4000
 42
1.0000
 43
1.0000
 50
90.0000
  0
INSERT
  8
21
  2
RECT
 10
4.1300
 20
17.7800
 30
0.0000
 41
0.4000
 42
0.3000
 43
1.0000
 50
90.0000
  0
INSERT
  8
51
  2
RECT
 10
4.7800
 20
17.7800
 30
0.0000
 41
0.4000
 42
1.0000
 43
1.0000
 50
90.0000
  0
INSERT
  8
21
  2
RECT
 10
4.1300
 20
22.8600
 30
0.0000
 41
0.4000
 42
0.3000
 43
1.0000
 50
90.0000
  0
INSERT
  8
51
  2
RECT
 10
4.7800
 20
22.8600
 30
0.0000
 41
0.4000
 42
1.0000
 43
1.0000
 50
90.0000
  0
INSERT
  8
21
  2
RECT
 10
4.1300
 20
25.4000
 30
0.0000
 41
0.4000
 42
0.3000
 43
1.0000
 50
90.0000
  0
INSERT
  8
51
  2
RECT
 10
4.7800
 20
25.4000
 30
0.0000
 41
0.4000
 42
1.0000
 43
1.0000
 50
90.0000
  0
INSERT
  8
21
  2
RECT
 10
4.1300
 20
27.9400
 30
0.0000
 41
0.4000
 42
0.3000
 43
1.0000
 50
90.0000
  0
INSERT
  8
51
  2
RECT
 10
4.7800
 20
27.9400
 30
0.0000
 41
0.4000
 42
1.0000
 43
1.0000
 50
90.0000
  0
INSERT
  8
21
  2
RECT
 10
4.1300
 20
30.4800
 30
0.0000
 41
0.4000
 42
0.3000
 43
1.0000
 50
90.0000
  0
INSERT
  8
51
  2
RECT
 10
4.7800
 20
30.4800
 30
0.0000
 41
0.4000
 42
1.0000
 43
1.0000
 50
90.0000
  0
INSERT
  8
21
  2
RECT
 10
4.1300
 20
33.0200
 30
0.0000
 41
0.4000
 42
0.3000
 43
1.0000
 50
90.0000
  0
INSERT
  8
51
  2
RECT
 10
4.7800
 20
33.0200
 30
0.0000
 41
0.4000
 42
1.0000
 43
1.0000
 50
90.0000
  0
INSERT
  8
21
  2
RECT
 10
4.1300
 20
35.5600
 30
0.0000
 41
0.4000
 42
0.3000
 43
1.0000
 50
90.0000
  0
INSERT
  8
51
  2
RECT
 10
4.7800
 20
35.5600
 30
0.0000
 41
0.4000
 42
1.0000
 43
1.0000
 50
90.0000
  0
INSERT
  8
21
  2
RECT
 10
4.1300
 20
38.1000
 30
0.0000
 41
0.4000
 42
0.3000
 43
1.0000
 50
90.0000
  0
INSERT
  8
51
  2
RECT
 10
4.7800
 20
38.1000
 30
0.0000
 41
0.4000
 42
1.0000
 43
1.0000
 50
90.0000
  0
INSERT
  8
21
  2
RECT
 10
4.1300
 20
40.6400
 30
0.0000
 41
0.4000
 42
0.3000
 43
1.0000
 50
90.0000
  0
INSERT
  8
51
  2
RECT
 10
4.7800
 20
40.6400
 30
0.0000
 41
0.4000
 42
1.0000
 43
1.0000
 50
90.0000
  0
INSERT
  8
21
  2
RECT
 10
4.1300
 20
43.1800
 30
0.0000
 41
0.4000
 42
0.3000
 43
1.0000
 50
90.0000
  0
INSERT
  8
51
  2
RECT
 10
4.7800
 20
43.1800
 30
0.0000
 41
0.4000
 42
1.0000
 43
1.0000
 50
90.0000
  0
INSERT
  8
21
  2
RECT
 10
4.1300
 20
45.7200
 30
0.0000
 41
0.4000
 42
0.3000
 43
1.0000
 50
90.0000
  0
INSERT
  8
51
  2
RECT
 10
4.7800
 20
45.7200
 30
0.0000
 41
0.4000
 42
1.0000
 43
1.0000
 50
90.0000
  0
INSERT
  8
21
  2
RECT
 10
4.1300
 20
48.2600
 30
0.0000
 41
0.4000
 42
0.3000
 43
1.0000
 50
90.0000
  0
INSERT
  8
51
  2
RECT
 10
4.7800
 20
48.2600
 30
0.0000
 41
0.4000
 42
1.0000
 43
1.0000
 50
90.0000
  0
INSERT
  8
21
  2
RECT
 10
4.1300
 20
50.8000
 30
0.0000
 41
0.4000
 42
0.3000
 43
1.0000
 50
90.0000
  0
INSERT
  8
51
  2
RECT
 10
4.7800
 20
50.8000
 30
0.0000
 41
0.4000
 42
1.0000
 43
1.0000
 50
90.0000
  0
LINE
  8
48
 10
54.6100
 20
60.0000
 30
0.0000
 11
54.6100
 21
63.1750
 31
0.0000
  0
LINE
  8
48
 10
54.6100
 20
63.1750
 30
0.0000
 11
54.6100
 21
66.3500
 31
0.0000
  0
LINE
  8
48
 10
54.6100
 20
66.3500
 30
0.0000
 11
54.6100
 21
69.5250
 31
0.0000
  0
LINE
  8
48
 10
54.6100
 20
69.5250
 30
0.0000
 11
54.6100
 21
72.7000
 31
0.0000
  0
LINE
  8
48
 10
54.6100
 20
72.7000
 30
0.0000
 11
54.6100
 21
75.8750
 31
0.0000
  0
LINE
  8
48
 10
54.6100
 20
75.8750
 30
0.0000
 11
22.8600
 21
75.8750
 31
0.0000
  0
LINE
  8
48
 10
22.8600
 20
75.8750
 30
0.0000
 11
0.0000
 21
75.8750
 31
0.0000
  0
LINE
  8
48
 10
0.0000
 20
75.8750
 30
0.0000
 11
0.0000
 21
69.5250
 31
0.0000
  0
LINE
  8
48
 10
0.0000
 20
69.5250
 30
0.0000
 11
0.0000
 21
66.3500
 31
0.0000
  0
LINE
  8
48
 10
0.0000
 20
66.3500
 30
0.0000
 11
0.0000
 21
63.1750
 31
0.0000
  0
LINE
  8
48
 10
0.0000
 20
63.1750
 30
0.0000
 11
0.0000
 21
60.0000
 31
0.0000
  0
LINE
  8
48
 10
0.0000
 20
60.0000
 30
0.0000
 11
54.6100
 21
60.0000
 31
0.0000
  0
LINE
  8
48
 10
0.0000
 20
63.1750
 30
0.0000
 11
36.8300
 21
63.1750
 31
0.0000
  0
LINE
  8
48
 10
36.8300
 20
63.1750
 30
0.0000
 11
54.6100
 21
63.1750
 31
0.0000
  0
LINE
  8
48
 10
0.0000
 20
66.3500
 30
0.0000
 11
36.8300
 21
66.3500
 31
0.0000
  0
LINE
  8
48
 10
36.8300
 20
66.3500
 30
0.0000
 11
54.6100
 21
66.3500
 31
0.0000
  0
LINE
  8
48
 10
0.0000
 20
69.5250
 30
0.0000
 11
22.8600
 21
69.5250
 31
0.0000
  0
LINE
  8
48
 10
22.8600
 20
69.5250
 30
0.0000
 11
36.8300
 21
69.5250
 31
0.0000
  0
LINE
  8
48
 10
36.8300
 20
69.5250
 30
0.0000
 11
54.6100
 21
69.5250
 31
0.0000
  0
LINE
  8
48
 10
22.8600
 20
75.8750
 30
0.0000
 11
22.8600
 21
72.7000
 31
0.0000
  0
LINE
  8
48
 10
22.8600
 20
72.7000
 30
0.0000
 11
22.8600
 21
69.5250
 31
0.0000
  0
LINE
  8
48
 10
22.8600
 20
72.7000
 30
0.0000
 11
36.8300
 21
72.7000
 31
0.0000
  0
LINE
  8
48
 10
36.8300
 20
72.7000
 30
0.0000
 11
54.6100
 21
72.7000
 31
0.0000
  0
LINE
  8
48
 10
36.8300
 20
72.7000
 30
0.0000
 11
36.8300
 21
69.5250
 31
0.0000
  0
LINE
  8
48
 10
36.8300
 20
66.3500
 30
0.0000
 11
36.8300
 21
63.1750
 31
0.0000
  0
LINE
  8
21
 10
1.3589
 20
60.9102
 30
0.0000
 11
1.3589
 21
62.2564
 31
0.0000
  0
LINE
  8
21
 10
1.3589
 20
62.2564
 30
0.0000
 11
1.7328
 21
62.2564
 31
0.0000
  0
ARC
  8
21
 10
1.7328
 20
62.0320
 30
0.0000
 40
0.2244
 50
0.0000
 51
90.0000
  0
LINE
  8
21
 10
1.9572
 20
62.0320
 30
0.0000
 11
1.9572
 21
61.5833
 31
0.0000
  0
ARC
  8
21
 10
1.7328
 20
61.5833
 30
0.0000
 40
0.2244
 50
270.0008
 51
0.0000
  0
LINE
  8
21
 10
1.7328
 20
61.3589
 30
0.0000
 11
1.3589
 21
61.3589
 31
0.0000
  0
LINE
  8
21
 10
2.5485
 20
62.7051
 30
0.0000
 11
2.5485
 21
61.5833
 31
0.0000
  0
ARC
  8
21
 10
2.7729
 20
61.5833
 30
0.0000
 40
0.2244
 50
180.0000
 51
270.0000
  0
LINE
  8
21
 10
3.8564
 20
61.8824
 30
0.0000
 11
3.5199
 21
61.8824
 31
0.0000
  0
ARC
  8
21
 10
3.5199
 20
61.6207
 30
0.0000
 40
0.2618
 50
90.0000
 51
270.0000
  0
LINE
  8
21
 10
3.5199
 20
61.3589
 30
0.0000
 11
3.8564
 21
61.3589
 31
0.0000
  0
LINE
  8
21
 10
3.8564
 20
61.3589
 30
0.0000
 11
3.8564
 21
62.0320
 31
0.0000
  0
ARC
  8
21
 10
3.6320
 20
62.0320
 30
0.0000
 40
0.2244
 50
0.0000
 51
90.0000
  0
LINE
  8
21
 10
3.6320
 20
62.2564
 30
0.0000
 11
3.3329
 21
62.2564
 31
0.0000
  0
LINE
  8
21
 10
5.0241
 20
61.3589
 30
0.0000
 11
4.7250
 21
61.3589
 31
0.0000
  0
ARC
  8
21
 10
4.7250
 20
61.5833
 30
0.0000
 40
0.2244
 50
180.0000
 51
270.0000
  0
LINE
  8
21
 10
4.5006
 20
61.5833
 30
0.0000
 11
4.5006
 21
62.0320
 31
0.0000
  0
ARC
  8
21
 10
4.7250
 20
62.0320
 30
0.0000
 40
0.2244
 50
89.9992
 51
180.0000
  0
LINE
  8
21
 10
4.7250
 20
62.2564
 30
0.0000
 11
5.0241
 21
62.2564
 31
0.0000
  0
LINE
  8
21
 10
6.1464
 20
61.3589
 30
0.0000
 11
5.7725
 21
61.3589
 31
0.0000
  0
ARC
  8
21
 10
5.7725
 20
61.5833
 30
0.0000
 40
0.2244
 50
180.0000
 51
270.0000
  0
LINE
  8
21
 10
5.5481
 20
61.5833
 30
0.0000
 11
5.5481
 21
61.9572
 31
0.0000
  0
ARC
  8
21
 10
5.8473
 20
61.9572
 30
0.0000
 40
0.2992
 50
0.0000
 51
180.0000
  0
LINE
  8
21
 10
6.1464
 20
61.9572
 30
0.0000
 11
6.1464
 21
61.8076
 31
0.0000
  0
LINE
  8
21
 10
6.1464
 20
61.8076
 30
0.0000
 11
5.5481
 21
61.8076
 31
0.0000
  0
LINE
  8
21
 10
6.8130
 20
61.3589
 30
0.0000
 11
6.8130
 21
62.2564
 31
0.0000
  0
LINE
  8
21
 10
6.8130
 20
62.2564
 30
0.0000
 11
7.4861
 21
62.2564
 31
0.0000
  0
ARC
  8
21
 10
7.4861
 20
62.0320
 30
0.0000
 40
0.2244
 50
0.0000
 51
90.0000
  0
LINE
  8
21
 10
7.7105
 20
62.0320
 30
0.0000
 11
7.7105
 21
61.3589
 31
0.0000
  0
LINE
  8
21
 10
7.2617
 20
61.3589
 30
0.0000
 11
7.2617
 21
62.2564
 31
0.0000
  0
LINE
  8
21
 10
8.9754
 20
61.3589
 30
0.0000
 11
8.6014
 21
61.3589
 31
0.0000
  0
ARC
  8
21
 10
8.6014
 20
61.5833
 30
0.0000
 40
0.2244
 50
180.0000
 51
270.0000
  0
LINE
  8
21
 10
8.3771
 20
61.5833
 30
0.0000
 11
8.3771
 21
61.9572
 31
0.0000
  0
ARC
  8
21
 10
8.6762
 20
61.9572
 30
0.0000
 40
0.2992
 50
0.0000
 51
180.0000
  0
LINE
  8
21
 10
8.9754
 20
61.9572
 30
0.0000
 11
8.9754
 21
61.8076
 31
0.0000
  0
LINE
  8
21
 10
8.9754
 20
61.8076
 30
0.0000
 11
8.3771
 21
61.8076
 31
0.0000
  0
LINE
  8
21
 10
9.6090
 20
61.3589
 30
0.0000
 11
9.6090
 21
62.2564
 31
0.0000
  0
LINE
  8
21
 10
9.6090
 20
62.2564
 30
0.0000
 11
9.9830
 21
62.2564
 31
0.0000
  0
ARC
  8
21
 10
9.9830
 20
62.0320
 30
0.0000
 40
0.2244
 50
0.0000
 51
90.0000
  0
LINE
  8
21
 10
10.2074
 20
62.0320
 30
0.0000
 11
10.2074
 21
61.3589
 31
0.0000
  0
LINE
  8
21
 10
10.7198
 20
62.2564
 30
0.0000
 11
11.1685
 21
62.2564
 31
0.0000
  0
LINE
  8
21
 10
10.8694
 20
62.7051
 30
0.0000
 11
10.8694
 21
61.5833
 31
0.0000
  0
ARC
  8
21
 10
11.0937
 20
61.5833
 30
0.0000
 40
0.2244
 50
180.0000
 51
270.0000
  0
LINE
  8
21
 10
11.0937
 20
61.3589
 30
0.0000
 11
11.1685
 21
61.3589
 31
0.0000
  0
LINE
  8
21
 10
12.9635
 20
61.3589
 30
0.0000
 11
12.6643
 21
61.3589
 31
0.0000
  0
ARC
  8
21
 10
12.6643
 20
61.5833
 30
0.0000
 40
0.2244
 50
180.0000
 51
270.0000
  0
LINE
  8
21
 10
12.4400
 20
61.5833
 30
0.0000
 11
12.4400
 21
62.0320
 31
0.0000
  0
ARC
  8
21
 10
12.6643
 20
62.0320
 30
0.0000
 40
0.2244
 50
89.9992
 51
180.0000
  0
LINE
  8
21
 10
12.6643
 20
62.2564
 30
0.0000
 11
12.9635
 21
62.2564
 31
0.0000
  0
LINE
  8
21
 10
13.4875
 20
61.6581
 30
0.0000
 11
13.4875
 21
61.9572
 31
0.0000
  0
ARC
  8
21
 10
13.7866
 20
61.9572
 30
0.0000
 40
0.2992
 50
0.0000
 51
180.0000
  0
LINE
  8
21
 10
14.0858
 20
61.9572
 30
0.0000
 11
14.0858
 21
61.6581
 31
0.0000
  0
ARC
  8
21
 10
13.7866
 20
61.6581
 30
0.0000
 40
0.2992
 50
180.0000
 51
0.0000
  0
LINE
  8
21
 10
14.7524
 20
61.3589
 30
0.0000
 11
14.7524
 21
62.2564
 31
0.0000
  0
LINE
  8
21
 10
14.7524
 20
62.2564
 30
0.0000
 11
15.4255
 21
62.2564
 31
0.0000
  0
ARC
  8
21
 10
15.4255
 20
62.0320
 30
0.0000
 40
0.2244
 50
0.0000
 51
90.0000
  0
LINE
  8
21
 10
15.6498
 20
62.0320
 30
0.0000
 11
15.6498
 21
61.3589
 31
0.0000
  0
LINE
  8
21
 10
15.2011
 20
61.3589
 30
0.0000
 11
15.2011
 21
62.2564
 31
0.0000
  0
LINE
  8
21
 10
16.3706
 20
60.9102
 30
0.0000
 11
16.3706
 21
62.2564
 31
0.0000
  0
LINE
  8
21
 10
16.3706
 20
62.2564
 30
0.0000
 11
16.7446
 21
62.2564
 31
0.0000
  0
ARC
  8
21
 10
16.7446
 20
62.0320
 30
0.0000
 40
0.2244
 50
0.0000
 51
90.0000
  0
LINE
  8
21
 10
16.9690
 20
62.0320
 30
0.0000
 11
16.9690
 21
61.5833
 31
0.0000
  0
ARC
  8
21
 10
16.7446
 20
61.5833
 30
0.0000
 40
0.2244
 50
270.0008
 51
0.0000
  0
LINE
  8
21
 10
16.7446
 20
61.3589
 30
0.0000
 11
16.3706
 21
61.3589
 31
0.0000
  0
LINE
  8
21
 10
17.5484
 20
61.6581
 30
0.0000
 11
17.5484
 21
61.9572
 31
0.0000
  0
ARC
  8
21
 10
17.8475
 20
61.9572
 30
0.0000
 40
0.2992
 50
0.0000
 51
180.0000
  0
LINE
  8
21
 10
18.1467
 20
61.9572
 30
0.0000
 11
18.1467
 21
61.6581
 31
0.0000
  0
ARC
  8
21
 10
17.8475
 20
61.6581
 30
0.0000
 40
0.2992
 50
180.0000
 51
0.0000
  0
LINE
  8
21
 10
18.7804
 20
61.3589
 30
0.0000
 11
18.7804
 21
62.2564
 31
0.0000
  0
LINE
  8
21
 10
18.7804
 20
62.2564
 30
0.0000
 11
19.1543
 21
62.2564
 31
0.0000
  0
ARC
  8
21
 10
19.1543
 20
62.0320
 30
0.0000
 40
0.2244
 50
0.0000
 51
90.0000
  0
LINE
  8
21
 10
19.3787
 20
62.0320
 30
0.0000
 11
19.3787
 21
61.3589
 31
0.0000
  0
LINE
  8
21
 10
20.6106
 20
61.3589
 30
0.0000
 11
20.2367
 21
61.3589
 31
0.0000
  0
ARC
  8
21
 10
20.2367
 20
61.5833
 30
0.0000
 40
0.2244
 50
180.0000
 51
270.0000
  0
LINE
  8
21
 10
20.0123
 20
61.5833
 30
0.0000
 11
20.0123
 21
61.9572
 31
0.0000
  0
ARC
  8
21
 10
20.3115
 20
61.9572
 30
0.0000
 40
0.2992
 50
0.0000
 51
180.0000
  0
LINE
  8
21
 10
20.6106
 20
61.9572
 30
0.0000
 11
20.6106
 21
61.8076
 31
0.0000
  0
LINE
  8
21
 10
20.6106
 20
61.8076
 30
0.0000
 11
20.0123
 21
61.8076
 31
0.0000
  0
LINE
  8
21
 10
21.2443
 20
61.3589
 30
0.0000
 11
21.2443
 21
62.2564
 31
0.0000
  0
LINE
  8
21
 10
21.2443
 20
62.2564
 30
0.0000
 11
21.6182
 21
62.2564
 31
0.0000
  0
ARC
  8
21
 10
21.6182
 20
62.0320
 30
0.0000
 40
0.2244
 50
0.0000
 51
90.0000
  0
LINE
  8
21
 10
21.8426
 20
62.0320
 30
0.0000
 11
21.8426
 21
61.3589
 31
0.0000
  0
LINE
  8
21
 10
22.3550
 20
62.2564
 30
0.0000
 11
22.8038
 21
62.2564
 31
0.0000
  0
LINE
  8
21
 10
22.5046
 20
62.7051
 30
0.0000
 11
22.5046
 21
61.5833
 31
0.0000
  0
ARC
  8
21
 10
22.7290
 20
61.5833
 30
0.0000
 40
0.2244
 50
180.0000
 51
270.0000
  0
LINE
  8
21
 10
22.7290
 20
61.3589
 30
0.0000
 11
22.8038
 21
61.3589
 31
0.0000
  0
LINE
  8
21
 10
24.5594
 20
61.7328
 30
0.0000
 11
24.1854
 21
61.8824
 31
0.0000
  0
ARC
  8
21
 10
24.2574
 20
62.0625
 30
0.0000
 40
0.1939
 50
89.1810
 51
248.1986
  0
ARC
  8
21
 10
24.2481
 20
61.4071
 30
0.0000
 40
0.8493
 50
65.7609
 51
89.1810
  0
ARC
  8
21
 10
24.4874
 20
61.5528
 30
0.0000
 40
0.1939
 50
269.1810
 51
68.1986
  0
ARC
  8
21
 10
24.5027
 20
62.6272
 30
0.0000
 40
1.2684
 50
250.2096
 51
269.1810
  0
LINE
  8
21
 10
25.2393
 20
61.3589
 30
0.0000
 11
25.2393
 21
62.2564
 31
0.0000
  0
LINE
  8
21
 10
25.2019
 20
62.6303
 30
0.0000
 11
25.2019
 21
62.7051
 31
0.0000
  0
LINE
  8
21
 10
25.2019
 20
62.7051
 30
0.0000
 11
25.2767
 21
62.7051
 31
0.0000
  0
LINE
  8
21
 10
25.2767
 20
62.7051
 30
0.0000
 11
25.2767
 21
62.6303
 31
0.0000
  0
LINE
  8
21
 10
25.2767
 20
62.6303
 30
0.0000
 11
25.2019
 21
62.6303
 31
0.0000
  0
LINE
  8
21
 10
26.3968
 20
62.7051
 30
0.0000
 11
26.3968
 21
61.3589
 31
0.0000
  0
LINE
  8
21
 10
26.3968
 20
61.3589
 30
0.0000
 11
26.0229
 21
61.3589
 31
0.0000
  0
ARC
  8
21
 10
26.0229
 20
61.5833
 30
0.0000
 40
0.2244
 50
180.0000
 51
270.0000
  0
LINE
  8
21
 10
25.7985
 20
61.5833
 30
0.0000
 11
25.7985
 21
62.0320
 31
0.0000
  0
ARC
  8
21
 10
26.0229
 20
62.0320
 30
0.0000
 40
0.2244
 50
89.9992
 51
180.0000
  0
LINE
  8
21
 10
26.0229
 20
62.2564
 30
0.0000
 11
26.3968
 21
62.2564
 31
0.0000
  0
LINE
  8
21
 10
27.6374
 20
61.3589
 30
0.0000
 11
27.2635
 21
61.3589
 31
0.0000
  0
ARC
  8
21
 10
27.2635
 20
61.5833
 30
0.0000
 40
0.2244
 50
180.0000
 51
270.0000
  0
LINE
  8
21
 10
27.0391
 20
61.5833
 30
0.0000
 11
27.0391
 21
61.9572
 31
0.0000
  0
ARC
  8
21
 10
27.3382
 20
61.9572
 30
0.0000
 40
0.2992
 50
0.0000
 51
180.0000
  0
LINE
  8
21
 10
27.6374
 20
61.9572
 30
0.0000
 11
27.6374
 21
61.8076
 31
0.0000
  0
LINE
  8
21
 10
27.6374
 20
61.8076
 30
0.0000
 11
27.0391
 21
61.8076
 31
0.0000
  0
LINE
  8
48
 10
24.2316
 20
73.4366
 30
0.0000
 11
24.2316
 21
74.9098
 31
0.0000
  0
LINE
  8
48
 10
24.2316
 20
74.9098
 30
0.0000
 11
24.6408
 21
74.9098
 31
0.0000
  0
ARC
  8
48
 10
24.6408
 20
74.5006
 30
0.0000
 40
0.4092
 50
359.9996
 51
90.0000
  0
LINE
  8
48
 10
25.0500
 20
74.5006
 30
0.0000
 11
25.0500
 21
73.8458
 31
0.0000
  0
ARC
  8
48
 10
24.6408
 20
73.8458
 30
0.0000
 40
0.4092
 50
270.0004
 51
360.0000
  0
LINE
  8
48
 10
24.6408
 20
73.4366
 30
0.0000
 11
24.2316
 21
73.4366
 31
0.0000
  0
LINE
  8
48
 10
25.7505
 20
73.7640
 30
0.0000
 11
25.7505
 21
74.0914
 31
0.0000
  0
ARC
  8
48
 10
26.0778
 20
74.0914
 30
0.0000
 40
0.3274
 50
0.0000
 51
180.0000
  0
LINE
  8
48
 10
26.4052
 20
74.0914
 30
0.0000
 11
26.4052
 21
73.7640
 31
0.0000
  0
ARC
  8
48
 10
26.0778
 20
73.7640
 30
0.0000
 40
0.3274
 50
180.0000
 51
0.0000
  0
LINE
  8
48
 10
27.6139
 20
73.4366
 30
0.0000
 11
27.2865
 21
73.4366
 31
0.0000
  0
ARC
  8
48
 10
27.2865
 20
73.6821
 30
0.0000
 40
0.2455
 50
180.0000
 51
270.0000
  0
LINE
  8
48
 10
27.0410
 20
73.6821
 30
0.0000
 11
27.0410
 21
74.1732
 31
0.0000
  0
ARC
  8
48
 10
27.2865
 20
74.1732
 30
0.0000
 40
0.2455
 50
90.0000
 51
180.0000
  0
LINE
  8
48
 10
27.2865
 20
74.4187
 30
0.0000
 11
27.6139
 21
74.4187
 31
0.0000
  0
LINE
  8
48
 10
28.1181
 20
73.4366
 30
0.0000
 11
28.1181
 21
73.5184
 31
0.0000
  0
LINE
  8
48
 10
28.1181
 20
73.5184
 30
0.0000
 11
28.2000
 21
73.5184
 31
0.0000
  0
LINE
  8
48
 10
28.2000
 20
73.5184
 30
0.0000
 11
28.2000
 21
73.4366
 31
0.0000
  0
LINE
  8
48
 10
28.2000
 20
73.4366
 30
0.0000
 11
28.1181
 21
73.4366
 31
0.0000
  0
LINE
  8
48
 10
28.8077
 20
74.0095
 30
0.0000
 11
29.7898
 21
74.0095
 31
0.0000
  0
LINE
  8
48
 10
30.5248
 20
73.4366
 30
0.0000
 11
30.5248
 21
74.9098
 31
0.0000
  0
LINE
  8
48
 10
30.5248
 20
74.9098
 30
0.0000
 11
31.3432
 21
73.4366
 31
0.0000
  0
LINE
  8
48
 10
31.3432
 20
73.4366
 30
0.0000
 11
31.3432
 21
74.9098
 31
0.0000
  0
LINE
  8
48
 10
32.0436
 20
73.7640
 30
0.0000
 11
32.0436
 21
74.0914
 31
0.0000
  0
ARC
  8
48
 10
32.3710
 20
74.0914
 30
0.0000
 40
0.3274
 50
0.0000
 51
180.0000
  0
LINE
  8
48
 10
32.6984
 20
74.0914
 30
0.0000
 11
32.6984
 21
73.7640
 31
0.0000
  0
ARC
  8
48
 10
32.3710
 20
73.7640
 30
0.0000
 40
0.3274
 50
180.0000
 51
0.0000
  0
LINE
  8
48
 10
33.2716
 20
73.4366
 30
0.0000
 11
33.2716
 21
73.5184
 31
0.0000
  0
LINE
  8
48
 10
33.2716
 20
73.5184
 30
0.0000
 11
33.3534
 21
73.5184
 31
0.0000
  0
LINE
  8
48
 10
33.3534
 20
73.5184
 30
0.0000
 11
33.3534
 21
73.4366
 31
0.0000
  0
LINE
  8
48
 10
33.3534
 20
73.4366
 30
0.0000
 11
33.2716
 21
73.4366
 31
0.0000
  0
LINE
  8
48
 10
33.9158
 20
73.5594
 30
0.0000
 11
33.9158
 21
73.6412
 31
0.0000
  0
LINE
  8
48
 10
33.9158
 20
73.6412
 30
0.0000
 11
33.9976
 21
73.6412
 31
0.0000
  0
LINE
  8
48
 10
33.9976
 20
73.6412
 30
0.0000
 11
33.9976
 21
73.5594
 31
0.0000
  0
LINE
  8
48
 10
33.9976
 20
73.5594
 30
0.0000
 11
33.9158
 21
73.5594
 31
0.0000
  0
LINE
  8
48
 10
33.9158
 20
74.2141
 30
0.0000
 11
33.9158
 21
74.2960
 31
0.0000
  0
LINE
  8
48
 10
33.9158
 20
74.2960
 30
0.0000
 11
33.9976
 21
74.2960
 31
0.0000
  0
LINE
  8
48
 10
33.9976
 20
74.2960
 30
0.0000
 11
33.9976
 21
74.2141
 31
0.0000
  0
LINE
  8
48
 10
33.9976
 20
74.2141
 30
0.0000
 11
33.9158
 21
74.2141
 31
0.0000
  0
LINE
  8
48
 10
38.2016
 20
63.9116
 30
0.0000
 11
38.2016
 21
65.3848
 31
0.0000
  0
LINE
  8
48
 10
38.2016
 20
65.3848
 30
0.0000
 11
38.6108
 21
65.3848
 31
0.0000
  0
ARC
  8
48
 10
38.6108
 20
64.9756
 30
0.0000
 40
0.4092
 50
270.0000
 51
90.0000
  0
LINE
  8
48
 10
38.6108
 20
64.5664
 30
0.0000
 11
38.2016
 21
64.5664
 31
0.0000
  0
LINE
  8
48
 10
39.0200
 20
63.9116
 30
0.0000
 11
38.6927
 21
64.5664
 31
0.0000
  0
LINE
  8
48
 10
40.3143
 20
63.9116
 30
0.0000
 11
39.9051
 21
63.9116
 31
0.0000
  0
ARC
  8
48
 10
39.9051
 20
64.1571
 30
0.0000
 40
0.2455
 50
180.0000
 51
270.0000
  0
LINE
  8
48
 10
39.6596
 20
64.1571
 30
0.0000
 11
39.6596
 21
64.5664
 31
0.0000
  0
ARC
  8
48
 10
39.9870
 20
64.5664
 30
0.0000
 40
0.3274
 50
0.0000
 51
180.0000
  0
LINE
  8
48
 10
40.3143
 20
64.5664
 30
0.0000
 11
40.3143
 21
64.4027
 31
0.0000
  0
LINE
  8
48
 10
40.3143
 20
64.4027
 30
0.0000
 11
39.6596
 21
64.4027
 31
0.0000
  0
LINE
  8
48
 10
40.8984
 20
64.8937
 30
0.0000
 11
41.2258
 21
63.9116
 31
0.0000
  0
LINE
  8
48
 10
41.2258
 20
63.9116
 30
0.0000
 11
41.5532
 21
64.8937
 31
0.0000
  0
LINE
  8
48
 10
42.0768
 20
63.9116
 30
0.0000
 11
42.0768
 21
63.9934
 31
0.0000
  0
LINE
  8
48
 10
42.0768
 20
63.9934
 30
0.0000
 11
42.1586
 21
63.9934
 31
0.0000
  0
LINE
  8
48
 10
42.1586
 20
63.9934
 30
0.0000
 11
42.1586
 21
63.9116
 31
0.0000
  0
LINE
  8
48
 10
42.1586
 20
63.9116
 30
0.0000
 11
42.0768
 21
63.9116
 31
0.0000
  0
LINE
  8
48
 10
42.7210
 20
64.0344
 30
0.0000
 11
42.7210
 21
64.1162
 31
0.0000
  0
LINE
  8
48
 10
42.7210
 20
64.1162
 30
0.0000
 11
42.8028
 21
64.1162
 31
0.0000
  0
LINE
  8
48
 10
42.8028
 20
64.1162
 30
0.0000
 11
42.8028
 21
64.0344
 31
0.0000
  0
LINE
  8
48
 10
42.8028
 20
64.0344
 30
0.0000
 11
42.7210
 21
64.0344
 31
0.0000
  0
LINE
  8
48
 10
42.7210
 20
64.6891
 30
0.0000
 11
42.7210
 21
64.7710
 31
0.0000
  0
LINE
  8
48
 10
42.7210
 20
64.7710
 30
0.0000
 11
42.8028
 21
64.7710
 31
0.0000
  0
LINE
  8
48
 10
42.8028
 20
64.7710
 30
0.0000
 11
42.8028
 21
64.6891
 31
0.0000
  0
LINE
  8
48
 10
42.8028
 20
64.6891
 30
0.0000
 11
42.7210
 21
64.6891
 31
0.0000
  0
LINE
  8
48
 10
38.8564
 20
70.2616
 30
0.0000
 11
38.5290
 21
70.2616
 31
0.0000
  0
ARC
  8
48
 10
38.5290
 20
70.5890
 30
0.0000
 40
0.3274
 50
180.0000
 51
270.0000
  0
LINE
  8
48
 10
38.2016
 20
70.5890
 30
0.0000
 11
38.2016
 21
71.4074
 31
0.0000
  0
ARC
  8
48
 10
38.5290
 20
71.4074
 30
0.0000
 40
0.3274
 50
90.0005
 51
180.0000
  0
LINE
  8
48
 10
38.5290
 20
71.7348
 30
0.0000
 11
38.8564
 21
71.7348
 31
0.0000
  0
LINE
  8
48
 10
39.4777
 20
71.2437
 30
0.0000
 11
39.4777
 21
70.5071
 31
0.0000
  0
ARC
  8
48
 10
39.7232
 20
70.5071
 30
0.0000
 40
0.2455
 50
180.0000
 51
270.0000
  0
LINE
  8
48
 10
39.7232
 20
70.2616
 30
0.0000
 11
40.1324
 21
70.2616
 31
0.0000
  0
LINE
  8
48
 10
40.1324
 20
70.2616
 30
0.0000
 11
40.1324
 21
71.2437
 31
0.0000
  0
LINE
  8
48
 10
40.8501
 20
70.8345
 30
0.0000
 11
41.8322
 21
70.8345
 31
0.0000
  0
LINE
  8
48
 10
42.5708
 20
71.7348
 30
0.0000
 11
42.5708
 21
70.2616
 31
0.0000
  0
LINE
  8
48
 10
42.5708
 20
70.2616
 30
0.0000
 11
43.2256
 21
70.2616
 31
0.0000
  0
LINE
  8
48
 10
44.4344
 20
70.8345
 30
0.0000
 11
44.0661
 21
70.8345
 31
0.0000
  0
ARC
  8
48
 10
44.0661
 20
70.5481
 30
0.0000
 40
0.2865
 50
90.0000
 51
270.0000
  0
LINE
  8
48
 10
44.0661
 20
70.2616
 30
0.0000
 11
44.4344
 21
70.2616
 31
0.0000
  0
LINE
  8
48
 10
44.4344
 20
70.2616
 30
0.0000
 11
44.4344
 21
70.9982
 31
0.0000
  0
ARC
  8
48
 10
44.1889
 20
70.9982
 30
0.0000
 40
0.2455
 50
0.0000
 51
90.0000
  0
LINE
  8
48
 10
44.1889
 20
71.2437
 30
0.0000
 11
43.8615
 21
71.2437
 31
0.0000
  0
LINE
  8
48
 10
45.0771
 20
69.7705
 30
0.0000
 11
45.2408
 21
69.7705
 31
0.0000
  0
LINE
  8
48
 10
45.2408
 20
69.7705
 30
0.0000
 11
45.7319
 21
71.2437
 31
0.0000
  0
LINE
  8
48
 10
45.0771
 20
71.2437
 30
0.0000
 11
45.4045
 21
70.2616
 31
0.0000
  0
LINE
  8
48
 10
46.9707
 20
70.2616
 30
0.0000
 11
46.5615
 21
70.2616
 31
0.0000
  0
ARC
  8
48
 10
46.5615
 20
70.5071
 30
0.0000
 40
0.2455
 50
180.0000
 51
270.0000
  0
LINE
  8
48
 10
46.3159
 20
70.5071
 30
0.0000
 11
46.3159
 21
70.9164
 31
0.0000
  0
ARC
  8
48
 10
46.6433
 20
70.9164
 30
0.0000
 40
0.3274
 50
0.0000
 51
180.0000
  0
LINE
  8
48
 10
46.9707
 20
70.9164
 30
0.0000
 11
46.9707
 21
70.7527
 31
0.0000
  0
LINE
  8
48
 10
46.9707
 20
70.7527
 30
0.0000
 11
46.3159
 21
70.7527
 31
0.0000
  0
LINE
  8
48
 10
47.6643
 20
70.2616
 30
0.0000
 11
47.6643
 21
71.2437
 31
0.0000
  0
LINE
  8
48
 10
47.6643
 20
71.2437
 30
0.0000
 11
48.1553
 21
71.2437
 31
0.0000
  0
LINE
  8
48
 10
48.1553
 20
71.2437
 30
0.0000
 11
48.1553
 21
71.0800
 31
0.0000
  0
LINE
  8
48
 10
49.1769
 20
70.6708
 30
0.0000
 11
48.7677
 21
70.8345
 31
0.0000
  0
ARC
  8
48
 10
48.8465
 20
71.0315
 30
0.0000
 40
0.2122
 50
89.1816
 51
248.1986
  0
ARC
  8
48
 10
48.8362
 20
70.3144
 30
0.0000
 40
0.9294
 50
65.7610
 51
89.1816
  0
ARC
  8
48
 10
49.0981
 20
70.4738
 30
0.0000
 40
0.2122
 50
269.1816
 51
68.1989
  0
ARC
  8
48
 10
49.1149
 20
71.6495
 30
0.0000
 40
1.3880
 50
250.2089
 51
269.1815
  0
LINE
  8
48
 10
49.9224
 20
70.3844
 30
0.0000
 11
49.9224
 21
70.4662
 31
0.0000
  0
LINE
  8
48
 10
49.9224
 20
70.4662
 30
0.0000
 11
50.0043
 21
70.4662
 31
0.0000
  0
LINE
  8
48
 10
50.0043
 20
70.4662
 30
0.0000
 11
50.0043
 21
70.3844
 31
0.0000
  0
LINE
  8
48
 10
50.0043
 20
70.3844
 30
0.0000
 11
49.9224
 21
70.3844
 31
0.0000
  0
LINE
  8
48
 10
49.9224
 20
71.0391
 30
0.0000
 11
49.9224
 21
71.1210
 31
0.0000
  0
LINE
  8
48
 10
49.9224
 20
71.1210
 30
0.0000
 11
50.0043
 21
71.1210
 31
0.0000
  0
LINE
  8
48
 10
50.0043
 20
71.1210
 30
0.0000
 11
50.0043
 21
71.0391
 31
0.0000
  0
LINE
  8
48
 10
50.0043
 20
71.0391
 30
0.0000
 11
49.9224
 21
71.0391
 31
0.0000
  0
LINE
  8
48
 10
24.8864
 20
70.2616
 30
0.0000
 11
24.5590
 21
70.2616
 31
0.0000
  0
ARC
  8
48
 10
24.5590
 20
70.5890
 30
0.0000
 40
0.3274
 50
180.0000
 51
270.0000
  0
LINE
  8
48
 10
24.2316
 20
70.5890
 30
0.0000
 11
24.2316
 21
71.4074
 31
0.0000
  0
ARC
  8
48
 10
24.5590
 20
71.4074
 30
0.0000
 40
0.3274
 50
90.0005
 51
180.0000
  0
LINE
  8
48
 10
24.5590
 20
71.7348
 30
0.0000
 11
24.8864
 21
71.7348
 31
0.0000
  0
LINE
  8
48
 10
25.5077
 20
71.2437
 30
0.0000
 11
25.5077
 21
70.5071
 31
0.0000
  0
ARC
  8
48
 10
25.7532
 20
70.5071
 30
0.0000
 40
0.2455
 50
180.0000
 51
270.0000
  0
LINE
  8
48
 10
25.7532
 20
70.2616
 30
0.0000
 11
26.1624
 21
70.2616
 31
0.0000
  0
LINE
  8
48
 10
26.1624
 20
70.2616
 30
0.0000
 11
26.1624
 21
71.2437
 31
0.0000
  0
LINE
  8
48
 10
26.8347
 20
70.3844
 30
0.0000
 11
26.8347
 21
70.4662
 31
0.0000
  0
LINE
  8
48
 10
26.8347
 20
70.4662
 30
0.0000
 11
26.9166
 21
70.4662
 31
0.0000
  0
LINE
  8
48
 10
26.9166
 20
70.4662
 30
0.0000
 11
26.9166
 21
70.3844
 31
0.0000
  0
LINE
  8
48
 10
26.9166
 20
70.3844
 30
0.0000
 11
26.8347
 21
70.3844
 31
0.0000
  0
LINE
  8
48
 10
26.8347
 20
71.0391
 30
0.0000
 11
26.8347
 21
71.1210
 31
0.0000
  0
LINE
  8
48
 10
26.8347
 20
71.1210
 30
0.0000
 11
26.9166
 21
71.1210
 31
0.0000
  0
LINE
  8
48
 10
26.9166
 20
71.1210
 30
0.0000
 11
26.9166
 21
71.0391
 31
0.0000
  0
LINE
  8
48
 10
26.9166
 20
71.0391
 30
0.0000
 11
26.8347
 21
71.0391
 31
0.0000
  0
LINE
  8
48
 10
1.3716
 20
67.0866
 30
0.0000
 11
1.3716
 21
68.5598
 31
0.0000
  0
LINE
  8
48
 10
1.3716
 20
68.5598
 30
0.0000
 11
1.7808
 21
68.5598
 31
0.0000
  0
ARC
  8
48
 10
1.7808
 20
68.1506
 30
0.0000
 40
0.4092
 50
270.0000
 51
90.0000
  0
LINE
  8
48
 10
1.7808
 20
67.7414
 30
0.0000
 11
1.3716
 21
67.7414
 31
0.0000
  0
LINE
  8
48
 10
3.4905
 20
67.0866
 30
0.0000
 11
2.8357
 21
67.0866
 31
0.0000
  0
LINE
  8
48
 10
2.8357
 20
67.0866
 30
0.0000
 11
2.8357
 21
68.5598
 31
0.0000
  0
LINE
  8
48
 10
2.8357
 20
68.5598
 30
0.0000
 11
3.4905
 21
68.5598
 31
0.0000
  0
LINE
  8
48
 10
2.8357
 20
67.9050
 30
0.0000
 11
3.3268
 21
67.9050
 31
0.0000
  0
LINE
  8
48
 10
4.3810
 20
67.0866
 30
0.0000
 11
4.3810
 21
68.5598
 31
0.0000
  0
LINE
  8
48
 10
3.9718
 20
68.5598
 30
0.0000
 11
4.7902
 21
68.5598
 31
0.0000
  0
LINE
  8
48
 10
5.2925
 20
66.9229
 30
0.0000
 11
5.9472
 21
66.9229
 31
0.0000
  0
LINE
  8
48
 10
6.5981
 20
67.0866
 30
0.0000
 11
6.5981
 21
68.5598
 31
0.0000
  0
LINE
  8
48
 10
6.5981
 20
68.5598
 30
0.0000
 11
7.0073
 21
68.5598
 31
0.0000
  0
ARC
  8
48
 10
7.0073
 20
68.1506
 30
0.0000
 40
0.4092
 50
359.9996
 51
90.0000
  0
LINE
  8
48
 10
7.4165
 20
68.1506
 30
0.0000
 11
7.4165
 21
67.4958
 31
0.0000
  0
ARC
  8
48
 10
7.0073
 20
67.4958
 30
0.0000
 40
0.4092
 50
270.0004
 51
360.0000
  0
LINE
  8
48
 10
7.0073
 20
67.0866
 30
0.0000
 11
6.5981
 21
67.0866
 31
0.0000
  0
LINE
  8
48
 10
8.0975
 20
67.0866
 30
0.0000
 11
8.0975
 21
68.0687
 31
0.0000
  0
LINE
  8
48
 10
8.0565
 20
68.4780
 30
0.0000
 11
8.0565
 21
68.5598
 31
0.0000
  0
LINE
  8
48
 10
8.0565
 20
68.5598
 30
0.0000
 11
8.1384
 21
68.5598
 31
0.0000
  0
LINE
  8
48
 10
8.1384
 20
68.5598
 30
0.0000
 11
8.1384
 21
68.4780
 31
0.0000
  0
LINE
  8
48
 10
8.1384
 20
68.4780
 30
0.0000
 11
8.0565
 21
68.4780
 31
0.0000
  0
LINE
  8
48
 10
9.3573
 20
67.6595
 30
0.0000
 11
8.9890
 21
67.6595
 31
0.0000
  0
ARC
  8
48
 10
8.9890
 20
67.3731
 30
0.0000
 40
0.2865
 50
90.0000
 51
270.0000
  0
LINE
  8
48
 10
8.9890
 20
67.0866
 30
0.0000
 11
9.3573
 21
67.0866
 31
0.0000
  0
LINE
  8
48
 10
9.3573
 20
67.0866
 30
0.0000
 11
9.3573
 21
67.8232
 31
0.0000
  0
ARC
  8
48
 10
9.1117
 20
67.8232
 30
0.0000
 40
0.2455
 50
0.0000
 51
90.0000
  0
LINE
  8
48
 10
9.1117
 20
68.0687
 30
0.0000
 11
8.7844
 21
68.0687
 31
0.0000
  0
LINE
  8
48
 10
10.6952
 20
67.0866
 30
0.0000
 11
10.2860
 21
67.0866
 31
0.0000
  0
ARC
  8
48
 10
10.2860
 20
67.3321
 30
0.0000
 40
0.2455
 50
180.0000
 51
270.0000
  0
LINE
  8
48
 10
10.0404
 20
67.3321
 30
0.0000
 11
10.0404
 21
67.8232
 31
0.0000
  0
ARC
  8
48
 10
10.2860
 20
67.8232
 30
0.0000
 40
0.2455
 50
90.0000
 51
180.0000
  0
LINE
  8
48
 10
10.2860
 20
68.0687
 30
0.0000
 11
10.6952
 21
68.0687
 31
0.0000
  0
LINE
  8
48
 10
10.6952
 20
68.0687
 30
0.0000
 11
10.6952
 21
66.8411
 31
0.0000
  0
ARC
  8
48
 10
10.4497
 20
66.8411
 30
0.0000
 40
0.2455
 50
270.0015
 51
0.0000
  0
LINE
  8
48
 10
10.4497
 20
66.5955
 30
0.0000
 11
10.1223
 21
66.5955
 31
0.0000
  0
LINE
  8
48
 10
11.3379
 20
66.9229
 30
0.0000
 11
11.9926
 21
66.9229
 31
0.0000
  0
LINE
  8
48
 10
12.6696
 20
67.0866
 30
0.0000
 11
12.6696
 21
68.5598
 31
0.0000
  0
LINE
  8
48
 10
13.4880
 20
68.5598
 30
0.0000
 11
12.6696
 21
67.6595
 31
0.0000
  0
LINE
  8
48
 10
13.4880
 20
67.0866
 30
0.0000
 11
12.9970
 21
67.9869
 31
0.0000
  0
LINE
  8
48
 10
14.1562
 20
67.9050
 30
0.0000
 11
14.5654
 21
67.9050
 31
0.0000
  0
ARC
  8
48
 10
14.5654
 20
67.4958
 30
0.0000
 40
0.4092
 50
270.0000
 51
90.0000
  0
LINE
  8
48
 10
14.5654
 20
67.0866
 30
0.0000
 11
14.1562
 21
67.0866
 31
0.0000
  0
LINE
  8
48
 10
14.1562
 20
67.0866
 30
0.0000
 11
14.1562
 21
68.5598
 31
0.0000
  0
LINE
  8
48
 10
14.1562
 20
68.5598
 30
0.0000
 11
14.5654
 21
68.5598
 31
0.0000
  0
ARC
  8
48
 10
14.5654
 20
68.2324
 30
0.0000
 40
0.3274
 50
270.0000
 51
90.0000
  0
ARC
  8
48
 10
1.8217
 20
65.0165
 30
0.0000
 40
0.3683
 50
0.0000
 51
90.0000
  0
ARC
  8
48
 10
1.8217
 20
64.9116
 30
0.0000
 40
0.4732
 50
90.0000
 51
162.0549
  0
ARC
  8
48
 10
1.7945
 20
65.0165
 30
0.0000
 40
0.3956
 50
313.6022
 51
0.0000
  0
LINE
  8
48
 10
2.0673
 20
64.7300
 30
0.0000
 11
1.3716
 21
63.9116
 31
0.0000
  0
LINE
  8
48
 10
1.3716
 20
63.9116
 30
0.0000
 11
2.1900
 21
63.9116
 31
0.0000
  0
LINE
  8
48
 10
2.8582
 20
65.2211
 30
0.0000
 11
2.8582
 21
65.3848
 31
0.0000
  0
LINE
  8
48
 10
2.8582
 20
65.3848
 30
0.0000
 11
3.6766
 21
65.3848
 31
0.0000
  0
LINE
  8
48
 10
3.6766
 20
65.3848
 30
0.0000
 11
3.2674
 21
63.9116
 31
0.0000
  0
LINE
  8
48
 10
4.2671
 20
63.9116
 30
0.0000
 11
4.2671
 21
63.9934
 31
0.0000
  0
LINE
  8
48
 10
4.2671
 20
63.9934
 30
0.0000
 11
4.3489
 21
63.9934
 31
0.0000
  0
LINE
  8
48
 10
4.3489
 20
63.9934
 30
0.0000
 11
4.3489
 21
63.9116
 31
0.0000
  0
LINE
  8
48
 10
4.3489
 20
63.9116
 30
0.0000
 11
4.2671
 21
63.9116
 31
0.0000
  0
LINE
  8
48
 10
4.9394
 20
65.0574
 30
0.0000
 11
5.3486
 21
65.3848
 31
0.0000
  0
LINE
  8
48
 10
5.3486
 20
65.3848
 30
0.0000
 11
5.3486
 21
63.9116
 31
0.0000
  0
LINE
  8
48
 10
4.9394
 20
63.9116
 30
0.0000
 11
5.7578
 21
63.9116
 31
0.0000
  0
ARC
  8
48
 10
7.6400
 20
64.6482
 30
0.0000
 40
1.2140
 50
154.0109
 51
180.0000
  0
ARC
  8
48
 10
6.8352
 20
65.0820
 30
0.0000
 40
0.3028
 50
90.0000
 51
161.0756
  0
ARC
  8
48
 10
6.8352
 20
65.0820
 30
0.0000
 40
0.3028
 50
18.9237
 51
90.0001
  0
ARC
  8
48
 10
6.0304
 20
64.6482
 30
0.0000
 40
1.2140
 50
360.0000
 51
25.9897
  0
ARC
  8
48
 10
7.6400
 20
64.6482
 30
0.0000
 40
1.2140
 50
180.0000
 51
205.9889
  0
ARC
  8
48
 10
6.8352
 20
64.2144
 30
0.0000
 40
0.3028
 50
198.9251
 51
270.0001
  0
ARC
  8
48
 10
6.0304
 20
64.6482
 30
0.0000
 40
1.2140
 50
334.0105
 51
359.9999
  0
ARC
  8
48
 10
6.8352
 20
64.2144
 30
0.0000
 40
0.3028
 50
270.0000
 51
341.0759
  0
LINE
  8
48
 10
6.5078
 20
64.2390
 30
0.0000
 11
7.1626
 21
65.0574
 31
0.0000
  0
LINE
  8
48
 10
7.8349
 20
63.9116
 30
0.0000
 11
7.8349
 21
63.9934
 31
0.0000
  0
LINE
  8
48
 10
7.8349
 20
63.9934
 30
0.0000
 11
7.9167
 21
63.9934
 31
0.0000
  0
LINE
  8
48
 10
7.9167
 20
63.9934
 30
0.0000
 11
7.9167
 21
63.9116
 31
0.0000
  0
LINE
  8
48
 10
7.9167
 20
63.9116
 30
0.0000
 11
7.8349
 21
63.9116
 31
0.0000
  0
ARC
  8
48
 10
8.9573
 20
65.0165
 30
0.0000
 40
0.3683
 50
0.0000
 51
90.0000
  0
ARC
  8
48
 10
8.9573
 20
64.9116
 30
0.0000
 40
0.4732
 50
90.0000
 51
162.0549
  0
ARC
  8
48
 10
8.9300
 20
65.0165
 30
0.0000
 40
0.3956
 50
313.6022
 51
0.0000
  0
LINE
  8
48
 10
9.2028
 20
64.7300
 30
0.0000
 11
8.5072
 21
63.9116
 31
0.0000
  0
LINE
  8
48
 10
8.5072
 20
63.9116
 30
0.0000
 11
9.3256
 21
63.9116
 31
0.0000
  0
ARC
  8
48
 10
11.2078
 20
64.6482
 30
0.0000
 40
1.2140
 50
154.0109
 51
180.0000
  0
ARC
  8
48
 10
10.4029
 20
65.0820
 30
0.0000
 40
0.3028
 50
90.0000
 51
161.0756
  0
ARC
  8
48
 10
10.4029
 20
65.0820
 30
0.0000
 40
0.3028
 50
18.9237
 51
90.0001
  0
ARC
  8
48
 10
9.5982
 20
64.6482
 30
0.0000
 40
1.2140
 50
360.0000
 51
25.9897
  0
ARC
  8
48
 10
11.2078
 20
64.6482
 30
0.0000
 40
1.2140
 50
180.0000
 51
205.9889
  0
ARC
  8
48
 10
10.4029
 20
64.2144
 30
0.0000
 40
0.3028
 50
198.9251
 51
270.0001
  0
ARC
  8
48
 10
9.5981
 20
64.6482
 30
0.0000
 40
1.2140
 50
334.0105
 51
359.9999
  0
ARC
  8
48
 10
10.4029
 20
64.2144
 30
0.0000
 40
0.3028
 50
270.0000
 51
341.0759
  0
LINE
  8
48
 10
10.0756
 20
64.2390
 30
0.0000
 11
10.7303
 21
65.0574
 31
0.0000
  0
ARC
  8
48
 10
11.9304
 20
65.0165
 30
0.0000
 40
0.3683
 50
0.0000
 51
90.0000
  0
ARC
  8
48
 10
11.9304
 20
64.9116
 30
0.0000
 40
0.4732
 50
90.0000
 51
162.0549
  0
ARC
  8
48
 10
11.9032
 20
65.0165
 30
0.0000
 40
0.3956
 50
313.6022
 51
0.0000
  0
LINE
  8
48
 10
12.1760
 20
64.7300
 30
0.0000
 11
11.4803
 21
63.9116
 31
0.0000
  0
LINE
  8
48
 10
11.4803
 20
63.9116
 30
0.0000
 11
12.2987
 21
63.9116
 31
0.0000
  0
ARC
  8
48
 10
14.1809
 20
64.6482
 30
0.0000
 40
1.2140
 50
154.0109
 51
180.0000
  0
ARC
  8
48
 10
13.3761
 20
65.0820
 30
0.0000
 40
0.3028
 50
90.0000
 51
161.0756
  0
ARC
  8
48
 10
13.3761
 20
65.0820
 30
0.0000
 40
0.3028
 50
18.9237
 51
90.0001
  0
ARC
  8
48
 10
12.5713
 20
64.6482
 30
0.0000
 40
1.2140
 50
360.0000
 51
25.9897
  0
ARC
  8
48
 10
14.1809
 20
64.6482
 30
0.0000
 40
1.2140
 50
180.0000
 51
205.9889
  0
ARC
  8
48
 10
13.3761
 20
64.2144
 30
0.0000
 40
0.3028
 50
198.9251
 51
270.0001
  0
ARC
  8
48
 10
12.5713
 20
64.6482
 30
0.0000
 40
1.2140
 50
334.0105
 51
359.9999
  0
ARC
  8
48
 10
13.3761
 20
64.2144
 30
0.0000
 40
0.3028
 50
270.0000
 51
341.0759
  0
LINE
  8
48
 10
13.0487
 20
64.2390
 30
0.0000
 11
13.7035
 21
65.0574
 31
0.0000
  0
LINE
  8
48
 10
15.2463
 20
65.0574
 30
0.0000
 11
15.6555
 21
65.3848
 31
0.0000
  0
LINE
  8
48
 10
15.6555
 20
65.3848
 30
0.0000
 11
15.6555
 21
63.9116
 31
0.0000
  0
LINE
  8
48
 10
15.2463
 20
63.9116
 30
0.0000
 11
16.0647
 21
63.9116
 31
0.0000
  0
LINE
  8
48
 10
16.7329
 20
63.9116
 30
0.0000
 11
17.2239
 21
63.9116
 31
0.0000
  0
ARC
  8
48
 10
17.2239
 20
64.2390
 30
0.0000
 40
0.3274
 50
270.0000
 51
359.9995
  0
LINE
  8
48
 10
17.5513
 20
64.2390
 30
0.0000
 11
17.5513
 21
64.4027
 31
0.0000
  0
ARC
  8
48
 10
17.2239
 20
64.4027
 30
0.0000
 40
0.3274
 50
0.0000
 51
90.0000
  0
LINE
  8
48
 10
17.2239
 20
64.7300
 30
0.0000
 11
16.7329
 21
64.7300
 31
0.0000
  0
LINE
  8
48
 10
16.7329
 20
64.7300
 30
0.0000
 11
16.7329
 21
65.3848
 31
0.0000
  0
LINE
  8
48
 10
16.7329
 20
65.3848
 30
0.0000
 11
17.5513
 21
65.3848
 31
0.0000
  0
LINE
  8
48
 10
18.1913
 20
64.0344
 30
0.0000
 11
18.1913
 21
64.1162
 31
0.0000
  0
LINE
  8
48
 10
18.1913
 20
64.1162
 30
0.0000
 11
18.2732
 21
64.1162
 31
0.0000
  0
LINE
  8
48
 10
18.2732
 20
64.1162
 30
0.0000
 11
18.2732
 21
64.0344
 31
0.0000
  0
LINE
  8
48
 10
18.2732
 20
64.0344
 30
0.0000
 11
18.1913
 21
64.0344
 31
0.0000
  0
LINE
  8
48
 10
18.1913
 20
64.6891
 30
0.0000
 11
18.1913
 21
64.7710
 31
0.0000
  0
LINE
  8
48
 10
18.1913
 20
64.7710
 30
0.0000
 11
18.2732
 21
64.7710
 31
0.0000
  0
LINE
  8
48
 10
18.2732
 20
64.7710
 30
0.0000
 11
18.2732
 21
64.6891
 31
0.0000
  0
LINE
  8
48
 10
18.2732
 20
64.6891
 30
0.0000
 11
18.1913
 21
64.6891
 31
0.0000
  0
ARC
  8
48
 10
19.3633
 20
65.0165
 30
0.0000
 40
0.3683
 50
0.0000
 51
90.0000
  0
ARC
  8
48
 10
19.3633
 20
64.9116
 30
0.0000
 40
0.4732
 50
90.0000
 51
162.0549
  0
ARC
  8
48
 10
19.3360
 20
65.0165
 30
0.0000
 40
0.3956
 50
313.6022
 51
0.0000
  0
LINE
  8
48
 10
19.6088
 20
64.7300
 30
0.0000
 11
18.9132
 21
63.9116
 31
0.0000
  0
LINE
  8
48
 10
18.9132
 20
63.9116
 30
0.0000
 11
19.7316
 21
63.9116
 31
0.0000
  0
LINE
  8
48
 10
20.3997
 20
65.0574
 30
0.0000
 11
20.8090
 21
65.3848
 31
0.0000
  0
LINE
  8
48
 10
20.8090
 20
65.3848
 30
0.0000
 11
20.8090
 21
63.9116
 31
0.0000
  0
LINE
  8
48
 10
20.3997
 20
63.9116
 30
0.0000
 11
21.2182
 21
63.9116
 31
0.0000
  0
ENDSEC
  0
EOF
