G04 EAGLE Gerber RS-274X export*
G75*
%MOMM*%
%FSLAX34Y34*%
%LPD*%
%INSolder stop bottom*%
%IPPOS*%
%AMOC8*
5,1,8,0,0,1.08239X$1,22.5*%
G01*
%ADD10C,0.000000*%
%ADD11C,0.203200*%
%ADD12C,2.203200*%
%ADD13R,1.711200X1.711200*%
%ADD14C,1.711200*%
%ADD15C,0.177800*%
%ADD16C,0.152400*%
%ADD17C,0.127000*%
%ADD18C,1.511200*%


D10*
X140000Y60000D02*
X140000Y520000D01*
X139997Y520242D01*
X139988Y520483D01*
X139974Y520724D01*
X139953Y520965D01*
X139927Y521205D01*
X139895Y521445D01*
X139857Y521684D01*
X139814Y521921D01*
X139764Y522158D01*
X139709Y522393D01*
X139649Y522627D01*
X139582Y522859D01*
X139511Y523090D01*
X139433Y523319D01*
X139350Y523546D01*
X139262Y523771D01*
X139168Y523994D01*
X139069Y524214D01*
X138964Y524432D01*
X138855Y524647D01*
X138740Y524860D01*
X138620Y525070D01*
X138495Y525276D01*
X138365Y525480D01*
X138230Y525681D01*
X138090Y525878D01*
X137946Y526072D01*
X137797Y526262D01*
X137643Y526448D01*
X137485Y526631D01*
X137323Y526810D01*
X137156Y526985D01*
X136985Y527156D01*
X136810Y527323D01*
X136631Y527485D01*
X136448Y527643D01*
X136262Y527797D01*
X136072Y527946D01*
X135878Y528090D01*
X135681Y528230D01*
X135480Y528365D01*
X135276Y528495D01*
X135070Y528620D01*
X134860Y528740D01*
X134647Y528855D01*
X134432Y528964D01*
X134214Y529069D01*
X133994Y529168D01*
X133771Y529262D01*
X133546Y529350D01*
X133319Y529433D01*
X133090Y529511D01*
X132859Y529582D01*
X132627Y529649D01*
X132393Y529709D01*
X132158Y529764D01*
X131921Y529814D01*
X131684Y529857D01*
X131445Y529895D01*
X131205Y529927D01*
X130965Y529953D01*
X130724Y529974D01*
X130483Y529988D01*
X130242Y529997D01*
X130000Y530000D01*
X10000Y530000D01*
X9758Y529997D01*
X9517Y529988D01*
X9276Y529974D01*
X9035Y529953D01*
X8795Y529927D01*
X8555Y529895D01*
X8316Y529857D01*
X8079Y529814D01*
X7842Y529764D01*
X7607Y529709D01*
X7373Y529649D01*
X7141Y529582D01*
X6910Y529511D01*
X6681Y529433D01*
X6454Y529350D01*
X6229Y529262D01*
X6006Y529168D01*
X5786Y529069D01*
X5568Y528964D01*
X5353Y528855D01*
X5140Y528740D01*
X4930Y528620D01*
X4724Y528495D01*
X4520Y528365D01*
X4319Y528230D01*
X4122Y528090D01*
X3928Y527946D01*
X3738Y527797D01*
X3552Y527643D01*
X3369Y527485D01*
X3190Y527323D01*
X3015Y527156D01*
X2844Y526985D01*
X2677Y526810D01*
X2515Y526631D01*
X2357Y526448D01*
X2203Y526262D01*
X2054Y526072D01*
X1910Y525878D01*
X1770Y525681D01*
X1635Y525480D01*
X1505Y525276D01*
X1380Y525070D01*
X1260Y524860D01*
X1145Y524647D01*
X1036Y524432D01*
X931Y524214D01*
X832Y523994D01*
X738Y523771D01*
X650Y523546D01*
X567Y523319D01*
X489Y523090D01*
X418Y522859D01*
X351Y522627D01*
X291Y522393D01*
X236Y522158D01*
X186Y521921D01*
X143Y521684D01*
X105Y521445D01*
X73Y521205D01*
X47Y520965D01*
X26Y520724D01*
X12Y520483D01*
X3Y520242D01*
X0Y520000D01*
X0Y10000D01*
X3Y9758D01*
X12Y9517D01*
X26Y9276D01*
X47Y9035D01*
X73Y8795D01*
X105Y8555D01*
X143Y8316D01*
X186Y8079D01*
X236Y7842D01*
X291Y7607D01*
X351Y7373D01*
X418Y7141D01*
X489Y6910D01*
X567Y6681D01*
X650Y6454D01*
X738Y6229D01*
X832Y6006D01*
X931Y5786D01*
X1036Y5568D01*
X1145Y5353D01*
X1260Y5140D01*
X1380Y4930D01*
X1505Y4724D01*
X1635Y4520D01*
X1770Y4319D01*
X1910Y4122D01*
X2054Y3928D01*
X2203Y3738D01*
X2357Y3552D01*
X2515Y3369D01*
X2677Y3190D01*
X2844Y3015D01*
X3015Y2844D01*
X3190Y2677D01*
X3369Y2515D01*
X3552Y2357D01*
X3738Y2203D01*
X3928Y2054D01*
X4122Y1910D01*
X4319Y1770D01*
X4520Y1635D01*
X4724Y1505D01*
X4930Y1380D01*
X5140Y1260D01*
X5353Y1145D01*
X5568Y1036D01*
X5786Y931D01*
X6006Y832D01*
X6229Y738D01*
X6454Y650D01*
X6681Y567D01*
X6910Y489D01*
X7141Y418D01*
X7373Y351D01*
X7607Y291D01*
X7842Y236D01*
X8079Y186D01*
X8316Y143D01*
X8555Y105D01*
X8795Y73D01*
X9035Y47D01*
X9276Y26D01*
X9517Y12D01*
X9758Y3D01*
X10000Y0D01*
X130000Y0D01*
X130242Y3D01*
X130483Y12D01*
X130724Y26D01*
X130965Y47D01*
X131205Y73D01*
X131445Y105D01*
X131684Y143D01*
X131921Y186D01*
X132158Y236D01*
X132393Y291D01*
X132627Y351D01*
X132859Y418D01*
X133090Y489D01*
X133319Y567D01*
X133546Y650D01*
X133771Y738D01*
X133994Y832D01*
X134214Y931D01*
X134432Y1036D01*
X134647Y1145D01*
X134860Y1260D01*
X135070Y1380D01*
X135276Y1505D01*
X135480Y1635D01*
X135681Y1770D01*
X135878Y1910D01*
X136072Y2054D01*
X136262Y2203D01*
X136448Y2357D01*
X136631Y2515D01*
X136810Y2677D01*
X136985Y2844D01*
X137156Y3015D01*
X137323Y3190D01*
X137485Y3369D01*
X137643Y3552D01*
X137797Y3738D01*
X137946Y3928D01*
X138090Y4122D01*
X138230Y4319D01*
X138365Y4520D01*
X138495Y4724D01*
X138620Y4930D01*
X138740Y5140D01*
X138855Y5353D01*
X138964Y5568D01*
X139069Y5786D01*
X139168Y6006D01*
X139262Y6229D01*
X139350Y6454D01*
X139433Y6681D01*
X139511Y6910D01*
X139582Y7141D01*
X139649Y7373D01*
X139709Y7607D01*
X139764Y7842D01*
X139814Y8079D01*
X139857Y8316D01*
X139895Y8555D01*
X139927Y8795D01*
X139953Y9035D01*
X139974Y9276D01*
X139988Y9517D01*
X139997Y9758D01*
X140000Y10000D01*
X140000Y40000D01*
D11*
X36911Y730948D02*
X37028Y730950D01*
X37145Y730956D01*
X37261Y730966D01*
X37377Y730979D01*
X37493Y730997D01*
X37608Y731018D01*
X37722Y731043D01*
X37836Y731072D01*
X37948Y731105D01*
X38059Y731142D01*
X38169Y731182D01*
X38277Y731226D01*
X38384Y731273D01*
X38490Y731324D01*
X38593Y731379D01*
X38695Y731437D01*
X38794Y731498D01*
X38892Y731562D01*
X38987Y731630D01*
X39080Y731701D01*
X39171Y731775D01*
X39259Y731852D01*
X39344Y731932D01*
X39427Y732015D01*
X39507Y732100D01*
X39584Y732188D01*
X39658Y732279D01*
X39729Y732372D01*
X39797Y732467D01*
X39861Y732565D01*
X39922Y732664D01*
X39980Y732766D01*
X40035Y732869D01*
X40086Y732975D01*
X40133Y733082D01*
X40177Y733190D01*
X40217Y733300D01*
X40254Y733411D01*
X40287Y733523D01*
X40316Y733637D01*
X40341Y733751D01*
X40362Y733866D01*
X40380Y733981D01*
X40393Y734098D01*
X40403Y734214D01*
X40409Y734331D01*
X40411Y734448D01*
X36911Y730948D02*
X36734Y730950D01*
X36557Y730956D01*
X36381Y730967D01*
X36204Y730982D01*
X36029Y731001D01*
X35853Y731024D01*
X35679Y731051D01*
X35504Y731083D01*
X35331Y731119D01*
X35159Y731159D01*
X34988Y731203D01*
X34817Y731251D01*
X34648Y731303D01*
X34481Y731359D01*
X34314Y731419D01*
X34149Y731483D01*
X33986Y731551D01*
X33824Y731623D01*
X33665Y731699D01*
X33507Y731778D01*
X33351Y731862D01*
X33197Y731949D01*
X33045Y732039D01*
X32895Y732134D01*
X32748Y732232D01*
X32603Y732333D01*
X32460Y732438D01*
X32320Y732546D01*
X32183Y732657D01*
X32048Y732772D01*
X31917Y732890D01*
X31788Y733011D01*
X31662Y733135D01*
X32099Y743197D02*
X32101Y743314D01*
X32107Y743431D01*
X32117Y743547D01*
X32130Y743664D01*
X32148Y743779D01*
X32169Y743894D01*
X32194Y744008D01*
X32223Y744122D01*
X32256Y744234D01*
X32293Y744345D01*
X32333Y744455D01*
X32377Y744563D01*
X32424Y744670D01*
X32475Y744776D01*
X32530Y744879D01*
X32588Y744981D01*
X32649Y745080D01*
X32713Y745178D01*
X32781Y745273D01*
X32852Y745366D01*
X32926Y745457D01*
X33003Y745545D01*
X33083Y745630D01*
X33166Y745713D01*
X33251Y745793D01*
X33339Y745870D01*
X33430Y745944D01*
X33523Y746015D01*
X33618Y746083D01*
X33716Y746147D01*
X33815Y746208D01*
X33917Y746266D01*
X34020Y746321D01*
X34126Y746372D01*
X34233Y746419D01*
X34341Y746463D01*
X34451Y746503D01*
X34562Y746540D01*
X34674Y746573D01*
X34788Y746602D01*
X34902Y746627D01*
X35017Y746648D01*
X35132Y746666D01*
X35249Y746679D01*
X35365Y746689D01*
X35482Y746695D01*
X35599Y746697D01*
X35755Y746695D01*
X35912Y746690D01*
X36068Y746680D01*
X36224Y746667D01*
X36379Y746650D01*
X36534Y746630D01*
X36689Y746606D01*
X36843Y746578D01*
X36996Y746547D01*
X37148Y746512D01*
X37300Y746473D01*
X37450Y746430D01*
X37600Y746385D01*
X37748Y746335D01*
X37895Y746282D01*
X38041Y746226D01*
X38186Y746166D01*
X38329Y746102D01*
X38470Y746036D01*
X38610Y745966D01*
X38748Y745892D01*
X38884Y745815D01*
X39019Y745736D01*
X39151Y745652D01*
X39282Y745566D01*
X39410Y745477D01*
X39536Y745385D01*
X33849Y740135D02*
X33750Y740195D01*
X33654Y740259D01*
X33560Y740325D01*
X33468Y740394D01*
X33378Y740467D01*
X33290Y740542D01*
X33206Y740620D01*
X33123Y740701D01*
X33044Y740784D01*
X32967Y740870D01*
X32893Y740958D01*
X32821Y741049D01*
X32753Y741142D01*
X32688Y741237D01*
X32626Y741335D01*
X32567Y741434D01*
X32512Y741535D01*
X32459Y741638D01*
X32411Y741742D01*
X32365Y741848D01*
X32323Y741955D01*
X32284Y742064D01*
X32249Y742174D01*
X32218Y742285D01*
X32190Y742397D01*
X32166Y742509D01*
X32146Y742623D01*
X32129Y742737D01*
X32116Y742852D01*
X32106Y742967D01*
X32101Y743082D01*
X32099Y743197D01*
X38660Y737510D02*
X38759Y737450D01*
X38855Y737386D01*
X38949Y737320D01*
X39041Y737251D01*
X39131Y737178D01*
X39219Y737103D01*
X39303Y737025D01*
X39386Y736944D01*
X39465Y736861D01*
X39542Y736775D01*
X39616Y736687D01*
X39688Y736596D01*
X39756Y736503D01*
X39821Y736408D01*
X39883Y736310D01*
X39942Y736211D01*
X39997Y736110D01*
X40050Y736007D01*
X40099Y735903D01*
X40144Y735797D01*
X40186Y735690D01*
X40225Y735581D01*
X40260Y735471D01*
X40291Y735360D01*
X40319Y735248D01*
X40343Y735136D01*
X40363Y735022D01*
X40380Y734908D01*
X40393Y734793D01*
X40403Y734678D01*
X40408Y734563D01*
X40410Y734448D01*
X38661Y737510D02*
X33849Y740135D01*
X46083Y741447D02*
X49583Y730949D01*
X53083Y741447D01*
X61734Y730949D02*
X66109Y730949D01*
X61734Y730948D02*
X61633Y730950D01*
X61533Y730956D01*
X61433Y730965D01*
X61333Y730979D01*
X61234Y730996D01*
X61136Y731017D01*
X61038Y731042D01*
X60942Y731070D01*
X60847Y731103D01*
X60753Y731138D01*
X60660Y731178D01*
X60569Y731221D01*
X60480Y731267D01*
X60393Y731317D01*
X60307Y731370D01*
X60224Y731426D01*
X60143Y731485D01*
X60064Y731548D01*
X59988Y731613D01*
X59914Y731682D01*
X59843Y731753D01*
X59774Y731827D01*
X59709Y731903D01*
X59646Y731982D01*
X59587Y732063D01*
X59531Y732146D01*
X59478Y732232D01*
X59428Y732319D01*
X59382Y732408D01*
X59339Y732499D01*
X59299Y732592D01*
X59264Y732686D01*
X59231Y732781D01*
X59203Y732877D01*
X59178Y732975D01*
X59157Y733073D01*
X59140Y733172D01*
X59126Y733272D01*
X59117Y733372D01*
X59111Y733472D01*
X59109Y733573D01*
X59109Y737948D01*
X59111Y738066D01*
X59117Y738184D01*
X59127Y738302D01*
X59141Y738419D01*
X59159Y738536D01*
X59181Y738653D01*
X59206Y738768D01*
X59236Y738882D01*
X59270Y738996D01*
X59307Y739108D01*
X59348Y739219D01*
X59393Y739328D01*
X59441Y739436D01*
X59493Y739542D01*
X59549Y739647D01*
X59608Y739749D01*
X59670Y739849D01*
X59736Y739947D01*
X59805Y740043D01*
X59878Y740137D01*
X59953Y740228D01*
X60032Y740316D01*
X60113Y740402D01*
X60198Y740485D01*
X60285Y740565D01*
X60374Y740642D01*
X60467Y740716D01*
X60561Y740786D01*
X60658Y740854D01*
X60758Y740918D01*
X60859Y740979D01*
X60962Y741036D01*
X61068Y741090D01*
X61175Y741141D01*
X61283Y741187D01*
X61393Y741230D01*
X61505Y741269D01*
X61618Y741305D01*
X61732Y741336D01*
X61847Y741364D01*
X61962Y741388D01*
X62079Y741408D01*
X62196Y741424D01*
X62314Y741436D01*
X62432Y741444D01*
X62550Y741448D01*
X62668Y741448D01*
X62786Y741444D01*
X62904Y741436D01*
X63022Y741424D01*
X63139Y741408D01*
X63256Y741388D01*
X63371Y741364D01*
X63486Y741336D01*
X63600Y741305D01*
X63713Y741269D01*
X63825Y741230D01*
X63935Y741187D01*
X64043Y741141D01*
X64150Y741090D01*
X64256Y741036D01*
X64359Y740979D01*
X64460Y740918D01*
X64560Y740854D01*
X64657Y740786D01*
X64751Y740716D01*
X64844Y740642D01*
X64933Y740565D01*
X65020Y740485D01*
X65105Y740402D01*
X65186Y740316D01*
X65265Y740228D01*
X65340Y740137D01*
X65413Y740043D01*
X65482Y739947D01*
X65548Y739849D01*
X65610Y739749D01*
X65669Y739647D01*
X65725Y739542D01*
X65777Y739436D01*
X65825Y739328D01*
X65870Y739219D01*
X65911Y739108D01*
X65948Y738996D01*
X65982Y738882D01*
X66012Y738768D01*
X66037Y738653D01*
X66059Y738536D01*
X66077Y738419D01*
X66091Y738302D01*
X66101Y738184D01*
X66107Y738066D01*
X66109Y737948D01*
X66109Y736198D01*
X59109Y736198D01*
X73178Y730949D02*
X73178Y741447D01*
X77552Y741447D01*
X77552Y741448D02*
X77653Y741446D01*
X77753Y741440D01*
X77853Y741431D01*
X77953Y741417D01*
X78052Y741400D01*
X78150Y741379D01*
X78248Y741354D01*
X78344Y741326D01*
X78439Y741293D01*
X78533Y741258D01*
X78626Y741218D01*
X78717Y741175D01*
X78806Y741129D01*
X78893Y741079D01*
X78979Y741026D01*
X79062Y740970D01*
X79143Y740911D01*
X79222Y740848D01*
X79298Y740783D01*
X79372Y740714D01*
X79443Y740643D01*
X79512Y740569D01*
X79577Y740493D01*
X79640Y740414D01*
X79699Y740333D01*
X79755Y740250D01*
X79808Y740164D01*
X79858Y740077D01*
X79904Y739988D01*
X79947Y739897D01*
X79987Y739804D01*
X80022Y739710D01*
X80055Y739615D01*
X80083Y739519D01*
X80108Y739421D01*
X80129Y739323D01*
X80146Y739224D01*
X80160Y739124D01*
X80169Y739024D01*
X80175Y738924D01*
X80177Y738823D01*
X80177Y730949D01*
X96524Y730949D02*
X96524Y746697D01*
X100899Y746697D01*
X100899Y746696D02*
X101030Y746694D01*
X101161Y746688D01*
X101291Y746678D01*
X101421Y746665D01*
X101551Y746647D01*
X101680Y746626D01*
X101808Y746600D01*
X101936Y746571D01*
X102063Y746538D01*
X102188Y746502D01*
X102313Y746461D01*
X102436Y746417D01*
X102558Y746369D01*
X102678Y746318D01*
X102797Y746263D01*
X102914Y746204D01*
X103029Y746142D01*
X103142Y746077D01*
X103254Y746008D01*
X103363Y745936D01*
X103470Y745861D01*
X103575Y745782D01*
X103677Y745701D01*
X103777Y745616D01*
X103874Y745528D01*
X103969Y745438D01*
X104061Y745345D01*
X104150Y745249D01*
X104236Y745150D01*
X104319Y745049D01*
X104399Y744946D01*
X104476Y744840D01*
X104549Y744732D01*
X104620Y744621D01*
X104687Y744509D01*
X104751Y744395D01*
X104811Y744279D01*
X104868Y744161D01*
X104921Y744041D01*
X104971Y743920D01*
X105017Y743797D01*
X105059Y743674D01*
X105097Y743549D01*
X105132Y743422D01*
X105163Y743295D01*
X105191Y743167D01*
X105214Y743039D01*
X105233Y742909D01*
X105249Y742779D01*
X105261Y742649D01*
X105269Y742518D01*
X105273Y742387D01*
X105273Y742257D01*
X105269Y742126D01*
X105261Y741995D01*
X105249Y741865D01*
X105233Y741735D01*
X105214Y741605D01*
X105191Y741477D01*
X105163Y741349D01*
X105132Y741222D01*
X105097Y741095D01*
X105059Y740970D01*
X105017Y740847D01*
X104971Y740724D01*
X104921Y740603D01*
X104868Y740483D01*
X104811Y740365D01*
X104751Y740249D01*
X104687Y740135D01*
X104620Y740023D01*
X104549Y739912D01*
X104476Y739804D01*
X104399Y739698D01*
X104319Y739595D01*
X104236Y739494D01*
X104150Y739395D01*
X104061Y739299D01*
X103969Y739206D01*
X103874Y739116D01*
X103777Y739028D01*
X103677Y738943D01*
X103575Y738862D01*
X103470Y738783D01*
X103363Y738708D01*
X103254Y738636D01*
X103142Y738567D01*
X103029Y738502D01*
X102914Y738440D01*
X102797Y738381D01*
X102678Y738326D01*
X102558Y738275D01*
X102436Y738227D01*
X102313Y738183D01*
X102188Y738142D01*
X102063Y738106D01*
X101936Y738073D01*
X101808Y738044D01*
X101680Y738018D01*
X101551Y737997D01*
X101421Y737979D01*
X101291Y737966D01*
X101161Y737956D01*
X101030Y737950D01*
X100899Y737948D01*
X96524Y737948D01*
X113838Y730949D02*
X118213Y730949D01*
X113838Y730948D02*
X113737Y730950D01*
X113637Y730956D01*
X113537Y730965D01*
X113437Y730979D01*
X113338Y730996D01*
X113240Y731017D01*
X113142Y731042D01*
X113046Y731070D01*
X112951Y731103D01*
X112857Y731138D01*
X112764Y731178D01*
X112673Y731221D01*
X112584Y731267D01*
X112497Y731317D01*
X112411Y731370D01*
X112328Y731426D01*
X112247Y731485D01*
X112168Y731548D01*
X112092Y731613D01*
X112018Y731682D01*
X111947Y731753D01*
X111878Y731827D01*
X111813Y731903D01*
X111750Y731982D01*
X111691Y732063D01*
X111635Y732146D01*
X111582Y732232D01*
X111532Y732319D01*
X111486Y732408D01*
X111443Y732499D01*
X111403Y732592D01*
X111368Y732686D01*
X111335Y732781D01*
X111307Y732877D01*
X111282Y732975D01*
X111261Y733073D01*
X111244Y733172D01*
X111230Y733272D01*
X111221Y733372D01*
X111215Y733472D01*
X111213Y733573D01*
X111214Y733573D02*
X111214Y737948D01*
X111213Y737948D02*
X111215Y738066D01*
X111221Y738184D01*
X111231Y738302D01*
X111245Y738419D01*
X111263Y738536D01*
X111285Y738653D01*
X111310Y738768D01*
X111340Y738882D01*
X111374Y738996D01*
X111411Y739108D01*
X111452Y739219D01*
X111497Y739328D01*
X111545Y739436D01*
X111597Y739542D01*
X111653Y739647D01*
X111712Y739749D01*
X111774Y739849D01*
X111840Y739947D01*
X111909Y740043D01*
X111982Y740137D01*
X112057Y740228D01*
X112136Y740316D01*
X112217Y740402D01*
X112302Y740485D01*
X112389Y740565D01*
X112478Y740642D01*
X112571Y740716D01*
X112665Y740786D01*
X112762Y740854D01*
X112862Y740918D01*
X112963Y740979D01*
X113066Y741036D01*
X113172Y741090D01*
X113279Y741141D01*
X113387Y741187D01*
X113497Y741230D01*
X113609Y741269D01*
X113722Y741305D01*
X113836Y741336D01*
X113951Y741364D01*
X114066Y741388D01*
X114183Y741408D01*
X114300Y741424D01*
X114418Y741436D01*
X114536Y741444D01*
X114654Y741448D01*
X114772Y741448D01*
X114890Y741444D01*
X115008Y741436D01*
X115126Y741424D01*
X115243Y741408D01*
X115360Y741388D01*
X115475Y741364D01*
X115590Y741336D01*
X115704Y741305D01*
X115817Y741269D01*
X115929Y741230D01*
X116039Y741187D01*
X116147Y741141D01*
X116254Y741090D01*
X116360Y741036D01*
X116463Y740979D01*
X116564Y740918D01*
X116664Y740854D01*
X116761Y740786D01*
X116855Y740716D01*
X116948Y740642D01*
X117037Y740565D01*
X117124Y740485D01*
X117209Y740402D01*
X117290Y740316D01*
X117369Y740228D01*
X117444Y740137D01*
X117517Y740043D01*
X117586Y739947D01*
X117652Y739849D01*
X117714Y739749D01*
X117773Y739647D01*
X117829Y739542D01*
X117881Y739436D01*
X117929Y739328D01*
X117974Y739219D01*
X118015Y739108D01*
X118052Y738996D01*
X118086Y738882D01*
X118116Y738768D01*
X118141Y738653D01*
X118163Y738536D01*
X118181Y738419D01*
X118195Y738302D01*
X118205Y738184D01*
X118211Y738066D01*
X118213Y737948D01*
X118213Y736198D01*
X111214Y736198D01*
X123412Y741447D02*
X128661Y741447D01*
X125161Y746697D02*
X125161Y733573D01*
X125163Y733472D01*
X125169Y733372D01*
X125178Y733272D01*
X125192Y733172D01*
X125209Y733073D01*
X125230Y732975D01*
X125255Y732877D01*
X125283Y732781D01*
X125316Y732686D01*
X125351Y732592D01*
X125391Y732499D01*
X125434Y732408D01*
X125480Y732319D01*
X125530Y732232D01*
X125583Y732146D01*
X125639Y732063D01*
X125698Y731982D01*
X125761Y731903D01*
X125826Y731827D01*
X125895Y731753D01*
X125966Y731682D01*
X126040Y731613D01*
X126116Y731548D01*
X126195Y731485D01*
X126276Y731426D01*
X126359Y731370D01*
X126445Y731317D01*
X126532Y731267D01*
X126621Y731221D01*
X126712Y731178D01*
X126805Y731138D01*
X126899Y731103D01*
X126994Y731070D01*
X127090Y731042D01*
X127188Y731017D01*
X127286Y730996D01*
X127385Y730979D01*
X127485Y730965D01*
X127585Y730956D01*
X127685Y730950D01*
X127786Y730948D01*
X127786Y730949D02*
X128661Y730949D01*
X137285Y730949D02*
X141659Y730949D01*
X137285Y730948D02*
X137184Y730950D01*
X137084Y730956D01*
X136984Y730965D01*
X136884Y730979D01*
X136785Y730996D01*
X136687Y731017D01*
X136589Y731042D01*
X136493Y731070D01*
X136398Y731103D01*
X136304Y731138D01*
X136211Y731178D01*
X136120Y731221D01*
X136031Y731267D01*
X135944Y731317D01*
X135858Y731370D01*
X135775Y731426D01*
X135694Y731485D01*
X135615Y731548D01*
X135539Y731613D01*
X135465Y731682D01*
X135394Y731753D01*
X135325Y731827D01*
X135260Y731903D01*
X135197Y731982D01*
X135138Y732063D01*
X135082Y732146D01*
X135029Y732232D01*
X134979Y732319D01*
X134933Y732408D01*
X134890Y732499D01*
X134850Y732592D01*
X134815Y732686D01*
X134782Y732781D01*
X134754Y732877D01*
X134729Y732975D01*
X134708Y733073D01*
X134691Y733172D01*
X134677Y733272D01*
X134668Y733372D01*
X134662Y733472D01*
X134660Y733573D01*
X134660Y737948D01*
X134662Y738066D01*
X134668Y738184D01*
X134678Y738302D01*
X134692Y738419D01*
X134710Y738536D01*
X134732Y738653D01*
X134757Y738768D01*
X134787Y738882D01*
X134821Y738996D01*
X134858Y739108D01*
X134899Y739219D01*
X134944Y739328D01*
X134992Y739436D01*
X135044Y739542D01*
X135100Y739647D01*
X135159Y739749D01*
X135221Y739849D01*
X135287Y739947D01*
X135356Y740043D01*
X135429Y740137D01*
X135504Y740228D01*
X135583Y740316D01*
X135664Y740402D01*
X135749Y740485D01*
X135836Y740565D01*
X135925Y740642D01*
X136018Y740716D01*
X136112Y740786D01*
X136209Y740854D01*
X136309Y740918D01*
X136410Y740979D01*
X136513Y741036D01*
X136619Y741090D01*
X136726Y741141D01*
X136834Y741187D01*
X136944Y741230D01*
X137056Y741269D01*
X137169Y741305D01*
X137283Y741336D01*
X137398Y741364D01*
X137513Y741388D01*
X137630Y741408D01*
X137747Y741424D01*
X137865Y741436D01*
X137983Y741444D01*
X138101Y741448D01*
X138219Y741448D01*
X138337Y741444D01*
X138455Y741436D01*
X138573Y741424D01*
X138690Y741408D01*
X138807Y741388D01*
X138922Y741364D01*
X139037Y741336D01*
X139151Y741305D01*
X139264Y741269D01*
X139376Y741230D01*
X139486Y741187D01*
X139594Y741141D01*
X139701Y741090D01*
X139807Y741036D01*
X139910Y740979D01*
X140011Y740918D01*
X140111Y740854D01*
X140208Y740786D01*
X140302Y740716D01*
X140395Y740642D01*
X140484Y740565D01*
X140571Y740485D01*
X140656Y740402D01*
X140737Y740316D01*
X140816Y740228D01*
X140891Y740137D01*
X140964Y740043D01*
X141033Y739947D01*
X141099Y739849D01*
X141161Y739749D01*
X141220Y739647D01*
X141276Y739542D01*
X141328Y739436D01*
X141376Y739328D01*
X141421Y739219D01*
X141462Y739108D01*
X141499Y738996D01*
X141533Y738882D01*
X141563Y738768D01*
X141588Y738653D01*
X141610Y738536D01*
X141628Y738419D01*
X141642Y738302D01*
X141652Y738184D01*
X141658Y738066D01*
X141660Y737948D01*
X141659Y737948D02*
X141659Y736198D01*
X134660Y736198D01*
X148831Y730949D02*
X148831Y741447D01*
X154080Y741447D01*
X154080Y739697D01*
X160462Y737073D02*
X164836Y735323D01*
X160462Y737073D02*
X160375Y737110D01*
X160290Y737150D01*
X160207Y737194D01*
X160126Y737241D01*
X160047Y737291D01*
X159970Y737345D01*
X159895Y737402D01*
X159822Y737462D01*
X159753Y737525D01*
X159685Y737590D01*
X159621Y737659D01*
X159559Y737730D01*
X159501Y737803D01*
X159446Y737879D01*
X159393Y737957D01*
X159344Y738037D01*
X159299Y738119D01*
X159257Y738203D01*
X159218Y738289D01*
X159183Y738376D01*
X159151Y738465D01*
X159124Y738554D01*
X159100Y738645D01*
X159079Y738737D01*
X159063Y738830D01*
X159051Y738923D01*
X159042Y739016D01*
X159037Y739110D01*
X159036Y739204D01*
X159039Y739298D01*
X159046Y739392D01*
X159057Y739485D01*
X159071Y739578D01*
X159090Y739670D01*
X159112Y739761D01*
X159138Y739851D01*
X159168Y739940D01*
X159201Y740028D01*
X159238Y740115D01*
X159278Y740199D01*
X159322Y740282D01*
X159370Y740363D01*
X159421Y740443D01*
X159475Y740519D01*
X159532Y740594D01*
X159592Y740666D01*
X159655Y740736D01*
X159721Y740803D01*
X159789Y740867D01*
X159861Y740928D01*
X159934Y740987D01*
X160010Y741042D01*
X160088Y741094D01*
X160169Y741142D01*
X160251Y741188D01*
X160335Y741230D01*
X160421Y741268D01*
X160508Y741303D01*
X160597Y741334D01*
X160687Y741361D01*
X160778Y741385D01*
X160869Y741405D01*
X160962Y741421D01*
X161055Y741433D01*
X161149Y741442D01*
X161242Y741446D01*
X161336Y741447D01*
X161575Y741441D01*
X161813Y741429D01*
X162052Y741411D01*
X162289Y741387D01*
X162527Y741358D01*
X162763Y741323D01*
X162998Y741283D01*
X163233Y741237D01*
X163466Y741185D01*
X163698Y741127D01*
X163928Y741064D01*
X164157Y740996D01*
X164384Y740922D01*
X164610Y740842D01*
X164833Y740758D01*
X165054Y740668D01*
X165273Y740572D01*
X164836Y735323D02*
X164923Y735286D01*
X165008Y735246D01*
X165091Y735202D01*
X165172Y735155D01*
X165251Y735105D01*
X165328Y735051D01*
X165403Y734994D01*
X165476Y734934D01*
X165545Y734871D01*
X165613Y734806D01*
X165677Y734737D01*
X165739Y734666D01*
X165797Y734593D01*
X165852Y734517D01*
X165905Y734439D01*
X165954Y734359D01*
X165999Y734277D01*
X166041Y734193D01*
X166080Y734107D01*
X166115Y734020D01*
X166147Y733931D01*
X166174Y733842D01*
X166198Y733751D01*
X166219Y733659D01*
X166235Y733566D01*
X166247Y733473D01*
X166256Y733380D01*
X166261Y733286D01*
X166262Y733192D01*
X166259Y733098D01*
X166252Y733004D01*
X166241Y732911D01*
X166227Y732818D01*
X166208Y732726D01*
X166186Y732635D01*
X166160Y732545D01*
X166130Y732456D01*
X166097Y732368D01*
X166060Y732281D01*
X166020Y732197D01*
X165976Y732114D01*
X165928Y732033D01*
X165877Y731953D01*
X165823Y731877D01*
X165766Y731802D01*
X165706Y731730D01*
X165643Y731660D01*
X165577Y731593D01*
X165509Y731529D01*
X165437Y731468D01*
X165364Y731409D01*
X165288Y731354D01*
X165210Y731302D01*
X165129Y731254D01*
X165047Y731208D01*
X164963Y731166D01*
X164877Y731128D01*
X164790Y731093D01*
X164701Y731062D01*
X164611Y731035D01*
X164520Y731011D01*
X164429Y730991D01*
X164336Y730975D01*
X164243Y730963D01*
X164149Y730954D01*
X164056Y730950D01*
X163962Y730949D01*
X163961Y730949D02*
X163610Y730958D01*
X163259Y730975D01*
X162909Y731001D01*
X162560Y731035D01*
X162212Y731077D01*
X161865Y731128D01*
X161519Y731186D01*
X161174Y731253D01*
X160831Y731328D01*
X160490Y731411D01*
X160151Y731502D01*
X159815Y731601D01*
X159480Y731708D01*
X159149Y731823D01*
X175321Y730949D02*
X179695Y730949D01*
X175321Y730948D02*
X175220Y730950D01*
X175120Y730956D01*
X175020Y730965D01*
X174920Y730979D01*
X174821Y730996D01*
X174723Y731017D01*
X174625Y731042D01*
X174529Y731070D01*
X174434Y731103D01*
X174340Y731138D01*
X174247Y731178D01*
X174156Y731221D01*
X174067Y731267D01*
X173980Y731317D01*
X173894Y731370D01*
X173811Y731426D01*
X173730Y731485D01*
X173651Y731548D01*
X173575Y731613D01*
X173501Y731682D01*
X173430Y731753D01*
X173361Y731827D01*
X173296Y731903D01*
X173233Y731982D01*
X173174Y732063D01*
X173118Y732146D01*
X173065Y732232D01*
X173015Y732319D01*
X172969Y732408D01*
X172926Y732499D01*
X172886Y732592D01*
X172851Y732686D01*
X172818Y732781D01*
X172790Y732877D01*
X172765Y732975D01*
X172744Y733073D01*
X172727Y733172D01*
X172713Y733272D01*
X172704Y733372D01*
X172698Y733472D01*
X172696Y733573D01*
X172696Y737948D01*
X172698Y738066D01*
X172704Y738184D01*
X172714Y738302D01*
X172728Y738419D01*
X172746Y738536D01*
X172768Y738653D01*
X172793Y738768D01*
X172823Y738882D01*
X172857Y738996D01*
X172894Y739108D01*
X172935Y739219D01*
X172980Y739328D01*
X173028Y739436D01*
X173080Y739542D01*
X173136Y739647D01*
X173195Y739749D01*
X173257Y739849D01*
X173323Y739947D01*
X173392Y740043D01*
X173465Y740137D01*
X173540Y740228D01*
X173619Y740316D01*
X173700Y740402D01*
X173785Y740485D01*
X173872Y740565D01*
X173961Y740642D01*
X174054Y740716D01*
X174148Y740786D01*
X174245Y740854D01*
X174345Y740918D01*
X174446Y740979D01*
X174549Y741036D01*
X174655Y741090D01*
X174762Y741141D01*
X174870Y741187D01*
X174980Y741230D01*
X175092Y741269D01*
X175205Y741305D01*
X175319Y741336D01*
X175434Y741364D01*
X175549Y741388D01*
X175666Y741408D01*
X175783Y741424D01*
X175901Y741436D01*
X176019Y741444D01*
X176137Y741448D01*
X176255Y741448D01*
X176373Y741444D01*
X176491Y741436D01*
X176609Y741424D01*
X176726Y741408D01*
X176843Y741388D01*
X176958Y741364D01*
X177073Y741336D01*
X177187Y741305D01*
X177300Y741269D01*
X177412Y741230D01*
X177522Y741187D01*
X177630Y741141D01*
X177737Y741090D01*
X177843Y741036D01*
X177946Y740979D01*
X178047Y740918D01*
X178147Y740854D01*
X178244Y740786D01*
X178338Y740716D01*
X178431Y740642D01*
X178520Y740565D01*
X178607Y740485D01*
X178692Y740402D01*
X178773Y740316D01*
X178852Y740228D01*
X178927Y740137D01*
X179000Y740043D01*
X179069Y739947D01*
X179135Y739849D01*
X179197Y739749D01*
X179256Y739647D01*
X179312Y739542D01*
X179364Y739436D01*
X179412Y739328D01*
X179457Y739219D01*
X179498Y739108D01*
X179535Y738996D01*
X179569Y738882D01*
X179599Y738768D01*
X179624Y738653D01*
X179646Y738536D01*
X179664Y738419D01*
X179678Y738302D01*
X179688Y738184D01*
X179694Y738066D01*
X179696Y737948D01*
X179695Y737948D02*
X179695Y736198D01*
X172696Y736198D01*
X186764Y730949D02*
X186764Y741447D01*
X191139Y741447D01*
X191139Y741448D02*
X191240Y741446D01*
X191340Y741440D01*
X191440Y741431D01*
X191540Y741417D01*
X191639Y741400D01*
X191737Y741379D01*
X191835Y741354D01*
X191931Y741326D01*
X192026Y741293D01*
X192120Y741258D01*
X192213Y741218D01*
X192304Y741175D01*
X192393Y741129D01*
X192480Y741079D01*
X192566Y741026D01*
X192649Y740970D01*
X192730Y740911D01*
X192809Y740848D01*
X192885Y740783D01*
X192959Y740714D01*
X193030Y740643D01*
X193099Y740569D01*
X193164Y740493D01*
X193227Y740414D01*
X193286Y740333D01*
X193342Y740250D01*
X193395Y740164D01*
X193445Y740077D01*
X193491Y739988D01*
X193534Y739897D01*
X193574Y739804D01*
X193609Y739710D01*
X193642Y739615D01*
X193670Y739519D01*
X193695Y739421D01*
X193716Y739323D01*
X193733Y739224D01*
X193747Y739124D01*
X193756Y739024D01*
X193762Y738924D01*
X193764Y738823D01*
X193764Y730949D01*
X93640Y716090D02*
X93638Y716214D01*
X93632Y716337D01*
X93623Y716461D01*
X93609Y716583D01*
X93592Y716706D01*
X93570Y716828D01*
X93545Y716949D01*
X93516Y717069D01*
X93484Y717188D01*
X93447Y717307D01*
X93407Y717424D01*
X93364Y717539D01*
X93316Y717654D01*
X93265Y717766D01*
X93211Y717877D01*
X93153Y717987D01*
X93092Y718094D01*
X93027Y718200D01*
X92959Y718303D01*
X92888Y718404D01*
X92814Y718503D01*
X92737Y718600D01*
X92656Y718694D01*
X92573Y718785D01*
X92487Y718874D01*
X92398Y718960D01*
X92307Y719043D01*
X92213Y719124D01*
X92116Y719201D01*
X92017Y719275D01*
X91916Y719346D01*
X91813Y719414D01*
X91707Y719479D01*
X91600Y719540D01*
X91490Y719598D01*
X91379Y719652D01*
X91267Y719703D01*
X91152Y719751D01*
X91037Y719794D01*
X90920Y719834D01*
X90801Y719871D01*
X90682Y719903D01*
X90562Y719932D01*
X90441Y719957D01*
X90319Y719979D01*
X90196Y719996D01*
X90074Y720010D01*
X89950Y720019D01*
X89827Y720025D01*
X89703Y720027D01*
X89562Y720025D01*
X89420Y720019D01*
X89279Y720009D01*
X89139Y719995D01*
X88999Y719978D01*
X88859Y719956D01*
X88720Y719931D01*
X88582Y719901D01*
X88444Y719868D01*
X88308Y719831D01*
X88172Y719790D01*
X88038Y719745D01*
X87906Y719697D01*
X87774Y719645D01*
X87644Y719589D01*
X87516Y719530D01*
X87389Y719467D01*
X87265Y719400D01*
X87142Y719331D01*
X87021Y719257D01*
X86902Y719181D01*
X86785Y719101D01*
X86671Y719018D01*
X86559Y718931D01*
X86450Y718842D01*
X86343Y718750D01*
X86238Y718654D01*
X86137Y718556D01*
X86038Y718455D01*
X85942Y718351D01*
X85849Y718245D01*
X85759Y718136D01*
X85672Y718024D01*
X85588Y717910D01*
X85508Y717794D01*
X85430Y717676D01*
X85356Y717555D01*
X85286Y717433D01*
X85219Y717309D01*
X85155Y717182D01*
X85095Y717054D01*
X85038Y716925D01*
X84986Y716794D01*
X84936Y716661D01*
X84891Y716527D01*
X92328Y713028D02*
X92418Y713116D01*
X92506Y713208D01*
X92591Y713302D01*
X92673Y713399D01*
X92752Y713498D01*
X92829Y713599D01*
X92902Y713703D01*
X92972Y713808D01*
X93039Y713916D01*
X93102Y714026D01*
X93162Y714138D01*
X93219Y714251D01*
X93273Y714366D01*
X93323Y714483D01*
X93369Y714601D01*
X93412Y714720D01*
X93451Y714841D01*
X93487Y714962D01*
X93519Y715085D01*
X93547Y715209D01*
X93572Y715333D01*
X93593Y715458D01*
X93610Y715584D01*
X93623Y715710D01*
X93632Y715836D01*
X93638Y715963D01*
X93640Y716090D01*
X92328Y713027D02*
X84891Y704279D01*
X93640Y704279D01*
X100522Y712153D02*
X100526Y712463D01*
X100537Y712772D01*
X100555Y713082D01*
X100581Y713390D01*
X100614Y713698D01*
X100655Y714006D01*
X100703Y714312D01*
X100758Y714617D01*
X100820Y714920D01*
X100890Y715222D01*
X100967Y715522D01*
X101051Y715820D01*
X101142Y716116D01*
X101240Y716410D01*
X101345Y716702D01*
X101457Y716991D01*
X101576Y717277D01*
X101702Y717560D01*
X101834Y717840D01*
X101835Y717839D02*
X101873Y717944D01*
X101915Y718047D01*
X101960Y718149D01*
X102008Y718250D01*
X102060Y718348D01*
X102116Y718445D01*
X102174Y718540D01*
X102236Y718633D01*
X102301Y718723D01*
X102370Y718811D01*
X102441Y718897D01*
X102515Y718981D01*
X102592Y719061D01*
X102671Y719140D01*
X102754Y719215D01*
X102839Y719287D01*
X102926Y719357D01*
X103016Y719423D01*
X103107Y719486D01*
X103201Y719546D01*
X103297Y719603D01*
X103395Y719657D01*
X103495Y719707D01*
X103596Y719753D01*
X103699Y719796D01*
X103804Y719836D01*
X103909Y719872D01*
X104016Y719904D01*
X104124Y719932D01*
X104233Y719957D01*
X104342Y719978D01*
X104452Y719995D01*
X104563Y720009D01*
X104674Y720018D01*
X104785Y720024D01*
X104897Y720026D01*
X105009Y720024D01*
X105120Y720018D01*
X105231Y720009D01*
X105342Y719995D01*
X105452Y719978D01*
X105562Y719957D01*
X105670Y719932D01*
X105778Y719904D01*
X105885Y719872D01*
X105990Y719836D01*
X106095Y719796D01*
X106198Y719753D01*
X106299Y719707D01*
X106399Y719657D01*
X106497Y719603D01*
X106593Y719546D01*
X106687Y719486D01*
X106778Y719423D01*
X106868Y719357D01*
X106955Y719287D01*
X107040Y719215D01*
X107123Y719140D01*
X107202Y719061D01*
X107279Y718981D01*
X107353Y718897D01*
X107424Y718811D01*
X107493Y718723D01*
X107558Y718633D01*
X107620Y718540D01*
X107678Y718445D01*
X107734Y718348D01*
X107786Y718250D01*
X107834Y718149D01*
X107879Y718047D01*
X107921Y717944D01*
X107959Y717839D01*
X107959Y717840D02*
X108091Y717560D01*
X108217Y717276D01*
X108336Y716990D01*
X108448Y716701D01*
X108553Y716410D01*
X108651Y716116D01*
X108742Y715820D01*
X108826Y715522D01*
X108903Y715222D01*
X108973Y714920D01*
X109035Y714616D01*
X109090Y714312D01*
X109138Y714006D01*
X109179Y713698D01*
X109212Y713390D01*
X109238Y713082D01*
X109256Y712772D01*
X109267Y712463D01*
X109271Y712153D01*
X100522Y712153D02*
X100526Y711843D01*
X100537Y711534D01*
X100555Y711224D01*
X100581Y710916D01*
X100614Y710608D01*
X100655Y710300D01*
X100703Y709994D01*
X100758Y709689D01*
X100820Y709386D01*
X100890Y709084D01*
X100967Y708784D01*
X101051Y708486D01*
X101142Y708190D01*
X101240Y707896D01*
X101345Y707604D01*
X101457Y707315D01*
X101576Y707029D01*
X101702Y706746D01*
X101834Y706466D01*
X101835Y706466D02*
X101873Y706361D01*
X101915Y706258D01*
X101960Y706156D01*
X102008Y706055D01*
X102060Y705957D01*
X102116Y705860D01*
X102174Y705765D01*
X102236Y705672D01*
X102301Y705582D01*
X102370Y705494D01*
X102441Y705408D01*
X102515Y705324D01*
X102592Y705244D01*
X102671Y705165D01*
X102754Y705090D01*
X102839Y705018D01*
X102926Y704948D01*
X103016Y704882D01*
X103107Y704819D01*
X103201Y704759D01*
X103297Y704702D01*
X103395Y704648D01*
X103495Y704598D01*
X103596Y704552D01*
X103699Y704509D01*
X103804Y704469D01*
X103909Y704433D01*
X104016Y704401D01*
X104124Y704373D01*
X104233Y704348D01*
X104342Y704327D01*
X104452Y704310D01*
X104563Y704296D01*
X104674Y704287D01*
X104785Y704281D01*
X104897Y704279D01*
X107960Y706466D02*
X108092Y706746D01*
X108218Y707029D01*
X108337Y707315D01*
X108449Y707604D01*
X108554Y707896D01*
X108652Y708190D01*
X108743Y708486D01*
X108827Y708784D01*
X108904Y709084D01*
X108974Y709386D01*
X109036Y709689D01*
X109091Y709994D01*
X109139Y710300D01*
X109180Y710608D01*
X109213Y710916D01*
X109239Y711224D01*
X109257Y711534D01*
X109268Y711843D01*
X109272Y712153D01*
X107959Y706466D02*
X107921Y706361D01*
X107879Y706258D01*
X107834Y706156D01*
X107786Y706055D01*
X107734Y705957D01*
X107678Y705860D01*
X107620Y705765D01*
X107558Y705672D01*
X107493Y705582D01*
X107424Y705494D01*
X107353Y705408D01*
X107279Y705324D01*
X107202Y705244D01*
X107123Y705165D01*
X107040Y705090D01*
X106955Y705018D01*
X106868Y704948D01*
X106778Y704882D01*
X106687Y704819D01*
X106593Y704759D01*
X106497Y704702D01*
X106399Y704648D01*
X106299Y704598D01*
X106198Y704552D01*
X106095Y704509D01*
X105990Y704469D01*
X105885Y704433D01*
X105778Y704401D01*
X105670Y704373D01*
X105561Y704348D01*
X105452Y704327D01*
X105342Y704310D01*
X105231Y704296D01*
X105120Y704287D01*
X105009Y704281D01*
X104897Y704279D01*
X101397Y707778D02*
X108396Y716527D01*
X120966Y720027D02*
X121090Y720025D01*
X121213Y720019D01*
X121337Y720010D01*
X121459Y719996D01*
X121582Y719979D01*
X121704Y719957D01*
X121825Y719932D01*
X121945Y719903D01*
X122064Y719871D01*
X122183Y719834D01*
X122300Y719794D01*
X122415Y719751D01*
X122530Y719703D01*
X122642Y719652D01*
X122753Y719598D01*
X122863Y719540D01*
X122970Y719479D01*
X123076Y719414D01*
X123179Y719346D01*
X123280Y719275D01*
X123379Y719201D01*
X123476Y719124D01*
X123570Y719043D01*
X123661Y718960D01*
X123750Y718874D01*
X123836Y718785D01*
X123919Y718694D01*
X124000Y718600D01*
X124077Y718503D01*
X124151Y718404D01*
X124222Y718303D01*
X124290Y718200D01*
X124355Y718094D01*
X124416Y717987D01*
X124474Y717877D01*
X124528Y717766D01*
X124579Y717654D01*
X124627Y717539D01*
X124670Y717424D01*
X124710Y717307D01*
X124747Y717188D01*
X124779Y717069D01*
X124808Y716949D01*
X124833Y716828D01*
X124855Y716706D01*
X124872Y716583D01*
X124886Y716461D01*
X124895Y716337D01*
X124901Y716214D01*
X124903Y716090D01*
X120966Y720027D02*
X120825Y720025D01*
X120683Y720019D01*
X120542Y720009D01*
X120402Y719995D01*
X120262Y719978D01*
X120122Y719956D01*
X119983Y719931D01*
X119845Y719901D01*
X119707Y719868D01*
X119571Y719831D01*
X119435Y719790D01*
X119301Y719745D01*
X119169Y719697D01*
X119037Y719645D01*
X118907Y719589D01*
X118779Y719530D01*
X118652Y719467D01*
X118528Y719400D01*
X118405Y719331D01*
X118284Y719257D01*
X118165Y719181D01*
X118048Y719101D01*
X117934Y719018D01*
X117822Y718931D01*
X117713Y718842D01*
X117606Y718750D01*
X117501Y718654D01*
X117400Y718556D01*
X117301Y718455D01*
X117205Y718351D01*
X117112Y718245D01*
X117022Y718136D01*
X116935Y718024D01*
X116851Y717910D01*
X116771Y717794D01*
X116693Y717676D01*
X116619Y717555D01*
X116549Y717433D01*
X116482Y717309D01*
X116418Y717182D01*
X116358Y717054D01*
X116301Y716925D01*
X116249Y716794D01*
X116199Y716661D01*
X116154Y716527D01*
X123591Y713028D02*
X123681Y713116D01*
X123769Y713208D01*
X123854Y713302D01*
X123936Y713399D01*
X124015Y713498D01*
X124092Y713599D01*
X124165Y713703D01*
X124235Y713808D01*
X124302Y713916D01*
X124365Y714026D01*
X124425Y714138D01*
X124482Y714251D01*
X124536Y714366D01*
X124586Y714483D01*
X124632Y714601D01*
X124675Y714720D01*
X124714Y714841D01*
X124750Y714962D01*
X124782Y715085D01*
X124810Y715209D01*
X124835Y715333D01*
X124856Y715458D01*
X124873Y715584D01*
X124886Y715710D01*
X124895Y715836D01*
X124901Y715963D01*
X124903Y716090D01*
X123590Y713027D02*
X116154Y704279D01*
X124903Y704279D01*
X131785Y712153D02*
X131789Y712463D01*
X131800Y712772D01*
X131818Y713082D01*
X131844Y713390D01*
X131877Y713698D01*
X131918Y714006D01*
X131966Y714312D01*
X132021Y714617D01*
X132083Y714920D01*
X132153Y715222D01*
X132230Y715522D01*
X132314Y715820D01*
X132405Y716116D01*
X132503Y716410D01*
X132608Y716702D01*
X132720Y716991D01*
X132839Y717277D01*
X132965Y717560D01*
X133097Y717840D01*
X133097Y717839D02*
X133135Y717944D01*
X133177Y718047D01*
X133222Y718149D01*
X133270Y718250D01*
X133322Y718348D01*
X133378Y718445D01*
X133436Y718540D01*
X133498Y718633D01*
X133563Y718723D01*
X133632Y718811D01*
X133703Y718897D01*
X133777Y718981D01*
X133854Y719061D01*
X133933Y719140D01*
X134016Y719215D01*
X134101Y719287D01*
X134188Y719357D01*
X134278Y719423D01*
X134369Y719486D01*
X134463Y719546D01*
X134559Y719603D01*
X134657Y719657D01*
X134757Y719707D01*
X134858Y719753D01*
X134961Y719796D01*
X135066Y719836D01*
X135171Y719872D01*
X135278Y719904D01*
X135386Y719932D01*
X135495Y719957D01*
X135604Y719978D01*
X135714Y719995D01*
X135825Y720009D01*
X135936Y720018D01*
X136047Y720024D01*
X136159Y720026D01*
X136271Y720024D01*
X136382Y720018D01*
X136493Y720009D01*
X136604Y719995D01*
X136714Y719978D01*
X136824Y719957D01*
X136932Y719932D01*
X137040Y719904D01*
X137147Y719872D01*
X137252Y719836D01*
X137357Y719796D01*
X137460Y719753D01*
X137561Y719707D01*
X137661Y719657D01*
X137759Y719603D01*
X137855Y719546D01*
X137949Y719486D01*
X138040Y719423D01*
X138130Y719357D01*
X138217Y719287D01*
X138302Y719215D01*
X138385Y719140D01*
X138464Y719061D01*
X138541Y718981D01*
X138615Y718897D01*
X138686Y718811D01*
X138755Y718723D01*
X138820Y718633D01*
X138882Y718540D01*
X138940Y718445D01*
X138996Y718348D01*
X139048Y718250D01*
X139096Y718149D01*
X139141Y718047D01*
X139183Y717944D01*
X139221Y717839D01*
X139222Y717840D02*
X139354Y717560D01*
X139480Y717276D01*
X139599Y716990D01*
X139711Y716701D01*
X139816Y716410D01*
X139914Y716116D01*
X140005Y715820D01*
X140089Y715522D01*
X140166Y715222D01*
X140236Y714920D01*
X140298Y714616D01*
X140353Y714312D01*
X140401Y714006D01*
X140442Y713698D01*
X140475Y713390D01*
X140501Y713082D01*
X140519Y712772D01*
X140530Y712463D01*
X140534Y712153D01*
X131785Y712153D02*
X131789Y711843D01*
X131800Y711534D01*
X131818Y711224D01*
X131844Y710916D01*
X131877Y710608D01*
X131918Y710300D01*
X131966Y709994D01*
X132021Y709689D01*
X132083Y709386D01*
X132153Y709084D01*
X132230Y708784D01*
X132314Y708486D01*
X132405Y708190D01*
X132503Y707896D01*
X132608Y707604D01*
X132720Y707315D01*
X132839Y707029D01*
X132965Y706746D01*
X133097Y706466D01*
X133135Y706361D01*
X133177Y706258D01*
X133222Y706156D01*
X133270Y706055D01*
X133322Y705957D01*
X133378Y705860D01*
X133436Y705765D01*
X133498Y705672D01*
X133563Y705582D01*
X133632Y705494D01*
X133703Y705408D01*
X133777Y705324D01*
X133854Y705244D01*
X133933Y705165D01*
X134016Y705090D01*
X134101Y705018D01*
X134188Y704948D01*
X134278Y704882D01*
X134369Y704819D01*
X134463Y704759D01*
X134559Y704702D01*
X134657Y704648D01*
X134757Y704598D01*
X134858Y704552D01*
X134961Y704509D01*
X135066Y704469D01*
X135171Y704433D01*
X135278Y704401D01*
X135386Y704373D01*
X135495Y704348D01*
X135604Y704327D01*
X135714Y704310D01*
X135825Y704296D01*
X135936Y704287D01*
X136047Y704281D01*
X136159Y704279D01*
X139222Y706466D02*
X139354Y706746D01*
X139480Y707029D01*
X139599Y707315D01*
X139711Y707604D01*
X139816Y707896D01*
X139914Y708190D01*
X140005Y708486D01*
X140089Y708784D01*
X140166Y709084D01*
X140236Y709386D01*
X140298Y709689D01*
X140353Y709994D01*
X140401Y710300D01*
X140442Y710608D01*
X140475Y710916D01*
X140501Y711224D01*
X140519Y711534D01*
X140530Y711843D01*
X140534Y712153D01*
X139221Y706466D02*
X139183Y706361D01*
X139141Y706258D01*
X139096Y706156D01*
X139048Y706055D01*
X138996Y705957D01*
X138940Y705860D01*
X138882Y705765D01*
X138820Y705672D01*
X138755Y705582D01*
X138686Y705494D01*
X138615Y705408D01*
X138541Y705324D01*
X138464Y705244D01*
X138385Y705165D01*
X138302Y705090D01*
X138217Y705018D01*
X138130Y704948D01*
X138040Y704882D01*
X137949Y704819D01*
X137855Y704759D01*
X137759Y704702D01*
X137661Y704648D01*
X137561Y704598D01*
X137460Y704552D01*
X137357Y704509D01*
X137252Y704469D01*
X137147Y704433D01*
X137040Y704401D01*
X136932Y704373D01*
X136823Y704348D01*
X136714Y704327D01*
X136604Y704310D01*
X136493Y704296D01*
X136382Y704287D01*
X136271Y704281D01*
X136159Y704279D01*
X132660Y707778D02*
X139659Y716527D01*
X351854Y746689D02*
X356228Y750189D01*
X356228Y734441D01*
X351854Y734441D02*
X360602Y734441D01*
X367485Y743190D02*
X372734Y743190D01*
X372851Y743188D01*
X372968Y743182D01*
X373084Y743172D01*
X373201Y743159D01*
X373316Y743141D01*
X373431Y743120D01*
X373545Y743095D01*
X373659Y743066D01*
X373771Y743033D01*
X373882Y742996D01*
X373992Y742956D01*
X374100Y742912D01*
X374207Y742865D01*
X374313Y742814D01*
X374416Y742759D01*
X374518Y742701D01*
X374617Y742640D01*
X374715Y742576D01*
X374810Y742508D01*
X374903Y742437D01*
X374994Y742363D01*
X375082Y742286D01*
X375167Y742206D01*
X375250Y742123D01*
X375330Y742038D01*
X375407Y741950D01*
X375481Y741859D01*
X375552Y741766D01*
X375620Y741671D01*
X375684Y741573D01*
X375745Y741474D01*
X375803Y741372D01*
X375858Y741269D01*
X375909Y741163D01*
X375956Y741056D01*
X376000Y740948D01*
X376040Y740838D01*
X376077Y740727D01*
X376110Y740615D01*
X376139Y740501D01*
X376164Y740387D01*
X376185Y740272D01*
X376203Y740157D01*
X376216Y740040D01*
X376226Y739924D01*
X376232Y739807D01*
X376234Y739690D01*
X376234Y738815D01*
X376233Y738815D02*
X376231Y738684D01*
X376225Y738553D01*
X376215Y738423D01*
X376202Y738293D01*
X376184Y738163D01*
X376163Y738034D01*
X376137Y737906D01*
X376108Y737778D01*
X376075Y737651D01*
X376039Y737526D01*
X375998Y737401D01*
X375954Y737278D01*
X375906Y737156D01*
X375855Y737036D01*
X375800Y736917D01*
X375741Y736800D01*
X375679Y736685D01*
X375614Y736572D01*
X375545Y736460D01*
X375473Y736351D01*
X375398Y736244D01*
X375319Y736139D01*
X375238Y736037D01*
X375153Y735937D01*
X375065Y735840D01*
X374975Y735745D01*
X374882Y735653D01*
X374786Y735564D01*
X374687Y735478D01*
X374586Y735395D01*
X374483Y735315D01*
X374377Y735238D01*
X374269Y735165D01*
X374158Y735094D01*
X374046Y735027D01*
X373932Y734963D01*
X373816Y734903D01*
X373698Y734846D01*
X373578Y734793D01*
X373457Y734743D01*
X373334Y734697D01*
X373211Y734655D01*
X373086Y734617D01*
X372959Y734582D01*
X372832Y734551D01*
X372704Y734523D01*
X372576Y734500D01*
X372446Y734481D01*
X372316Y734465D01*
X372186Y734453D01*
X372055Y734445D01*
X371924Y734441D01*
X371794Y734441D01*
X371663Y734445D01*
X371532Y734453D01*
X371402Y734465D01*
X371272Y734481D01*
X371142Y734500D01*
X371014Y734523D01*
X370886Y734551D01*
X370759Y734582D01*
X370632Y734617D01*
X370507Y734655D01*
X370384Y734697D01*
X370261Y734743D01*
X370140Y734793D01*
X370020Y734846D01*
X369902Y734903D01*
X369786Y734963D01*
X369672Y735027D01*
X369560Y735094D01*
X369449Y735165D01*
X369341Y735238D01*
X369235Y735315D01*
X369132Y735395D01*
X369031Y735478D01*
X368932Y735564D01*
X368836Y735653D01*
X368743Y735745D01*
X368653Y735840D01*
X368565Y735937D01*
X368480Y736037D01*
X368399Y736139D01*
X368320Y736244D01*
X368245Y736351D01*
X368173Y736460D01*
X368104Y736572D01*
X368039Y736685D01*
X367977Y736800D01*
X367918Y736917D01*
X367863Y737036D01*
X367812Y737156D01*
X367764Y737278D01*
X367720Y737401D01*
X367679Y737526D01*
X367643Y737651D01*
X367610Y737778D01*
X367581Y737906D01*
X367555Y738034D01*
X367534Y738163D01*
X367516Y738293D01*
X367503Y738423D01*
X367493Y738553D01*
X367487Y738684D01*
X367485Y738815D01*
X367485Y743190D01*
X367487Y743362D01*
X367493Y743533D01*
X367504Y743705D01*
X367519Y743876D01*
X367538Y744047D01*
X367561Y744217D01*
X367588Y744387D01*
X367619Y744555D01*
X367655Y744723D01*
X367695Y744891D01*
X367739Y745057D01*
X367786Y745222D01*
X367838Y745385D01*
X367894Y745548D01*
X367954Y745709D01*
X368018Y745868D01*
X368085Y746026D01*
X368157Y746182D01*
X368232Y746337D01*
X368311Y746489D01*
X368394Y746640D01*
X368481Y746788D01*
X368571Y746934D01*
X368665Y747078D01*
X368762Y747220D01*
X368862Y747359D01*
X368966Y747496D01*
X369074Y747630D01*
X369184Y747762D01*
X369298Y747890D01*
X369415Y748016D01*
X369535Y748139D01*
X369658Y748259D01*
X369784Y748376D01*
X369912Y748490D01*
X370044Y748600D01*
X370178Y748708D01*
X370315Y748812D01*
X370454Y748912D01*
X370596Y749009D01*
X370740Y749103D01*
X370886Y749193D01*
X371034Y749280D01*
X371185Y749363D01*
X371337Y749442D01*
X371492Y749517D01*
X371648Y749589D01*
X371806Y749656D01*
X371965Y749720D01*
X372126Y749780D01*
X372289Y749836D01*
X372452Y749888D01*
X372617Y749935D01*
X372783Y749979D01*
X372950Y750019D01*
X373119Y750055D01*
X373287Y750086D01*
X373457Y750113D01*
X373627Y750136D01*
X373798Y750155D01*
X373969Y750170D01*
X374141Y750181D01*
X374312Y750187D01*
X374484Y750189D01*
X383116Y743190D02*
X388365Y743190D01*
X388482Y743188D01*
X388599Y743182D01*
X388715Y743172D01*
X388832Y743159D01*
X388947Y743141D01*
X389062Y743120D01*
X389176Y743095D01*
X389290Y743066D01*
X389402Y743033D01*
X389513Y742996D01*
X389623Y742956D01*
X389731Y742912D01*
X389838Y742865D01*
X389944Y742814D01*
X390047Y742759D01*
X390149Y742701D01*
X390248Y742640D01*
X390346Y742576D01*
X390441Y742508D01*
X390534Y742437D01*
X390625Y742363D01*
X390713Y742286D01*
X390798Y742206D01*
X390881Y742123D01*
X390961Y742038D01*
X391038Y741950D01*
X391112Y741859D01*
X391183Y741766D01*
X391251Y741671D01*
X391315Y741573D01*
X391376Y741474D01*
X391434Y741372D01*
X391489Y741269D01*
X391540Y741163D01*
X391587Y741056D01*
X391631Y740948D01*
X391671Y740838D01*
X391708Y740727D01*
X391741Y740615D01*
X391770Y740501D01*
X391795Y740387D01*
X391816Y740272D01*
X391834Y740157D01*
X391847Y740040D01*
X391857Y739924D01*
X391863Y739807D01*
X391865Y739690D01*
X391865Y738815D01*
X391864Y738815D02*
X391862Y738684D01*
X391856Y738553D01*
X391846Y738423D01*
X391833Y738293D01*
X391815Y738163D01*
X391794Y738034D01*
X391768Y737906D01*
X391739Y737778D01*
X391706Y737651D01*
X391670Y737526D01*
X391629Y737401D01*
X391585Y737278D01*
X391537Y737156D01*
X391486Y737036D01*
X391431Y736917D01*
X391372Y736800D01*
X391310Y736685D01*
X391245Y736572D01*
X391176Y736460D01*
X391104Y736351D01*
X391029Y736244D01*
X390950Y736139D01*
X390869Y736037D01*
X390784Y735937D01*
X390696Y735840D01*
X390606Y735745D01*
X390513Y735653D01*
X390417Y735564D01*
X390318Y735478D01*
X390217Y735395D01*
X390114Y735315D01*
X390008Y735238D01*
X389900Y735165D01*
X389789Y735094D01*
X389677Y735027D01*
X389563Y734963D01*
X389447Y734903D01*
X389329Y734846D01*
X389209Y734793D01*
X389088Y734743D01*
X388965Y734697D01*
X388842Y734655D01*
X388717Y734617D01*
X388590Y734582D01*
X388463Y734551D01*
X388335Y734523D01*
X388207Y734500D01*
X388077Y734481D01*
X387947Y734465D01*
X387817Y734453D01*
X387686Y734445D01*
X387555Y734441D01*
X387425Y734441D01*
X387294Y734445D01*
X387163Y734453D01*
X387033Y734465D01*
X386903Y734481D01*
X386773Y734500D01*
X386645Y734523D01*
X386517Y734551D01*
X386390Y734582D01*
X386263Y734617D01*
X386138Y734655D01*
X386015Y734697D01*
X385892Y734743D01*
X385771Y734793D01*
X385651Y734846D01*
X385533Y734903D01*
X385417Y734963D01*
X385303Y735027D01*
X385191Y735094D01*
X385080Y735165D01*
X384972Y735238D01*
X384866Y735315D01*
X384763Y735395D01*
X384662Y735478D01*
X384563Y735564D01*
X384467Y735653D01*
X384374Y735745D01*
X384284Y735840D01*
X384196Y735937D01*
X384111Y736037D01*
X384030Y736139D01*
X383951Y736244D01*
X383876Y736351D01*
X383804Y736460D01*
X383735Y736572D01*
X383670Y736685D01*
X383608Y736800D01*
X383549Y736917D01*
X383494Y737036D01*
X383443Y737156D01*
X383395Y737278D01*
X383351Y737401D01*
X383310Y737526D01*
X383274Y737651D01*
X383241Y737778D01*
X383212Y737906D01*
X383186Y738034D01*
X383165Y738163D01*
X383147Y738293D01*
X383134Y738423D01*
X383124Y738553D01*
X383118Y738684D01*
X383116Y738815D01*
X383116Y743190D01*
X383118Y743362D01*
X383124Y743533D01*
X383135Y743705D01*
X383150Y743876D01*
X383169Y744047D01*
X383192Y744217D01*
X383219Y744387D01*
X383250Y744555D01*
X383286Y744723D01*
X383326Y744891D01*
X383370Y745057D01*
X383417Y745222D01*
X383469Y745385D01*
X383525Y745548D01*
X383585Y745709D01*
X383649Y745868D01*
X383716Y746026D01*
X383788Y746182D01*
X383863Y746337D01*
X383942Y746489D01*
X384025Y746640D01*
X384112Y746788D01*
X384202Y746934D01*
X384296Y747078D01*
X384393Y747220D01*
X384493Y747359D01*
X384597Y747496D01*
X384705Y747630D01*
X384815Y747762D01*
X384929Y747890D01*
X385046Y748016D01*
X385166Y748139D01*
X385289Y748259D01*
X385415Y748376D01*
X385543Y748490D01*
X385675Y748600D01*
X385809Y748708D01*
X385946Y748812D01*
X386085Y748912D01*
X386227Y749009D01*
X386371Y749103D01*
X386517Y749193D01*
X386665Y749280D01*
X386816Y749363D01*
X386968Y749442D01*
X387123Y749517D01*
X387279Y749589D01*
X387437Y749656D01*
X387596Y749720D01*
X387757Y749780D01*
X387920Y749836D01*
X388083Y749888D01*
X388248Y749935D01*
X388414Y749979D01*
X388581Y750019D01*
X388750Y750055D01*
X388918Y750086D01*
X389088Y750113D01*
X389258Y750136D01*
X389429Y750155D01*
X389600Y750170D01*
X389772Y750181D01*
X389943Y750187D01*
X390115Y750189D01*
X398914Y740565D02*
X409413Y740565D01*
X421275Y750189D02*
X421399Y750187D01*
X421522Y750181D01*
X421646Y750172D01*
X421768Y750158D01*
X421891Y750141D01*
X422013Y750119D01*
X422134Y750094D01*
X422254Y750065D01*
X422373Y750033D01*
X422492Y749996D01*
X422609Y749956D01*
X422724Y749913D01*
X422839Y749865D01*
X422951Y749814D01*
X423062Y749760D01*
X423172Y749702D01*
X423279Y749641D01*
X423385Y749576D01*
X423488Y749508D01*
X423589Y749437D01*
X423688Y749363D01*
X423785Y749286D01*
X423879Y749205D01*
X423970Y749122D01*
X424059Y749036D01*
X424145Y748947D01*
X424228Y748856D01*
X424309Y748762D01*
X424386Y748665D01*
X424460Y748566D01*
X424531Y748465D01*
X424599Y748362D01*
X424664Y748256D01*
X424725Y748149D01*
X424783Y748039D01*
X424837Y747928D01*
X424888Y747816D01*
X424936Y747701D01*
X424979Y747586D01*
X425019Y747469D01*
X425056Y747350D01*
X425088Y747231D01*
X425117Y747111D01*
X425142Y746990D01*
X425164Y746868D01*
X425181Y746745D01*
X425195Y746623D01*
X425204Y746499D01*
X425210Y746376D01*
X425212Y746252D01*
X421275Y750189D02*
X421134Y750187D01*
X420992Y750181D01*
X420851Y750171D01*
X420711Y750157D01*
X420571Y750140D01*
X420431Y750118D01*
X420292Y750093D01*
X420154Y750063D01*
X420016Y750030D01*
X419880Y749993D01*
X419744Y749952D01*
X419610Y749907D01*
X419478Y749859D01*
X419346Y749807D01*
X419216Y749751D01*
X419088Y749692D01*
X418961Y749629D01*
X418837Y749562D01*
X418714Y749493D01*
X418593Y749419D01*
X418474Y749343D01*
X418357Y749263D01*
X418243Y749180D01*
X418131Y749093D01*
X418022Y749004D01*
X417915Y748912D01*
X417810Y748816D01*
X417709Y748718D01*
X417610Y748617D01*
X417514Y748513D01*
X417421Y748407D01*
X417331Y748298D01*
X417244Y748186D01*
X417160Y748072D01*
X417080Y747956D01*
X417002Y747838D01*
X416928Y747717D01*
X416858Y747595D01*
X416791Y747471D01*
X416727Y747344D01*
X416667Y747216D01*
X416610Y747087D01*
X416558Y746956D01*
X416508Y746823D01*
X416463Y746689D01*
X423900Y743190D02*
X423990Y743278D01*
X424078Y743370D01*
X424163Y743464D01*
X424245Y743561D01*
X424324Y743660D01*
X424401Y743761D01*
X424474Y743865D01*
X424544Y743970D01*
X424611Y744078D01*
X424674Y744188D01*
X424734Y744300D01*
X424791Y744413D01*
X424845Y744528D01*
X424895Y744645D01*
X424941Y744763D01*
X424984Y744882D01*
X425023Y745003D01*
X425059Y745124D01*
X425091Y745247D01*
X425119Y745371D01*
X425144Y745495D01*
X425165Y745620D01*
X425182Y745746D01*
X425195Y745872D01*
X425204Y745998D01*
X425210Y746125D01*
X425212Y746252D01*
X423899Y743190D02*
X416463Y734441D01*
X425212Y734441D01*
X432261Y740565D02*
X442760Y740565D01*
X449809Y742315D02*
X449813Y742625D01*
X449824Y742934D01*
X449842Y743244D01*
X449868Y743552D01*
X449901Y743860D01*
X449942Y744168D01*
X449990Y744474D01*
X450045Y744779D01*
X450107Y745082D01*
X450177Y745384D01*
X450254Y745684D01*
X450338Y745982D01*
X450429Y746278D01*
X450527Y746572D01*
X450632Y746864D01*
X450744Y747153D01*
X450863Y747439D01*
X450989Y747722D01*
X451121Y748002D01*
X451122Y748002D02*
X451160Y748107D01*
X451202Y748210D01*
X451247Y748312D01*
X451295Y748413D01*
X451347Y748511D01*
X451403Y748608D01*
X451461Y748703D01*
X451523Y748796D01*
X451588Y748886D01*
X451657Y748974D01*
X451728Y749060D01*
X451802Y749144D01*
X451879Y749224D01*
X451958Y749303D01*
X452041Y749378D01*
X452126Y749450D01*
X452213Y749520D01*
X452303Y749586D01*
X452394Y749649D01*
X452488Y749709D01*
X452584Y749766D01*
X452682Y749820D01*
X452782Y749870D01*
X452883Y749916D01*
X452986Y749959D01*
X453091Y749999D01*
X453196Y750035D01*
X453303Y750067D01*
X453411Y750095D01*
X453520Y750120D01*
X453629Y750141D01*
X453739Y750158D01*
X453850Y750172D01*
X453961Y750181D01*
X454072Y750187D01*
X454184Y750189D01*
X454296Y750187D01*
X454407Y750181D01*
X454518Y750172D01*
X454629Y750158D01*
X454739Y750141D01*
X454849Y750120D01*
X454957Y750095D01*
X455065Y750067D01*
X455172Y750035D01*
X455277Y749999D01*
X455382Y749959D01*
X455485Y749916D01*
X455586Y749870D01*
X455686Y749820D01*
X455784Y749766D01*
X455880Y749709D01*
X455974Y749649D01*
X456065Y749586D01*
X456155Y749520D01*
X456242Y749450D01*
X456327Y749378D01*
X456410Y749303D01*
X456489Y749224D01*
X456566Y749144D01*
X456640Y749060D01*
X456711Y748974D01*
X456780Y748886D01*
X456845Y748796D01*
X456907Y748703D01*
X456965Y748608D01*
X457021Y748511D01*
X457073Y748413D01*
X457121Y748312D01*
X457166Y748210D01*
X457208Y748107D01*
X457246Y748002D01*
X457378Y747722D01*
X457504Y747438D01*
X457623Y747152D01*
X457735Y746863D01*
X457840Y746572D01*
X457938Y746278D01*
X458029Y745982D01*
X458113Y745684D01*
X458190Y745384D01*
X458260Y745082D01*
X458322Y744778D01*
X458377Y744474D01*
X458425Y744168D01*
X458466Y743860D01*
X458499Y743552D01*
X458525Y743244D01*
X458543Y742934D01*
X458554Y742625D01*
X458558Y742315D01*
X449809Y742315D02*
X449813Y742005D01*
X449824Y741696D01*
X449842Y741386D01*
X449868Y741078D01*
X449901Y740770D01*
X449942Y740462D01*
X449990Y740156D01*
X450045Y739851D01*
X450107Y739548D01*
X450177Y739246D01*
X450254Y738946D01*
X450338Y738648D01*
X450429Y738352D01*
X450527Y738058D01*
X450632Y737766D01*
X450744Y737477D01*
X450863Y737191D01*
X450989Y736908D01*
X451121Y736628D01*
X451122Y736628D02*
X451160Y736523D01*
X451202Y736420D01*
X451247Y736318D01*
X451295Y736217D01*
X451347Y736119D01*
X451403Y736022D01*
X451461Y735927D01*
X451523Y735834D01*
X451588Y735744D01*
X451657Y735656D01*
X451728Y735570D01*
X451802Y735486D01*
X451879Y735406D01*
X451958Y735327D01*
X452041Y735252D01*
X452126Y735180D01*
X452213Y735110D01*
X452303Y735044D01*
X452394Y734981D01*
X452488Y734921D01*
X452584Y734864D01*
X452682Y734810D01*
X452782Y734760D01*
X452883Y734714D01*
X452986Y734671D01*
X453091Y734631D01*
X453196Y734595D01*
X453303Y734563D01*
X453411Y734535D01*
X453520Y734510D01*
X453629Y734489D01*
X453739Y734472D01*
X453850Y734458D01*
X453961Y734449D01*
X454072Y734443D01*
X454184Y734441D01*
X457247Y736628D02*
X457379Y736908D01*
X457505Y737191D01*
X457624Y737477D01*
X457736Y737766D01*
X457841Y738058D01*
X457939Y738352D01*
X458030Y738648D01*
X458114Y738946D01*
X458191Y739246D01*
X458261Y739548D01*
X458323Y739851D01*
X458378Y740156D01*
X458426Y740462D01*
X458467Y740770D01*
X458500Y741078D01*
X458526Y741386D01*
X458544Y741696D01*
X458555Y742005D01*
X458559Y742315D01*
X457246Y736628D02*
X457208Y736523D01*
X457166Y736420D01*
X457121Y736318D01*
X457073Y736217D01*
X457021Y736119D01*
X456965Y736022D01*
X456907Y735927D01*
X456845Y735834D01*
X456780Y735744D01*
X456711Y735656D01*
X456640Y735570D01*
X456566Y735486D01*
X456489Y735406D01*
X456410Y735327D01*
X456327Y735252D01*
X456242Y735180D01*
X456155Y735110D01*
X456065Y735044D01*
X455974Y734981D01*
X455880Y734921D01*
X455784Y734864D01*
X455686Y734810D01*
X455586Y734760D01*
X455485Y734714D01*
X455382Y734671D01*
X455277Y734631D01*
X455172Y734595D01*
X455065Y734563D01*
X454957Y734535D01*
X454848Y734510D01*
X454739Y734489D01*
X454629Y734472D01*
X454518Y734458D01*
X454407Y734449D01*
X454296Y734443D01*
X454184Y734441D01*
X450684Y737941D02*
X457683Y746689D01*
X465441Y746689D02*
X469815Y750189D01*
X469815Y734441D01*
X465441Y734441D02*
X474189Y734441D01*
X481239Y740565D02*
X491738Y740565D01*
X498787Y742315D02*
X498791Y742625D01*
X498802Y742934D01*
X498820Y743244D01*
X498846Y743552D01*
X498879Y743860D01*
X498920Y744168D01*
X498968Y744474D01*
X499023Y744779D01*
X499085Y745082D01*
X499155Y745384D01*
X499232Y745684D01*
X499316Y745982D01*
X499407Y746278D01*
X499505Y746572D01*
X499610Y746864D01*
X499722Y747153D01*
X499841Y747439D01*
X499967Y747722D01*
X500099Y748002D01*
X500100Y748002D02*
X500138Y748107D01*
X500180Y748210D01*
X500225Y748312D01*
X500273Y748413D01*
X500325Y748511D01*
X500381Y748608D01*
X500439Y748703D01*
X500501Y748796D01*
X500566Y748886D01*
X500635Y748974D01*
X500706Y749060D01*
X500780Y749144D01*
X500857Y749224D01*
X500936Y749303D01*
X501019Y749378D01*
X501104Y749450D01*
X501191Y749520D01*
X501281Y749586D01*
X501372Y749649D01*
X501466Y749709D01*
X501562Y749766D01*
X501660Y749820D01*
X501760Y749870D01*
X501861Y749916D01*
X501964Y749959D01*
X502069Y749999D01*
X502174Y750035D01*
X502281Y750067D01*
X502389Y750095D01*
X502498Y750120D01*
X502607Y750141D01*
X502717Y750158D01*
X502828Y750172D01*
X502939Y750181D01*
X503050Y750187D01*
X503162Y750189D01*
X503274Y750187D01*
X503385Y750181D01*
X503496Y750172D01*
X503607Y750158D01*
X503717Y750141D01*
X503827Y750120D01*
X503935Y750095D01*
X504043Y750067D01*
X504150Y750035D01*
X504255Y749999D01*
X504360Y749959D01*
X504463Y749916D01*
X504564Y749870D01*
X504664Y749820D01*
X504762Y749766D01*
X504858Y749709D01*
X504952Y749649D01*
X505043Y749586D01*
X505133Y749520D01*
X505220Y749450D01*
X505305Y749378D01*
X505388Y749303D01*
X505467Y749224D01*
X505544Y749144D01*
X505618Y749060D01*
X505689Y748974D01*
X505758Y748886D01*
X505823Y748796D01*
X505885Y748703D01*
X505943Y748608D01*
X505999Y748511D01*
X506051Y748413D01*
X506099Y748312D01*
X506144Y748210D01*
X506186Y748107D01*
X506224Y748002D01*
X506356Y747722D01*
X506482Y747438D01*
X506601Y747152D01*
X506713Y746863D01*
X506818Y746572D01*
X506916Y746278D01*
X507007Y745982D01*
X507091Y745684D01*
X507168Y745384D01*
X507238Y745082D01*
X507300Y744778D01*
X507355Y744474D01*
X507403Y744168D01*
X507444Y743860D01*
X507477Y743552D01*
X507503Y743244D01*
X507521Y742934D01*
X507532Y742625D01*
X507536Y742315D01*
X498787Y742315D02*
X498791Y742005D01*
X498802Y741696D01*
X498820Y741386D01*
X498846Y741078D01*
X498879Y740770D01*
X498920Y740462D01*
X498968Y740156D01*
X499023Y739851D01*
X499085Y739548D01*
X499155Y739246D01*
X499232Y738946D01*
X499316Y738648D01*
X499407Y738352D01*
X499505Y738058D01*
X499610Y737766D01*
X499722Y737477D01*
X499841Y737191D01*
X499967Y736908D01*
X500099Y736628D01*
X500100Y736628D02*
X500138Y736523D01*
X500180Y736420D01*
X500225Y736318D01*
X500273Y736217D01*
X500325Y736119D01*
X500381Y736022D01*
X500439Y735927D01*
X500501Y735834D01*
X500566Y735744D01*
X500635Y735656D01*
X500706Y735570D01*
X500780Y735486D01*
X500857Y735406D01*
X500936Y735327D01*
X501019Y735252D01*
X501104Y735180D01*
X501191Y735110D01*
X501281Y735044D01*
X501372Y734981D01*
X501466Y734921D01*
X501562Y734864D01*
X501660Y734810D01*
X501760Y734760D01*
X501861Y734714D01*
X501964Y734671D01*
X502069Y734631D01*
X502174Y734595D01*
X502281Y734563D01*
X502389Y734535D01*
X502498Y734510D01*
X502607Y734489D01*
X502717Y734472D01*
X502828Y734458D01*
X502939Y734449D01*
X503050Y734443D01*
X503162Y734441D01*
X506225Y736628D02*
X506357Y736908D01*
X506483Y737191D01*
X506602Y737477D01*
X506714Y737766D01*
X506819Y738058D01*
X506917Y738352D01*
X507008Y738648D01*
X507092Y738946D01*
X507169Y739246D01*
X507239Y739548D01*
X507301Y739851D01*
X507356Y740156D01*
X507404Y740462D01*
X507445Y740770D01*
X507478Y741078D01*
X507504Y741386D01*
X507522Y741696D01*
X507533Y742005D01*
X507537Y742315D01*
X506224Y736628D02*
X506186Y736523D01*
X506144Y736420D01*
X506099Y736318D01*
X506051Y736217D01*
X505999Y736119D01*
X505943Y736022D01*
X505885Y735927D01*
X505823Y735834D01*
X505758Y735744D01*
X505689Y735656D01*
X505618Y735570D01*
X505544Y735486D01*
X505467Y735406D01*
X505388Y735327D01*
X505305Y735252D01*
X505220Y735180D01*
X505133Y735110D01*
X505043Y735044D01*
X504952Y734981D01*
X504858Y734921D01*
X504762Y734864D01*
X504664Y734810D01*
X504564Y734760D01*
X504463Y734714D01*
X504360Y734671D01*
X504255Y734631D01*
X504150Y734595D01*
X504043Y734563D01*
X503935Y734535D01*
X503826Y734510D01*
X503717Y734489D01*
X503607Y734472D01*
X503496Y734458D01*
X503385Y734449D01*
X503274Y734443D01*
X503162Y734441D01*
X499662Y737941D02*
X506661Y746689D01*
X514418Y742315D02*
X514422Y742625D01*
X514433Y742934D01*
X514451Y743244D01*
X514477Y743552D01*
X514510Y743860D01*
X514551Y744168D01*
X514599Y744474D01*
X514654Y744779D01*
X514716Y745082D01*
X514786Y745384D01*
X514863Y745684D01*
X514947Y745982D01*
X515038Y746278D01*
X515136Y746572D01*
X515241Y746864D01*
X515353Y747153D01*
X515472Y747439D01*
X515598Y747722D01*
X515730Y748002D01*
X515731Y748002D02*
X515769Y748107D01*
X515811Y748210D01*
X515856Y748312D01*
X515904Y748413D01*
X515956Y748511D01*
X516012Y748608D01*
X516070Y748703D01*
X516132Y748796D01*
X516197Y748886D01*
X516266Y748974D01*
X516337Y749060D01*
X516411Y749144D01*
X516488Y749224D01*
X516567Y749303D01*
X516650Y749378D01*
X516735Y749450D01*
X516822Y749520D01*
X516912Y749586D01*
X517003Y749649D01*
X517097Y749709D01*
X517193Y749766D01*
X517291Y749820D01*
X517391Y749870D01*
X517492Y749916D01*
X517595Y749959D01*
X517700Y749999D01*
X517805Y750035D01*
X517912Y750067D01*
X518020Y750095D01*
X518129Y750120D01*
X518238Y750141D01*
X518348Y750158D01*
X518459Y750172D01*
X518570Y750181D01*
X518681Y750187D01*
X518793Y750189D01*
X518905Y750187D01*
X519016Y750181D01*
X519127Y750172D01*
X519238Y750158D01*
X519348Y750141D01*
X519458Y750120D01*
X519566Y750095D01*
X519674Y750067D01*
X519781Y750035D01*
X519886Y749999D01*
X519991Y749959D01*
X520094Y749916D01*
X520195Y749870D01*
X520295Y749820D01*
X520393Y749766D01*
X520489Y749709D01*
X520583Y749649D01*
X520674Y749586D01*
X520764Y749520D01*
X520851Y749450D01*
X520936Y749378D01*
X521019Y749303D01*
X521098Y749224D01*
X521175Y749144D01*
X521249Y749060D01*
X521320Y748974D01*
X521389Y748886D01*
X521454Y748796D01*
X521516Y748703D01*
X521574Y748608D01*
X521630Y748511D01*
X521682Y748413D01*
X521730Y748312D01*
X521775Y748210D01*
X521817Y748107D01*
X521855Y748002D01*
X521987Y747722D01*
X522113Y747438D01*
X522232Y747152D01*
X522344Y746863D01*
X522449Y746572D01*
X522547Y746278D01*
X522638Y745982D01*
X522722Y745684D01*
X522799Y745384D01*
X522869Y745082D01*
X522931Y744778D01*
X522986Y744474D01*
X523034Y744168D01*
X523075Y743860D01*
X523108Y743552D01*
X523134Y743244D01*
X523152Y742934D01*
X523163Y742625D01*
X523167Y742315D01*
X514418Y742315D02*
X514422Y742005D01*
X514433Y741696D01*
X514451Y741386D01*
X514477Y741078D01*
X514510Y740770D01*
X514551Y740462D01*
X514599Y740156D01*
X514654Y739851D01*
X514716Y739548D01*
X514786Y739246D01*
X514863Y738946D01*
X514947Y738648D01*
X515038Y738352D01*
X515136Y738058D01*
X515241Y737766D01*
X515353Y737477D01*
X515472Y737191D01*
X515598Y736908D01*
X515730Y736628D01*
X515731Y736628D02*
X515769Y736523D01*
X515811Y736420D01*
X515856Y736318D01*
X515904Y736217D01*
X515956Y736119D01*
X516012Y736022D01*
X516070Y735927D01*
X516132Y735834D01*
X516197Y735744D01*
X516266Y735656D01*
X516337Y735570D01*
X516411Y735486D01*
X516488Y735406D01*
X516567Y735327D01*
X516650Y735252D01*
X516735Y735180D01*
X516822Y735110D01*
X516912Y735044D01*
X517003Y734981D01*
X517097Y734921D01*
X517193Y734864D01*
X517291Y734810D01*
X517391Y734760D01*
X517492Y734714D01*
X517595Y734671D01*
X517700Y734631D01*
X517805Y734595D01*
X517912Y734563D01*
X518020Y734535D01*
X518129Y734510D01*
X518238Y734489D01*
X518348Y734472D01*
X518459Y734458D01*
X518570Y734449D01*
X518681Y734443D01*
X518793Y734441D01*
X521856Y736628D02*
X521988Y736908D01*
X522114Y737191D01*
X522233Y737477D01*
X522345Y737766D01*
X522450Y738058D01*
X522548Y738352D01*
X522639Y738648D01*
X522723Y738946D01*
X522800Y739246D01*
X522870Y739548D01*
X522932Y739851D01*
X522987Y740156D01*
X523035Y740462D01*
X523076Y740770D01*
X523109Y741078D01*
X523135Y741386D01*
X523153Y741696D01*
X523164Y742005D01*
X523168Y742315D01*
X521855Y736628D02*
X521817Y736523D01*
X521775Y736420D01*
X521730Y736318D01*
X521682Y736217D01*
X521630Y736119D01*
X521574Y736022D01*
X521516Y735927D01*
X521454Y735834D01*
X521389Y735744D01*
X521320Y735656D01*
X521249Y735570D01*
X521175Y735486D01*
X521098Y735406D01*
X521019Y735327D01*
X520936Y735252D01*
X520851Y735180D01*
X520764Y735110D01*
X520674Y735044D01*
X520583Y734981D01*
X520489Y734921D01*
X520393Y734864D01*
X520295Y734810D01*
X520195Y734760D01*
X520094Y734714D01*
X519991Y734671D01*
X519886Y734631D01*
X519781Y734595D01*
X519674Y734563D01*
X519566Y734535D01*
X519457Y734510D01*
X519348Y734489D01*
X519238Y734472D01*
X519127Y734458D01*
X519016Y734449D01*
X518905Y734443D01*
X518793Y734441D01*
X515293Y737941D02*
X522292Y746689D01*
X305428Y702691D02*
X301054Y702691D01*
X305428Y702691D02*
X305559Y702693D01*
X305690Y702699D01*
X305820Y702709D01*
X305950Y702722D01*
X306080Y702740D01*
X306209Y702761D01*
X306337Y702787D01*
X306465Y702816D01*
X306592Y702849D01*
X306717Y702885D01*
X306842Y702926D01*
X306965Y702970D01*
X307087Y703018D01*
X307207Y703069D01*
X307326Y703124D01*
X307443Y703183D01*
X307558Y703245D01*
X307671Y703310D01*
X307783Y703379D01*
X307892Y703451D01*
X307999Y703526D01*
X308104Y703605D01*
X308206Y703686D01*
X308306Y703771D01*
X308403Y703859D01*
X308498Y703949D01*
X308590Y704042D01*
X308679Y704138D01*
X308765Y704237D01*
X308848Y704338D01*
X308928Y704441D01*
X309005Y704547D01*
X309078Y704655D01*
X309149Y704766D01*
X309216Y704878D01*
X309280Y704992D01*
X309340Y705108D01*
X309397Y705226D01*
X309450Y705346D01*
X309500Y705467D01*
X309546Y705590D01*
X309588Y705713D01*
X309626Y705838D01*
X309661Y705965D01*
X309692Y706092D01*
X309720Y706220D01*
X309743Y706348D01*
X309762Y706478D01*
X309778Y706608D01*
X309790Y706738D01*
X309798Y706869D01*
X309802Y707000D01*
X309802Y707130D01*
X309798Y707261D01*
X309790Y707392D01*
X309778Y707522D01*
X309762Y707652D01*
X309743Y707782D01*
X309720Y707910D01*
X309692Y708038D01*
X309661Y708165D01*
X309626Y708292D01*
X309588Y708417D01*
X309546Y708540D01*
X309500Y708663D01*
X309450Y708784D01*
X309397Y708904D01*
X309340Y709022D01*
X309280Y709138D01*
X309216Y709252D01*
X309149Y709364D01*
X309078Y709475D01*
X309005Y709583D01*
X308928Y709689D01*
X308848Y709792D01*
X308765Y709893D01*
X308679Y709992D01*
X308590Y710088D01*
X308498Y710181D01*
X308403Y710271D01*
X308306Y710359D01*
X308206Y710444D01*
X308104Y710525D01*
X307999Y710604D01*
X307892Y710679D01*
X307783Y710751D01*
X307671Y710820D01*
X307558Y710885D01*
X307443Y710947D01*
X307326Y711006D01*
X307207Y711061D01*
X307087Y711112D01*
X306965Y711160D01*
X306842Y711204D01*
X306717Y711245D01*
X306592Y711281D01*
X306465Y711314D01*
X306337Y711343D01*
X306209Y711369D01*
X306080Y711390D01*
X305950Y711408D01*
X305820Y711421D01*
X305690Y711431D01*
X305559Y711437D01*
X305428Y711439D01*
X306303Y718439D02*
X301054Y718439D01*
X306303Y718439D02*
X306421Y718437D01*
X306539Y718431D01*
X306657Y718421D01*
X306774Y718407D01*
X306891Y718389D01*
X307008Y718367D01*
X307123Y718342D01*
X307237Y718312D01*
X307351Y718278D01*
X307463Y718241D01*
X307574Y718200D01*
X307683Y718155D01*
X307791Y718107D01*
X307897Y718055D01*
X308002Y717999D01*
X308104Y717940D01*
X308204Y717878D01*
X308302Y717812D01*
X308398Y717743D01*
X308492Y717670D01*
X308583Y717595D01*
X308671Y717516D01*
X308757Y717435D01*
X308840Y717350D01*
X308920Y717263D01*
X308997Y717174D01*
X309071Y717081D01*
X309141Y716987D01*
X309209Y716890D01*
X309273Y716790D01*
X309334Y716689D01*
X309391Y716586D01*
X309445Y716480D01*
X309496Y716373D01*
X309542Y716265D01*
X309585Y716155D01*
X309624Y716043D01*
X309660Y715930D01*
X309691Y715816D01*
X309719Y715701D01*
X309743Y715586D01*
X309763Y715469D01*
X309779Y715352D01*
X309791Y715234D01*
X309799Y715116D01*
X309803Y714998D01*
X309803Y714880D01*
X309799Y714762D01*
X309791Y714644D01*
X309779Y714526D01*
X309763Y714409D01*
X309743Y714292D01*
X309719Y714177D01*
X309691Y714062D01*
X309660Y713948D01*
X309624Y713835D01*
X309585Y713723D01*
X309542Y713613D01*
X309496Y713505D01*
X309445Y713398D01*
X309391Y713292D01*
X309334Y713189D01*
X309273Y713088D01*
X309209Y712988D01*
X309141Y712891D01*
X309071Y712797D01*
X308997Y712704D01*
X308920Y712615D01*
X308840Y712528D01*
X308757Y712443D01*
X308671Y712362D01*
X308583Y712283D01*
X308492Y712208D01*
X308398Y712135D01*
X308302Y712066D01*
X308204Y712000D01*
X308104Y711938D01*
X308002Y711879D01*
X307897Y711823D01*
X307791Y711771D01*
X307683Y711723D01*
X307574Y711678D01*
X307463Y711637D01*
X307351Y711600D01*
X307237Y711566D01*
X307123Y711536D01*
X307008Y711511D01*
X306891Y711489D01*
X306774Y711471D01*
X306657Y711457D01*
X306539Y711447D01*
X306421Y711441D01*
X306303Y711439D01*
X306303Y711440D02*
X302803Y711440D01*
X316685Y702691D02*
X321934Y702691D01*
X322051Y702693D01*
X322168Y702699D01*
X322284Y702709D01*
X322401Y702722D01*
X322516Y702740D01*
X322631Y702761D01*
X322745Y702786D01*
X322859Y702815D01*
X322971Y702848D01*
X323082Y702885D01*
X323192Y702925D01*
X323300Y702969D01*
X323407Y703016D01*
X323513Y703067D01*
X323616Y703122D01*
X323718Y703180D01*
X323817Y703241D01*
X323915Y703305D01*
X324010Y703373D01*
X324103Y703444D01*
X324194Y703518D01*
X324282Y703595D01*
X324367Y703675D01*
X324450Y703758D01*
X324530Y703843D01*
X324607Y703931D01*
X324681Y704022D01*
X324752Y704115D01*
X324820Y704210D01*
X324884Y704308D01*
X324945Y704407D01*
X325003Y704509D01*
X325058Y704612D01*
X325109Y704718D01*
X325156Y704825D01*
X325200Y704933D01*
X325240Y705043D01*
X325277Y705154D01*
X325310Y705266D01*
X325339Y705380D01*
X325364Y705494D01*
X325385Y705609D01*
X325403Y705724D01*
X325416Y705841D01*
X325426Y705957D01*
X325432Y706074D01*
X325434Y706191D01*
X325434Y707940D01*
X325432Y708057D01*
X325426Y708174D01*
X325416Y708290D01*
X325403Y708407D01*
X325385Y708522D01*
X325364Y708637D01*
X325339Y708751D01*
X325310Y708865D01*
X325277Y708977D01*
X325240Y709088D01*
X325200Y709198D01*
X325156Y709306D01*
X325109Y709413D01*
X325058Y709519D01*
X325003Y709622D01*
X324945Y709724D01*
X324884Y709823D01*
X324820Y709921D01*
X324752Y710016D01*
X324681Y710109D01*
X324607Y710200D01*
X324530Y710288D01*
X324450Y710373D01*
X324367Y710456D01*
X324282Y710536D01*
X324194Y710613D01*
X324103Y710687D01*
X324010Y710758D01*
X323915Y710826D01*
X323817Y710890D01*
X323718Y710951D01*
X323616Y711009D01*
X323513Y711064D01*
X323407Y711115D01*
X323300Y711162D01*
X323192Y711206D01*
X323082Y711246D01*
X322971Y711283D01*
X322859Y711316D01*
X322745Y711345D01*
X322631Y711370D01*
X322516Y711391D01*
X322401Y711409D01*
X322284Y711422D01*
X322168Y711432D01*
X322051Y711438D01*
X321934Y711440D01*
X316685Y711440D01*
X316685Y718439D01*
X325434Y718439D01*
X333286Y713190D02*
X333286Y697442D01*
X340285Y706191D02*
X340285Y713190D01*
X340285Y706191D02*
X340283Y706073D01*
X340277Y705955D01*
X340267Y705837D01*
X340253Y705720D01*
X340235Y705603D01*
X340213Y705486D01*
X340188Y705371D01*
X340158Y705257D01*
X340124Y705143D01*
X340087Y705031D01*
X340046Y704920D01*
X340001Y704811D01*
X339953Y704703D01*
X339901Y704597D01*
X339845Y704492D01*
X339786Y704390D01*
X339724Y704290D01*
X339658Y704192D01*
X339589Y704096D01*
X339516Y704002D01*
X339441Y703911D01*
X339362Y703823D01*
X339281Y703737D01*
X339196Y703654D01*
X339109Y703574D01*
X339020Y703497D01*
X338927Y703423D01*
X338833Y703353D01*
X338736Y703285D01*
X338636Y703221D01*
X338535Y703160D01*
X338432Y703103D01*
X338326Y703049D01*
X338219Y702998D01*
X338111Y702952D01*
X338001Y702909D01*
X337889Y702870D01*
X337776Y702834D01*
X337662Y702803D01*
X337547Y702775D01*
X337432Y702751D01*
X337315Y702731D01*
X337198Y702715D01*
X337080Y702703D01*
X336962Y702695D01*
X336844Y702691D01*
X336726Y702691D01*
X336608Y702695D01*
X336490Y702703D01*
X336372Y702715D01*
X336255Y702731D01*
X336138Y702751D01*
X336023Y702775D01*
X335908Y702803D01*
X335794Y702834D01*
X335681Y702870D01*
X335569Y702909D01*
X335459Y702952D01*
X335351Y702998D01*
X335244Y703049D01*
X335138Y703103D01*
X335035Y703160D01*
X334934Y703221D01*
X334834Y703285D01*
X334737Y703353D01*
X334643Y703423D01*
X334550Y703497D01*
X334461Y703574D01*
X334374Y703654D01*
X334289Y703737D01*
X334208Y703823D01*
X334129Y703911D01*
X334054Y704002D01*
X333981Y704096D01*
X333912Y704192D01*
X333846Y704290D01*
X333784Y704390D01*
X333725Y704492D01*
X333669Y704597D01*
X333617Y704703D01*
X333569Y704811D01*
X333524Y704920D01*
X333483Y705031D01*
X333446Y705143D01*
X333412Y705257D01*
X333382Y705371D01*
X333357Y705486D01*
X333335Y705603D01*
X333317Y705720D01*
X333303Y705837D01*
X333293Y705955D01*
X333287Y706073D01*
X333285Y706191D01*
X340285Y706191D02*
X340285Y704441D01*
X340287Y704360D01*
X340292Y704280D01*
X340302Y704199D01*
X340315Y704119D01*
X340331Y704040D01*
X340352Y703962D01*
X340376Y703885D01*
X340403Y703809D01*
X340434Y703734D01*
X340468Y703661D01*
X340506Y703589D01*
X340547Y703520D01*
X340591Y703452D01*
X340638Y703386D01*
X340689Y703323D01*
X340742Y703262D01*
X340798Y703204D01*
X340856Y703148D01*
X340917Y703095D01*
X340980Y703044D01*
X341046Y702997D01*
X341114Y702953D01*
X341183Y702912D01*
X341255Y702874D01*
X341328Y702840D01*
X341403Y702809D01*
X341479Y702782D01*
X341556Y702758D01*
X341634Y702737D01*
X341713Y702721D01*
X341793Y702708D01*
X341874Y702698D01*
X341954Y702693D01*
X342035Y702691D01*
X348114Y702691D02*
X348114Y713190D01*
X355988Y713190D01*
X356089Y713188D01*
X356189Y713182D01*
X356289Y713173D01*
X356389Y713159D01*
X356488Y713142D01*
X356586Y713121D01*
X356684Y713096D01*
X356780Y713068D01*
X356875Y713035D01*
X356969Y713000D01*
X357062Y712960D01*
X357153Y712917D01*
X357242Y712871D01*
X357329Y712821D01*
X357415Y712768D01*
X357498Y712712D01*
X357579Y712653D01*
X357658Y712590D01*
X357734Y712525D01*
X357808Y712456D01*
X357879Y712385D01*
X357948Y712311D01*
X358013Y712235D01*
X358076Y712156D01*
X358135Y712075D01*
X358191Y711992D01*
X358244Y711906D01*
X358294Y711819D01*
X358340Y711730D01*
X358383Y711639D01*
X358423Y711546D01*
X358458Y711452D01*
X358491Y711357D01*
X358519Y711261D01*
X358544Y711163D01*
X358565Y711065D01*
X358582Y710966D01*
X358596Y710866D01*
X358605Y710766D01*
X358611Y710666D01*
X358613Y710565D01*
X358613Y702691D01*
X353364Y702691D02*
X353364Y713190D01*
X521765Y718439D02*
X521889Y718437D01*
X522012Y718431D01*
X522136Y718422D01*
X522258Y718408D01*
X522381Y718391D01*
X522503Y718369D01*
X522624Y718344D01*
X522744Y718315D01*
X522863Y718283D01*
X522982Y718246D01*
X523099Y718206D01*
X523214Y718163D01*
X523329Y718115D01*
X523441Y718064D01*
X523552Y718010D01*
X523662Y717952D01*
X523769Y717891D01*
X523875Y717826D01*
X523978Y717758D01*
X524079Y717687D01*
X524178Y717613D01*
X524275Y717536D01*
X524369Y717455D01*
X524460Y717372D01*
X524549Y717286D01*
X524635Y717197D01*
X524718Y717106D01*
X524799Y717012D01*
X524876Y716915D01*
X524950Y716816D01*
X525021Y716715D01*
X525089Y716612D01*
X525154Y716506D01*
X525215Y716399D01*
X525273Y716289D01*
X525327Y716178D01*
X525378Y716066D01*
X525426Y715951D01*
X525469Y715836D01*
X525509Y715719D01*
X525546Y715600D01*
X525578Y715481D01*
X525607Y715361D01*
X525632Y715240D01*
X525654Y715118D01*
X525671Y714995D01*
X525685Y714873D01*
X525694Y714749D01*
X525700Y714626D01*
X525702Y714502D01*
X521765Y718439D02*
X521624Y718437D01*
X521482Y718431D01*
X521341Y718421D01*
X521201Y718407D01*
X521061Y718390D01*
X520921Y718368D01*
X520782Y718343D01*
X520644Y718313D01*
X520506Y718280D01*
X520370Y718243D01*
X520234Y718202D01*
X520100Y718157D01*
X519968Y718109D01*
X519836Y718057D01*
X519706Y718001D01*
X519578Y717942D01*
X519451Y717879D01*
X519327Y717812D01*
X519204Y717743D01*
X519083Y717669D01*
X518964Y717593D01*
X518847Y717513D01*
X518733Y717430D01*
X518621Y717343D01*
X518512Y717254D01*
X518405Y717162D01*
X518300Y717066D01*
X518199Y716968D01*
X518100Y716867D01*
X518004Y716763D01*
X517911Y716657D01*
X517821Y716548D01*
X517734Y716436D01*
X517650Y716322D01*
X517570Y716206D01*
X517492Y716088D01*
X517418Y715967D01*
X517348Y715845D01*
X517281Y715721D01*
X517217Y715594D01*
X517157Y715466D01*
X517100Y715337D01*
X517048Y715206D01*
X516998Y715073D01*
X516953Y714939D01*
X524391Y711440D02*
X524481Y711528D01*
X524569Y711620D01*
X524654Y711714D01*
X524736Y711811D01*
X524815Y711910D01*
X524892Y712011D01*
X524965Y712115D01*
X525035Y712220D01*
X525102Y712328D01*
X525165Y712438D01*
X525225Y712550D01*
X525282Y712663D01*
X525336Y712778D01*
X525386Y712895D01*
X525432Y713013D01*
X525475Y713132D01*
X525514Y713253D01*
X525550Y713374D01*
X525582Y713497D01*
X525610Y713621D01*
X525635Y713745D01*
X525656Y713870D01*
X525673Y713996D01*
X525686Y714122D01*
X525695Y714248D01*
X525701Y714375D01*
X525703Y714502D01*
X524390Y711440D02*
X516954Y702691D01*
X525702Y702691D01*
X464290Y651165D02*
X464158Y650885D01*
X464032Y650602D01*
X463913Y650316D01*
X463801Y650027D01*
X463696Y649735D01*
X463598Y649441D01*
X463507Y649145D01*
X463423Y648847D01*
X463346Y648547D01*
X463276Y648245D01*
X463214Y647942D01*
X463159Y647637D01*
X463111Y647331D01*
X463070Y647023D01*
X463037Y646715D01*
X463011Y646407D01*
X462993Y646097D01*
X462982Y645788D01*
X462978Y645478D01*
X464291Y651164D02*
X464329Y651269D01*
X464371Y651372D01*
X464416Y651474D01*
X464464Y651575D01*
X464516Y651673D01*
X464572Y651770D01*
X464630Y651865D01*
X464692Y651958D01*
X464757Y652048D01*
X464826Y652136D01*
X464897Y652222D01*
X464971Y652306D01*
X465048Y652386D01*
X465127Y652465D01*
X465210Y652540D01*
X465295Y652612D01*
X465382Y652682D01*
X465472Y652748D01*
X465563Y652811D01*
X465657Y652871D01*
X465753Y652928D01*
X465851Y652982D01*
X465951Y653032D01*
X466052Y653078D01*
X466155Y653121D01*
X466260Y653161D01*
X466365Y653197D01*
X466472Y653229D01*
X466580Y653257D01*
X466689Y653282D01*
X466798Y653303D01*
X466908Y653320D01*
X467019Y653334D01*
X467130Y653343D01*
X467241Y653349D01*
X467353Y653351D01*
X467465Y653349D01*
X467576Y653343D01*
X467687Y653334D01*
X467798Y653320D01*
X467908Y653303D01*
X468018Y653282D01*
X468126Y653257D01*
X468234Y653229D01*
X468341Y653197D01*
X468446Y653161D01*
X468551Y653121D01*
X468654Y653078D01*
X468755Y653032D01*
X468855Y652982D01*
X468953Y652928D01*
X469049Y652871D01*
X469143Y652811D01*
X469234Y652748D01*
X469324Y652682D01*
X469411Y652612D01*
X469496Y652540D01*
X469579Y652465D01*
X469658Y652386D01*
X469735Y652306D01*
X469809Y652222D01*
X469880Y652136D01*
X469949Y652048D01*
X470014Y651958D01*
X470076Y651865D01*
X470134Y651770D01*
X470190Y651673D01*
X470242Y651575D01*
X470290Y651474D01*
X470335Y651372D01*
X470377Y651269D01*
X470415Y651164D01*
X470415Y651165D02*
X470547Y650885D01*
X470673Y650601D01*
X470792Y650315D01*
X470904Y650026D01*
X471009Y649735D01*
X471107Y649441D01*
X471198Y649145D01*
X471282Y648847D01*
X471359Y648547D01*
X471429Y648245D01*
X471491Y647941D01*
X471546Y647637D01*
X471594Y647331D01*
X471635Y647023D01*
X471668Y646715D01*
X471694Y646407D01*
X471712Y646097D01*
X471723Y645788D01*
X471727Y645478D01*
X462978Y645478D02*
X462982Y645168D01*
X462993Y644859D01*
X463011Y644549D01*
X463037Y644241D01*
X463070Y643933D01*
X463111Y643625D01*
X463159Y643319D01*
X463214Y643014D01*
X463276Y642711D01*
X463346Y642409D01*
X463423Y642109D01*
X463507Y641811D01*
X463598Y641515D01*
X463696Y641221D01*
X463801Y640929D01*
X463913Y640640D01*
X464032Y640354D01*
X464158Y640071D01*
X464290Y639791D01*
X464291Y639791D02*
X464329Y639686D01*
X464371Y639583D01*
X464416Y639481D01*
X464464Y639380D01*
X464516Y639282D01*
X464572Y639185D01*
X464630Y639090D01*
X464692Y638997D01*
X464757Y638907D01*
X464826Y638819D01*
X464897Y638733D01*
X464971Y638649D01*
X465048Y638569D01*
X465127Y638490D01*
X465210Y638415D01*
X465295Y638343D01*
X465382Y638273D01*
X465472Y638207D01*
X465563Y638144D01*
X465657Y638084D01*
X465753Y638027D01*
X465851Y637973D01*
X465951Y637923D01*
X466052Y637877D01*
X466155Y637834D01*
X466260Y637794D01*
X466365Y637758D01*
X466472Y637726D01*
X466580Y637698D01*
X466689Y637673D01*
X466798Y637652D01*
X466908Y637635D01*
X467019Y637621D01*
X467130Y637612D01*
X467241Y637606D01*
X467353Y637604D01*
X470416Y639791D02*
X470548Y640071D01*
X470674Y640354D01*
X470793Y640640D01*
X470905Y640929D01*
X471010Y641221D01*
X471108Y641515D01*
X471199Y641811D01*
X471283Y642109D01*
X471360Y642409D01*
X471430Y642711D01*
X471492Y643014D01*
X471547Y643319D01*
X471595Y643625D01*
X471636Y643933D01*
X471669Y644241D01*
X471695Y644549D01*
X471713Y644859D01*
X471724Y645168D01*
X471728Y645478D01*
X470415Y639791D02*
X470377Y639686D01*
X470335Y639583D01*
X470290Y639481D01*
X470242Y639380D01*
X470190Y639282D01*
X470134Y639185D01*
X470076Y639090D01*
X470014Y638997D01*
X469949Y638907D01*
X469880Y638819D01*
X469809Y638733D01*
X469735Y638649D01*
X469658Y638569D01*
X469579Y638490D01*
X469496Y638415D01*
X469411Y638343D01*
X469324Y638273D01*
X469234Y638207D01*
X469143Y638144D01*
X469049Y638084D01*
X468953Y638027D01*
X468855Y637973D01*
X468755Y637923D01*
X468654Y637877D01*
X468551Y637834D01*
X468446Y637794D01*
X468341Y637758D01*
X468234Y637726D01*
X468126Y637698D01*
X468017Y637673D01*
X467908Y637652D01*
X467798Y637635D01*
X467687Y637621D01*
X467576Y637612D01*
X467465Y637606D01*
X467353Y637604D01*
X463853Y641103D02*
X470853Y649852D01*
D10*
X109063Y498475D02*
X109066Y498720D01*
X109075Y498966D01*
X109090Y499211D01*
X109111Y499455D01*
X109138Y499699D01*
X109171Y499942D01*
X109210Y500185D01*
X109255Y500426D01*
X109306Y500666D01*
X109363Y500905D01*
X109425Y501142D01*
X109494Y501378D01*
X109568Y501612D01*
X109648Y501844D01*
X109733Y502074D01*
X109824Y502302D01*
X109921Y502527D01*
X110023Y502751D01*
X110131Y502971D01*
X110244Y503189D01*
X110362Y503404D01*
X110486Y503616D01*
X110614Y503825D01*
X110748Y504031D01*
X110887Y504233D01*
X111031Y504432D01*
X111180Y504627D01*
X111333Y504819D01*
X111491Y505007D01*
X111653Y505191D01*
X111821Y505370D01*
X111992Y505546D01*
X112168Y505717D01*
X112347Y505885D01*
X112531Y506047D01*
X112719Y506205D01*
X112911Y506358D01*
X113106Y506507D01*
X113305Y506651D01*
X113507Y506790D01*
X113713Y506924D01*
X113922Y507052D01*
X114134Y507176D01*
X114349Y507294D01*
X114567Y507407D01*
X114787Y507515D01*
X115011Y507617D01*
X115236Y507714D01*
X115464Y507805D01*
X115694Y507890D01*
X115926Y507970D01*
X116160Y508044D01*
X116396Y508113D01*
X116633Y508175D01*
X116872Y508232D01*
X117112Y508283D01*
X117353Y508328D01*
X117596Y508367D01*
X117839Y508400D01*
X118083Y508427D01*
X118327Y508448D01*
X118572Y508463D01*
X118818Y508472D01*
X119063Y508475D01*
X119308Y508472D01*
X119554Y508463D01*
X119799Y508448D01*
X120043Y508427D01*
X120287Y508400D01*
X120530Y508367D01*
X120773Y508328D01*
X121014Y508283D01*
X121254Y508232D01*
X121493Y508175D01*
X121730Y508113D01*
X121966Y508044D01*
X122200Y507970D01*
X122432Y507890D01*
X122662Y507805D01*
X122890Y507714D01*
X123115Y507617D01*
X123339Y507515D01*
X123559Y507407D01*
X123777Y507294D01*
X123992Y507176D01*
X124204Y507052D01*
X124413Y506924D01*
X124619Y506790D01*
X124821Y506651D01*
X125020Y506507D01*
X125215Y506358D01*
X125407Y506205D01*
X125595Y506047D01*
X125779Y505885D01*
X125958Y505717D01*
X126134Y505546D01*
X126305Y505370D01*
X126473Y505191D01*
X126635Y505007D01*
X126793Y504819D01*
X126946Y504627D01*
X127095Y504432D01*
X127239Y504233D01*
X127378Y504031D01*
X127512Y503825D01*
X127640Y503616D01*
X127764Y503404D01*
X127882Y503189D01*
X127995Y502971D01*
X128103Y502751D01*
X128205Y502527D01*
X128302Y502302D01*
X128393Y502074D01*
X128478Y501844D01*
X128558Y501612D01*
X128632Y501378D01*
X128701Y501142D01*
X128763Y500905D01*
X128820Y500666D01*
X128871Y500426D01*
X128916Y500185D01*
X128955Y499942D01*
X128988Y499699D01*
X129015Y499455D01*
X129036Y499211D01*
X129051Y498966D01*
X129060Y498720D01*
X129063Y498475D01*
X129060Y498230D01*
X129051Y497984D01*
X129036Y497739D01*
X129015Y497495D01*
X128988Y497251D01*
X128955Y497008D01*
X128916Y496765D01*
X128871Y496524D01*
X128820Y496284D01*
X128763Y496045D01*
X128701Y495808D01*
X128632Y495572D01*
X128558Y495338D01*
X128478Y495106D01*
X128393Y494876D01*
X128302Y494648D01*
X128205Y494423D01*
X128103Y494199D01*
X127995Y493979D01*
X127882Y493761D01*
X127764Y493546D01*
X127640Y493334D01*
X127512Y493125D01*
X127378Y492919D01*
X127239Y492717D01*
X127095Y492518D01*
X126946Y492323D01*
X126793Y492131D01*
X126635Y491943D01*
X126473Y491759D01*
X126305Y491580D01*
X126134Y491404D01*
X125958Y491233D01*
X125779Y491065D01*
X125595Y490903D01*
X125407Y490745D01*
X125215Y490592D01*
X125020Y490443D01*
X124821Y490299D01*
X124619Y490160D01*
X124413Y490026D01*
X124204Y489898D01*
X123992Y489774D01*
X123777Y489656D01*
X123559Y489543D01*
X123339Y489435D01*
X123115Y489333D01*
X122890Y489236D01*
X122662Y489145D01*
X122432Y489060D01*
X122200Y488980D01*
X121966Y488906D01*
X121730Y488837D01*
X121493Y488775D01*
X121254Y488718D01*
X121014Y488667D01*
X120773Y488622D01*
X120530Y488583D01*
X120287Y488550D01*
X120043Y488523D01*
X119799Y488502D01*
X119554Y488487D01*
X119308Y488478D01*
X119063Y488475D01*
X118818Y488478D01*
X118572Y488487D01*
X118327Y488502D01*
X118083Y488523D01*
X117839Y488550D01*
X117596Y488583D01*
X117353Y488622D01*
X117112Y488667D01*
X116872Y488718D01*
X116633Y488775D01*
X116396Y488837D01*
X116160Y488906D01*
X115926Y488980D01*
X115694Y489060D01*
X115464Y489145D01*
X115236Y489236D01*
X115011Y489333D01*
X114787Y489435D01*
X114567Y489543D01*
X114349Y489656D01*
X114134Y489774D01*
X113922Y489898D01*
X113713Y490026D01*
X113507Y490160D01*
X113305Y490299D01*
X113106Y490443D01*
X112911Y490592D01*
X112719Y490745D01*
X112531Y490903D01*
X112347Y491065D01*
X112168Y491233D01*
X111992Y491404D01*
X111821Y491580D01*
X111653Y491759D01*
X111491Y491943D01*
X111333Y492131D01*
X111180Y492323D01*
X111031Y492518D01*
X110887Y492717D01*
X110748Y492919D01*
X110614Y493125D01*
X110486Y493334D01*
X110362Y493546D01*
X110244Y493761D01*
X110131Y493979D01*
X110023Y494199D01*
X109921Y494423D01*
X109824Y494648D01*
X109733Y494876D01*
X109648Y495106D01*
X109568Y495338D01*
X109494Y495572D01*
X109425Y495808D01*
X109363Y496045D01*
X109306Y496284D01*
X109255Y496524D01*
X109210Y496765D01*
X109171Y497008D01*
X109138Y497251D01*
X109111Y497495D01*
X109090Y497739D01*
X109075Y497984D01*
X109066Y498230D01*
X109063Y498475D01*
D12*
X119063Y498475D03*
D10*
X140000Y60000D02*
X139756Y59997D01*
X139513Y59988D01*
X139270Y59973D01*
X139027Y59953D01*
X138785Y59926D01*
X138544Y59893D01*
X138304Y59855D01*
X138064Y59811D01*
X137826Y59761D01*
X137589Y59705D01*
X137353Y59643D01*
X137119Y59576D01*
X136887Y59503D01*
X136656Y59424D01*
X136428Y59340D01*
X136201Y59250D01*
X135977Y59155D01*
X135755Y59054D01*
X135536Y58948D01*
X135320Y58837D01*
X135106Y58720D01*
X134895Y58599D01*
X134687Y58472D01*
X134482Y58340D01*
X134281Y58203D01*
X134083Y58061D01*
X133888Y57915D01*
X133697Y57764D01*
X133510Y57608D01*
X133327Y57448D01*
X133147Y57283D01*
X132972Y57114D01*
X132801Y56941D01*
X132634Y56763D01*
X132472Y56582D01*
X132314Y56397D01*
X132160Y56208D01*
X132011Y56015D01*
X131867Y55819D01*
X131728Y55619D01*
X131593Y55416D01*
X131464Y55209D01*
X131340Y55000D01*
X131221Y54788D01*
X131107Y54572D01*
X130998Y54355D01*
X130895Y54134D01*
X130797Y53911D01*
X130704Y53686D01*
X130617Y53458D01*
X130536Y53229D01*
X130460Y52997D01*
X130390Y52764D01*
X130325Y52529D01*
X130266Y52293D01*
X130213Y52055D01*
X130166Y51816D01*
X130125Y51576D01*
X130090Y51335D01*
X130060Y51094D01*
X130036Y50851D01*
X130019Y50608D01*
X130007Y50365D01*
X130001Y50122D01*
X130001Y49878D01*
X130007Y49635D01*
X130019Y49392D01*
X130036Y49149D01*
X130060Y48906D01*
X130090Y48665D01*
X130125Y48424D01*
X130166Y48184D01*
X130213Y47945D01*
X130266Y47707D01*
X130325Y47471D01*
X130390Y47236D01*
X130460Y47003D01*
X130536Y46771D01*
X130617Y46542D01*
X130704Y46314D01*
X130797Y46089D01*
X130895Y45866D01*
X130998Y45645D01*
X131107Y45428D01*
X131221Y45212D01*
X131340Y45000D01*
X131464Y44791D01*
X131593Y44584D01*
X131728Y44381D01*
X131867Y44181D01*
X132011Y43985D01*
X132160Y43792D01*
X132314Y43603D01*
X132472Y43418D01*
X132634Y43237D01*
X132801Y43059D01*
X132972Y42886D01*
X133147Y42717D01*
X133327Y42552D01*
X133510Y42392D01*
X133697Y42236D01*
X133888Y42085D01*
X134083Y41939D01*
X134281Y41797D01*
X134482Y41660D01*
X134687Y41528D01*
X134895Y41401D01*
X135106Y41280D01*
X135320Y41163D01*
X135536Y41052D01*
X135755Y40946D01*
X135977Y40845D01*
X136201Y40750D01*
X136428Y40660D01*
X136656Y40576D01*
X136887Y40497D01*
X137119Y40424D01*
X137353Y40357D01*
X137589Y40295D01*
X137826Y40239D01*
X138064Y40189D01*
X138304Y40145D01*
X138544Y40107D01*
X138785Y40074D01*
X139027Y40047D01*
X139270Y40027D01*
X139513Y40012D01*
X139756Y40003D01*
X140000Y40000D01*
D13*
X50800Y25400D03*
D14*
X50800Y50800D03*
X50800Y76200D03*
X50800Y101600D03*
X50800Y127000D03*
X50800Y152400D03*
X50800Y177800D03*
X50800Y203200D03*
X50800Y228600D03*
X50800Y254000D03*
X50800Y279400D03*
X50800Y304800D03*
X50800Y330200D03*
X50800Y355600D03*
X50800Y381000D03*
X50800Y406400D03*
X50800Y431800D03*
X50800Y457200D03*
X50800Y482600D03*
X50800Y508000D03*
D15*
X18824Y617328D02*
X15085Y618824D01*
X15085Y618825D02*
X15005Y618859D01*
X14927Y618896D01*
X14850Y618937D01*
X14776Y618982D01*
X14703Y619029D01*
X14633Y619080D01*
X14565Y619134D01*
X14500Y619191D01*
X14437Y619251D01*
X14377Y619314D01*
X14319Y619379D01*
X14265Y619447D01*
X14214Y619517D01*
X14166Y619589D01*
X14121Y619664D01*
X14080Y619740D01*
X14042Y619818D01*
X14008Y619898D01*
X13977Y619979D01*
X13950Y620061D01*
X13926Y620145D01*
X13907Y620229D01*
X13891Y620315D01*
X13879Y620401D01*
X13871Y620487D01*
X13867Y620574D01*
X13866Y620661D01*
X13870Y620747D01*
X13877Y620834D01*
X13889Y620920D01*
X13904Y621005D01*
X13923Y621090D01*
X13945Y621174D01*
X13972Y621256D01*
X14002Y621338D01*
X14035Y621418D01*
X14073Y621496D01*
X14113Y621573D01*
X14158Y621648D01*
X14205Y621720D01*
X14256Y621791D01*
X14309Y621859D01*
X14366Y621925D01*
X14426Y621988D01*
X14488Y622048D01*
X14553Y622106D01*
X14621Y622160D01*
X14690Y622212D01*
X14763Y622260D01*
X14837Y622305D01*
X14913Y622347D01*
X14991Y622385D01*
X15070Y622419D01*
X15151Y622451D01*
X15234Y622478D01*
X15317Y622502D01*
X15402Y622522D01*
X15487Y622538D01*
X15573Y622550D01*
X15659Y622559D01*
X15746Y622563D01*
X15833Y622564D01*
X15832Y622563D02*
X16037Y622558D01*
X16240Y622547D01*
X16444Y622532D01*
X16647Y622512D01*
X16850Y622487D01*
X17052Y622457D01*
X17253Y622423D01*
X17454Y622383D01*
X17653Y622339D01*
X17851Y622290D01*
X18048Y622236D01*
X18244Y622178D01*
X18438Y622114D01*
X18631Y622046D01*
X18821Y621974D01*
X19011Y621897D01*
X19198Y621815D01*
X18824Y617328D02*
X18904Y617294D01*
X18982Y617257D01*
X19059Y617216D01*
X19133Y617171D01*
X19206Y617124D01*
X19276Y617073D01*
X19344Y617019D01*
X19409Y616962D01*
X19472Y616902D01*
X19532Y616839D01*
X19590Y616774D01*
X19644Y616706D01*
X19695Y616636D01*
X19743Y616564D01*
X19788Y616489D01*
X19829Y616413D01*
X19867Y616335D01*
X19901Y616255D01*
X19932Y616174D01*
X19959Y616092D01*
X19983Y616008D01*
X20002Y615924D01*
X20018Y615838D01*
X20030Y615752D01*
X20038Y615666D01*
X20042Y615579D01*
X20043Y615492D01*
X20039Y615406D01*
X20032Y615319D01*
X20020Y615233D01*
X20005Y615148D01*
X19986Y615063D01*
X19964Y614979D01*
X19937Y614897D01*
X19907Y614815D01*
X19874Y614735D01*
X19836Y614657D01*
X19796Y614580D01*
X19751Y614505D01*
X19704Y614433D01*
X19653Y614362D01*
X19600Y614294D01*
X19543Y614228D01*
X19483Y614165D01*
X19421Y614105D01*
X19356Y614047D01*
X19288Y613993D01*
X19219Y613941D01*
X19146Y613893D01*
X19072Y613848D01*
X18996Y613806D01*
X18918Y613768D01*
X18839Y613734D01*
X18758Y613702D01*
X18675Y613675D01*
X18592Y613651D01*
X18507Y613631D01*
X18422Y613615D01*
X18336Y613603D01*
X18250Y613594D01*
X18163Y613590D01*
X18076Y613589D01*
X18077Y613589D02*
X17777Y613597D01*
X17477Y613612D01*
X17178Y613634D01*
X16879Y613663D01*
X16582Y613699D01*
X16285Y613742D01*
X15989Y613793D01*
X15695Y613850D01*
X15402Y613914D01*
X15110Y613985D01*
X14820Y614063D01*
X14533Y614147D01*
X14247Y614239D01*
X13963Y614337D01*
X24614Y622564D02*
X29101Y622564D01*
X26110Y627051D02*
X26110Y615833D01*
X26112Y615740D01*
X26118Y615648D01*
X26127Y615555D01*
X26141Y615464D01*
X26158Y615372D01*
X26179Y615282D01*
X26203Y615193D01*
X26232Y615104D01*
X26264Y615017D01*
X26299Y614932D01*
X26338Y614847D01*
X26380Y614765D01*
X26426Y614684D01*
X26475Y614606D01*
X26528Y614529D01*
X26583Y614455D01*
X26642Y614383D01*
X26703Y614313D01*
X26767Y614246D01*
X26834Y614182D01*
X26904Y614121D01*
X26976Y614062D01*
X27050Y614007D01*
X27127Y613954D01*
X27205Y613905D01*
X27286Y613859D01*
X27368Y613817D01*
X27453Y613778D01*
X27538Y613743D01*
X27625Y613711D01*
X27714Y613682D01*
X27803Y613658D01*
X27893Y613637D01*
X27985Y613620D01*
X28076Y613606D01*
X28169Y613597D01*
X28261Y613591D01*
X28354Y613589D01*
X29101Y613589D01*
X34496Y616581D02*
X34496Y619572D01*
X34495Y619572D02*
X34497Y619680D01*
X34503Y619788D01*
X34513Y619895D01*
X34526Y620003D01*
X34544Y620109D01*
X34565Y620215D01*
X34590Y620320D01*
X34619Y620424D01*
X34652Y620527D01*
X34688Y620629D01*
X34728Y620729D01*
X34772Y620828D01*
X34819Y620926D01*
X34869Y621021D01*
X34923Y621115D01*
X34981Y621206D01*
X35041Y621296D01*
X35105Y621383D01*
X35172Y621467D01*
X35242Y621550D01*
X35315Y621630D01*
X35391Y621707D01*
X35469Y621781D01*
X35550Y621852D01*
X35634Y621921D01*
X35720Y621986D01*
X35808Y622048D01*
X35898Y622107D01*
X35991Y622163D01*
X36086Y622215D01*
X36182Y622264D01*
X36280Y622310D01*
X36380Y622351D01*
X36481Y622390D01*
X36583Y622424D01*
X36687Y622455D01*
X36791Y622482D01*
X36897Y622505D01*
X37003Y622525D01*
X37110Y622540D01*
X37217Y622552D01*
X37325Y622560D01*
X37433Y622564D01*
X37541Y622564D01*
X37649Y622560D01*
X37757Y622552D01*
X37864Y622540D01*
X37971Y622525D01*
X38077Y622505D01*
X38183Y622482D01*
X38287Y622455D01*
X38391Y622424D01*
X38493Y622390D01*
X38594Y622351D01*
X38694Y622310D01*
X38792Y622264D01*
X38888Y622215D01*
X38983Y622163D01*
X39076Y622107D01*
X39166Y622048D01*
X39254Y621986D01*
X39340Y621921D01*
X39424Y621852D01*
X39505Y621781D01*
X39583Y621707D01*
X39659Y621630D01*
X39732Y621550D01*
X39802Y621467D01*
X39869Y621383D01*
X39933Y621296D01*
X39993Y621206D01*
X40051Y621115D01*
X40105Y621021D01*
X40155Y620926D01*
X40202Y620828D01*
X40246Y620729D01*
X40286Y620629D01*
X40322Y620527D01*
X40355Y620424D01*
X40384Y620320D01*
X40409Y620215D01*
X40430Y620109D01*
X40448Y620003D01*
X40461Y619895D01*
X40471Y619788D01*
X40477Y619680D01*
X40479Y619572D01*
X40479Y616581D01*
X40477Y616473D01*
X40471Y616365D01*
X40461Y616258D01*
X40448Y616150D01*
X40430Y616044D01*
X40409Y615938D01*
X40384Y615833D01*
X40355Y615729D01*
X40322Y615626D01*
X40286Y615524D01*
X40246Y615424D01*
X40202Y615325D01*
X40155Y615227D01*
X40105Y615132D01*
X40051Y615038D01*
X39993Y614947D01*
X39933Y614857D01*
X39869Y614770D01*
X39802Y614686D01*
X39732Y614603D01*
X39659Y614523D01*
X39583Y614446D01*
X39505Y614372D01*
X39424Y614301D01*
X39340Y614232D01*
X39254Y614167D01*
X39166Y614105D01*
X39076Y614046D01*
X38983Y613990D01*
X38888Y613938D01*
X38792Y613889D01*
X38694Y613843D01*
X38594Y613802D01*
X38493Y613763D01*
X38391Y613729D01*
X38287Y613698D01*
X38183Y613671D01*
X38077Y613648D01*
X37971Y613628D01*
X37864Y613613D01*
X37757Y613601D01*
X37649Y613593D01*
X37541Y613589D01*
X37433Y613589D01*
X37325Y613593D01*
X37217Y613601D01*
X37110Y613613D01*
X37003Y613628D01*
X36897Y613648D01*
X36791Y613671D01*
X36687Y613698D01*
X36583Y613729D01*
X36481Y613763D01*
X36380Y613802D01*
X36280Y613843D01*
X36182Y613889D01*
X36086Y613938D01*
X35991Y613990D01*
X35898Y614046D01*
X35808Y614105D01*
X35720Y614167D01*
X35634Y614232D01*
X35550Y614301D01*
X35469Y614372D01*
X35391Y614446D01*
X35315Y614523D01*
X35242Y614603D01*
X35172Y614686D01*
X35105Y614770D01*
X35041Y614857D01*
X34981Y614947D01*
X34923Y615038D01*
X34869Y615132D01*
X34819Y615227D01*
X34772Y615325D01*
X34728Y615424D01*
X34688Y615524D01*
X34652Y615626D01*
X34619Y615729D01*
X34590Y615833D01*
X34565Y615938D01*
X34544Y616044D01*
X34526Y616150D01*
X34513Y616258D01*
X34503Y616365D01*
X34497Y616473D01*
X34495Y616581D01*
X46901Y622564D02*
X46901Y609102D01*
X46901Y622564D02*
X50641Y622564D01*
X50734Y622562D01*
X50826Y622556D01*
X50919Y622547D01*
X51010Y622533D01*
X51102Y622516D01*
X51192Y622495D01*
X51281Y622471D01*
X51370Y622442D01*
X51457Y622410D01*
X51542Y622375D01*
X51627Y622336D01*
X51709Y622294D01*
X51790Y622248D01*
X51868Y622199D01*
X51945Y622146D01*
X52019Y622091D01*
X52091Y622032D01*
X52161Y621971D01*
X52228Y621907D01*
X52292Y621840D01*
X52353Y621770D01*
X52412Y621698D01*
X52467Y621624D01*
X52520Y621547D01*
X52569Y621469D01*
X52615Y621388D01*
X52657Y621306D01*
X52696Y621221D01*
X52731Y621136D01*
X52763Y621049D01*
X52792Y620960D01*
X52816Y620871D01*
X52837Y620781D01*
X52854Y620689D01*
X52868Y620598D01*
X52877Y620505D01*
X52883Y620413D01*
X52885Y620320D01*
X52885Y615833D01*
X52883Y615740D01*
X52877Y615648D01*
X52868Y615555D01*
X52854Y615464D01*
X52837Y615373D01*
X52816Y615282D01*
X52792Y615193D01*
X52763Y615104D01*
X52731Y615017D01*
X52696Y614932D01*
X52657Y614847D01*
X52615Y614765D01*
X52569Y614684D01*
X52520Y614606D01*
X52467Y614529D01*
X52412Y614455D01*
X52353Y614383D01*
X52292Y614313D01*
X52228Y614246D01*
X52161Y614182D01*
X52091Y614121D01*
X52019Y614062D01*
X51945Y614007D01*
X51868Y613954D01*
X51790Y613905D01*
X51709Y613859D01*
X51627Y613817D01*
X51542Y613778D01*
X51457Y613743D01*
X51370Y613711D01*
X51281Y613682D01*
X51192Y613658D01*
X51102Y613637D01*
X51010Y613620D01*
X50919Y613606D01*
X50826Y613597D01*
X50734Y613591D01*
X50641Y613589D01*
X46901Y613589D01*
X59464Y613589D02*
X59464Y622564D01*
X66195Y622564D01*
X66288Y622562D01*
X66380Y622556D01*
X66473Y622547D01*
X66564Y622533D01*
X66656Y622516D01*
X66746Y622495D01*
X66835Y622471D01*
X66924Y622442D01*
X67011Y622410D01*
X67096Y622375D01*
X67181Y622336D01*
X67263Y622294D01*
X67344Y622248D01*
X67422Y622199D01*
X67499Y622146D01*
X67573Y622091D01*
X67645Y622032D01*
X67715Y621971D01*
X67782Y621907D01*
X67846Y621840D01*
X67907Y621770D01*
X67966Y621698D01*
X68021Y621624D01*
X68074Y621547D01*
X68123Y621469D01*
X68169Y621388D01*
X68211Y621306D01*
X68250Y621221D01*
X68285Y621136D01*
X68317Y621049D01*
X68346Y620960D01*
X68370Y620871D01*
X68391Y620781D01*
X68408Y620689D01*
X68422Y620598D01*
X68431Y620505D01*
X68437Y620413D01*
X68439Y620320D01*
X68439Y613589D01*
X63952Y613589D02*
X63952Y622564D01*
X77637Y618824D02*
X81002Y618824D01*
X77637Y618825D02*
X77535Y618823D01*
X77434Y618817D01*
X77333Y618807D01*
X77232Y618794D01*
X77132Y618776D01*
X77033Y618754D01*
X76935Y618729D01*
X76838Y618700D01*
X76742Y618667D01*
X76647Y618631D01*
X76554Y618590D01*
X76462Y618547D01*
X76372Y618499D01*
X76284Y618448D01*
X76198Y618394D01*
X76115Y618337D01*
X76033Y618276D01*
X75954Y618213D01*
X75878Y618146D01*
X75804Y618076D01*
X75733Y618004D01*
X75665Y617928D01*
X75599Y617851D01*
X75537Y617770D01*
X75478Y617688D01*
X75422Y617603D01*
X75370Y617516D01*
X75321Y617427D01*
X75275Y617336D01*
X75233Y617244D01*
X75195Y617150D01*
X75160Y617055D01*
X75129Y616958D01*
X75102Y616860D01*
X75078Y616761D01*
X75059Y616662D01*
X75043Y616561D01*
X75031Y616460D01*
X75023Y616359D01*
X75019Y616258D01*
X75019Y616156D01*
X75023Y616055D01*
X75031Y615954D01*
X75043Y615853D01*
X75059Y615752D01*
X75078Y615653D01*
X75102Y615554D01*
X75129Y615456D01*
X75160Y615359D01*
X75195Y615264D01*
X75233Y615170D01*
X75275Y615078D01*
X75321Y614987D01*
X75370Y614898D01*
X75422Y614811D01*
X75478Y614726D01*
X75537Y614644D01*
X75599Y614563D01*
X75665Y614486D01*
X75733Y614410D01*
X75804Y614338D01*
X75878Y614268D01*
X75954Y614201D01*
X76033Y614138D01*
X76115Y614077D01*
X76198Y614020D01*
X76284Y613966D01*
X76372Y613915D01*
X76462Y613867D01*
X76554Y613824D01*
X76647Y613783D01*
X76742Y613747D01*
X76838Y613714D01*
X76935Y613685D01*
X77033Y613660D01*
X77132Y613638D01*
X77232Y613620D01*
X77333Y613607D01*
X77434Y613597D01*
X77535Y613591D01*
X77637Y613589D01*
X81002Y613589D01*
X81002Y620320D01*
X81000Y620413D01*
X80994Y620505D01*
X80985Y620598D01*
X80971Y620689D01*
X80954Y620781D01*
X80933Y620871D01*
X80909Y620960D01*
X80880Y621049D01*
X80848Y621136D01*
X80813Y621221D01*
X80774Y621306D01*
X80732Y621388D01*
X80686Y621469D01*
X80637Y621547D01*
X80584Y621624D01*
X80529Y621698D01*
X80470Y621770D01*
X80409Y621840D01*
X80345Y621907D01*
X80278Y621971D01*
X80208Y622032D01*
X80136Y622091D01*
X80062Y622146D01*
X79985Y622199D01*
X79907Y622248D01*
X79826Y622294D01*
X79744Y622336D01*
X79659Y622375D01*
X79574Y622410D01*
X79487Y622442D01*
X79398Y622471D01*
X79309Y622495D01*
X79219Y622516D01*
X79127Y622533D01*
X79036Y622547D01*
X78943Y622556D01*
X78851Y622562D01*
X78758Y622564D01*
X75767Y622564D01*
X88547Y618824D02*
X92286Y617328D01*
X88547Y618825D02*
X88467Y618859D01*
X88389Y618896D01*
X88312Y618937D01*
X88238Y618982D01*
X88165Y619029D01*
X88095Y619080D01*
X88027Y619134D01*
X87962Y619191D01*
X87899Y619251D01*
X87839Y619314D01*
X87781Y619379D01*
X87727Y619447D01*
X87676Y619517D01*
X87628Y619589D01*
X87583Y619664D01*
X87542Y619740D01*
X87504Y619818D01*
X87470Y619898D01*
X87439Y619979D01*
X87412Y620061D01*
X87388Y620145D01*
X87369Y620229D01*
X87353Y620315D01*
X87341Y620401D01*
X87333Y620487D01*
X87329Y620574D01*
X87328Y620661D01*
X87332Y620747D01*
X87339Y620834D01*
X87351Y620920D01*
X87366Y621005D01*
X87385Y621090D01*
X87407Y621174D01*
X87434Y621256D01*
X87464Y621338D01*
X87497Y621418D01*
X87535Y621496D01*
X87575Y621573D01*
X87620Y621648D01*
X87667Y621720D01*
X87718Y621791D01*
X87771Y621859D01*
X87828Y621925D01*
X87888Y621988D01*
X87950Y622048D01*
X88015Y622106D01*
X88083Y622160D01*
X88152Y622212D01*
X88225Y622260D01*
X88299Y622305D01*
X88375Y622347D01*
X88453Y622385D01*
X88532Y622419D01*
X88613Y622451D01*
X88696Y622478D01*
X88779Y622502D01*
X88864Y622522D01*
X88949Y622538D01*
X89035Y622550D01*
X89121Y622559D01*
X89208Y622563D01*
X89295Y622564D01*
X89294Y622563D02*
X89499Y622558D01*
X89702Y622547D01*
X89906Y622532D01*
X90109Y622512D01*
X90312Y622487D01*
X90514Y622457D01*
X90715Y622423D01*
X90916Y622383D01*
X91115Y622339D01*
X91313Y622290D01*
X91510Y622236D01*
X91706Y622178D01*
X91900Y622114D01*
X92093Y622046D01*
X92283Y621974D01*
X92473Y621897D01*
X92660Y621815D01*
X92286Y617328D02*
X92366Y617294D01*
X92444Y617257D01*
X92521Y617216D01*
X92595Y617171D01*
X92668Y617124D01*
X92738Y617073D01*
X92806Y617019D01*
X92871Y616962D01*
X92934Y616902D01*
X92994Y616839D01*
X93052Y616774D01*
X93106Y616706D01*
X93157Y616636D01*
X93205Y616564D01*
X93250Y616489D01*
X93291Y616413D01*
X93329Y616335D01*
X93363Y616255D01*
X93394Y616174D01*
X93421Y616092D01*
X93445Y616008D01*
X93464Y615924D01*
X93480Y615838D01*
X93492Y615752D01*
X93500Y615666D01*
X93504Y615579D01*
X93505Y615492D01*
X93501Y615406D01*
X93494Y615319D01*
X93482Y615233D01*
X93467Y615148D01*
X93448Y615063D01*
X93426Y614979D01*
X93399Y614897D01*
X93369Y614815D01*
X93336Y614735D01*
X93298Y614657D01*
X93258Y614580D01*
X93213Y614505D01*
X93166Y614433D01*
X93115Y614362D01*
X93062Y614294D01*
X93005Y614228D01*
X92945Y614165D01*
X92883Y614105D01*
X92818Y614047D01*
X92750Y613993D01*
X92681Y613941D01*
X92608Y613893D01*
X92534Y613848D01*
X92458Y613806D01*
X92380Y613768D01*
X92301Y613734D01*
X92220Y613702D01*
X92137Y613675D01*
X92054Y613651D01*
X91969Y613631D01*
X91884Y613615D01*
X91798Y613603D01*
X91712Y613594D01*
X91625Y613590D01*
X91538Y613589D01*
X91238Y613597D01*
X90938Y613612D01*
X90639Y613634D01*
X90340Y613663D01*
X90043Y613699D01*
X89746Y613742D01*
X89450Y613793D01*
X89156Y613850D01*
X88863Y613914D01*
X88571Y613985D01*
X88281Y614063D01*
X87994Y614147D01*
X87708Y614239D01*
X87424Y614337D01*
X99942Y613589D02*
X99942Y627051D01*
X105925Y622564D02*
X99942Y618076D01*
X102560Y619946D02*
X105925Y613589D01*
X119574Y618824D02*
X123313Y617328D01*
X119574Y618825D02*
X119494Y618859D01*
X119416Y618896D01*
X119339Y618937D01*
X119265Y618982D01*
X119192Y619029D01*
X119122Y619080D01*
X119054Y619134D01*
X118989Y619191D01*
X118926Y619251D01*
X118866Y619314D01*
X118808Y619379D01*
X118754Y619447D01*
X118703Y619517D01*
X118655Y619589D01*
X118610Y619664D01*
X118569Y619740D01*
X118531Y619818D01*
X118497Y619898D01*
X118466Y619979D01*
X118439Y620061D01*
X118415Y620145D01*
X118396Y620229D01*
X118380Y620315D01*
X118368Y620401D01*
X118360Y620487D01*
X118356Y620574D01*
X118355Y620661D01*
X118359Y620747D01*
X118366Y620834D01*
X118378Y620920D01*
X118393Y621005D01*
X118412Y621090D01*
X118434Y621174D01*
X118461Y621256D01*
X118491Y621338D01*
X118524Y621418D01*
X118562Y621496D01*
X118602Y621573D01*
X118647Y621648D01*
X118694Y621720D01*
X118745Y621791D01*
X118798Y621859D01*
X118855Y621925D01*
X118915Y621988D01*
X118977Y622048D01*
X119042Y622106D01*
X119110Y622160D01*
X119179Y622212D01*
X119252Y622260D01*
X119326Y622305D01*
X119402Y622347D01*
X119480Y622385D01*
X119559Y622419D01*
X119640Y622451D01*
X119723Y622478D01*
X119806Y622502D01*
X119891Y622522D01*
X119976Y622538D01*
X120062Y622550D01*
X120148Y622559D01*
X120235Y622563D01*
X120322Y622564D01*
X120321Y622563D02*
X120526Y622558D01*
X120729Y622547D01*
X120933Y622532D01*
X121136Y622512D01*
X121339Y622487D01*
X121541Y622457D01*
X121742Y622423D01*
X121943Y622383D01*
X122142Y622339D01*
X122340Y622290D01*
X122537Y622236D01*
X122733Y622178D01*
X122927Y622114D01*
X123120Y622046D01*
X123310Y621974D01*
X123500Y621897D01*
X123687Y621815D01*
X123313Y617328D02*
X123393Y617294D01*
X123471Y617257D01*
X123548Y617216D01*
X123622Y617171D01*
X123695Y617124D01*
X123765Y617073D01*
X123833Y617019D01*
X123898Y616962D01*
X123961Y616902D01*
X124021Y616839D01*
X124079Y616774D01*
X124133Y616706D01*
X124184Y616636D01*
X124232Y616564D01*
X124277Y616489D01*
X124318Y616413D01*
X124356Y616335D01*
X124390Y616255D01*
X124421Y616174D01*
X124448Y616092D01*
X124472Y616008D01*
X124491Y615924D01*
X124507Y615838D01*
X124519Y615752D01*
X124527Y615666D01*
X124531Y615579D01*
X124532Y615492D01*
X124528Y615406D01*
X124521Y615319D01*
X124509Y615233D01*
X124494Y615148D01*
X124475Y615063D01*
X124453Y614979D01*
X124426Y614897D01*
X124396Y614815D01*
X124363Y614735D01*
X124325Y614657D01*
X124285Y614580D01*
X124240Y614505D01*
X124193Y614433D01*
X124142Y614362D01*
X124089Y614294D01*
X124032Y614228D01*
X123972Y614165D01*
X123910Y614105D01*
X123845Y614047D01*
X123777Y613993D01*
X123708Y613941D01*
X123635Y613893D01*
X123561Y613848D01*
X123485Y613806D01*
X123407Y613768D01*
X123328Y613734D01*
X123247Y613702D01*
X123164Y613675D01*
X123081Y613651D01*
X122996Y613631D01*
X122911Y613615D01*
X122825Y613603D01*
X122739Y613594D01*
X122652Y613590D01*
X122565Y613589D01*
X122566Y613589D02*
X122266Y613597D01*
X121966Y613612D01*
X121667Y613634D01*
X121368Y613663D01*
X121071Y613699D01*
X120774Y613742D01*
X120478Y613793D01*
X120184Y613850D01*
X119891Y613914D01*
X119599Y613985D01*
X119309Y614063D01*
X119022Y614147D01*
X118736Y614239D01*
X118452Y614337D01*
X130315Y616581D02*
X130315Y619572D01*
X130317Y619680D01*
X130323Y619788D01*
X130333Y619895D01*
X130346Y620003D01*
X130364Y620109D01*
X130385Y620215D01*
X130410Y620320D01*
X130439Y620424D01*
X130472Y620527D01*
X130508Y620629D01*
X130548Y620729D01*
X130592Y620828D01*
X130639Y620926D01*
X130689Y621021D01*
X130743Y621115D01*
X130801Y621206D01*
X130861Y621296D01*
X130925Y621383D01*
X130992Y621467D01*
X131062Y621550D01*
X131135Y621630D01*
X131211Y621707D01*
X131289Y621781D01*
X131370Y621852D01*
X131454Y621921D01*
X131540Y621986D01*
X131628Y622048D01*
X131718Y622107D01*
X131811Y622163D01*
X131906Y622215D01*
X132002Y622264D01*
X132100Y622310D01*
X132200Y622351D01*
X132301Y622390D01*
X132403Y622424D01*
X132507Y622455D01*
X132611Y622482D01*
X132717Y622505D01*
X132823Y622525D01*
X132930Y622540D01*
X133037Y622552D01*
X133145Y622560D01*
X133253Y622564D01*
X133361Y622564D01*
X133469Y622560D01*
X133577Y622552D01*
X133684Y622540D01*
X133791Y622525D01*
X133897Y622505D01*
X134003Y622482D01*
X134107Y622455D01*
X134211Y622424D01*
X134313Y622390D01*
X134414Y622351D01*
X134514Y622310D01*
X134612Y622264D01*
X134708Y622215D01*
X134803Y622163D01*
X134896Y622107D01*
X134986Y622048D01*
X135074Y621986D01*
X135160Y621921D01*
X135244Y621852D01*
X135325Y621781D01*
X135403Y621707D01*
X135479Y621630D01*
X135552Y621550D01*
X135622Y621467D01*
X135689Y621383D01*
X135753Y621296D01*
X135813Y621206D01*
X135871Y621115D01*
X135925Y621021D01*
X135975Y620926D01*
X136022Y620828D01*
X136066Y620729D01*
X136106Y620629D01*
X136142Y620527D01*
X136175Y620424D01*
X136204Y620320D01*
X136229Y620215D01*
X136250Y620109D01*
X136268Y620003D01*
X136281Y619895D01*
X136291Y619788D01*
X136297Y619680D01*
X136299Y619572D01*
X136298Y619572D02*
X136298Y616581D01*
X136299Y616581D02*
X136297Y616473D01*
X136291Y616365D01*
X136281Y616258D01*
X136268Y616150D01*
X136250Y616044D01*
X136229Y615938D01*
X136204Y615833D01*
X136175Y615729D01*
X136142Y615626D01*
X136106Y615524D01*
X136066Y615424D01*
X136022Y615325D01*
X135975Y615227D01*
X135925Y615132D01*
X135871Y615038D01*
X135813Y614947D01*
X135753Y614857D01*
X135689Y614770D01*
X135622Y614686D01*
X135552Y614603D01*
X135479Y614523D01*
X135403Y614446D01*
X135325Y614372D01*
X135244Y614301D01*
X135160Y614232D01*
X135074Y614167D01*
X134986Y614105D01*
X134896Y614046D01*
X134803Y613990D01*
X134708Y613938D01*
X134612Y613889D01*
X134514Y613843D01*
X134414Y613802D01*
X134313Y613763D01*
X134211Y613729D01*
X134107Y613698D01*
X134003Y613671D01*
X133897Y613648D01*
X133791Y613628D01*
X133684Y613613D01*
X133577Y613601D01*
X133469Y613593D01*
X133361Y613589D01*
X133253Y613589D01*
X133145Y613593D01*
X133037Y613601D01*
X132930Y613613D01*
X132823Y613628D01*
X132717Y613648D01*
X132611Y613671D01*
X132507Y613698D01*
X132403Y613729D01*
X132301Y613763D01*
X132200Y613802D01*
X132100Y613843D01*
X132002Y613889D01*
X131906Y613938D01*
X131811Y613990D01*
X131718Y614046D01*
X131628Y614105D01*
X131540Y614167D01*
X131454Y614232D01*
X131370Y614301D01*
X131289Y614372D01*
X131211Y614446D01*
X131135Y614523D01*
X131062Y614603D01*
X130992Y614686D01*
X130925Y614770D01*
X130861Y614857D01*
X130801Y614947D01*
X130743Y615038D01*
X130689Y615132D01*
X130639Y615227D01*
X130592Y615325D01*
X130548Y615424D01*
X130508Y615524D01*
X130472Y615626D01*
X130439Y615729D01*
X130410Y615833D01*
X130385Y615938D01*
X130364Y616044D01*
X130346Y616150D01*
X130333Y616258D01*
X130323Y616365D01*
X130317Y616473D01*
X130315Y616581D01*
X142298Y615833D02*
X142298Y627051D01*
X142297Y615833D02*
X142299Y615740D01*
X142305Y615648D01*
X142314Y615555D01*
X142328Y615464D01*
X142345Y615372D01*
X142366Y615282D01*
X142390Y615193D01*
X142419Y615104D01*
X142451Y615017D01*
X142486Y614932D01*
X142525Y614847D01*
X142567Y614765D01*
X142613Y614684D01*
X142662Y614606D01*
X142715Y614529D01*
X142770Y614455D01*
X142829Y614383D01*
X142890Y614313D01*
X142954Y614246D01*
X143021Y614182D01*
X143091Y614121D01*
X143163Y614062D01*
X143237Y614007D01*
X143314Y613954D01*
X143392Y613905D01*
X143473Y613859D01*
X143555Y613817D01*
X143640Y613778D01*
X143725Y613743D01*
X143812Y613711D01*
X143901Y613682D01*
X143990Y613658D01*
X144080Y613637D01*
X144172Y613620D01*
X144263Y613606D01*
X144356Y613597D01*
X144448Y613591D01*
X144541Y613589D01*
X155376Y613589D02*
X155376Y627051D01*
X155376Y613589D02*
X151637Y613589D01*
X151544Y613591D01*
X151452Y613597D01*
X151359Y613606D01*
X151268Y613620D01*
X151176Y613637D01*
X151086Y613658D01*
X150997Y613682D01*
X150908Y613711D01*
X150821Y613743D01*
X150736Y613778D01*
X150651Y613817D01*
X150569Y613859D01*
X150488Y613905D01*
X150410Y613954D01*
X150333Y614007D01*
X150259Y614062D01*
X150187Y614121D01*
X150117Y614182D01*
X150050Y614246D01*
X149986Y614313D01*
X149925Y614383D01*
X149866Y614455D01*
X149811Y614529D01*
X149758Y614606D01*
X149709Y614684D01*
X149663Y614765D01*
X149621Y614847D01*
X149582Y614932D01*
X149547Y615017D01*
X149515Y615104D01*
X149486Y615193D01*
X149462Y615282D01*
X149441Y615372D01*
X149424Y615464D01*
X149410Y615555D01*
X149401Y615648D01*
X149395Y615740D01*
X149393Y615833D01*
X149393Y620320D01*
X149395Y620413D01*
X149401Y620505D01*
X149410Y620598D01*
X149424Y620689D01*
X149441Y620781D01*
X149462Y620871D01*
X149486Y620960D01*
X149515Y621049D01*
X149547Y621136D01*
X149582Y621221D01*
X149621Y621306D01*
X149663Y621388D01*
X149709Y621469D01*
X149758Y621547D01*
X149811Y621624D01*
X149866Y621698D01*
X149925Y621770D01*
X149986Y621840D01*
X150050Y621907D01*
X150117Y621971D01*
X150187Y622032D01*
X150259Y622091D01*
X150333Y622146D01*
X150410Y622199D01*
X150488Y622248D01*
X150569Y622294D01*
X150651Y622336D01*
X150736Y622375D01*
X150821Y622410D01*
X150908Y622442D01*
X150997Y622471D01*
X151086Y622495D01*
X151177Y622516D01*
X151268Y622533D01*
X151359Y622547D01*
X151452Y622556D01*
X151544Y622562D01*
X151637Y622564D01*
X155376Y622564D01*
X164043Y613589D02*
X167782Y613589D01*
X164043Y613589D02*
X163950Y613591D01*
X163858Y613597D01*
X163765Y613606D01*
X163674Y613620D01*
X163582Y613637D01*
X163492Y613658D01*
X163403Y613682D01*
X163314Y613711D01*
X163227Y613743D01*
X163142Y613778D01*
X163057Y613817D01*
X162975Y613859D01*
X162894Y613905D01*
X162816Y613954D01*
X162739Y614007D01*
X162665Y614062D01*
X162593Y614121D01*
X162523Y614182D01*
X162456Y614246D01*
X162392Y614313D01*
X162331Y614383D01*
X162272Y614455D01*
X162217Y614529D01*
X162164Y614606D01*
X162115Y614684D01*
X162069Y614765D01*
X162027Y614847D01*
X161988Y614932D01*
X161953Y615017D01*
X161921Y615104D01*
X161892Y615193D01*
X161868Y615282D01*
X161847Y615372D01*
X161830Y615464D01*
X161816Y615555D01*
X161807Y615648D01*
X161801Y615740D01*
X161799Y615833D01*
X161799Y619572D01*
X161801Y619680D01*
X161807Y619788D01*
X161817Y619895D01*
X161830Y620003D01*
X161848Y620109D01*
X161869Y620215D01*
X161894Y620320D01*
X161923Y620424D01*
X161956Y620527D01*
X161992Y620629D01*
X162032Y620729D01*
X162076Y620828D01*
X162123Y620926D01*
X162173Y621021D01*
X162227Y621115D01*
X162285Y621206D01*
X162345Y621296D01*
X162409Y621383D01*
X162476Y621467D01*
X162546Y621550D01*
X162619Y621630D01*
X162695Y621707D01*
X162773Y621781D01*
X162854Y621852D01*
X162938Y621921D01*
X163024Y621986D01*
X163112Y622048D01*
X163202Y622107D01*
X163295Y622163D01*
X163390Y622215D01*
X163486Y622264D01*
X163584Y622310D01*
X163684Y622351D01*
X163785Y622390D01*
X163887Y622424D01*
X163991Y622455D01*
X164095Y622482D01*
X164201Y622505D01*
X164307Y622525D01*
X164414Y622540D01*
X164521Y622552D01*
X164629Y622560D01*
X164737Y622564D01*
X164845Y622564D01*
X164953Y622560D01*
X165061Y622552D01*
X165168Y622540D01*
X165275Y622525D01*
X165381Y622505D01*
X165487Y622482D01*
X165591Y622455D01*
X165695Y622424D01*
X165797Y622390D01*
X165898Y622351D01*
X165998Y622310D01*
X166096Y622264D01*
X166192Y622215D01*
X166287Y622163D01*
X166380Y622107D01*
X166470Y622048D01*
X166558Y621986D01*
X166644Y621921D01*
X166728Y621852D01*
X166809Y621781D01*
X166887Y621707D01*
X166963Y621630D01*
X167036Y621550D01*
X167106Y621467D01*
X167173Y621383D01*
X167237Y621296D01*
X167297Y621206D01*
X167355Y621115D01*
X167409Y621021D01*
X167459Y620926D01*
X167506Y620828D01*
X167550Y620729D01*
X167590Y620629D01*
X167626Y620527D01*
X167659Y620424D01*
X167688Y620320D01*
X167713Y620215D01*
X167734Y620109D01*
X167752Y620003D01*
X167765Y619895D01*
X167775Y619788D01*
X167781Y619680D01*
X167783Y619572D01*
X167782Y619572D02*
X167782Y618076D01*
X161799Y618076D01*
X174216Y613589D02*
X174216Y622564D01*
X178703Y622564D01*
X178703Y621068D01*
X191667Y618824D02*
X195406Y617328D01*
X191667Y618825D02*
X191587Y618859D01*
X191509Y618896D01*
X191432Y618937D01*
X191358Y618982D01*
X191285Y619029D01*
X191215Y619080D01*
X191147Y619134D01*
X191082Y619191D01*
X191019Y619251D01*
X190959Y619314D01*
X190901Y619379D01*
X190847Y619447D01*
X190796Y619517D01*
X190748Y619589D01*
X190703Y619664D01*
X190662Y619740D01*
X190624Y619818D01*
X190590Y619898D01*
X190559Y619979D01*
X190532Y620061D01*
X190508Y620145D01*
X190489Y620229D01*
X190473Y620315D01*
X190461Y620401D01*
X190453Y620487D01*
X190449Y620574D01*
X190448Y620661D01*
X190452Y620747D01*
X190459Y620834D01*
X190471Y620920D01*
X190486Y621005D01*
X190505Y621090D01*
X190527Y621174D01*
X190554Y621256D01*
X190584Y621338D01*
X190617Y621418D01*
X190655Y621496D01*
X190695Y621573D01*
X190740Y621648D01*
X190787Y621720D01*
X190838Y621791D01*
X190891Y621859D01*
X190948Y621925D01*
X191008Y621988D01*
X191070Y622048D01*
X191135Y622106D01*
X191203Y622160D01*
X191272Y622212D01*
X191345Y622260D01*
X191419Y622305D01*
X191495Y622347D01*
X191573Y622385D01*
X191652Y622419D01*
X191733Y622451D01*
X191816Y622478D01*
X191899Y622502D01*
X191984Y622522D01*
X192069Y622538D01*
X192155Y622550D01*
X192241Y622559D01*
X192328Y622563D01*
X192415Y622564D01*
X192414Y622563D02*
X192619Y622558D01*
X192822Y622547D01*
X193026Y622532D01*
X193229Y622512D01*
X193432Y622487D01*
X193634Y622457D01*
X193835Y622423D01*
X194036Y622383D01*
X194235Y622339D01*
X194433Y622290D01*
X194630Y622236D01*
X194826Y622178D01*
X195020Y622114D01*
X195213Y622046D01*
X195403Y621974D01*
X195593Y621897D01*
X195780Y621815D01*
X195406Y617328D02*
X195486Y617294D01*
X195564Y617257D01*
X195641Y617216D01*
X195715Y617171D01*
X195788Y617124D01*
X195858Y617073D01*
X195926Y617019D01*
X195991Y616962D01*
X196054Y616902D01*
X196114Y616839D01*
X196172Y616774D01*
X196226Y616706D01*
X196277Y616636D01*
X196325Y616564D01*
X196370Y616489D01*
X196411Y616413D01*
X196449Y616335D01*
X196483Y616255D01*
X196514Y616174D01*
X196541Y616092D01*
X196565Y616008D01*
X196584Y615924D01*
X196600Y615838D01*
X196612Y615752D01*
X196620Y615666D01*
X196624Y615579D01*
X196625Y615492D01*
X196621Y615406D01*
X196614Y615319D01*
X196602Y615233D01*
X196587Y615148D01*
X196568Y615063D01*
X196546Y614979D01*
X196519Y614897D01*
X196489Y614815D01*
X196456Y614735D01*
X196418Y614657D01*
X196378Y614580D01*
X196333Y614505D01*
X196286Y614433D01*
X196235Y614362D01*
X196182Y614294D01*
X196125Y614228D01*
X196065Y614165D01*
X196003Y614105D01*
X195938Y614047D01*
X195870Y613993D01*
X195801Y613941D01*
X195728Y613893D01*
X195654Y613848D01*
X195578Y613806D01*
X195500Y613768D01*
X195421Y613734D01*
X195340Y613702D01*
X195257Y613675D01*
X195174Y613651D01*
X195089Y613631D01*
X195004Y613615D01*
X194918Y613603D01*
X194832Y613594D01*
X194745Y613590D01*
X194658Y613589D01*
X194659Y613589D02*
X194359Y613597D01*
X194059Y613612D01*
X193760Y613634D01*
X193461Y613663D01*
X193164Y613699D01*
X192867Y613742D01*
X192571Y613793D01*
X192277Y613850D01*
X191984Y613914D01*
X191692Y613985D01*
X191402Y614063D01*
X191115Y614147D01*
X190829Y614239D01*
X190545Y614337D01*
X202206Y613589D02*
X202206Y622564D01*
X201832Y626303D02*
X201832Y627051D01*
X202580Y627051D01*
X202580Y626303D01*
X201832Y626303D01*
X213781Y627051D02*
X213781Y613589D01*
X210041Y613589D01*
X209948Y613591D01*
X209856Y613597D01*
X209763Y613606D01*
X209672Y613620D01*
X209580Y613637D01*
X209490Y613658D01*
X209401Y613682D01*
X209312Y613711D01*
X209225Y613743D01*
X209140Y613778D01*
X209055Y613817D01*
X208973Y613859D01*
X208892Y613905D01*
X208814Y613954D01*
X208737Y614007D01*
X208663Y614062D01*
X208591Y614121D01*
X208521Y614182D01*
X208454Y614246D01*
X208390Y614313D01*
X208329Y614383D01*
X208270Y614455D01*
X208215Y614529D01*
X208162Y614606D01*
X208113Y614684D01*
X208067Y614765D01*
X208025Y614847D01*
X207986Y614932D01*
X207951Y615017D01*
X207919Y615104D01*
X207890Y615193D01*
X207866Y615282D01*
X207845Y615372D01*
X207828Y615464D01*
X207814Y615555D01*
X207805Y615648D01*
X207799Y615740D01*
X207797Y615833D01*
X207798Y615833D02*
X207798Y620320D01*
X207797Y620320D02*
X207799Y620413D01*
X207805Y620505D01*
X207814Y620598D01*
X207828Y620689D01*
X207845Y620781D01*
X207866Y620871D01*
X207890Y620960D01*
X207919Y621049D01*
X207951Y621136D01*
X207986Y621221D01*
X208025Y621306D01*
X208067Y621388D01*
X208113Y621469D01*
X208162Y621547D01*
X208215Y621624D01*
X208270Y621698D01*
X208329Y621770D01*
X208390Y621840D01*
X208454Y621907D01*
X208521Y621971D01*
X208591Y622032D01*
X208663Y622091D01*
X208737Y622146D01*
X208814Y622199D01*
X208892Y622248D01*
X208973Y622294D01*
X209055Y622336D01*
X209140Y622375D01*
X209225Y622410D01*
X209312Y622442D01*
X209401Y622471D01*
X209490Y622495D01*
X209581Y622516D01*
X209672Y622533D01*
X209763Y622547D01*
X209856Y622556D01*
X209948Y622562D01*
X210041Y622564D01*
X213781Y622564D01*
X222447Y613589D02*
X226186Y613589D01*
X222447Y613589D02*
X222354Y613591D01*
X222262Y613597D01*
X222169Y613606D01*
X222078Y613620D01*
X221986Y613637D01*
X221896Y613658D01*
X221807Y613682D01*
X221718Y613711D01*
X221631Y613743D01*
X221546Y613778D01*
X221461Y613817D01*
X221379Y613859D01*
X221298Y613905D01*
X221220Y613954D01*
X221143Y614007D01*
X221069Y614062D01*
X220997Y614121D01*
X220927Y614182D01*
X220860Y614246D01*
X220796Y614313D01*
X220735Y614383D01*
X220676Y614455D01*
X220621Y614529D01*
X220568Y614606D01*
X220519Y614684D01*
X220473Y614765D01*
X220431Y614847D01*
X220392Y614932D01*
X220357Y615017D01*
X220325Y615104D01*
X220296Y615193D01*
X220272Y615282D01*
X220251Y615372D01*
X220234Y615464D01*
X220220Y615555D01*
X220211Y615648D01*
X220205Y615740D01*
X220203Y615833D01*
X220203Y619572D01*
X220205Y619680D01*
X220211Y619788D01*
X220221Y619895D01*
X220234Y620003D01*
X220252Y620109D01*
X220273Y620215D01*
X220298Y620320D01*
X220327Y620424D01*
X220360Y620527D01*
X220396Y620629D01*
X220436Y620729D01*
X220480Y620828D01*
X220527Y620926D01*
X220577Y621021D01*
X220631Y621115D01*
X220689Y621206D01*
X220749Y621296D01*
X220813Y621383D01*
X220880Y621467D01*
X220950Y621550D01*
X221023Y621630D01*
X221099Y621707D01*
X221177Y621781D01*
X221258Y621852D01*
X221342Y621921D01*
X221428Y621986D01*
X221516Y622048D01*
X221606Y622107D01*
X221699Y622163D01*
X221794Y622215D01*
X221890Y622264D01*
X221988Y622310D01*
X222088Y622351D01*
X222189Y622390D01*
X222291Y622424D01*
X222395Y622455D01*
X222499Y622482D01*
X222605Y622505D01*
X222711Y622525D01*
X222818Y622540D01*
X222925Y622552D01*
X223033Y622560D01*
X223141Y622564D01*
X223249Y622564D01*
X223357Y622560D01*
X223465Y622552D01*
X223572Y622540D01*
X223679Y622525D01*
X223785Y622505D01*
X223891Y622482D01*
X223995Y622455D01*
X224099Y622424D01*
X224201Y622390D01*
X224302Y622351D01*
X224402Y622310D01*
X224500Y622264D01*
X224596Y622215D01*
X224691Y622163D01*
X224784Y622107D01*
X224874Y622048D01*
X224962Y621986D01*
X225048Y621921D01*
X225132Y621852D01*
X225213Y621781D01*
X225291Y621707D01*
X225367Y621630D01*
X225440Y621550D01*
X225510Y621467D01*
X225577Y621383D01*
X225641Y621296D01*
X225701Y621206D01*
X225759Y621115D01*
X225813Y621021D01*
X225863Y620926D01*
X225910Y620828D01*
X225954Y620729D01*
X225994Y620629D01*
X226030Y620527D01*
X226063Y620424D01*
X226092Y620320D01*
X226117Y620215D01*
X226138Y620109D01*
X226156Y620003D01*
X226169Y619895D01*
X226179Y619788D01*
X226185Y619680D01*
X226187Y619572D01*
X226186Y619572D02*
X226186Y618076D01*
X220203Y618076D01*
D16*
X546100Y631750D02*
X546100Y600000D01*
X546100Y631750D02*
X546100Y663500D01*
X546100Y695250D01*
X546100Y727000D01*
X546100Y758750D01*
X228600Y758750D01*
X0Y758750D01*
X0Y695250D01*
D11*
X242316Y734366D02*
X242316Y749098D01*
X246408Y749098D01*
X246534Y749096D01*
X246660Y749090D01*
X246786Y749081D01*
X246911Y749067D01*
X247036Y749050D01*
X247160Y749028D01*
X247283Y749003D01*
X247406Y748974D01*
X247528Y748942D01*
X247649Y748905D01*
X247768Y748865D01*
X247886Y748822D01*
X248003Y748774D01*
X248118Y748723D01*
X248232Y748669D01*
X248344Y748611D01*
X248454Y748550D01*
X248562Y748485D01*
X248668Y748417D01*
X248772Y748346D01*
X248874Y748271D01*
X248973Y748194D01*
X249070Y748113D01*
X249165Y748030D01*
X249257Y747944D01*
X249346Y747855D01*
X249432Y747763D01*
X249515Y747668D01*
X249596Y747571D01*
X249673Y747472D01*
X249748Y747370D01*
X249819Y747266D01*
X249887Y747160D01*
X249952Y747052D01*
X250013Y746942D01*
X250071Y746830D01*
X250125Y746716D01*
X250176Y746601D01*
X250224Y746484D01*
X250267Y746366D01*
X250307Y746246D01*
X250344Y746126D01*
X250376Y746004D01*
X250405Y745881D01*
X250430Y745758D01*
X250452Y745634D01*
X250469Y745509D01*
X250483Y745384D01*
X250492Y745258D01*
X250498Y745132D01*
X250500Y745006D01*
X250500Y738458D01*
X250498Y738332D01*
X250492Y738206D01*
X250483Y738080D01*
X250469Y737955D01*
X250452Y737830D01*
X250430Y737706D01*
X250405Y737583D01*
X250376Y737460D01*
X250344Y737338D01*
X250307Y737218D01*
X250267Y737098D01*
X250224Y736980D01*
X250176Y736863D01*
X250125Y736748D01*
X250071Y736634D01*
X250013Y736522D01*
X249952Y736412D01*
X249887Y736304D01*
X249819Y736198D01*
X249748Y736094D01*
X249673Y735992D01*
X249596Y735893D01*
X249515Y735796D01*
X249432Y735701D01*
X249346Y735609D01*
X249257Y735520D01*
X249165Y735434D01*
X249070Y735351D01*
X248973Y735270D01*
X248874Y735193D01*
X248772Y735118D01*
X248668Y735047D01*
X248562Y734979D01*
X248454Y734914D01*
X248344Y734853D01*
X248232Y734795D01*
X248118Y734741D01*
X248003Y734690D01*
X247886Y734642D01*
X247768Y734599D01*
X247649Y734559D01*
X247528Y734522D01*
X247406Y734490D01*
X247283Y734461D01*
X247160Y734436D01*
X247036Y734414D01*
X246911Y734397D01*
X246786Y734383D01*
X246660Y734374D01*
X246534Y734368D01*
X246408Y734366D01*
X242316Y734366D01*
X257505Y737640D02*
X257505Y740914D01*
X257504Y740914D02*
X257506Y741027D01*
X257512Y741140D01*
X257522Y741252D01*
X257535Y741365D01*
X257553Y741476D01*
X257574Y741587D01*
X257599Y741698D01*
X257628Y741807D01*
X257661Y741915D01*
X257697Y742022D01*
X257737Y742128D01*
X257781Y742232D01*
X257828Y742335D01*
X257879Y742436D01*
X257933Y742535D01*
X257991Y742632D01*
X258052Y742727D01*
X258116Y742820D01*
X258183Y742911D01*
X258254Y742999D01*
X258327Y743085D01*
X258404Y743168D01*
X258483Y743249D01*
X258565Y743327D01*
X258650Y743402D01*
X258737Y743474D01*
X258826Y743543D01*
X258918Y743608D01*
X259012Y743671D01*
X259108Y743730D01*
X259207Y743786D01*
X259307Y743839D01*
X259409Y743888D01*
X259512Y743933D01*
X259617Y743975D01*
X259723Y744013D01*
X259831Y744048D01*
X259940Y744079D01*
X260049Y744106D01*
X260160Y744129D01*
X260271Y744149D01*
X260383Y744164D01*
X260496Y744176D01*
X260609Y744184D01*
X260721Y744188D01*
X260835Y744188D01*
X260947Y744184D01*
X261060Y744176D01*
X261173Y744164D01*
X261285Y744149D01*
X261396Y744129D01*
X261507Y744106D01*
X261616Y744079D01*
X261725Y744048D01*
X261833Y744013D01*
X261939Y743975D01*
X262044Y743933D01*
X262147Y743888D01*
X262249Y743839D01*
X262349Y743786D01*
X262448Y743730D01*
X262544Y743671D01*
X262638Y743608D01*
X262730Y743543D01*
X262819Y743474D01*
X262906Y743402D01*
X262991Y743327D01*
X263073Y743249D01*
X263152Y743168D01*
X263229Y743085D01*
X263302Y742999D01*
X263373Y742911D01*
X263440Y742820D01*
X263504Y742727D01*
X263565Y742632D01*
X263623Y742535D01*
X263677Y742436D01*
X263728Y742335D01*
X263775Y742232D01*
X263819Y742128D01*
X263859Y742022D01*
X263895Y741915D01*
X263928Y741807D01*
X263957Y741698D01*
X263982Y741587D01*
X264003Y741476D01*
X264021Y741365D01*
X264034Y741252D01*
X264044Y741140D01*
X264050Y741027D01*
X264052Y740914D01*
X264052Y737640D01*
X264050Y737527D01*
X264044Y737414D01*
X264034Y737302D01*
X264021Y737189D01*
X264003Y737078D01*
X263982Y736967D01*
X263957Y736856D01*
X263928Y736747D01*
X263895Y736639D01*
X263859Y736532D01*
X263819Y736426D01*
X263775Y736322D01*
X263728Y736219D01*
X263677Y736118D01*
X263623Y736019D01*
X263565Y735922D01*
X263504Y735827D01*
X263440Y735734D01*
X263373Y735643D01*
X263302Y735555D01*
X263229Y735469D01*
X263152Y735386D01*
X263073Y735305D01*
X262991Y735227D01*
X262906Y735152D01*
X262819Y735080D01*
X262730Y735011D01*
X262638Y734946D01*
X262544Y734883D01*
X262448Y734824D01*
X262349Y734768D01*
X262249Y734715D01*
X262147Y734666D01*
X262044Y734621D01*
X261939Y734579D01*
X261833Y734541D01*
X261725Y734506D01*
X261616Y734475D01*
X261507Y734448D01*
X261396Y734425D01*
X261285Y734405D01*
X261173Y734390D01*
X261060Y734378D01*
X260947Y734370D01*
X260835Y734366D01*
X260721Y734366D01*
X260609Y734370D01*
X260496Y734378D01*
X260383Y734390D01*
X260271Y734405D01*
X260160Y734425D01*
X260049Y734448D01*
X259940Y734475D01*
X259831Y734506D01*
X259723Y734541D01*
X259617Y734579D01*
X259512Y734621D01*
X259409Y734666D01*
X259307Y734715D01*
X259207Y734768D01*
X259108Y734824D01*
X259012Y734883D01*
X258918Y734946D01*
X258826Y735011D01*
X258737Y735080D01*
X258650Y735152D01*
X258565Y735227D01*
X258483Y735305D01*
X258404Y735386D01*
X258327Y735469D01*
X258254Y735555D01*
X258183Y735643D01*
X258116Y735734D01*
X258052Y735827D01*
X257991Y735922D01*
X257933Y736019D01*
X257879Y736118D01*
X257828Y736219D01*
X257781Y736322D01*
X257737Y736426D01*
X257697Y736532D01*
X257661Y736639D01*
X257628Y736747D01*
X257599Y736856D01*
X257574Y736967D01*
X257553Y737078D01*
X257535Y737189D01*
X257522Y737302D01*
X257512Y737414D01*
X257506Y737527D01*
X257504Y737640D01*
X272865Y734366D02*
X276139Y734366D01*
X272865Y734366D02*
X272769Y734368D01*
X272672Y734374D01*
X272576Y734383D01*
X272481Y734396D01*
X272386Y734413D01*
X272292Y734434D01*
X272199Y734458D01*
X272106Y734486D01*
X272015Y734518D01*
X271926Y734553D01*
X271837Y734592D01*
X271750Y734634D01*
X271665Y734679D01*
X271582Y734728D01*
X271501Y734780D01*
X271422Y734835D01*
X271345Y734893D01*
X271271Y734954D01*
X271199Y735018D01*
X271129Y735085D01*
X271062Y735155D01*
X270998Y735227D01*
X270937Y735301D01*
X270879Y735378D01*
X270824Y735457D01*
X270772Y735538D01*
X270723Y735621D01*
X270678Y735706D01*
X270636Y735793D01*
X270597Y735882D01*
X270562Y735971D01*
X270530Y736062D01*
X270502Y736155D01*
X270478Y736248D01*
X270457Y736342D01*
X270440Y736437D01*
X270427Y736532D01*
X270418Y736628D01*
X270412Y736725D01*
X270410Y736821D01*
X270410Y741732D01*
X270412Y741828D01*
X270418Y741925D01*
X270427Y742021D01*
X270440Y742116D01*
X270457Y742211D01*
X270478Y742305D01*
X270502Y742398D01*
X270530Y742491D01*
X270562Y742582D01*
X270597Y742671D01*
X270636Y742760D01*
X270678Y742847D01*
X270723Y742932D01*
X270772Y743015D01*
X270824Y743096D01*
X270879Y743175D01*
X270937Y743252D01*
X270998Y743326D01*
X271062Y743398D01*
X271129Y743468D01*
X271199Y743535D01*
X271271Y743599D01*
X271345Y743660D01*
X271422Y743718D01*
X271501Y743773D01*
X271582Y743825D01*
X271665Y743874D01*
X271750Y743919D01*
X271837Y743961D01*
X271926Y744000D01*
X272015Y744035D01*
X272106Y744067D01*
X272199Y744095D01*
X272292Y744119D01*
X272386Y744140D01*
X272481Y744157D01*
X272576Y744170D01*
X272672Y744179D01*
X272769Y744185D01*
X272865Y744187D01*
X276139Y744187D01*
X281181Y735184D02*
X281181Y734366D01*
X281181Y735184D02*
X282000Y735184D01*
X282000Y734366D01*
X281181Y734366D01*
X288077Y740095D02*
X297898Y740095D01*
X305248Y734366D02*
X305248Y749098D01*
X313432Y734366D01*
X313432Y749098D01*
X320436Y740914D02*
X320436Y737640D01*
X320436Y740914D02*
X320438Y741027D01*
X320444Y741140D01*
X320454Y741252D01*
X320467Y741365D01*
X320485Y741476D01*
X320506Y741587D01*
X320531Y741698D01*
X320560Y741807D01*
X320593Y741915D01*
X320629Y742022D01*
X320669Y742128D01*
X320713Y742232D01*
X320760Y742335D01*
X320811Y742436D01*
X320865Y742535D01*
X320923Y742632D01*
X320984Y742727D01*
X321048Y742820D01*
X321115Y742911D01*
X321186Y742999D01*
X321259Y743085D01*
X321336Y743168D01*
X321415Y743249D01*
X321497Y743327D01*
X321582Y743402D01*
X321669Y743474D01*
X321758Y743543D01*
X321850Y743608D01*
X321944Y743671D01*
X322040Y743730D01*
X322139Y743786D01*
X322239Y743839D01*
X322341Y743888D01*
X322444Y743933D01*
X322549Y743975D01*
X322655Y744013D01*
X322763Y744048D01*
X322872Y744079D01*
X322981Y744106D01*
X323092Y744129D01*
X323203Y744149D01*
X323315Y744164D01*
X323428Y744176D01*
X323541Y744184D01*
X323653Y744188D01*
X323767Y744188D01*
X323879Y744184D01*
X323992Y744176D01*
X324105Y744164D01*
X324217Y744149D01*
X324328Y744129D01*
X324439Y744106D01*
X324548Y744079D01*
X324657Y744048D01*
X324765Y744013D01*
X324871Y743975D01*
X324976Y743933D01*
X325079Y743888D01*
X325181Y743839D01*
X325281Y743786D01*
X325380Y743730D01*
X325476Y743671D01*
X325570Y743608D01*
X325662Y743543D01*
X325751Y743474D01*
X325838Y743402D01*
X325923Y743327D01*
X326005Y743249D01*
X326084Y743168D01*
X326161Y743085D01*
X326234Y742999D01*
X326305Y742911D01*
X326372Y742820D01*
X326436Y742727D01*
X326497Y742632D01*
X326555Y742535D01*
X326609Y742436D01*
X326660Y742335D01*
X326707Y742232D01*
X326751Y742128D01*
X326791Y742022D01*
X326827Y741915D01*
X326860Y741807D01*
X326889Y741698D01*
X326914Y741587D01*
X326935Y741476D01*
X326953Y741365D01*
X326966Y741252D01*
X326976Y741140D01*
X326982Y741027D01*
X326984Y740914D01*
X326984Y737640D01*
X326982Y737527D01*
X326976Y737414D01*
X326966Y737302D01*
X326953Y737189D01*
X326935Y737078D01*
X326914Y736967D01*
X326889Y736856D01*
X326860Y736747D01*
X326827Y736639D01*
X326791Y736532D01*
X326751Y736426D01*
X326707Y736322D01*
X326660Y736219D01*
X326609Y736118D01*
X326555Y736019D01*
X326497Y735922D01*
X326436Y735827D01*
X326372Y735734D01*
X326305Y735643D01*
X326234Y735555D01*
X326161Y735469D01*
X326084Y735386D01*
X326005Y735305D01*
X325923Y735227D01*
X325838Y735152D01*
X325751Y735080D01*
X325662Y735011D01*
X325570Y734946D01*
X325476Y734883D01*
X325380Y734824D01*
X325281Y734768D01*
X325181Y734715D01*
X325079Y734666D01*
X324976Y734621D01*
X324871Y734579D01*
X324765Y734541D01*
X324657Y734506D01*
X324548Y734475D01*
X324439Y734448D01*
X324328Y734425D01*
X324217Y734405D01*
X324105Y734390D01*
X323992Y734378D01*
X323879Y734370D01*
X323767Y734366D01*
X323653Y734366D01*
X323541Y734370D01*
X323428Y734378D01*
X323315Y734390D01*
X323203Y734405D01*
X323092Y734425D01*
X322981Y734448D01*
X322872Y734475D01*
X322763Y734506D01*
X322655Y734541D01*
X322549Y734579D01*
X322444Y734621D01*
X322341Y734666D01*
X322239Y734715D01*
X322139Y734768D01*
X322040Y734824D01*
X321944Y734883D01*
X321850Y734946D01*
X321758Y735011D01*
X321669Y735080D01*
X321582Y735152D01*
X321497Y735227D01*
X321415Y735305D01*
X321336Y735386D01*
X321259Y735469D01*
X321186Y735555D01*
X321115Y735643D01*
X321048Y735734D01*
X320984Y735827D01*
X320923Y735922D01*
X320865Y736019D01*
X320811Y736118D01*
X320760Y736219D01*
X320713Y736322D01*
X320669Y736426D01*
X320629Y736532D01*
X320593Y736639D01*
X320560Y736747D01*
X320531Y736856D01*
X320506Y736967D01*
X320485Y737078D01*
X320467Y737189D01*
X320454Y737302D01*
X320444Y737414D01*
X320438Y737527D01*
X320436Y737640D01*
X332716Y735184D02*
X332716Y734366D01*
X332716Y735184D02*
X333534Y735184D01*
X333534Y734366D01*
X332716Y734366D01*
X339158Y735594D02*
X339158Y736412D01*
X339976Y736412D01*
X339976Y735594D01*
X339158Y735594D01*
X339158Y742141D02*
X339158Y742960D01*
X339976Y742960D01*
X339976Y742141D01*
X339158Y742141D01*
D16*
X0Y695250D02*
X0Y663500D01*
X0Y631750D01*
X0Y600000D01*
X546100Y600000D01*
D11*
X382016Y639116D02*
X382016Y653848D01*
X386108Y653848D01*
X386235Y653846D01*
X386362Y653840D01*
X386489Y653830D01*
X386616Y653816D01*
X386742Y653799D01*
X386867Y653777D01*
X386992Y653751D01*
X387116Y653722D01*
X387239Y653689D01*
X387360Y653652D01*
X387481Y653611D01*
X387600Y653566D01*
X387718Y653518D01*
X387834Y653466D01*
X387949Y653411D01*
X388061Y653352D01*
X388172Y653289D01*
X388281Y653223D01*
X388388Y653154D01*
X388493Y653081D01*
X388595Y653006D01*
X388695Y652927D01*
X388792Y652845D01*
X388887Y652760D01*
X388979Y652672D01*
X389068Y652581D01*
X389155Y652488D01*
X389238Y652392D01*
X389319Y652293D01*
X389396Y652192D01*
X389470Y652089D01*
X389541Y651983D01*
X389609Y651875D01*
X389673Y651765D01*
X389734Y651653D01*
X389791Y651540D01*
X389845Y651424D01*
X389895Y651307D01*
X389941Y651189D01*
X389984Y651069D01*
X390023Y650948D01*
X390058Y650825D01*
X390089Y650702D01*
X390117Y650578D01*
X390140Y650453D01*
X390160Y650327D01*
X390176Y650201D01*
X390188Y650074D01*
X390196Y649947D01*
X390200Y649820D01*
X390200Y649692D01*
X390196Y649565D01*
X390188Y649438D01*
X390176Y649311D01*
X390160Y649185D01*
X390140Y649059D01*
X390117Y648934D01*
X390089Y648810D01*
X390058Y648687D01*
X390023Y648564D01*
X389984Y648443D01*
X389941Y648323D01*
X389895Y648205D01*
X389845Y648088D01*
X389791Y647972D01*
X389734Y647859D01*
X389673Y647747D01*
X389609Y647637D01*
X389541Y647529D01*
X389470Y647423D01*
X389396Y647320D01*
X389319Y647219D01*
X389238Y647120D01*
X389155Y647024D01*
X389068Y646931D01*
X388979Y646840D01*
X388887Y646752D01*
X388792Y646667D01*
X388695Y646585D01*
X388595Y646506D01*
X388493Y646431D01*
X388388Y646358D01*
X388281Y646289D01*
X388172Y646223D01*
X388061Y646160D01*
X387949Y646101D01*
X387834Y646046D01*
X387718Y645994D01*
X387600Y645946D01*
X387481Y645901D01*
X387360Y645860D01*
X387239Y645823D01*
X387116Y645790D01*
X386992Y645761D01*
X386867Y645735D01*
X386742Y645713D01*
X386616Y645696D01*
X386489Y645682D01*
X386362Y645672D01*
X386235Y645666D01*
X386108Y645664D01*
X382016Y645664D01*
X386927Y645664D02*
X390200Y639116D01*
X399051Y639116D02*
X403143Y639116D01*
X399051Y639116D02*
X398955Y639118D01*
X398858Y639124D01*
X398762Y639133D01*
X398667Y639146D01*
X398572Y639163D01*
X398478Y639184D01*
X398385Y639208D01*
X398292Y639236D01*
X398201Y639268D01*
X398112Y639303D01*
X398023Y639342D01*
X397936Y639384D01*
X397851Y639429D01*
X397768Y639478D01*
X397687Y639530D01*
X397608Y639585D01*
X397531Y639643D01*
X397457Y639704D01*
X397385Y639768D01*
X397315Y639835D01*
X397248Y639905D01*
X397184Y639977D01*
X397123Y640051D01*
X397065Y640128D01*
X397010Y640207D01*
X396958Y640288D01*
X396909Y640371D01*
X396864Y640456D01*
X396822Y640543D01*
X396783Y640632D01*
X396748Y640721D01*
X396716Y640812D01*
X396688Y640905D01*
X396664Y640998D01*
X396643Y641092D01*
X396626Y641187D01*
X396613Y641282D01*
X396604Y641378D01*
X396598Y641475D01*
X396596Y641571D01*
X396596Y645664D01*
X396598Y645777D01*
X396604Y645890D01*
X396614Y646002D01*
X396627Y646115D01*
X396645Y646226D01*
X396666Y646337D01*
X396691Y646448D01*
X396720Y646557D01*
X396753Y646665D01*
X396789Y646772D01*
X396829Y646878D01*
X396873Y646982D01*
X396920Y647085D01*
X396971Y647186D01*
X397025Y647285D01*
X397083Y647382D01*
X397144Y647477D01*
X397208Y647570D01*
X397275Y647661D01*
X397346Y647749D01*
X397419Y647835D01*
X397496Y647918D01*
X397575Y647999D01*
X397657Y648077D01*
X397742Y648152D01*
X397829Y648224D01*
X397918Y648293D01*
X398010Y648358D01*
X398104Y648421D01*
X398200Y648480D01*
X398299Y648536D01*
X398399Y648589D01*
X398501Y648638D01*
X398604Y648683D01*
X398709Y648725D01*
X398815Y648763D01*
X398923Y648798D01*
X399032Y648829D01*
X399141Y648856D01*
X399252Y648879D01*
X399363Y648899D01*
X399475Y648914D01*
X399588Y648926D01*
X399701Y648934D01*
X399813Y648938D01*
X399927Y648938D01*
X400039Y648934D01*
X400152Y648926D01*
X400265Y648914D01*
X400377Y648899D01*
X400488Y648879D01*
X400599Y648856D01*
X400708Y648829D01*
X400817Y648798D01*
X400925Y648763D01*
X401031Y648725D01*
X401136Y648683D01*
X401239Y648638D01*
X401341Y648589D01*
X401441Y648536D01*
X401540Y648480D01*
X401636Y648421D01*
X401730Y648358D01*
X401822Y648293D01*
X401911Y648224D01*
X401998Y648152D01*
X402083Y648077D01*
X402165Y647999D01*
X402244Y647918D01*
X402321Y647835D01*
X402394Y647749D01*
X402465Y647661D01*
X402532Y647570D01*
X402596Y647477D01*
X402657Y647382D01*
X402715Y647285D01*
X402769Y647186D01*
X402820Y647085D01*
X402867Y646982D01*
X402911Y646878D01*
X402951Y646772D01*
X402987Y646665D01*
X403020Y646557D01*
X403049Y646448D01*
X403074Y646337D01*
X403095Y646226D01*
X403113Y646115D01*
X403126Y646002D01*
X403136Y645890D01*
X403142Y645777D01*
X403144Y645664D01*
X403143Y645664D02*
X403143Y644027D01*
X396596Y644027D01*
X408984Y648937D02*
X412258Y639116D01*
X415532Y648937D01*
X420768Y639934D02*
X420768Y639116D01*
X420768Y639934D02*
X421586Y639934D01*
X421586Y639116D01*
X420768Y639116D01*
X427210Y640344D02*
X427210Y641162D01*
X428028Y641162D01*
X428028Y640344D01*
X427210Y640344D01*
X427210Y646891D02*
X427210Y647710D01*
X428028Y647710D01*
X428028Y646891D01*
X427210Y646891D01*
D16*
X368300Y631750D02*
X0Y631750D01*
X368300Y631750D02*
X546100Y631750D01*
X368300Y663500D02*
X0Y663500D01*
X368300Y663500D02*
X546100Y663500D01*
X228600Y695250D02*
X0Y695250D01*
X228600Y695250D02*
X368300Y695250D01*
X546100Y695250D01*
X228600Y727000D02*
X228600Y758750D01*
X228600Y727000D02*
X228600Y695250D01*
X228600Y727000D02*
X368300Y727000D01*
X546100Y727000D01*
D17*
X368300Y727000D02*
X368300Y695250D01*
D11*
X385290Y702616D02*
X388564Y702616D01*
X385290Y702616D02*
X385178Y702618D01*
X385067Y702624D01*
X384955Y702633D01*
X384844Y702646D01*
X384734Y702664D01*
X384624Y702684D01*
X384515Y702709D01*
X384407Y702737D01*
X384300Y702769D01*
X384194Y702805D01*
X384089Y702844D01*
X383986Y702887D01*
X383884Y702933D01*
X383784Y702983D01*
X383685Y703036D01*
X383589Y703093D01*
X383494Y703152D01*
X383402Y703215D01*
X383312Y703281D01*
X383224Y703350D01*
X383138Y703422D01*
X383055Y703497D01*
X382975Y703575D01*
X382897Y703655D01*
X382822Y703738D01*
X382750Y703824D01*
X382681Y703912D01*
X382615Y704002D01*
X382552Y704094D01*
X382493Y704189D01*
X382436Y704285D01*
X382383Y704384D01*
X382333Y704484D01*
X382287Y704586D01*
X382244Y704689D01*
X382205Y704794D01*
X382169Y704900D01*
X382137Y705007D01*
X382109Y705115D01*
X382084Y705224D01*
X382064Y705334D01*
X382046Y705444D01*
X382033Y705555D01*
X382024Y705667D01*
X382018Y705778D01*
X382016Y705890D01*
X382016Y714074D01*
X382018Y714188D01*
X382024Y714302D01*
X382034Y714416D01*
X382048Y714530D01*
X382066Y714643D01*
X382088Y714755D01*
X382113Y714866D01*
X382143Y714976D01*
X382176Y715086D01*
X382213Y715194D01*
X382254Y715300D01*
X382299Y715406D01*
X382347Y715509D01*
X382399Y715611D01*
X382455Y715711D01*
X382513Y715809D01*
X382576Y715905D01*
X382641Y715998D01*
X382710Y716090D01*
X382782Y716178D01*
X382857Y716265D01*
X382935Y716348D01*
X383016Y716429D01*
X383099Y716507D01*
X383186Y716582D01*
X383274Y716654D01*
X383366Y716723D01*
X383459Y716788D01*
X383555Y716850D01*
X383653Y716909D01*
X383753Y716965D01*
X383855Y717017D01*
X383958Y717065D01*
X384064Y717110D01*
X384170Y717151D01*
X384278Y717188D01*
X384388Y717221D01*
X384498Y717251D01*
X384609Y717276D01*
X384721Y717298D01*
X384834Y717316D01*
X384948Y717330D01*
X385062Y717340D01*
X385176Y717346D01*
X385290Y717348D01*
X388564Y717348D01*
X394777Y712437D02*
X394777Y705071D01*
X394779Y704975D01*
X394785Y704878D01*
X394794Y704782D01*
X394807Y704687D01*
X394824Y704592D01*
X394845Y704498D01*
X394869Y704405D01*
X394897Y704312D01*
X394929Y704221D01*
X394964Y704132D01*
X395003Y704043D01*
X395045Y703956D01*
X395090Y703871D01*
X395139Y703788D01*
X395191Y703707D01*
X395246Y703628D01*
X395304Y703551D01*
X395365Y703477D01*
X395429Y703405D01*
X395496Y703335D01*
X395566Y703268D01*
X395638Y703204D01*
X395712Y703143D01*
X395789Y703085D01*
X395868Y703030D01*
X395949Y702978D01*
X396032Y702929D01*
X396117Y702884D01*
X396204Y702842D01*
X396293Y702803D01*
X396382Y702768D01*
X396473Y702736D01*
X396566Y702708D01*
X396659Y702684D01*
X396753Y702663D01*
X396848Y702646D01*
X396943Y702633D01*
X397039Y702624D01*
X397136Y702618D01*
X397232Y702616D01*
X401324Y702616D01*
X401324Y712437D01*
X408501Y708345D02*
X418322Y708345D01*
X425708Y702616D02*
X425708Y717348D01*
X425708Y702616D02*
X432256Y702616D01*
X440661Y708345D02*
X444344Y708345D01*
X440661Y708346D02*
X440555Y708344D01*
X440449Y708338D01*
X440344Y708328D01*
X440239Y708315D01*
X440135Y708297D01*
X440031Y708276D01*
X439928Y708251D01*
X439826Y708222D01*
X439725Y708189D01*
X439626Y708153D01*
X439528Y708112D01*
X439432Y708069D01*
X439337Y708022D01*
X439244Y707971D01*
X439153Y707917D01*
X439064Y707859D01*
X438977Y707799D01*
X438892Y707735D01*
X438810Y707668D01*
X438731Y707598D01*
X438654Y707525D01*
X438580Y707450D01*
X438508Y707372D01*
X438440Y707291D01*
X438375Y707208D01*
X438312Y707122D01*
X438253Y707034D01*
X438198Y706944D01*
X438145Y706852D01*
X438096Y706758D01*
X438051Y706662D01*
X438009Y706565D01*
X437971Y706466D01*
X437936Y706366D01*
X437905Y706265D01*
X437878Y706163D01*
X437855Y706059D01*
X437836Y705955D01*
X437820Y705851D01*
X437808Y705745D01*
X437800Y705640D01*
X437796Y705534D01*
X437796Y705428D01*
X437800Y705322D01*
X437808Y705217D01*
X437820Y705111D01*
X437836Y705007D01*
X437855Y704903D01*
X437878Y704799D01*
X437905Y704697D01*
X437936Y704596D01*
X437971Y704496D01*
X438009Y704397D01*
X438051Y704300D01*
X438096Y704204D01*
X438145Y704110D01*
X438198Y704018D01*
X438253Y703928D01*
X438312Y703840D01*
X438375Y703754D01*
X438440Y703671D01*
X438508Y703590D01*
X438580Y703512D01*
X438654Y703437D01*
X438731Y703364D01*
X438810Y703294D01*
X438892Y703227D01*
X438977Y703163D01*
X439064Y703103D01*
X439153Y703045D01*
X439244Y702991D01*
X439337Y702940D01*
X439432Y702893D01*
X439528Y702850D01*
X439626Y702809D01*
X439725Y702773D01*
X439826Y702740D01*
X439928Y702711D01*
X440031Y702686D01*
X440135Y702665D01*
X440239Y702647D01*
X440344Y702634D01*
X440449Y702624D01*
X440555Y702618D01*
X440661Y702616D01*
X444344Y702616D01*
X444344Y709982D01*
X444342Y710078D01*
X444336Y710175D01*
X444327Y710271D01*
X444314Y710366D01*
X444297Y710461D01*
X444276Y710555D01*
X444252Y710648D01*
X444224Y710741D01*
X444192Y710832D01*
X444157Y710921D01*
X444118Y711010D01*
X444076Y711097D01*
X444031Y711182D01*
X443982Y711265D01*
X443930Y711346D01*
X443875Y711425D01*
X443817Y711502D01*
X443756Y711576D01*
X443692Y711648D01*
X443625Y711718D01*
X443555Y711785D01*
X443483Y711849D01*
X443409Y711910D01*
X443332Y711968D01*
X443253Y712023D01*
X443172Y712075D01*
X443089Y712124D01*
X443004Y712169D01*
X442917Y712211D01*
X442828Y712250D01*
X442739Y712285D01*
X442648Y712317D01*
X442555Y712345D01*
X442462Y712369D01*
X442368Y712390D01*
X442273Y712407D01*
X442178Y712420D01*
X442082Y712429D01*
X441985Y712435D01*
X441889Y712437D01*
X438615Y712437D01*
X450771Y697705D02*
X452408Y697705D01*
X457319Y712437D01*
X450771Y712437D02*
X454045Y702616D01*
X465615Y702616D02*
X469707Y702616D01*
X465615Y702616D02*
X465519Y702618D01*
X465422Y702624D01*
X465326Y702633D01*
X465231Y702646D01*
X465136Y702663D01*
X465042Y702684D01*
X464949Y702708D01*
X464856Y702736D01*
X464765Y702768D01*
X464676Y702803D01*
X464587Y702842D01*
X464500Y702884D01*
X464415Y702929D01*
X464332Y702978D01*
X464251Y703030D01*
X464172Y703085D01*
X464095Y703143D01*
X464021Y703204D01*
X463949Y703268D01*
X463879Y703335D01*
X463812Y703405D01*
X463748Y703477D01*
X463687Y703551D01*
X463629Y703628D01*
X463574Y703707D01*
X463522Y703788D01*
X463473Y703871D01*
X463428Y703956D01*
X463386Y704043D01*
X463347Y704132D01*
X463312Y704221D01*
X463280Y704312D01*
X463252Y704405D01*
X463228Y704498D01*
X463207Y704592D01*
X463190Y704687D01*
X463177Y704782D01*
X463168Y704878D01*
X463162Y704975D01*
X463160Y705071D01*
X463159Y705071D02*
X463159Y709164D01*
X463161Y709277D01*
X463167Y709390D01*
X463177Y709502D01*
X463190Y709615D01*
X463208Y709726D01*
X463229Y709837D01*
X463254Y709948D01*
X463283Y710057D01*
X463316Y710165D01*
X463352Y710272D01*
X463392Y710378D01*
X463436Y710482D01*
X463483Y710585D01*
X463534Y710686D01*
X463588Y710785D01*
X463646Y710882D01*
X463707Y710977D01*
X463771Y711070D01*
X463838Y711161D01*
X463909Y711249D01*
X463982Y711335D01*
X464059Y711418D01*
X464138Y711499D01*
X464220Y711577D01*
X464305Y711652D01*
X464392Y711724D01*
X464481Y711793D01*
X464573Y711858D01*
X464667Y711921D01*
X464763Y711980D01*
X464862Y712036D01*
X464962Y712089D01*
X465064Y712138D01*
X465167Y712183D01*
X465272Y712225D01*
X465378Y712263D01*
X465486Y712298D01*
X465595Y712329D01*
X465704Y712356D01*
X465815Y712379D01*
X465926Y712399D01*
X466038Y712414D01*
X466151Y712426D01*
X466264Y712434D01*
X466376Y712438D01*
X466490Y712438D01*
X466602Y712434D01*
X466715Y712426D01*
X466828Y712414D01*
X466940Y712399D01*
X467051Y712379D01*
X467162Y712356D01*
X467271Y712329D01*
X467380Y712298D01*
X467488Y712263D01*
X467594Y712225D01*
X467699Y712183D01*
X467802Y712138D01*
X467904Y712089D01*
X468004Y712036D01*
X468103Y711980D01*
X468199Y711921D01*
X468293Y711858D01*
X468385Y711793D01*
X468474Y711724D01*
X468561Y711652D01*
X468646Y711577D01*
X468728Y711499D01*
X468807Y711418D01*
X468884Y711335D01*
X468957Y711249D01*
X469028Y711161D01*
X469095Y711070D01*
X469159Y710977D01*
X469220Y710882D01*
X469278Y710785D01*
X469332Y710686D01*
X469383Y710585D01*
X469430Y710482D01*
X469474Y710378D01*
X469514Y710272D01*
X469550Y710165D01*
X469583Y710057D01*
X469612Y709948D01*
X469637Y709837D01*
X469658Y709726D01*
X469676Y709615D01*
X469689Y709502D01*
X469699Y709390D01*
X469705Y709277D01*
X469707Y709164D01*
X469707Y707527D01*
X463159Y707527D01*
X476643Y702616D02*
X476643Y712437D01*
X481553Y712437D01*
X481553Y710800D01*
X487677Y708345D02*
X491769Y706708D01*
X487677Y708345D02*
X487594Y708380D01*
X487512Y708419D01*
X487432Y708462D01*
X487354Y708507D01*
X487277Y708556D01*
X487203Y708609D01*
X487132Y708664D01*
X487062Y708723D01*
X486996Y708784D01*
X486932Y708848D01*
X486871Y708915D01*
X486812Y708984D01*
X486757Y709056D01*
X486705Y709130D01*
X486656Y709206D01*
X486610Y709284D01*
X486568Y709365D01*
X486529Y709446D01*
X486494Y709530D01*
X486462Y709615D01*
X486434Y709701D01*
X486409Y709788D01*
X486389Y709876D01*
X486372Y709965D01*
X486359Y710055D01*
X486350Y710145D01*
X486344Y710236D01*
X486343Y710326D01*
X486345Y710417D01*
X486352Y710507D01*
X486362Y710597D01*
X486376Y710687D01*
X486394Y710775D01*
X486415Y710863D01*
X486440Y710950D01*
X486469Y711036D01*
X486502Y711121D01*
X486538Y711204D01*
X486578Y711285D01*
X486621Y711365D01*
X486667Y711443D01*
X486717Y711518D01*
X486770Y711592D01*
X486826Y711663D01*
X486885Y711732D01*
X486947Y711798D01*
X487012Y711861D01*
X487079Y711922D01*
X487149Y711980D01*
X487221Y712034D01*
X487296Y712086D01*
X487373Y712134D01*
X487451Y712179D01*
X487532Y712221D01*
X487614Y712259D01*
X487698Y712293D01*
X487783Y712324D01*
X487869Y712352D01*
X487957Y712375D01*
X488045Y712395D01*
X488134Y712411D01*
X488224Y712423D01*
X488314Y712432D01*
X488405Y712436D01*
X488495Y712437D01*
X488718Y712431D01*
X488941Y712420D01*
X489164Y712403D01*
X489387Y712381D01*
X489608Y712354D01*
X489829Y712321D01*
X490050Y712283D01*
X490269Y712240D01*
X490487Y712192D01*
X490704Y712138D01*
X490920Y712079D01*
X491134Y712015D01*
X491346Y711946D01*
X491557Y711872D01*
X491766Y711792D01*
X491973Y711708D01*
X492178Y711619D01*
X491769Y706708D02*
X491852Y706673D01*
X491934Y706634D01*
X492014Y706591D01*
X492092Y706546D01*
X492169Y706497D01*
X492243Y706444D01*
X492314Y706389D01*
X492384Y706330D01*
X492450Y706269D01*
X492514Y706205D01*
X492575Y706138D01*
X492634Y706069D01*
X492689Y705997D01*
X492741Y705923D01*
X492790Y705847D01*
X492836Y705769D01*
X492878Y705688D01*
X492917Y705607D01*
X492952Y705523D01*
X492984Y705438D01*
X493012Y705352D01*
X493037Y705265D01*
X493057Y705177D01*
X493074Y705088D01*
X493087Y704998D01*
X493096Y704908D01*
X493102Y704817D01*
X493103Y704727D01*
X493101Y704636D01*
X493094Y704546D01*
X493084Y704456D01*
X493070Y704366D01*
X493052Y704278D01*
X493031Y704190D01*
X493006Y704103D01*
X492977Y704017D01*
X492944Y703932D01*
X492908Y703849D01*
X492868Y703768D01*
X492825Y703688D01*
X492779Y703610D01*
X492729Y703535D01*
X492676Y703461D01*
X492620Y703390D01*
X492561Y703321D01*
X492499Y703255D01*
X492434Y703192D01*
X492367Y703131D01*
X492297Y703073D01*
X492225Y703019D01*
X492150Y702967D01*
X492073Y702919D01*
X491995Y702874D01*
X491914Y702832D01*
X491832Y702794D01*
X491748Y702760D01*
X491663Y702729D01*
X491577Y702701D01*
X491489Y702678D01*
X491401Y702658D01*
X491312Y702642D01*
X491222Y702630D01*
X491132Y702621D01*
X491041Y702617D01*
X490951Y702616D01*
X490623Y702625D01*
X490295Y702641D01*
X489967Y702665D01*
X489641Y702697D01*
X489315Y702737D01*
X488990Y702784D01*
X488666Y702839D01*
X488344Y702901D01*
X488023Y702972D01*
X487704Y703049D01*
X487387Y703135D01*
X487072Y703227D01*
X486760Y703327D01*
X486449Y703435D01*
X499224Y703844D02*
X499224Y704662D01*
X500043Y704662D01*
X500043Y703844D01*
X499224Y703844D01*
X499224Y710391D02*
X499224Y711210D01*
X500043Y711210D01*
X500043Y710391D01*
X499224Y710391D01*
D17*
X368300Y663500D02*
X368300Y631750D01*
D11*
X248864Y702616D02*
X245590Y702616D01*
X245478Y702618D01*
X245367Y702624D01*
X245255Y702633D01*
X245144Y702646D01*
X245034Y702664D01*
X244924Y702684D01*
X244815Y702709D01*
X244707Y702737D01*
X244600Y702769D01*
X244494Y702805D01*
X244389Y702844D01*
X244286Y702887D01*
X244184Y702933D01*
X244084Y702983D01*
X243985Y703036D01*
X243889Y703093D01*
X243794Y703152D01*
X243702Y703215D01*
X243612Y703281D01*
X243524Y703350D01*
X243438Y703422D01*
X243355Y703497D01*
X243275Y703575D01*
X243197Y703655D01*
X243122Y703738D01*
X243050Y703824D01*
X242981Y703912D01*
X242915Y704002D01*
X242852Y704094D01*
X242793Y704189D01*
X242736Y704285D01*
X242683Y704384D01*
X242633Y704484D01*
X242587Y704586D01*
X242544Y704689D01*
X242505Y704794D01*
X242469Y704900D01*
X242437Y705007D01*
X242409Y705115D01*
X242384Y705224D01*
X242364Y705334D01*
X242346Y705444D01*
X242333Y705555D01*
X242324Y705667D01*
X242318Y705778D01*
X242316Y705890D01*
X242316Y714074D01*
X242318Y714188D01*
X242324Y714302D01*
X242334Y714416D01*
X242348Y714530D01*
X242366Y714643D01*
X242388Y714755D01*
X242413Y714866D01*
X242443Y714976D01*
X242476Y715086D01*
X242513Y715194D01*
X242554Y715300D01*
X242599Y715406D01*
X242647Y715509D01*
X242699Y715611D01*
X242755Y715711D01*
X242813Y715809D01*
X242876Y715905D01*
X242941Y715998D01*
X243010Y716090D01*
X243082Y716178D01*
X243157Y716265D01*
X243235Y716348D01*
X243316Y716429D01*
X243399Y716507D01*
X243486Y716582D01*
X243574Y716654D01*
X243666Y716723D01*
X243759Y716788D01*
X243855Y716850D01*
X243953Y716909D01*
X244053Y716965D01*
X244155Y717017D01*
X244258Y717065D01*
X244364Y717110D01*
X244470Y717151D01*
X244578Y717188D01*
X244688Y717221D01*
X244798Y717251D01*
X244909Y717276D01*
X245021Y717298D01*
X245134Y717316D01*
X245248Y717330D01*
X245362Y717340D01*
X245476Y717346D01*
X245590Y717348D01*
X248864Y717348D01*
X255077Y712437D02*
X255077Y705071D01*
X255079Y704975D01*
X255085Y704878D01*
X255094Y704782D01*
X255107Y704687D01*
X255124Y704592D01*
X255145Y704498D01*
X255169Y704405D01*
X255197Y704312D01*
X255229Y704221D01*
X255264Y704132D01*
X255303Y704043D01*
X255345Y703956D01*
X255390Y703871D01*
X255439Y703788D01*
X255491Y703707D01*
X255546Y703628D01*
X255604Y703551D01*
X255665Y703477D01*
X255729Y703405D01*
X255796Y703335D01*
X255866Y703268D01*
X255938Y703204D01*
X256012Y703143D01*
X256089Y703085D01*
X256168Y703030D01*
X256249Y702978D01*
X256332Y702929D01*
X256417Y702884D01*
X256504Y702842D01*
X256593Y702803D01*
X256682Y702768D01*
X256773Y702736D01*
X256866Y702708D01*
X256959Y702684D01*
X257053Y702663D01*
X257148Y702646D01*
X257243Y702633D01*
X257339Y702624D01*
X257436Y702618D01*
X257532Y702616D01*
X261624Y702616D01*
X261624Y712437D01*
X268347Y704662D02*
X268347Y703844D01*
X268347Y704662D02*
X269166Y704662D01*
X269166Y703844D01*
X268347Y703844D01*
X268347Y710391D02*
X268347Y711210D01*
X269166Y711210D01*
X269166Y710391D01*
X268347Y710391D01*
X13716Y685598D02*
X13716Y670866D01*
X13716Y685598D02*
X17808Y685598D01*
X17935Y685596D01*
X18062Y685590D01*
X18189Y685580D01*
X18316Y685566D01*
X18442Y685549D01*
X18567Y685527D01*
X18692Y685501D01*
X18816Y685472D01*
X18939Y685439D01*
X19060Y685402D01*
X19181Y685361D01*
X19300Y685316D01*
X19418Y685268D01*
X19534Y685216D01*
X19649Y685161D01*
X19761Y685102D01*
X19872Y685039D01*
X19981Y684973D01*
X20088Y684904D01*
X20193Y684831D01*
X20295Y684756D01*
X20395Y684677D01*
X20492Y684595D01*
X20587Y684510D01*
X20679Y684422D01*
X20768Y684331D01*
X20855Y684238D01*
X20938Y684142D01*
X21019Y684043D01*
X21096Y683942D01*
X21170Y683839D01*
X21241Y683733D01*
X21309Y683625D01*
X21373Y683515D01*
X21434Y683403D01*
X21491Y683290D01*
X21545Y683174D01*
X21595Y683057D01*
X21641Y682939D01*
X21684Y682819D01*
X21723Y682698D01*
X21758Y682575D01*
X21789Y682452D01*
X21817Y682328D01*
X21840Y682203D01*
X21860Y682077D01*
X21876Y681951D01*
X21888Y681824D01*
X21896Y681697D01*
X21900Y681570D01*
X21900Y681442D01*
X21896Y681315D01*
X21888Y681188D01*
X21876Y681061D01*
X21860Y680935D01*
X21840Y680809D01*
X21817Y680684D01*
X21789Y680560D01*
X21758Y680437D01*
X21723Y680314D01*
X21684Y680193D01*
X21641Y680073D01*
X21595Y679955D01*
X21545Y679838D01*
X21491Y679722D01*
X21434Y679609D01*
X21373Y679497D01*
X21309Y679387D01*
X21241Y679279D01*
X21170Y679173D01*
X21096Y679070D01*
X21019Y678969D01*
X20938Y678870D01*
X20855Y678774D01*
X20768Y678681D01*
X20679Y678590D01*
X20587Y678502D01*
X20492Y678417D01*
X20395Y678335D01*
X20295Y678256D01*
X20193Y678181D01*
X20088Y678108D01*
X19981Y678039D01*
X19872Y677973D01*
X19761Y677910D01*
X19649Y677851D01*
X19534Y677796D01*
X19418Y677744D01*
X19300Y677696D01*
X19181Y677651D01*
X19060Y677610D01*
X18939Y677573D01*
X18816Y677540D01*
X18692Y677511D01*
X18567Y677485D01*
X18442Y677463D01*
X18316Y677446D01*
X18189Y677432D01*
X18062Y677422D01*
X17935Y677416D01*
X17808Y677414D01*
X13716Y677414D01*
X28357Y670866D02*
X34905Y670866D01*
X28357Y670866D02*
X28357Y685598D01*
X34905Y685598D01*
X33268Y679050D02*
X28357Y679050D01*
X43810Y685598D02*
X43810Y670866D01*
X39718Y685598D02*
X47902Y685598D01*
X52925Y669229D02*
X59472Y669229D01*
X65981Y670866D02*
X65981Y685598D01*
X70073Y685598D01*
X70199Y685596D01*
X70325Y685590D01*
X70451Y685581D01*
X70576Y685567D01*
X70701Y685550D01*
X70825Y685528D01*
X70948Y685503D01*
X71071Y685474D01*
X71193Y685442D01*
X71314Y685405D01*
X71433Y685365D01*
X71551Y685322D01*
X71668Y685274D01*
X71783Y685223D01*
X71897Y685169D01*
X72009Y685111D01*
X72119Y685050D01*
X72227Y684985D01*
X72333Y684917D01*
X72437Y684846D01*
X72539Y684771D01*
X72638Y684694D01*
X72735Y684613D01*
X72830Y684530D01*
X72922Y684444D01*
X73011Y684355D01*
X73097Y684263D01*
X73180Y684168D01*
X73261Y684071D01*
X73338Y683972D01*
X73413Y683870D01*
X73484Y683766D01*
X73552Y683660D01*
X73617Y683552D01*
X73678Y683442D01*
X73736Y683330D01*
X73790Y683216D01*
X73841Y683101D01*
X73889Y682984D01*
X73932Y682866D01*
X73972Y682746D01*
X74009Y682626D01*
X74041Y682504D01*
X74070Y682381D01*
X74095Y682258D01*
X74117Y682134D01*
X74134Y682009D01*
X74148Y681884D01*
X74157Y681758D01*
X74163Y681632D01*
X74165Y681506D01*
X74165Y674958D01*
X74163Y674832D01*
X74157Y674706D01*
X74148Y674580D01*
X74134Y674455D01*
X74117Y674330D01*
X74095Y674206D01*
X74070Y674083D01*
X74041Y673960D01*
X74009Y673838D01*
X73972Y673718D01*
X73932Y673598D01*
X73889Y673480D01*
X73841Y673363D01*
X73790Y673248D01*
X73736Y673134D01*
X73678Y673022D01*
X73617Y672912D01*
X73552Y672804D01*
X73484Y672698D01*
X73413Y672594D01*
X73338Y672492D01*
X73261Y672393D01*
X73180Y672296D01*
X73097Y672201D01*
X73011Y672109D01*
X72922Y672020D01*
X72830Y671934D01*
X72735Y671851D01*
X72638Y671770D01*
X72539Y671693D01*
X72437Y671618D01*
X72333Y671547D01*
X72227Y671479D01*
X72119Y671414D01*
X72009Y671353D01*
X71897Y671295D01*
X71783Y671241D01*
X71668Y671190D01*
X71551Y671142D01*
X71433Y671099D01*
X71314Y671059D01*
X71193Y671022D01*
X71071Y670990D01*
X70948Y670961D01*
X70825Y670936D01*
X70701Y670914D01*
X70576Y670897D01*
X70451Y670883D01*
X70325Y670874D01*
X70199Y670868D01*
X70073Y670866D01*
X65981Y670866D01*
X80975Y670866D02*
X80975Y680687D01*
X80565Y684780D02*
X80565Y685598D01*
X81384Y685598D01*
X81384Y684780D01*
X80565Y684780D01*
X89890Y676595D02*
X93573Y676595D01*
X89890Y676596D02*
X89784Y676594D01*
X89678Y676588D01*
X89573Y676578D01*
X89468Y676565D01*
X89364Y676547D01*
X89260Y676526D01*
X89157Y676501D01*
X89055Y676472D01*
X88954Y676439D01*
X88855Y676403D01*
X88757Y676362D01*
X88661Y676319D01*
X88566Y676272D01*
X88473Y676221D01*
X88382Y676167D01*
X88293Y676109D01*
X88206Y676049D01*
X88121Y675985D01*
X88039Y675918D01*
X87960Y675848D01*
X87883Y675775D01*
X87809Y675700D01*
X87737Y675622D01*
X87669Y675541D01*
X87604Y675458D01*
X87541Y675372D01*
X87482Y675284D01*
X87427Y675194D01*
X87374Y675102D01*
X87325Y675008D01*
X87280Y674912D01*
X87238Y674815D01*
X87200Y674716D01*
X87165Y674616D01*
X87134Y674515D01*
X87107Y674413D01*
X87084Y674309D01*
X87065Y674205D01*
X87049Y674101D01*
X87037Y673995D01*
X87029Y673890D01*
X87025Y673784D01*
X87025Y673678D01*
X87029Y673572D01*
X87037Y673467D01*
X87049Y673361D01*
X87065Y673257D01*
X87084Y673153D01*
X87107Y673049D01*
X87134Y672947D01*
X87165Y672846D01*
X87200Y672746D01*
X87238Y672647D01*
X87280Y672550D01*
X87325Y672454D01*
X87374Y672360D01*
X87427Y672268D01*
X87482Y672178D01*
X87541Y672090D01*
X87604Y672004D01*
X87669Y671921D01*
X87737Y671840D01*
X87809Y671762D01*
X87883Y671687D01*
X87960Y671614D01*
X88039Y671544D01*
X88121Y671477D01*
X88206Y671413D01*
X88293Y671353D01*
X88382Y671295D01*
X88473Y671241D01*
X88566Y671190D01*
X88661Y671143D01*
X88757Y671100D01*
X88855Y671059D01*
X88954Y671023D01*
X89055Y670990D01*
X89157Y670961D01*
X89260Y670936D01*
X89364Y670915D01*
X89468Y670897D01*
X89573Y670884D01*
X89678Y670874D01*
X89784Y670868D01*
X89890Y670866D01*
X93573Y670866D01*
X93573Y678232D01*
X93572Y678232D02*
X93570Y678328D01*
X93564Y678425D01*
X93555Y678521D01*
X93542Y678616D01*
X93525Y678711D01*
X93504Y678805D01*
X93480Y678898D01*
X93452Y678991D01*
X93420Y679082D01*
X93385Y679171D01*
X93346Y679260D01*
X93304Y679347D01*
X93259Y679432D01*
X93210Y679515D01*
X93158Y679596D01*
X93103Y679675D01*
X93045Y679752D01*
X92984Y679826D01*
X92920Y679898D01*
X92853Y679968D01*
X92783Y680035D01*
X92711Y680099D01*
X92637Y680160D01*
X92560Y680218D01*
X92481Y680273D01*
X92400Y680325D01*
X92317Y680374D01*
X92232Y680419D01*
X92145Y680461D01*
X92056Y680500D01*
X91967Y680535D01*
X91876Y680567D01*
X91783Y680595D01*
X91690Y680619D01*
X91596Y680640D01*
X91501Y680657D01*
X91406Y680670D01*
X91310Y680679D01*
X91213Y680685D01*
X91117Y680687D01*
X87844Y680687D01*
X102860Y670866D02*
X106952Y670866D01*
X102860Y670866D02*
X102764Y670868D01*
X102667Y670874D01*
X102571Y670883D01*
X102476Y670896D01*
X102381Y670913D01*
X102287Y670934D01*
X102194Y670958D01*
X102101Y670986D01*
X102010Y671018D01*
X101921Y671053D01*
X101832Y671092D01*
X101745Y671134D01*
X101660Y671179D01*
X101577Y671228D01*
X101496Y671280D01*
X101417Y671335D01*
X101340Y671393D01*
X101266Y671454D01*
X101194Y671518D01*
X101124Y671585D01*
X101057Y671655D01*
X100993Y671727D01*
X100932Y671801D01*
X100874Y671878D01*
X100819Y671957D01*
X100767Y672038D01*
X100718Y672121D01*
X100673Y672206D01*
X100631Y672293D01*
X100592Y672382D01*
X100557Y672471D01*
X100525Y672562D01*
X100497Y672655D01*
X100473Y672748D01*
X100452Y672842D01*
X100435Y672937D01*
X100422Y673032D01*
X100413Y673128D01*
X100407Y673225D01*
X100405Y673321D01*
X100404Y673321D02*
X100404Y678232D01*
X100405Y678232D02*
X100407Y678328D01*
X100413Y678425D01*
X100422Y678521D01*
X100435Y678616D01*
X100452Y678711D01*
X100473Y678805D01*
X100497Y678898D01*
X100525Y678991D01*
X100557Y679082D01*
X100592Y679171D01*
X100631Y679260D01*
X100673Y679347D01*
X100718Y679432D01*
X100767Y679515D01*
X100819Y679596D01*
X100874Y679675D01*
X100932Y679752D01*
X100993Y679826D01*
X101057Y679898D01*
X101124Y679968D01*
X101194Y680035D01*
X101266Y680099D01*
X101340Y680160D01*
X101417Y680218D01*
X101496Y680273D01*
X101577Y680325D01*
X101660Y680374D01*
X101745Y680419D01*
X101832Y680461D01*
X101921Y680500D01*
X102010Y680535D01*
X102101Y680567D01*
X102194Y680595D01*
X102287Y680619D01*
X102381Y680640D01*
X102476Y680657D01*
X102571Y680670D01*
X102667Y680679D01*
X102764Y680685D01*
X102860Y680687D01*
X106952Y680687D01*
X106952Y668411D01*
X106950Y668312D01*
X106944Y668213D01*
X106934Y668115D01*
X106920Y668017D01*
X106902Y667920D01*
X106881Y667823D01*
X106855Y667728D01*
X106826Y667634D01*
X106792Y667540D01*
X106756Y667449D01*
X106715Y667359D01*
X106671Y667270D01*
X106623Y667184D01*
X106572Y667099D01*
X106517Y667016D01*
X106460Y666936D01*
X106399Y666858D01*
X106335Y666783D01*
X106268Y666710D01*
X106198Y666640D01*
X106125Y666573D01*
X106050Y666509D01*
X105972Y666448D01*
X105892Y666391D01*
X105809Y666336D01*
X105725Y666285D01*
X105638Y666237D01*
X105549Y666193D01*
X105459Y666152D01*
X105368Y666116D01*
X105274Y666082D01*
X105180Y666053D01*
X105085Y666027D01*
X104988Y666006D01*
X104891Y665988D01*
X104793Y665974D01*
X104695Y665964D01*
X104596Y665958D01*
X104497Y665956D01*
X104497Y665955D02*
X101223Y665955D01*
X113379Y669229D02*
X119926Y669229D01*
X126696Y670866D02*
X126696Y685598D01*
X134880Y685598D02*
X126696Y676595D01*
X129970Y679869D02*
X134880Y670866D01*
X141562Y679050D02*
X145654Y679050D01*
X145781Y679048D01*
X145908Y679042D01*
X146035Y679032D01*
X146162Y679018D01*
X146288Y679001D01*
X146413Y678979D01*
X146538Y678953D01*
X146662Y678924D01*
X146785Y678891D01*
X146906Y678854D01*
X147027Y678813D01*
X147146Y678768D01*
X147264Y678720D01*
X147380Y678668D01*
X147495Y678613D01*
X147607Y678554D01*
X147718Y678491D01*
X147827Y678425D01*
X147934Y678356D01*
X148039Y678283D01*
X148141Y678208D01*
X148241Y678129D01*
X148338Y678047D01*
X148433Y677962D01*
X148525Y677874D01*
X148614Y677783D01*
X148701Y677690D01*
X148784Y677594D01*
X148865Y677495D01*
X148942Y677394D01*
X149016Y677291D01*
X149087Y677185D01*
X149155Y677077D01*
X149219Y676967D01*
X149280Y676855D01*
X149337Y676742D01*
X149391Y676626D01*
X149441Y676509D01*
X149487Y676391D01*
X149530Y676271D01*
X149569Y676150D01*
X149604Y676027D01*
X149635Y675904D01*
X149663Y675780D01*
X149686Y675655D01*
X149706Y675529D01*
X149722Y675403D01*
X149734Y675276D01*
X149742Y675149D01*
X149746Y675022D01*
X149746Y674894D01*
X149742Y674767D01*
X149734Y674640D01*
X149722Y674513D01*
X149706Y674387D01*
X149686Y674261D01*
X149663Y674136D01*
X149635Y674012D01*
X149604Y673889D01*
X149569Y673766D01*
X149530Y673645D01*
X149487Y673525D01*
X149441Y673407D01*
X149391Y673290D01*
X149337Y673174D01*
X149280Y673061D01*
X149219Y672949D01*
X149155Y672839D01*
X149087Y672731D01*
X149016Y672625D01*
X148942Y672522D01*
X148865Y672421D01*
X148784Y672322D01*
X148701Y672226D01*
X148614Y672133D01*
X148525Y672042D01*
X148433Y671954D01*
X148338Y671869D01*
X148241Y671787D01*
X148141Y671708D01*
X148039Y671633D01*
X147934Y671560D01*
X147827Y671491D01*
X147718Y671425D01*
X147607Y671362D01*
X147495Y671303D01*
X147380Y671248D01*
X147264Y671196D01*
X147146Y671148D01*
X147027Y671103D01*
X146906Y671062D01*
X146785Y671025D01*
X146662Y670992D01*
X146538Y670963D01*
X146413Y670937D01*
X146288Y670915D01*
X146162Y670898D01*
X146035Y670884D01*
X145908Y670874D01*
X145781Y670868D01*
X145654Y670866D01*
X141562Y670866D01*
X141562Y685598D01*
X145654Y685598D01*
X145767Y685596D01*
X145880Y685590D01*
X145992Y685580D01*
X146105Y685567D01*
X146216Y685549D01*
X146327Y685528D01*
X146438Y685503D01*
X146547Y685474D01*
X146655Y685441D01*
X146762Y685405D01*
X146868Y685365D01*
X146972Y685321D01*
X147075Y685274D01*
X147176Y685223D01*
X147275Y685169D01*
X147372Y685111D01*
X147467Y685050D01*
X147560Y684986D01*
X147651Y684919D01*
X147739Y684848D01*
X147825Y684775D01*
X147908Y684698D01*
X147989Y684619D01*
X148067Y684537D01*
X148142Y684452D01*
X148214Y684365D01*
X148283Y684276D01*
X148348Y684184D01*
X148411Y684090D01*
X148470Y683994D01*
X148526Y683895D01*
X148579Y683795D01*
X148628Y683693D01*
X148673Y683590D01*
X148715Y683485D01*
X148753Y683379D01*
X148788Y683271D01*
X148819Y683162D01*
X148846Y683053D01*
X148869Y682942D01*
X148889Y682831D01*
X148904Y682719D01*
X148916Y682606D01*
X148924Y682493D01*
X148928Y682381D01*
X148928Y682267D01*
X148924Y682155D01*
X148916Y682042D01*
X148904Y681929D01*
X148889Y681817D01*
X148869Y681706D01*
X148846Y681595D01*
X148819Y681486D01*
X148788Y681377D01*
X148753Y681269D01*
X148715Y681163D01*
X148673Y681058D01*
X148628Y680955D01*
X148579Y680853D01*
X148526Y680753D01*
X148470Y680654D01*
X148411Y680558D01*
X148348Y680464D01*
X148283Y680372D01*
X148214Y680283D01*
X148142Y680196D01*
X148067Y680111D01*
X147989Y680029D01*
X147908Y679950D01*
X147825Y679873D01*
X147739Y679800D01*
X147651Y679729D01*
X147560Y679662D01*
X147467Y679598D01*
X147372Y679537D01*
X147275Y679479D01*
X147176Y679425D01*
X147075Y679374D01*
X146972Y679327D01*
X146868Y679283D01*
X146762Y679243D01*
X146655Y679207D01*
X146547Y679174D01*
X146438Y679145D01*
X146327Y679120D01*
X146216Y679099D01*
X146105Y679081D01*
X145992Y679068D01*
X145880Y679058D01*
X145767Y679052D01*
X145654Y679050D01*
X14944Y651802D02*
X14820Y651540D01*
X14702Y651275D01*
X14591Y651007D01*
X14486Y650737D01*
X14388Y650464D01*
X14296Y650190D01*
X14211Y649913D01*
X14132Y649634D01*
X14060Y649353D01*
X13995Y649070D01*
X13937Y648787D01*
X13885Y648501D01*
X13840Y648215D01*
X13802Y647928D01*
X13771Y647640D01*
X13747Y647351D01*
X13730Y647061D01*
X13719Y646772D01*
X13716Y646482D01*
X14944Y651802D02*
X14980Y651903D01*
X15020Y652002D01*
X15064Y652100D01*
X15111Y652197D01*
X15162Y652292D01*
X15215Y652384D01*
X15273Y652475D01*
X15333Y652564D01*
X15396Y652651D01*
X15463Y652735D01*
X15532Y652817D01*
X15604Y652896D01*
X15679Y652973D01*
X15757Y653047D01*
X15837Y653119D01*
X15920Y653187D01*
X16005Y653252D01*
X16092Y653315D01*
X16181Y653374D01*
X16273Y653430D01*
X16366Y653483D01*
X16462Y653532D01*
X16559Y653578D01*
X16657Y653621D01*
X16757Y653660D01*
X16858Y653695D01*
X16961Y653727D01*
X17064Y653755D01*
X17169Y653780D01*
X17274Y653801D01*
X17380Y653818D01*
X17487Y653831D01*
X17594Y653840D01*
X17701Y653846D01*
X17808Y653848D01*
X17915Y653846D01*
X18022Y653840D01*
X18129Y653831D01*
X18236Y653818D01*
X18342Y653801D01*
X18447Y653780D01*
X18552Y653755D01*
X18655Y653727D01*
X18758Y653695D01*
X18859Y653660D01*
X18959Y653621D01*
X19057Y653578D01*
X19154Y653532D01*
X19250Y653483D01*
X19343Y653430D01*
X19435Y653374D01*
X19524Y653315D01*
X19611Y653252D01*
X19696Y653187D01*
X19779Y653119D01*
X19859Y653047D01*
X19937Y652973D01*
X20012Y652896D01*
X20084Y652817D01*
X20153Y652735D01*
X20220Y652651D01*
X20283Y652564D01*
X20343Y652475D01*
X20401Y652384D01*
X20454Y652292D01*
X20505Y652197D01*
X20552Y652100D01*
X20596Y652002D01*
X20636Y651903D01*
X20672Y651802D01*
X20796Y651540D01*
X20914Y651275D01*
X21025Y651007D01*
X21130Y650737D01*
X21228Y650465D01*
X21320Y650190D01*
X21405Y649913D01*
X21484Y649634D01*
X21556Y649353D01*
X21621Y649070D01*
X21679Y648787D01*
X21731Y648501D01*
X21776Y648215D01*
X21814Y647928D01*
X21845Y647640D01*
X21869Y647351D01*
X21886Y647061D01*
X21897Y646772D01*
X21900Y646482D01*
X13716Y646482D02*
X13719Y646192D01*
X13730Y645903D01*
X13747Y645613D01*
X13771Y645324D01*
X13802Y645036D01*
X13840Y644749D01*
X13885Y644463D01*
X13937Y644178D01*
X13995Y643894D01*
X14060Y643611D01*
X14132Y643330D01*
X14211Y643052D01*
X14296Y642775D01*
X14388Y642500D01*
X14486Y642227D01*
X14591Y641957D01*
X14702Y641689D01*
X14820Y641424D01*
X14944Y641162D01*
X14980Y641061D01*
X15020Y640962D01*
X15064Y640863D01*
X15111Y640767D01*
X15162Y640672D01*
X15215Y640580D01*
X15273Y640489D01*
X15333Y640400D01*
X15396Y640313D01*
X15463Y640229D01*
X15532Y640147D01*
X15604Y640068D01*
X15679Y639991D01*
X15757Y639917D01*
X15837Y639845D01*
X15920Y639777D01*
X16005Y639712D01*
X16092Y639649D01*
X16181Y639590D01*
X16273Y639534D01*
X16366Y639481D01*
X16462Y639432D01*
X16559Y639386D01*
X16657Y639343D01*
X16757Y639304D01*
X16858Y639269D01*
X16961Y639237D01*
X17064Y639209D01*
X17169Y639184D01*
X17274Y639163D01*
X17380Y639146D01*
X17487Y639133D01*
X17594Y639124D01*
X17701Y639118D01*
X17808Y639116D01*
X20672Y641162D02*
X20796Y641424D01*
X20914Y641689D01*
X21025Y641957D01*
X21130Y642227D01*
X21228Y642500D01*
X21320Y642774D01*
X21405Y643051D01*
X21484Y643330D01*
X21556Y643611D01*
X21621Y643894D01*
X21679Y644177D01*
X21731Y644463D01*
X21776Y644749D01*
X21814Y645036D01*
X21845Y645324D01*
X21869Y645613D01*
X21886Y645903D01*
X21897Y646192D01*
X21900Y646482D01*
X20672Y641162D02*
X20636Y641061D01*
X20596Y640962D01*
X20552Y640864D01*
X20505Y640767D01*
X20454Y640672D01*
X20401Y640580D01*
X20343Y640489D01*
X20283Y640400D01*
X20220Y640313D01*
X20153Y640229D01*
X20084Y640147D01*
X20012Y640068D01*
X19937Y639991D01*
X19859Y639917D01*
X19779Y639845D01*
X19696Y639777D01*
X19611Y639712D01*
X19524Y639649D01*
X19435Y639590D01*
X19343Y639534D01*
X19250Y639481D01*
X19154Y639432D01*
X19057Y639386D01*
X18959Y639343D01*
X18859Y639304D01*
X18758Y639269D01*
X18655Y639237D01*
X18552Y639209D01*
X18447Y639184D01*
X18342Y639163D01*
X18236Y639146D01*
X18129Y639133D01*
X18022Y639124D01*
X17915Y639118D01*
X17808Y639116D01*
X14534Y642390D02*
X21082Y650574D01*
X28582Y642390D02*
X31856Y653848D01*
X28582Y642390D02*
X36766Y642390D01*
X34311Y645664D02*
X34311Y639116D01*
X42671Y639116D02*
X42671Y639934D01*
X43489Y639934D01*
X43489Y639116D01*
X42671Y639116D01*
X49394Y646482D02*
X49397Y646772D01*
X49408Y647061D01*
X49425Y647351D01*
X49449Y647640D01*
X49480Y647928D01*
X49518Y648215D01*
X49563Y648501D01*
X49615Y648787D01*
X49673Y649070D01*
X49738Y649353D01*
X49810Y649634D01*
X49889Y649913D01*
X49974Y650190D01*
X50066Y650464D01*
X50164Y650737D01*
X50269Y651007D01*
X50380Y651275D01*
X50498Y651540D01*
X50622Y651802D01*
X50658Y651903D01*
X50698Y652002D01*
X50742Y652100D01*
X50789Y652197D01*
X50840Y652292D01*
X50893Y652384D01*
X50951Y652475D01*
X51011Y652564D01*
X51074Y652651D01*
X51141Y652735D01*
X51210Y652817D01*
X51282Y652896D01*
X51357Y652973D01*
X51435Y653047D01*
X51515Y653119D01*
X51598Y653187D01*
X51683Y653252D01*
X51770Y653315D01*
X51859Y653374D01*
X51951Y653430D01*
X52044Y653483D01*
X52140Y653532D01*
X52237Y653578D01*
X52335Y653621D01*
X52435Y653660D01*
X52536Y653695D01*
X52639Y653727D01*
X52742Y653755D01*
X52847Y653780D01*
X52952Y653801D01*
X53058Y653818D01*
X53165Y653831D01*
X53272Y653840D01*
X53379Y653846D01*
X53486Y653848D01*
X53593Y653846D01*
X53700Y653840D01*
X53807Y653831D01*
X53914Y653818D01*
X54020Y653801D01*
X54125Y653780D01*
X54230Y653755D01*
X54333Y653727D01*
X54436Y653695D01*
X54537Y653660D01*
X54637Y653621D01*
X54735Y653578D01*
X54832Y653532D01*
X54928Y653483D01*
X55021Y653430D01*
X55113Y653374D01*
X55202Y653315D01*
X55289Y653252D01*
X55374Y653187D01*
X55457Y653119D01*
X55537Y653047D01*
X55615Y652973D01*
X55690Y652896D01*
X55762Y652817D01*
X55831Y652735D01*
X55898Y652651D01*
X55961Y652564D01*
X56021Y652475D01*
X56079Y652384D01*
X56132Y652292D01*
X56183Y652197D01*
X56230Y652100D01*
X56274Y652002D01*
X56314Y651903D01*
X56350Y651802D01*
X56474Y651540D01*
X56592Y651275D01*
X56703Y651007D01*
X56808Y650737D01*
X56906Y650465D01*
X56998Y650190D01*
X57083Y649913D01*
X57162Y649634D01*
X57234Y649353D01*
X57299Y649070D01*
X57357Y648787D01*
X57409Y648501D01*
X57454Y648215D01*
X57492Y647928D01*
X57523Y647640D01*
X57547Y647351D01*
X57564Y647061D01*
X57575Y646772D01*
X57578Y646482D01*
X49394Y646482D02*
X49397Y646192D01*
X49408Y645903D01*
X49425Y645613D01*
X49449Y645324D01*
X49480Y645036D01*
X49518Y644749D01*
X49563Y644463D01*
X49615Y644178D01*
X49673Y643894D01*
X49738Y643611D01*
X49810Y643330D01*
X49889Y643052D01*
X49974Y642775D01*
X50066Y642500D01*
X50164Y642227D01*
X50269Y641957D01*
X50380Y641689D01*
X50498Y641424D01*
X50622Y641162D01*
X50658Y641061D01*
X50698Y640962D01*
X50742Y640863D01*
X50789Y640767D01*
X50840Y640672D01*
X50893Y640580D01*
X50951Y640489D01*
X51011Y640400D01*
X51074Y640313D01*
X51141Y640229D01*
X51210Y640147D01*
X51282Y640068D01*
X51357Y639991D01*
X51435Y639917D01*
X51515Y639845D01*
X51598Y639777D01*
X51683Y639712D01*
X51770Y639649D01*
X51859Y639590D01*
X51951Y639534D01*
X52044Y639481D01*
X52140Y639432D01*
X52237Y639386D01*
X52335Y639343D01*
X52435Y639304D01*
X52536Y639269D01*
X52639Y639237D01*
X52742Y639209D01*
X52847Y639184D01*
X52952Y639163D01*
X53058Y639146D01*
X53165Y639133D01*
X53272Y639124D01*
X53379Y639118D01*
X53486Y639116D01*
X56350Y641162D02*
X56474Y641424D01*
X56592Y641689D01*
X56703Y641957D01*
X56808Y642227D01*
X56906Y642500D01*
X56998Y642774D01*
X57083Y643051D01*
X57162Y643330D01*
X57234Y643611D01*
X57299Y643894D01*
X57357Y644177D01*
X57409Y644463D01*
X57454Y644749D01*
X57492Y645036D01*
X57523Y645324D01*
X57547Y645613D01*
X57564Y645903D01*
X57575Y646192D01*
X57578Y646482D01*
X56350Y641162D02*
X56314Y641061D01*
X56274Y640962D01*
X56230Y640864D01*
X56183Y640767D01*
X56132Y640672D01*
X56079Y640580D01*
X56021Y640489D01*
X55961Y640400D01*
X55898Y640313D01*
X55831Y640229D01*
X55762Y640147D01*
X55690Y640068D01*
X55615Y639991D01*
X55537Y639917D01*
X55457Y639845D01*
X55374Y639777D01*
X55289Y639712D01*
X55202Y639649D01*
X55113Y639590D01*
X55021Y639534D01*
X54928Y639481D01*
X54832Y639432D01*
X54735Y639386D01*
X54637Y639343D01*
X54537Y639304D01*
X54436Y639269D01*
X54333Y639237D01*
X54230Y639209D01*
X54125Y639184D01*
X54020Y639163D01*
X53914Y639146D01*
X53807Y639133D01*
X53700Y639124D01*
X53593Y639118D01*
X53486Y639116D01*
X50212Y642390D02*
X56760Y650574D01*
X64260Y650574D02*
X68352Y653848D01*
X68352Y639116D01*
X64260Y639116D02*
X72444Y639116D01*
X78349Y639116D02*
X78349Y639934D01*
X79167Y639934D01*
X79167Y639116D01*
X78349Y639116D01*
X89573Y653848D02*
X89694Y653846D01*
X89814Y653840D01*
X89934Y653830D01*
X90054Y653816D01*
X90173Y653799D01*
X90292Y653777D01*
X90409Y653752D01*
X90526Y653723D01*
X90642Y653689D01*
X90757Y653653D01*
X90870Y653612D01*
X90982Y653568D01*
X91093Y653520D01*
X91202Y653468D01*
X91309Y653413D01*
X91415Y653355D01*
X91518Y653293D01*
X91619Y653227D01*
X91718Y653159D01*
X91815Y653087D01*
X91909Y653012D01*
X92001Y652934D01*
X92091Y652853D01*
X92177Y652769D01*
X92261Y652683D01*
X92342Y652593D01*
X92420Y652501D01*
X92495Y652407D01*
X92567Y652310D01*
X92635Y652211D01*
X92701Y652110D01*
X92763Y652007D01*
X92821Y651901D01*
X92876Y651794D01*
X92928Y651685D01*
X92976Y651574D01*
X93020Y651462D01*
X93061Y651349D01*
X93097Y651234D01*
X93131Y651118D01*
X93160Y651001D01*
X93185Y650884D01*
X93207Y650765D01*
X93224Y650646D01*
X93238Y650526D01*
X93248Y650406D01*
X93254Y650286D01*
X93256Y650165D01*
X89573Y653848D02*
X89438Y653846D01*
X89303Y653840D01*
X89168Y653831D01*
X89033Y653817D01*
X88899Y653800D01*
X88765Y653779D01*
X88633Y653754D01*
X88500Y653725D01*
X88369Y653692D01*
X88239Y653656D01*
X88110Y653616D01*
X87982Y653572D01*
X87855Y653525D01*
X87730Y653474D01*
X87606Y653420D01*
X87484Y653362D01*
X87363Y653300D01*
X87245Y653235D01*
X87128Y653167D01*
X87013Y653096D01*
X86900Y653021D01*
X86790Y652943D01*
X86682Y652862D01*
X86576Y652778D01*
X86472Y652691D01*
X86371Y652600D01*
X86273Y652508D01*
X86178Y652412D01*
X86085Y652313D01*
X85995Y652212D01*
X85908Y652109D01*
X85824Y652003D01*
X85743Y651895D01*
X85665Y651784D01*
X85590Y651671D01*
X85519Y651556D01*
X85451Y651440D01*
X85386Y651321D01*
X85325Y651200D01*
X85267Y651078D01*
X85213Y650954D01*
X85162Y650829D01*
X85115Y650702D01*
X85071Y650574D01*
X92028Y647300D02*
X92116Y647387D01*
X92201Y647476D01*
X92284Y647567D01*
X92363Y647661D01*
X92440Y647758D01*
X92513Y647857D01*
X92583Y647958D01*
X92650Y648062D01*
X92714Y648167D01*
X92775Y648274D01*
X92832Y648383D01*
X92886Y648494D01*
X92936Y648607D01*
X92983Y648721D01*
X93026Y648836D01*
X93066Y648953D01*
X93102Y649071D01*
X93134Y649189D01*
X93162Y649309D01*
X93187Y649430D01*
X93208Y649551D01*
X93225Y649673D01*
X93239Y649796D01*
X93248Y649919D01*
X93254Y650042D01*
X93256Y650165D01*
X92028Y647300D02*
X85072Y639116D01*
X93256Y639116D01*
X99938Y646482D02*
X99941Y646772D01*
X99952Y647061D01*
X99969Y647351D01*
X99993Y647640D01*
X100024Y647928D01*
X100062Y648215D01*
X100107Y648501D01*
X100159Y648787D01*
X100217Y649070D01*
X100282Y649353D01*
X100354Y649634D01*
X100433Y649913D01*
X100518Y650190D01*
X100610Y650464D01*
X100708Y650737D01*
X100813Y651007D01*
X100924Y651275D01*
X101042Y651540D01*
X101166Y651802D01*
X101165Y651802D02*
X101201Y651903D01*
X101241Y652002D01*
X101285Y652100D01*
X101332Y652197D01*
X101383Y652292D01*
X101436Y652384D01*
X101494Y652475D01*
X101554Y652564D01*
X101617Y652651D01*
X101684Y652735D01*
X101753Y652817D01*
X101825Y652896D01*
X101900Y652973D01*
X101978Y653047D01*
X102058Y653119D01*
X102141Y653187D01*
X102226Y653252D01*
X102313Y653315D01*
X102402Y653374D01*
X102494Y653430D01*
X102587Y653483D01*
X102683Y653532D01*
X102780Y653578D01*
X102878Y653621D01*
X102978Y653660D01*
X103079Y653695D01*
X103182Y653727D01*
X103285Y653755D01*
X103390Y653780D01*
X103495Y653801D01*
X103601Y653818D01*
X103708Y653831D01*
X103815Y653840D01*
X103922Y653846D01*
X104029Y653848D01*
X104136Y653846D01*
X104243Y653840D01*
X104350Y653831D01*
X104457Y653818D01*
X104563Y653801D01*
X104668Y653780D01*
X104773Y653755D01*
X104876Y653727D01*
X104979Y653695D01*
X105080Y653660D01*
X105180Y653621D01*
X105278Y653578D01*
X105375Y653532D01*
X105471Y653483D01*
X105564Y653430D01*
X105656Y653374D01*
X105745Y653315D01*
X105832Y653252D01*
X105917Y653187D01*
X106000Y653119D01*
X106080Y653047D01*
X106158Y652973D01*
X106233Y652896D01*
X106305Y652817D01*
X106374Y652735D01*
X106441Y652651D01*
X106504Y652564D01*
X106564Y652475D01*
X106622Y652384D01*
X106675Y652292D01*
X106726Y652197D01*
X106773Y652100D01*
X106817Y652002D01*
X106857Y651903D01*
X106893Y651802D01*
X106894Y651802D02*
X107018Y651540D01*
X107136Y651275D01*
X107247Y651007D01*
X107352Y650737D01*
X107450Y650465D01*
X107542Y650190D01*
X107627Y649913D01*
X107706Y649634D01*
X107778Y649353D01*
X107843Y649070D01*
X107901Y648787D01*
X107953Y648501D01*
X107998Y648215D01*
X108036Y647928D01*
X108067Y647640D01*
X108091Y647351D01*
X108108Y647061D01*
X108119Y646772D01*
X108122Y646482D01*
X99938Y646482D02*
X99941Y646192D01*
X99952Y645903D01*
X99969Y645613D01*
X99993Y645324D01*
X100024Y645036D01*
X100062Y644749D01*
X100107Y644463D01*
X100159Y644178D01*
X100217Y643894D01*
X100282Y643611D01*
X100354Y643330D01*
X100433Y643052D01*
X100518Y642775D01*
X100610Y642500D01*
X100708Y642227D01*
X100813Y641957D01*
X100924Y641689D01*
X101042Y641424D01*
X101166Y641162D01*
X101165Y641162D02*
X101201Y641061D01*
X101241Y640962D01*
X101285Y640863D01*
X101332Y640767D01*
X101383Y640672D01*
X101436Y640580D01*
X101494Y640489D01*
X101554Y640400D01*
X101617Y640313D01*
X101684Y640229D01*
X101753Y640147D01*
X101825Y640068D01*
X101900Y639991D01*
X101978Y639917D01*
X102058Y639845D01*
X102141Y639777D01*
X102226Y639712D01*
X102313Y639649D01*
X102402Y639590D01*
X102494Y639534D01*
X102587Y639481D01*
X102683Y639432D01*
X102780Y639386D01*
X102878Y639343D01*
X102978Y639304D01*
X103079Y639269D01*
X103182Y639237D01*
X103285Y639209D01*
X103390Y639184D01*
X103495Y639163D01*
X103601Y639146D01*
X103708Y639133D01*
X103815Y639124D01*
X103922Y639118D01*
X104029Y639116D01*
X106893Y641162D02*
X107017Y641424D01*
X107135Y641689D01*
X107246Y641957D01*
X107351Y642227D01*
X107449Y642500D01*
X107541Y642774D01*
X107626Y643051D01*
X107705Y643330D01*
X107777Y643611D01*
X107842Y643894D01*
X107900Y644177D01*
X107952Y644463D01*
X107997Y644749D01*
X108035Y645036D01*
X108066Y645324D01*
X108090Y645613D01*
X108107Y645903D01*
X108118Y646192D01*
X108121Y646482D01*
X106893Y641162D02*
X106857Y641061D01*
X106817Y640962D01*
X106773Y640864D01*
X106726Y640767D01*
X106675Y640672D01*
X106622Y640580D01*
X106564Y640489D01*
X106504Y640400D01*
X106441Y640313D01*
X106374Y640229D01*
X106305Y640147D01*
X106233Y640068D01*
X106158Y639991D01*
X106080Y639917D01*
X106000Y639845D01*
X105917Y639777D01*
X105832Y639712D01*
X105745Y639649D01*
X105656Y639590D01*
X105564Y639534D01*
X105471Y639481D01*
X105375Y639432D01*
X105278Y639386D01*
X105180Y639343D01*
X105080Y639304D01*
X104979Y639269D01*
X104876Y639237D01*
X104773Y639209D01*
X104668Y639184D01*
X104563Y639163D01*
X104457Y639146D01*
X104350Y639133D01*
X104243Y639124D01*
X104136Y639118D01*
X104029Y639116D01*
X100756Y642390D02*
X107303Y650574D01*
X119304Y653848D02*
X119425Y653846D01*
X119545Y653840D01*
X119665Y653830D01*
X119785Y653816D01*
X119904Y653799D01*
X120023Y653777D01*
X120140Y653752D01*
X120257Y653723D01*
X120373Y653689D01*
X120488Y653653D01*
X120601Y653612D01*
X120713Y653568D01*
X120824Y653520D01*
X120933Y653468D01*
X121040Y653413D01*
X121146Y653355D01*
X121249Y653293D01*
X121350Y653227D01*
X121449Y653159D01*
X121546Y653087D01*
X121640Y653012D01*
X121732Y652934D01*
X121822Y652853D01*
X121908Y652769D01*
X121992Y652683D01*
X122073Y652593D01*
X122151Y652501D01*
X122226Y652407D01*
X122298Y652310D01*
X122366Y652211D01*
X122432Y652110D01*
X122494Y652007D01*
X122552Y651901D01*
X122607Y651794D01*
X122659Y651685D01*
X122707Y651574D01*
X122751Y651462D01*
X122792Y651349D01*
X122828Y651234D01*
X122862Y651118D01*
X122891Y651001D01*
X122916Y650884D01*
X122938Y650765D01*
X122955Y650646D01*
X122969Y650526D01*
X122979Y650406D01*
X122985Y650286D01*
X122987Y650165D01*
X119304Y653848D02*
X119169Y653846D01*
X119034Y653840D01*
X118899Y653831D01*
X118764Y653817D01*
X118630Y653800D01*
X118496Y653779D01*
X118364Y653754D01*
X118231Y653725D01*
X118100Y653692D01*
X117970Y653656D01*
X117841Y653616D01*
X117713Y653572D01*
X117586Y653525D01*
X117461Y653474D01*
X117337Y653420D01*
X117215Y653362D01*
X117094Y653300D01*
X116976Y653235D01*
X116859Y653167D01*
X116744Y653096D01*
X116631Y653021D01*
X116521Y652943D01*
X116413Y652862D01*
X116307Y652778D01*
X116203Y652691D01*
X116102Y652600D01*
X116004Y652508D01*
X115909Y652412D01*
X115816Y652313D01*
X115726Y652212D01*
X115639Y652109D01*
X115555Y652003D01*
X115474Y651895D01*
X115396Y651784D01*
X115321Y651671D01*
X115250Y651556D01*
X115182Y651440D01*
X115117Y651321D01*
X115056Y651200D01*
X114998Y651078D01*
X114944Y650954D01*
X114893Y650829D01*
X114846Y650702D01*
X114802Y650574D01*
X121760Y647300D02*
X121848Y647387D01*
X121933Y647476D01*
X122016Y647567D01*
X122095Y647661D01*
X122172Y647758D01*
X122245Y647857D01*
X122315Y647958D01*
X122382Y648062D01*
X122446Y648167D01*
X122507Y648274D01*
X122564Y648383D01*
X122618Y648494D01*
X122668Y648607D01*
X122715Y648721D01*
X122758Y648836D01*
X122798Y648953D01*
X122834Y649071D01*
X122866Y649189D01*
X122894Y649309D01*
X122919Y649430D01*
X122940Y649551D01*
X122957Y649673D01*
X122971Y649796D01*
X122980Y649919D01*
X122986Y650042D01*
X122988Y650165D01*
X121760Y647300D02*
X114803Y639116D01*
X122987Y639116D01*
X129669Y639116D02*
X133761Y639116D01*
X133888Y639118D01*
X134015Y639124D01*
X134142Y639134D01*
X134269Y639148D01*
X134395Y639165D01*
X134520Y639187D01*
X134645Y639213D01*
X134769Y639242D01*
X134892Y639275D01*
X135013Y639312D01*
X135134Y639353D01*
X135253Y639398D01*
X135371Y639446D01*
X135487Y639498D01*
X135602Y639553D01*
X135714Y639612D01*
X135825Y639675D01*
X135934Y639741D01*
X136041Y639810D01*
X136146Y639883D01*
X136248Y639958D01*
X136348Y640037D01*
X136445Y640119D01*
X136540Y640204D01*
X136632Y640292D01*
X136721Y640383D01*
X136808Y640476D01*
X136891Y640572D01*
X136972Y640671D01*
X137049Y640772D01*
X137123Y640875D01*
X137194Y640981D01*
X137262Y641089D01*
X137326Y641199D01*
X137387Y641311D01*
X137444Y641424D01*
X137498Y641540D01*
X137548Y641657D01*
X137594Y641775D01*
X137637Y641895D01*
X137676Y642016D01*
X137711Y642139D01*
X137742Y642262D01*
X137770Y642386D01*
X137793Y642511D01*
X137813Y642637D01*
X137829Y642763D01*
X137841Y642890D01*
X137849Y643017D01*
X137853Y643144D01*
X137853Y643272D01*
X137849Y643399D01*
X137841Y643526D01*
X137829Y643653D01*
X137813Y643779D01*
X137793Y643905D01*
X137770Y644030D01*
X137742Y644154D01*
X137711Y644277D01*
X137676Y644400D01*
X137637Y644521D01*
X137594Y644641D01*
X137548Y644759D01*
X137498Y644876D01*
X137444Y644992D01*
X137387Y645105D01*
X137326Y645217D01*
X137262Y645327D01*
X137194Y645435D01*
X137123Y645541D01*
X137049Y645644D01*
X136972Y645745D01*
X136891Y645844D01*
X136808Y645940D01*
X136721Y646033D01*
X136632Y646124D01*
X136540Y646212D01*
X136445Y646297D01*
X136348Y646379D01*
X136248Y646458D01*
X136146Y646533D01*
X136041Y646606D01*
X135934Y646675D01*
X135825Y646741D01*
X135714Y646804D01*
X135602Y646863D01*
X135487Y646918D01*
X135371Y646970D01*
X135253Y647018D01*
X135134Y647063D01*
X135013Y647104D01*
X134892Y647141D01*
X134769Y647174D01*
X134645Y647203D01*
X134520Y647229D01*
X134395Y647251D01*
X134269Y647268D01*
X134142Y647282D01*
X134015Y647292D01*
X133888Y647298D01*
X133761Y647300D01*
X134579Y653848D02*
X129669Y653848D01*
X134579Y653848D02*
X134692Y653846D01*
X134805Y653840D01*
X134917Y653830D01*
X135030Y653817D01*
X135141Y653799D01*
X135252Y653778D01*
X135363Y653753D01*
X135472Y653724D01*
X135580Y653691D01*
X135687Y653655D01*
X135793Y653615D01*
X135897Y653571D01*
X136000Y653524D01*
X136101Y653473D01*
X136200Y653419D01*
X136297Y653361D01*
X136392Y653300D01*
X136485Y653236D01*
X136576Y653169D01*
X136664Y653098D01*
X136750Y653025D01*
X136833Y652948D01*
X136914Y652869D01*
X136992Y652787D01*
X137067Y652702D01*
X137139Y652615D01*
X137208Y652526D01*
X137273Y652434D01*
X137336Y652340D01*
X137395Y652244D01*
X137451Y652145D01*
X137504Y652045D01*
X137553Y651943D01*
X137598Y651840D01*
X137640Y651735D01*
X137678Y651629D01*
X137713Y651521D01*
X137744Y651412D01*
X137771Y651303D01*
X137794Y651192D01*
X137814Y651081D01*
X137829Y650969D01*
X137841Y650856D01*
X137849Y650743D01*
X137853Y650631D01*
X137853Y650517D01*
X137849Y650405D01*
X137841Y650292D01*
X137829Y650179D01*
X137814Y650067D01*
X137794Y649956D01*
X137771Y649845D01*
X137744Y649736D01*
X137713Y649627D01*
X137678Y649519D01*
X137640Y649413D01*
X137598Y649308D01*
X137553Y649205D01*
X137504Y649103D01*
X137451Y649003D01*
X137395Y648904D01*
X137336Y648808D01*
X137273Y648714D01*
X137208Y648622D01*
X137139Y648533D01*
X137067Y648446D01*
X136992Y648361D01*
X136914Y648279D01*
X136833Y648200D01*
X136750Y648123D01*
X136664Y648050D01*
X136576Y647979D01*
X136485Y647912D01*
X136392Y647848D01*
X136297Y647787D01*
X136200Y647729D01*
X136101Y647675D01*
X136000Y647624D01*
X135897Y647577D01*
X135793Y647533D01*
X135687Y647493D01*
X135580Y647457D01*
X135472Y647424D01*
X135363Y647395D01*
X135252Y647370D01*
X135141Y647349D01*
X135030Y647331D01*
X134917Y647318D01*
X134805Y647308D01*
X134692Y647302D01*
X134579Y647300D01*
X131306Y647300D01*
X152463Y650574D02*
X156555Y653848D01*
X156555Y639116D01*
X152463Y639116D02*
X160647Y639116D01*
X167329Y643208D02*
X167331Y643335D01*
X167337Y643462D01*
X167347Y643589D01*
X167361Y643716D01*
X167378Y643842D01*
X167400Y643967D01*
X167426Y644092D01*
X167455Y644216D01*
X167488Y644339D01*
X167525Y644460D01*
X167566Y644581D01*
X167611Y644700D01*
X167659Y644818D01*
X167711Y644934D01*
X167766Y645049D01*
X167825Y645161D01*
X167888Y645272D01*
X167954Y645381D01*
X168023Y645488D01*
X168096Y645593D01*
X168171Y645695D01*
X168250Y645795D01*
X168332Y645892D01*
X168417Y645987D01*
X168505Y646079D01*
X168596Y646168D01*
X168689Y646255D01*
X168785Y646338D01*
X168884Y646419D01*
X168985Y646496D01*
X169088Y646570D01*
X169194Y646641D01*
X169302Y646709D01*
X169412Y646773D01*
X169524Y646834D01*
X169637Y646891D01*
X169753Y646945D01*
X169870Y646995D01*
X169988Y647041D01*
X170108Y647084D01*
X170229Y647123D01*
X170352Y647158D01*
X170475Y647189D01*
X170599Y647217D01*
X170724Y647240D01*
X170850Y647260D01*
X170976Y647276D01*
X171103Y647288D01*
X171230Y647296D01*
X171357Y647300D01*
X171485Y647300D01*
X171612Y647296D01*
X171739Y647288D01*
X171866Y647276D01*
X171992Y647260D01*
X172118Y647240D01*
X172243Y647217D01*
X172367Y647189D01*
X172490Y647158D01*
X172613Y647123D01*
X172734Y647084D01*
X172854Y647041D01*
X172972Y646995D01*
X173089Y646945D01*
X173205Y646891D01*
X173318Y646834D01*
X173430Y646773D01*
X173540Y646709D01*
X173648Y646641D01*
X173754Y646570D01*
X173857Y646496D01*
X173958Y646419D01*
X174057Y646338D01*
X174153Y646255D01*
X174246Y646168D01*
X174337Y646079D01*
X174425Y645987D01*
X174510Y645892D01*
X174592Y645795D01*
X174671Y645695D01*
X174746Y645593D01*
X174819Y645488D01*
X174888Y645381D01*
X174954Y645272D01*
X175017Y645161D01*
X175076Y645049D01*
X175131Y644934D01*
X175183Y644818D01*
X175231Y644700D01*
X175276Y644581D01*
X175317Y644460D01*
X175354Y644339D01*
X175387Y644216D01*
X175416Y644092D01*
X175442Y643967D01*
X175464Y643842D01*
X175481Y643716D01*
X175495Y643589D01*
X175505Y643462D01*
X175511Y643335D01*
X175513Y643208D01*
X175511Y643081D01*
X175505Y642954D01*
X175495Y642827D01*
X175481Y642700D01*
X175464Y642574D01*
X175442Y642449D01*
X175416Y642324D01*
X175387Y642200D01*
X175354Y642077D01*
X175317Y641956D01*
X175276Y641835D01*
X175231Y641716D01*
X175183Y641598D01*
X175131Y641482D01*
X175076Y641367D01*
X175017Y641255D01*
X174954Y641144D01*
X174888Y641035D01*
X174819Y640928D01*
X174746Y640823D01*
X174671Y640721D01*
X174592Y640621D01*
X174510Y640524D01*
X174425Y640429D01*
X174337Y640337D01*
X174246Y640248D01*
X174153Y640161D01*
X174057Y640078D01*
X173958Y639997D01*
X173857Y639920D01*
X173754Y639846D01*
X173648Y639775D01*
X173540Y639707D01*
X173430Y639643D01*
X173318Y639582D01*
X173205Y639525D01*
X173089Y639471D01*
X172972Y639421D01*
X172854Y639375D01*
X172734Y639332D01*
X172613Y639293D01*
X172490Y639258D01*
X172367Y639227D01*
X172243Y639199D01*
X172118Y639176D01*
X171992Y639156D01*
X171866Y639140D01*
X171739Y639128D01*
X171612Y639120D01*
X171485Y639116D01*
X171357Y639116D01*
X171230Y639120D01*
X171103Y639128D01*
X170976Y639140D01*
X170850Y639156D01*
X170724Y639176D01*
X170599Y639199D01*
X170475Y639227D01*
X170352Y639258D01*
X170229Y639293D01*
X170108Y639332D01*
X169988Y639375D01*
X169870Y639421D01*
X169753Y639471D01*
X169637Y639525D01*
X169524Y639582D01*
X169412Y639643D01*
X169302Y639707D01*
X169194Y639775D01*
X169088Y639846D01*
X168985Y639920D01*
X168884Y639997D01*
X168785Y640078D01*
X168689Y640161D01*
X168596Y640248D01*
X168505Y640337D01*
X168417Y640429D01*
X168332Y640524D01*
X168250Y640621D01*
X168171Y640721D01*
X168096Y640823D01*
X168023Y640928D01*
X167954Y641035D01*
X167888Y641144D01*
X167825Y641255D01*
X167766Y641367D01*
X167711Y641482D01*
X167659Y641598D01*
X167611Y641716D01*
X167566Y641835D01*
X167525Y641956D01*
X167488Y642077D01*
X167455Y642200D01*
X167426Y642324D01*
X167400Y642449D01*
X167378Y642574D01*
X167361Y642700D01*
X167347Y642827D01*
X167337Y642954D01*
X167331Y643081D01*
X167329Y643208D01*
X168147Y650574D02*
X168149Y650687D01*
X168155Y650800D01*
X168165Y650912D01*
X168178Y651025D01*
X168196Y651136D01*
X168217Y651247D01*
X168242Y651358D01*
X168271Y651467D01*
X168304Y651575D01*
X168340Y651682D01*
X168380Y651788D01*
X168424Y651892D01*
X168471Y651995D01*
X168522Y652096D01*
X168576Y652195D01*
X168634Y652292D01*
X168695Y652387D01*
X168759Y652480D01*
X168826Y652571D01*
X168897Y652659D01*
X168970Y652745D01*
X169047Y652828D01*
X169126Y652909D01*
X169208Y652987D01*
X169293Y653062D01*
X169380Y653134D01*
X169469Y653203D01*
X169561Y653268D01*
X169655Y653331D01*
X169751Y653390D01*
X169850Y653446D01*
X169950Y653499D01*
X170052Y653548D01*
X170155Y653593D01*
X170260Y653635D01*
X170366Y653673D01*
X170474Y653708D01*
X170583Y653739D01*
X170692Y653766D01*
X170803Y653789D01*
X170914Y653809D01*
X171026Y653824D01*
X171139Y653836D01*
X171252Y653844D01*
X171364Y653848D01*
X171478Y653848D01*
X171590Y653844D01*
X171703Y653836D01*
X171816Y653824D01*
X171928Y653809D01*
X172039Y653789D01*
X172150Y653766D01*
X172259Y653739D01*
X172368Y653708D01*
X172476Y653673D01*
X172582Y653635D01*
X172687Y653593D01*
X172790Y653548D01*
X172892Y653499D01*
X172992Y653446D01*
X173091Y653390D01*
X173187Y653331D01*
X173281Y653268D01*
X173373Y653203D01*
X173462Y653134D01*
X173549Y653062D01*
X173634Y652987D01*
X173716Y652909D01*
X173795Y652828D01*
X173872Y652745D01*
X173945Y652659D01*
X174016Y652571D01*
X174083Y652480D01*
X174147Y652387D01*
X174208Y652292D01*
X174266Y652195D01*
X174320Y652096D01*
X174371Y651995D01*
X174418Y651892D01*
X174462Y651788D01*
X174502Y651682D01*
X174538Y651575D01*
X174571Y651467D01*
X174600Y651358D01*
X174625Y651247D01*
X174646Y651136D01*
X174664Y651025D01*
X174677Y650912D01*
X174687Y650800D01*
X174693Y650687D01*
X174695Y650574D01*
X174693Y650461D01*
X174687Y650348D01*
X174677Y650236D01*
X174664Y650123D01*
X174646Y650012D01*
X174625Y649901D01*
X174600Y649790D01*
X174571Y649681D01*
X174538Y649573D01*
X174502Y649466D01*
X174462Y649360D01*
X174418Y649256D01*
X174371Y649153D01*
X174320Y649052D01*
X174266Y648953D01*
X174208Y648856D01*
X174147Y648761D01*
X174083Y648668D01*
X174016Y648577D01*
X173945Y648489D01*
X173872Y648403D01*
X173795Y648320D01*
X173716Y648239D01*
X173634Y648161D01*
X173549Y648086D01*
X173462Y648014D01*
X173373Y647945D01*
X173281Y647880D01*
X173187Y647817D01*
X173091Y647758D01*
X172992Y647702D01*
X172892Y647649D01*
X172790Y647600D01*
X172687Y647555D01*
X172582Y647513D01*
X172476Y647475D01*
X172368Y647440D01*
X172259Y647409D01*
X172150Y647382D01*
X172039Y647359D01*
X171928Y647339D01*
X171816Y647324D01*
X171703Y647312D01*
X171590Y647304D01*
X171478Y647300D01*
X171364Y647300D01*
X171252Y647304D01*
X171139Y647312D01*
X171026Y647324D01*
X170914Y647339D01*
X170803Y647359D01*
X170692Y647382D01*
X170583Y647409D01*
X170474Y647440D01*
X170366Y647475D01*
X170260Y647513D01*
X170155Y647555D01*
X170052Y647600D01*
X169950Y647649D01*
X169850Y647702D01*
X169751Y647758D01*
X169655Y647817D01*
X169561Y647880D01*
X169469Y647945D01*
X169380Y648014D01*
X169293Y648086D01*
X169208Y648161D01*
X169126Y648239D01*
X169047Y648320D01*
X168970Y648403D01*
X168897Y648489D01*
X168826Y648577D01*
X168759Y648668D01*
X168695Y648761D01*
X168634Y648856D01*
X168576Y648953D01*
X168522Y649052D01*
X168471Y649153D01*
X168424Y649256D01*
X168380Y649360D01*
X168340Y649466D01*
X168304Y649573D01*
X168271Y649681D01*
X168242Y649790D01*
X168217Y649901D01*
X168196Y650012D01*
X168178Y650123D01*
X168165Y650236D01*
X168155Y650348D01*
X168149Y650461D01*
X168147Y650574D01*
X181913Y641162D02*
X181913Y640344D01*
X181913Y641162D02*
X182732Y641162D01*
X182732Y640344D01*
X181913Y640344D01*
X181913Y646891D02*
X181913Y647710D01*
X182732Y647710D01*
X182732Y646891D01*
X181913Y646891D01*
X189132Y650574D02*
X193224Y653848D01*
X193224Y639116D01*
X189132Y639116D02*
X197316Y639116D01*
X203998Y646482D02*
X204001Y646772D01*
X204012Y647061D01*
X204029Y647351D01*
X204053Y647640D01*
X204084Y647928D01*
X204122Y648215D01*
X204167Y648501D01*
X204219Y648787D01*
X204277Y649070D01*
X204342Y649353D01*
X204414Y649634D01*
X204493Y649913D01*
X204578Y650190D01*
X204670Y650464D01*
X204768Y650737D01*
X204873Y651007D01*
X204984Y651275D01*
X205102Y651540D01*
X205226Y651802D01*
X205262Y651903D01*
X205302Y652002D01*
X205346Y652100D01*
X205393Y652197D01*
X205444Y652292D01*
X205497Y652384D01*
X205555Y652475D01*
X205615Y652564D01*
X205678Y652651D01*
X205745Y652735D01*
X205814Y652817D01*
X205886Y652896D01*
X205961Y652973D01*
X206039Y653047D01*
X206119Y653119D01*
X206202Y653187D01*
X206287Y653252D01*
X206374Y653315D01*
X206463Y653374D01*
X206555Y653430D01*
X206648Y653483D01*
X206744Y653532D01*
X206841Y653578D01*
X206939Y653621D01*
X207039Y653660D01*
X207140Y653695D01*
X207243Y653727D01*
X207346Y653755D01*
X207451Y653780D01*
X207556Y653801D01*
X207662Y653818D01*
X207769Y653831D01*
X207876Y653840D01*
X207983Y653846D01*
X208090Y653848D01*
X208197Y653846D01*
X208304Y653840D01*
X208411Y653831D01*
X208518Y653818D01*
X208624Y653801D01*
X208729Y653780D01*
X208834Y653755D01*
X208937Y653727D01*
X209040Y653695D01*
X209141Y653660D01*
X209241Y653621D01*
X209339Y653578D01*
X209436Y653532D01*
X209532Y653483D01*
X209625Y653430D01*
X209717Y653374D01*
X209806Y653315D01*
X209893Y653252D01*
X209978Y653187D01*
X210061Y653119D01*
X210141Y653047D01*
X210219Y652973D01*
X210294Y652896D01*
X210366Y652817D01*
X210435Y652735D01*
X210502Y652651D01*
X210565Y652564D01*
X210625Y652475D01*
X210683Y652384D01*
X210736Y652292D01*
X210787Y652197D01*
X210834Y652100D01*
X210878Y652002D01*
X210918Y651903D01*
X210954Y651802D01*
X211078Y651540D01*
X211196Y651275D01*
X211307Y651007D01*
X211412Y650737D01*
X211510Y650465D01*
X211602Y650190D01*
X211687Y649913D01*
X211766Y649634D01*
X211838Y649353D01*
X211903Y649070D01*
X211961Y648787D01*
X212013Y648501D01*
X212058Y648215D01*
X212096Y647928D01*
X212127Y647640D01*
X212151Y647351D01*
X212168Y647061D01*
X212179Y646772D01*
X212182Y646482D01*
X203998Y646482D02*
X204001Y646192D01*
X204012Y645903D01*
X204029Y645613D01*
X204053Y645324D01*
X204084Y645036D01*
X204122Y644749D01*
X204167Y644463D01*
X204219Y644178D01*
X204277Y643894D01*
X204342Y643611D01*
X204414Y643330D01*
X204493Y643052D01*
X204578Y642775D01*
X204670Y642500D01*
X204768Y642227D01*
X204873Y641957D01*
X204984Y641689D01*
X205102Y641424D01*
X205226Y641162D01*
X205262Y641061D01*
X205302Y640962D01*
X205346Y640863D01*
X205393Y640767D01*
X205444Y640672D01*
X205497Y640580D01*
X205555Y640489D01*
X205615Y640400D01*
X205678Y640313D01*
X205745Y640229D01*
X205814Y640147D01*
X205886Y640068D01*
X205961Y639991D01*
X206039Y639917D01*
X206119Y639845D01*
X206202Y639777D01*
X206287Y639712D01*
X206374Y639649D01*
X206463Y639590D01*
X206555Y639534D01*
X206648Y639481D01*
X206744Y639432D01*
X206841Y639386D01*
X206939Y639343D01*
X207039Y639304D01*
X207140Y639269D01*
X207243Y639237D01*
X207346Y639209D01*
X207451Y639184D01*
X207556Y639163D01*
X207662Y639146D01*
X207769Y639133D01*
X207876Y639124D01*
X207983Y639118D01*
X208090Y639116D01*
X210954Y641162D02*
X211078Y641424D01*
X211196Y641689D01*
X211307Y641957D01*
X211412Y642227D01*
X211510Y642500D01*
X211602Y642774D01*
X211687Y643051D01*
X211766Y643330D01*
X211838Y643611D01*
X211903Y643894D01*
X211961Y644177D01*
X212013Y644463D01*
X212058Y644749D01*
X212096Y645036D01*
X212127Y645324D01*
X212151Y645613D01*
X212168Y645903D01*
X212179Y646192D01*
X212182Y646482D01*
X210954Y641162D02*
X210918Y641061D01*
X210878Y640962D01*
X210834Y640864D01*
X210787Y640767D01*
X210736Y640672D01*
X210683Y640580D01*
X210625Y640489D01*
X210565Y640400D01*
X210502Y640313D01*
X210435Y640229D01*
X210366Y640147D01*
X210294Y640068D01*
X210219Y639991D01*
X210141Y639917D01*
X210061Y639845D01*
X209978Y639777D01*
X209893Y639712D01*
X209806Y639649D01*
X209717Y639590D01*
X209625Y639534D01*
X209532Y639481D01*
X209436Y639432D01*
X209339Y639386D01*
X209241Y639343D01*
X209141Y639304D01*
X209040Y639269D01*
X208937Y639237D01*
X208834Y639209D01*
X208729Y639184D01*
X208624Y639163D01*
X208518Y639146D01*
X208411Y639133D01*
X208304Y639124D01*
X208197Y639118D01*
X208090Y639116D01*
X204816Y642390D02*
X211363Y650574D01*
D18*
X85725Y152400D03*
X85725Y76200D03*
X112713Y152400D03*
X112713Y76200D03*
X85725Y203200D03*
X85725Y279400D03*
X112713Y203200D03*
X112713Y279400D03*
M02*
